<!-- Generated by IcoMoon.io -->
<svg version="1.1" xmlns="http://www.w3.org/2000/svg" width="300" height="300" viewBox="0 0 1024 1024">
<title></title>
<g id="icomoon-ignore">
</g>
<path fill="#FFF" d="M479.222 379.228c-0.85-0.041-1.741 0.963-1.7 1.894s1.044 1.853 2.048 1.853c0.809 0 1.782-1.004 1.812-1.853 0.041-0.85-1.116-1.894-2.161-1.894z"></path>
<path fill="#FFF" d="M992.256 7.588h-928.348v60.447h15.043c-0.154 1.423-0.256 2.857-0.256 4.321 0 20.664 16.148 37.519 36.506 38.738-0.635 10.025-0.983 20.142-0.983 30.341 0 200.192 123.658 369.316 293.345 423.977v9.974h-5.888c-11.858 0-21.473 9.615-21.473 21.473v30.464c0 11.858 9.615 21.473 21.473 21.473h5.888v133.366c0 39.619-32.123 71.741-71.741 71.741h-213.238v161.905h807.444v-161.925h-213.248c-39.619 0-71.741-32.123-71.741-71.741v-133.356h5.14c11.858 0 21.473-9.615 21.473-21.473v-30.464c0-11.858-9.615-21.473-21.473-21.473h-5.14v-10.22c169.288-54.917 292.588-223.826 292.588-423.731 0-10.353-0.358-20.613-1.014-30.792 2.068 0.338 4.188 0.563 6.359 0.563 21.463 0 38.861-17.398 38.861-38.861 0-1.464-0.092-2.898-0.256-4.321h10.68v-60.426zM602.726 165.325c1.71 0.41 3.42 0.737 5.14 1.137 2.939 0.737 5.868 1.628 8.806 2.447 2.447 0.737 3.174 1.874 2.857 4.403-0.082 0.573-0.246 1.065-0.41 1.546-2.365 5.54-6.195 10.189-9.779 15.575-1.71-3.584-2.529-6.851-3.174-10.107-0.328-1.874-0.328-1.874-2.284-2.12-4.977-0.655-10.025-1.3-15.411-1.956 0.492-0.655 0.819-1.065 1.137-1.382 3.42-2.939 6.932-5.786 10.189-8.724 0.891-0.737 1.792-1.065 2.929-0.819zM550.881 152.525c0.164-1.055 0.41-2.12 0.573-3.103 1.956-0.492 42.957 2.693 49.644 3.748 0.164 2.529 0.41 5.059 0.41 7.66 0 0.328-0.573 0.983-1.065 1.137-0.983 0.41-2.038 0.41-3.103 0.737-3.584 1.055-6.277 3.256-8.643 6.113-2.038 2.447-3.584 5.14-4.813 8.069-1.628 3.912-3.666 5.294-8.315 5.868-0.492-2.857-1.055-5.704-1.382-8.561-0.246-2.529-1.055-4.895-2.611-6.932-1.792-2.284-3.584-4.567-5.622-6.605-2.611-2.693-5.704-4.567-9.533-5.059-1.464-0.164-2.857-0.655-4.239-0.983-1.055-0.297-1.464-0.942-1.3-2.089zM535.726 178.852c6.605-4.567 13.21-9.134 19.804-13.691 1.382-0.983 2.693-2.038 4.321-3.256 0.819 0.573 1.792 1.065 2.611 1.71 4.239 3.748 6.932 8.315 7.905 13.855 0.41 2.12-0.246 3.912-1.71 5.458-2.939 3.103-5.868 6.195-8.806 9.38-4.076 4.485-8.151 8.888-12.227 13.373-0.41 0.41-0.819 0.819-1.464 1.382-0.328-0.573-0.655-1.065-0.819-1.464-3.42-7.496-6.769-15.002-10.189-22.497-0.082-0.328-0.246-0.737-0.41-1.065-0.737-1.874-0.655-2.038 0.983-3.185zM525.455 179.343c-0.328 2.365-9.779 26.737-11.489 29.43-1.382-0.983-20.541-23.89-22.661-27.064 1.874-6.932 8.151-14.674 14.592-17.93 0.819 0.655 1.874 1.219 2.939 1.956 5.458 4.403 10.926 8.888 16.384 13.292 0.072 0.072 0.154 0.236 0.236 0.317zM455.916 158.966c1.464-3.103 3.021-6.195 4.485-9.298 0.492-1.055 1.137-1.464 2.284-1.382 4.403 0.328 8.724 0.573 13.046 0.819 8.479 0.573 16.876 0.983 25.354 1.546 3.256 0.246 6.523 0.573 9.779 0.819 0.737 3.338 0.328 4.567-2.611 5.294-9.697 2.529-14.838 9.779-18.995 18.176-0.492 0.983-0.901 1.956-1.3 2.939 0 0.164-0.164 0.246-0.573 0.328-10.68-6.031-21.197-12.063-31.795-18.094 0.164-0.41 0.164-0.819 0.328-1.147zM456.243 166.062c0.655-0.328 1.3-0.737 2.12-0.246 3.912 2.202 7.905 4.239 12.227 6.523-0.983 0.573-1.628 0.901-2.284 1.219-3.42 1.628-6.851 3.338-10.353 4.895-3.502 1.546-5.294 3.83-4.813 7.823 0.164 1.464 0 2.939 0 4.649-0.41-0.328-0.737-0.573-0.983-0.819-3.502-3.748-7.014-7.578-10.516-11.418-0.328-0.246-0.573-0.573-0.819-0.819-2.284-2.529-2.038-3.666 1.065-5.294 4.813-2.191 9.544-4.311 14.356-6.513zM433.828 287.519c-0.41 1.956-1.382 3.584-3.021 4.731-8.724 6.195-17.449 12.39-26.163 18.586-0.164 0.082-0.328 0.164-0.655 0.246 0.164-0.655 0.246-1.219 0.41-1.792 7.178-21.443 14.346-42.875 21.524-64.317 0.328-0.983 0.573-2.038 0.819-3.021-2.693-1.792-4.321-1.382-5.622 1.219-1.055 2.12-1.956 4.239-2.939 6.441-8.479 19.405-16.876 38.799-25.354 58.204-0.573 1.464-1.137 2.857-1.874 4.485-1.382-0.082-2.857-0.082-4.239-0.246-8.397-1.137-16.794-2.447-25.19-3.666-0.082-0.082-0.246-0.164-0.492-0.246-0.164-1.3 0.655-2.284 1.219-3.256 5.212-9.052 10.516-18.094 15.811-27.146 8.069-13.773 16.056-27.556 24.044-41.411 0.573-0.901 0.901-1.874 1.3-2.857-1.71-0.573-2.202 0.492-2.857 1.3-4.485 5.704-8.97 11.489-13.373 17.203-12.882 16.63-25.682 33.26-38.554 49.889-0.082 0.082-0.164 0.246-0.246 0.328-1.464 1.956-1.546 1.956-3.666 0.655-7.987-5.059-15.974-10.189-24.207-15.411 0.573-0.573 1.065-1.219 1.628-1.792 10.68-11.172 21.443-22.333 32.123-33.423 11.090-11.489 22.252-22.989 33.341-34.478 0.41-0.492 0.819-0.983 1.3-1.546-0.492-0.655-0.983-1.3-1.546-2.12-13.609 10.844-27.064 21.688-40.602 32.358-13.609 10.68-26.737 21.924-40.52 32.205-9.615-8.233-18.995-16.22-28.611-24.371 1.219-1.382 2.693-2.038 4.076-2.775 5.376-2.857 10.844-5.622 16.22-8.561 24.781-13.292 49.48-26.655 74.26-39.946 2.529-1.382 5.14-2.611 7.66-4.076 2.038-1.219 2.12-1.792 1.792-4.403-0.737 0.246-1.464 0.492-2.12 0.737-37.663 14.674-75.244 29.43-112.906 44.104-1.055 0.41-2.12 0.737-3.174 1.219-2.038 0.983-3.748 0.492-5.294-1.137-0.737-0.737-1.464-1.464-2.202-2.12-8.233-7.414-16.548-14.838-24.781-22.17-0.41-0.328-0.983-0.655-1.874-1.219 1.546-0.492 2.447-0.819 3.256-1.065 3.748-1.219 7.66-2.038 11.336-3.502 2.693-1.055 5.54-1.628 8.315-2.447 1.065-0.328 2.12-0.819 3.174-1.055 2.447-0.573 4.895-0.983 7.332-1.628 3.256-0.819 6.441-1.792 9.697-2.611 2.038-0.492 4.157-0.983 6.195-1.464 0.328-0.082 0.573-0.082 0.901-0.164 5.622-1.628 11.254-3.256 16.957-4.813 6.195-1.71 12.39-3.256 18.586-4.977 15.084-4.157 30.167-8.397 45.24-12.554 6.687-1.874 13.373-3.666 20.050-5.54 0.655-0.246 1.382-0.328 1.956-0.737 0.492-0.328 0.901-0.983 1.382-1.464-0.082-0.246-0.164-0.41-0.246-0.573-0.737 0.082-1.382 0.082-2.12 0.246-29.757 5.458-59.505 11.008-89.262 16.466-23.962 4.403-47.933 8.888-71.895 13.292-0.41 0.082-0.819 0.164-1.137 0.328-2.693 0.901-4.649-0.164-6.441-2.12-3.994-4.239-7.987-8.479-11.981-12.636-3.666-3.83-7.414-7.66-11.172-11.489-0.328-0.41-0.655-0.819-1.219-1.546 66.028-5.704 131.82-10.926 197.519-16.794 0.573-1.546 0.983-2.857 1.464-4.321-0.492 0-0.983 0-1.464 0-10.844 0.492-21.688 1.055-32.522 1.546-8.233 0.41-16.384 0.737-24.535 1.137-11.899 0.573-23.808 1.137-35.707 1.71-6.851 0.328-13.773 0.655-20.623 0.983-13.455 0.573-26.982 1.219-40.52 1.874-11.336 0.492-22.579 0.983-33.915 1.464-5.059 0.246-10.025 0.492-15.084 0.901-3.42 0.246-5.54-1.3-7.496-4.567-3.103-5.059-6.932-9.615-11.336-13.691-1.219-1.137-2.038-2.775-3.103-4.076-1.71-2.12-3.502-4.239-5.212-6.359-0.328-0.41-0.573-0.819-0.901-1.219 0.164-0.246 0.164-0.328 0.246-0.573 1.792-0.082 3.584-0.328 5.376-0.328 16.22-0.246 32.44-0.41 48.589-0.573 14.019-0.164 27.965-0.328 41.984-0.492 7.414-0.082 14.838-0.246 22.252-0.328 14.1-0.246 28.283-0.41 42.394-0.655 7.26-0.164 14.51-0.246 21.77-0.328 13.855-0.164 27.802-0.41 41.574-0.573 7.66-0.164 15.247-0.164 22.907-0.41 12.063-0.41 24.125-0.328 36.198-0.655 0.901 0 1.792 0 2.857 0v12.227c-4.649 1.628-8.97 3.994-12.964 6.769-1.464 1.055-2.775 2.365-3.994 3.748-3.42 3.83-6.769 7.66-10.025 11.653-1.3 1.546-2.284 3.338-3.338 5.14-0.573 0.983-0.983 2.038-1.464 3.103-4.321 8.888-3.83 17.848-0.41 26.819 0.983 2.447 2.529 4.731 4.239 6.769 5.704 7.014 13.128 10.762 22.252 11.090 4.076 0.164 8.069-0.328 12.063-0.819 8.888-1.055 17.121-4.403 25.354-7.496 5.294-1.956 14.1-6.031 19.405-7.987l2.447 3.174c3.338 3.502 15.493 15.329 15.974 17.285 0.164 0.901 0 1.792-0.41 2.857-9.216 23.398-18.34 46.797-27.474 70.185-0.328 0.737-0.655 1.464-1.055 2.447-0.655-0.41-1.137-0.655-1.628-0.983-6.605-4.076-13.21-8.233-19.804-12.39-3.502-2.202-3.666-2.693-1.3-6.277 4.649-7.014 9.37-13.937 14.1-20.951 3.666-5.376 7.26-10.844 10.844-16.22 0.983-1.464 1.792-2.939 2.529-4.403 0.328-0.573 0.492-1.137 0.655-1.792 0.164-0.819 0.082-1.71-0.41-2.447-1.874-2.775-5.786 0-6.031 2.611 0 0.164-0.082 0.41 0 0.655 0.655 3.021-0.573 5.458-2.284 7.823-2.365 3.338-4.485 6.851-6.687 10.189-0.492 0.737-1.137 1.3-1.956 2.284-0.246-0.983-0.328-1.382-0.492-1.874-0.901-3.42-1.792-6.851-2.775-10.189-0.41-1.628-1.137-2.202-2.038-2.038-1.055 0.246-1.628 1.055-1.546 2.693 0.164 4.239 0.328 8.397 0.492 12.636 0.082 1.382 0 2.857 0.082 4.321 0.082 3.748-13.691 18.012-18.258 23.153-0.164 0.164-0.328 0.246-0.901 0.573 0.819-12.554 1.546-24.781 2.365-37.089-1.792-0.246-2.693 0.41-3.103 1.71-0.573 2.038-1.055 3.994-1.382 6.113-2.202 9.615-4.321 19.241-6.441 28.856-0.645 2.673-1.137 5.366-1.7 8.049zM488.765 376.218c-0.41 0.41-0.901 0.655-1.3 0.983-5.294 3.83-10.598 7.66-15.974 11.489-0.655 0.492-1.382 0.901-2.447 1.628 0.246-0.983 0.328-1.382 0.492-1.874 1.546-4.485 3.103-8.97 4.649-13.455 0.573-1.546 0.082-2.529-1.137-3.338-1.055-0.655-1.956-1.382-3.021-2.202-1.464 2.365-2.939 4.731-4.403 7.014-2.693 4.321-5.376 8.724-8.069 13.046-2.038 3.338-1.874 5.294 0.819 8.233 1.464 1.628 3.103 3.021 4.649 4.485 0.655 0.655 1.219 1.464 2.12 2.447-5.622-0.164-10.926 0.492-15.729-2.284-1.628-0.983-3.256-1.956-4.649-3.256-2.038-1.874-2.529-4.321-1.3-6.932 0.492-1.055 0.983-2.12 1.546-3.103 4.731-8.643 9.37-17.367 14.1-26.010 0.246-0.41 0.492-0.901 0.819-1.628-2.775 0-5.212 0-7.741 0-1.137 0-1.792 0.737-2.284 1.628-1.792 3.174-3.666 6.359-5.458 9.533-0.246 0.492-0.492 0.983-1.137 1.382-1.3-8.151-2.611-16.384-3.912-24.781 0.737-0.082 1.382-0.164 2.038-0.164 6.031 0.246 12.063 0.41 18.094 0.573 7.014 0.164 5.949 0.655 8.806-4.977 4.239-8.479 8.233-17.039 12.308-25.6 0.492-1.055 0.983-2.038 1.628-3.338 4.977 3.912 9.779 7.741 14.674 11.571-0.41 0.819-0.573 1.382-0.901 1.874-4.157 7.332-8.315 14.592-12.472 21.924-0.492 0.819-0.901 1.628-1.219 2.447-0.819 2.038-0.655 3.994 0.655 5.868 1.956 2.775 3.748 5.622 5.54 8.479 0.737 1.137 1.3 2.447 1.546 3.666 0.707 2.14 0.379 3.195-1.331 4.669zM563.272 365.947c-0.328-0.655-0.655-1.3-0.983-2.038-3.42-8.069-6.851-16.138-10.353-24.207-0.492-1.3-0.901-2.611-2.284-3.256-2.12 1.137-2.284 1.628-1.382 4.239 3.021 8.561 6.031 17.121 9.134 25.682 0.655 1.874 0.655 3.584-0.655 5.14-1.71 2.038-3.42 4.076-5.059 6.113-1.628-0.328-1.792-1.546-2.12-2.611-2.939-8.479-5.868-17.039-8.806-25.518-0.573-1.792-1.3-3.502-2.038-5.294-1.628 1.546-1.628 1.628-1.219 3.256 0.819 3.174 1.71 6.441 2.611 9.697 2.038 7.178 4.239 14.346 6.359 21.524 0.655 2.202 0.328 4.076-1.137 5.949-2.857 3.666-10.844 11.008-14.182 14.182v0.41c-0.082 0-0.164-0.082-0.246-0.164-0.082 0-0.164 0.082-0.246 0.164v-0.41c-3.42-3.174-11.336-10.516-14.182-14.182-1.464-1.792-1.792-3.748-1.137-5.949 2.12-7.178 4.239-14.346 6.359-21.524 0.983-3.174 1.792-6.441 2.611-9.697 0.492-1.628 0.41-1.71-1.219-3.256-0.655 1.792-1.464 3.502-2.038 5.294-2.939 8.479-5.868 17.039-8.806 25.518-0.41 1.055-0.573 2.284-2.12 2.611-1.628-2.038-3.338-4.076-5.059-6.113-1.3-1.546-1.3-3.256-0.655-5.14 3.103-8.561 6.113-17.121 9.134-25.682 0.983-2.611 0.819-3.103-1.382-4.239-1.3 0.655-1.71 2.038-2.284 3.256-3.42 8.069-6.932 16.138-10.353 24.207-0.328 0.655-0.655 1.3-0.983 2.038-1.546-0.901-5.458-4.813-6.195-6.031-0.492-0.819-0.655-1.71-0.246-2.611 0.41-0.983 0.737-1.874 1.137-2.775 4.321-9.37 8.724-18.668 13.046-28.047 0.082-0.328 0.164-0.573 0.328-1.055-0.328-0.41-0.737-0.819-1.137-1.219-5.704-4.977-11.418-9.943-17.203-14.838-3.42-2.939-3.584-3.42-1.956-7.578 11.817-30.239 23.726-60.57 35.625-90.808 2.939-7.414 5.786-14.756 8.724-22.17l0.492-0.246c0 0.082 0.082 0.164 0.082 0.246 2.939 7.414 5.786 14.756 8.724 22.17 11.817 30.239 23.726 60.57 35.625 90.808 1.628 4.076 1.464 4.649-1.956 7.578-5.786 4.977-11.489 9.861-17.203 14.838-0.41 0.41-0.819 0.819-1.137 1.219 0.164 0.492 0.164 0.819 0.328 1.055 4.321 9.38 8.724 18.668 13.046 28.047 0.41 0.901 0.737 1.874 1.137 2.775 0.492 0.983 0.246 1.792-0.328 2.611-0.748 1.219-4.659 5.048-6.216 6.031zM599.716 363.254c4.731 8.643 9.38 17.367 14.1 26.010 0.573 1.055 1.065 2.038 1.546 3.103 1.219 2.611 0.737 5.059-1.3 6.932-1.382 1.3-3.021 2.284-4.649 3.256-4.813 2.775-10.107 2.12-15.729 2.284 0.819-0.983 1.464-1.792 2.12-2.447 1.546-1.546 3.174-2.939 4.649-4.485 2.775-2.939 2.857-4.895 0.819-8.233-2.693-4.321-5.376-8.724-8.069-13.046-1.464-2.365-2.939-4.649-4.403-7.014-1.055 0.737-2.038 1.546-3.021 2.202-1.219 0.901-1.628 1.874-1.137 3.338 1.628 4.485 3.103 8.97 4.649 13.455 0.164 0.492 0.246 0.983 0.492 1.874-1.055-0.737-1.792-1.137-2.447-1.628-5.294-3.83-10.68-7.66-15.974-11.489-0.41-0.328-0.901-0.655-1.3-0.983-1.71-1.464-2.038-2.611-1.3-4.649 0.492-1.3 1.065-2.611 1.792-3.748 1.792-2.857 3.666-5.704 5.54-8.479 1.3-1.874 1.464-3.83 0.655-5.868-0.328-0.819-0.737-1.628-1.219-2.447-4.157-7.332-8.315-14.592-12.472-21.924-0.328-0.573-0.492-1.137-0.901-1.874 4.895-3.83 9.697-7.66 14.674-11.571 0.655 1.3 1.137 2.284 1.628 3.338 4.076 8.561 8.069 17.121 12.308 25.6 2.857 5.622 1.792 5.14 8.806 4.977 6.031-0.246 12.063-0.41 18.094-0.573 0.655 0 1.3 0.082 2.038 0.164-1.3 8.397-2.611 16.63-3.912 24.781-0.655-0.492-0.901-0.901-1.137-1.382-1.792-3.174-3.666-6.359-5.458-9.533-0.492-0.901-1.137-1.628-2.284-1.628-2.529 0-4.977 0-7.987 0.082 0.297 0.707 0.543 1.116 0.788 1.608zM908.073 130.017c-0.266 0.358-0.502 0.717-0.788 1.065-1.792 2.12-3.502 4.239-5.212 6.359-1.065 1.3-1.792 2.939-3.103 4.076-4.403 4.076-8.233 8.561-11.336 13.691-2.038 3.338-4.157 4.895-7.496 4.567-4.977-0.41-10.025-0.655-15.084-0.901-11.336-0.492-22.579-0.983-33.915-1.464-13.455-0.573-26.982-1.219-40.52-1.874-6.851-0.328-13.773-0.655-20.623-0.983-11.899-0.573-23.808-1.137-35.707-1.71-8.233-0.41-16.384-0.737-24.535-1.137-10.844-0.492-21.688-1.055-32.522-1.546-0.492 0-0.983 0-1.464 0 0.573 1.546 0.983 2.775 1.464 4.321 65.7 5.949 131.492 11.172 197.519 16.876-0.573 0.737-0.901 1.219-1.219 1.546-3.666 3.83-7.496 7.66-11.172 11.489-3.994 4.157-7.987 8.397-11.981 12.636-1.874 1.956-3.83 3.103-6.441 2.12-0.41-0.164-0.737-0.246-1.137-0.328-23.962-4.403-47.933-8.888-71.895-13.292-29.757-5.458-59.505-11.008-89.262-16.466-0.737-0.164-1.382-0.164-2.12-0.246-0.082 0.246-0.164 0.41-0.246 0.573 0.41 0.492 0.819 1.055 1.382 1.464 0.573 0.41 1.3 0.573 1.956 0.737 6.687 1.874 13.373 3.666 20.050 5.54 15.084 4.157 30.167 8.397 45.24 12.554 6.195 1.71 12.39 3.256 18.586 4.977 5.622 1.546 11.336 3.174 16.957 4.813 0.328 0.082 0.573 0.082 0.901 0.164 2.038 0.492 4.157 0.901 6.195 1.464 3.256 0.819 6.441 1.792 9.697 2.611 2.447 0.573 4.895 1.055 7.332 1.628 1.055 0.246 2.12 0.737 3.174 1.055 2.775 0.819 5.622 1.382 8.315 2.447 3.748 1.464 7.578 2.284 11.336 3.502 0.901 0.328 1.71 0.573 3.256 1.055-0.901 0.573-1.464 0.819-1.874 1.219-8.315 7.414-16.548 14.756-24.781 22.17-0.737 0.655-1.464 1.382-2.202 2.12-1.546 1.628-3.256 2.12-5.294 1.137-0.983-0.492-2.12-0.819-3.174-1.219-37.663-14.674-75.244-29.43-112.906-44.104-0.655-0.246-1.382-0.492-2.12-0.737-0.41 2.611-0.246 3.174 1.792 4.403 2.447 1.464 5.14 2.693 7.66 4.076 24.781 13.292 49.48 26.655 74.26 39.946 5.376 2.857 10.844 5.704 16.22 8.561 1.382 0.737 2.857 1.3 4.076 2.775-9.533 8.151-18.995 16.138-28.611 24.371-13.855-10.271-26.982-21.524-40.52-32.205s-26.982-21.524-40.602-32.358c-0.573 0.819-1.065 1.464-1.546 2.12 0.492 0.655 0.901 1.137 1.3 1.546 11.172 11.489 22.252 22.989 33.341 34.478 10.762 11.172 21.443 22.252 32.123 33.423 0.573 0.573 1.055 1.137 1.628 1.792-8.233 5.212-16.22 10.353-24.207 15.411-2.12 1.3-2.202 1.219-3.666-0.655-0.082-0.082-0.164-0.246-0.246-0.328-12.882-16.63-25.682-33.26-38.554-49.889-4.403-5.786-8.888-11.489-13.373-17.203-0.655-0.819-1.137-1.874-2.857-1.3 0.492 0.983 0.819 1.956 1.3 2.857 7.987 13.773 16.056 27.638 24.044 41.411 5.294 9.052 10.598 18.094 15.811 27.146 0.573 0.983 1.382 1.956 1.219 3.256-0.246 0.164-0.328 0.246-0.492 0.246-8.397 1.219-16.794 2.447-25.19 3.666-1.382 0.246-2.857 0.164-4.239 0.246-0.655-1.71-1.3-3.103-1.874-4.485-8.479-19.405-16.876-38.799-25.354-58.204-0.901-2.12-1.874-4.321-2.939-6.441-1.3-2.611-2.939-2.939-5.622-1.219 0.246 0.983 0.492 2.038 0.819 3.021 7.178 21.443 14.346 42.875 21.524 64.317 0.164 0.573 0.246 1.137 0.41 1.792-0.41-0.164-0.573-0.164-0.655-0.246-8.724-6.195-17.449-12.39-26.163-18.586-1.628-1.219-2.611-2.775-3.021-4.731-0.573-2.693-1.137-5.376-1.71-8.069-2.12-9.615-4.321-19.241-6.441-28.856-0.41-1.956-0.901-3.994-1.464-5.949-0.41-1.3-1.382-1.956-3.103-1.71 0.819 12.308 1.546 24.617 2.365 37.089-0.573-0.328-0.737-0.328-0.901-0.573-4.567-5.212-18.34-19.487-18.258-23.153 0.082-1.382 0-2.857 0.082-4.321 0.164-4.239 0.328-8.397 0.492-12.636 0.082-1.628-0.492-2.447-1.546-2.693-0.901-0.164-1.628 0.492-2.038 2.038-0.983 3.42-1.874 6.769-2.775 10.189-0.082 0.492-0.246 0.983-0.492 1.874-0.819-0.983-1.464-1.546-1.956-2.284-2.284-3.42-4.321-6.851-6.687-10.189-1.71-2.365-2.939-4.813-2.284-7.823 0.082-0.164 0-0.41 0-0.655-0.246-2.611-4.157-5.376-6.031-2.611-0.492 0.737-0.573 1.628-0.41 2.447 0.164 0.655 0.41 1.219 0.655 1.792 0.819 1.546 1.628 3.021 2.529 4.403 3.584 5.458 7.26 10.844 10.844 16.22 4.731 7.014 9.452 13.937 14.1 20.951 2.365 3.584 2.202 4.076-1.3 6.277-6.605 4.157-13.21 8.233-19.804 12.39-0.492 0.328-0.983 0.655-1.628 0.983-0.41-0.901-0.737-1.71-1.055-2.447-9.134-23.398-18.258-46.797-27.474-70.185-0.41-1.055-0.573-2.038-0.41-2.857 0.41-1.956 12.636-13.773 15.974-17.285l2.447-3.174c5.294 1.956 14.1 5.949 19.405 7.987 8.233 3.103 16.466 6.359 25.354 7.496 3.994 0.492 7.987 0.983 12.063 0.819 9.134-0.328 16.548-4.076 22.252-11.090 1.71-2.038 3.256-4.321 4.239-6.769 3.502-8.888 3.912-17.93-0.41-26.819-0.492-1.055-0.901-2.12-1.464-3.103-1.055-1.71-2.038-3.584-3.338-5.14-3.256-3.912-6.605-7.823-10.025-11.653-1.219-1.382-2.529-2.693-3.994-3.748-3.994-2.775-8.315-5.14-12.964-6.769v-11.981c1.065 0 1.956 0 2.857 0 12.063 0.246 24.125 0.246 36.198 0.655 7.66 0.246 15.247 0.328 22.907 0.41 13.937 0.246 27.802 0.41 41.738 0.573 7.26 0.164 14.51 0.246 21.77 0.328 14.1 0.246 28.283 0.41 42.394 0.655 7.414 0.082 14.838 0.246 22.252 0.328 14.019 0.246 27.965 0.41 41.984 0.573 16.22 0.246 32.358 0.41 48.589 0.573 1.792 0 3.584 0.246 5.376 0.328 0.031 0.092 0.051 0.143 0.061 0.184 0.041-0.051 0.072-0.102 0.113-0.154-0.061 0.236-0.082 0.256-0.113 0.154z"></path>
</svg>
