<!-- Generated by IcoMoon.io -->
<svg version="1.1" xmlns="http://www.w3.org/2000/svg" width="300" height="300" viewBox="0 0 1024 1024">
<title></title>
<g id="icomoon-ignore">
</g>
<path fill="#FFF" d="M131.703 402.141c58.606 8.631 100.589 4.582 148.858-1.385 38.147-4.688 82.368-5.647 91.318 10.336 5.541 9.91 11.508 14.065 10.336 26.319-0.959 10.336 1.066 14.172-1.811 21.631-2.344 6.287-3.197 1.598-5.008 8.205-2.025 7.565-2.664 9.697 4.582 23.123 8.524 15.664 23.229 33.565 30.795 40.385 1.705 1.492 4.262-0.213 3.516-2.344-5.115-14.811-18.541-55.302-9.803-91.744 4.795-19.713 23.123-22.057 26.319-46.565 3.197-24.295-68.196-25.254-81.302-25.254s-88.122 10.975-150.989 12.36c-62.868 1.385-98.031-3.516-194.251-24.827-14.492-3.197 11.828 35.483 30.901 38.68 23.336 3.943 57.86 5.328 96.539 11.082z"></path>
<path fill="#FFF" d="M260.316 439.116c12.041-1.811 24.295-3.943 36.762-6.393 20.672-3.943 40.491-8.311 59.245-13 1.279-0.32 2.131-1.705 1.811-2.984-0.533-1.918-1.598-4.262-3.41-6.393-4.582-5.328-12.36-7.459-20.246-5.647-11.828 1.279-24.082 2.451-36.549 3.41-28.024 2.025-54.663 2.877-79.917 2.664 0.639 3.943 2.344 10.549 7.352 16.516 12.36 14.705 33.245 12.041 34.95 11.828z"></path>
<path fill="#FFF" d="M267.348 476.73c12.36-3.516 25.041-7.246 37.934-11.401 24.082-7.779 46.884-15.983 68.302-24.401 0.426-0.959 2.025-5.008 0.32-9.697-1.385-4.049-4.369-6.074-5.328-6.713-16.516 4.582-34.524 8.844-54.024 12.467-26.745 4.902-54.343 7.565-76.72 8.844-0.852 2.877 0.959 8.631 3.197 14.811 3.729 9.483 14.172 15.877 26.319 16.090z"></path>
<path fill="#FFF" d="M288.127 507.098c7.352-1.492 11.295-2.664 19.606-5.328 24.827-8.098 42.089-20.246 56.261-30.688 1.066-3.090 4.475-7.992 3.197-13.959-0.32-1.385-0.639-2.664-1.066-3.836-19.819 8.738-41.77 17.262-66.065 24.827-12.254 3.836-24.082 7.139-35.483 9.91-0.107 1.172-0.746 8.098 4.262 13.852 5.861 6.82 18.434 5.328 19.287 5.221z"></path>
<path fill="#FFF" d="M297.077 540.983c4.262 2.025 10.549 0.746 12.893 0.426 6.82-3.623 11.721-6.606 18.86-10.975 16.516-10.123 31.008-20.672 43.688-30.901 0.32-0.959 1.598-5.221-0.746-9.91-2.131-4.262-5.754-5.967-6.713-6.393-11.721 7.352-25.36 14.918-40.811 22.057-13.533 6.18-28.45 10.016-40.171 13.852-0.426 9.164 5.967 18.434 13 21.844z"></path>
<path fill="#FFF" d="M328.618 571.032c5.328 1.172 9.91 0.426 12.787-0.32 9.27-7.672 19.18-16.41 29.303-27.491 7.139-7.779 11.295-15.451 16.729-22.696-0.426-2.025 0.213-9.057-6.074-13.106-1.598-1.066-3.197-1.705-4.582-2.131-7.352 7.459-16.196 15.451-26.639 23.442-13.746 10.442-26.959 18.221-38.573 24.082-1.705 0.852-2.238 2.984-1.279 4.582 2.664 4.156 8.524 11.401 18.328 13.639z"></path>
<path fill="#FFF" d="M349.076 579.983c3.090 1.492 7.992 3.303 11.401 4.049 4.688 0.959 9.803 2.451 10.975 1.918 2.557-1.705 5.541-7.992 8.205-10.123 15.024-12.36 21.098-26.213 25.254-37.401-0.639-1.385-1.811-3.303-3.516-5.221-3.303-3.41-6.926-4.688-8.844-5.221-6.82 11.082-14.065 19.287-24.934 31.54-4.262 4.795-13.426 11.934-18.967 16.729-1.279 1.066-1.066 2.984 0.426 3.729z"></path>
<path fill="#FFF" d="M392.764 596.392c5.328 0.32 8.951-2.984 9.59-3.516 0.852-6.82 2.77-15.664 7.139-25.254 2.238-5.008 4.688-9.27 7.139-12.787 0-0.32 0.426-3.836-2.131-6.074-1.279-1.066-2.77-1.385-3.41-1.385-2.238 3.516-3.41 8.098-5.754 11.721-7.246 10.975-15.664 20.246-23.123 29.836 1.918 4.262 5.967 7.139 10.549 7.459z"></path>
<path fill="#FFF" d="M75.015 437.624c37.081-1.066 53.065-3.41 98.244-10.869 7.779-1.279 19.713-1.598 34.311-2.131 1.598-0.107 2.77-1.385 2.664-2.984-0.213-1.598-0.746-3.516-2.344-5.221-2.557-2.877-5.967-3.197-6.606-3.197-50.507-4.156-101.121-8.311-151.629-12.467-4.582-0.107-13.533 0.533-22.483 6.074-2.451 1.598-4.582 3.197-6.287 4.902-0.959 0.852-1.066 2.344-0.426 3.41 1.918 3.197 4.582 6.926 8.098 10.656 5.647 5.861 11.401 9.483 15.664 11.615 6.713 0.213 17.475 0.639 30.795 0.213z"></path>
<path fill="#FFF" d="M180.825 450.944c13.959-4.369 27.278-8.844 40.278-13.639 0-0.746-0.107-2.238-1.066-3.729-1.492-2.451-3.943-3.090-4.582-3.197-41.024 8.205-86.63 13.639-136.072 14.065-9.27 0.107-18.434 0-27.491-0.213-2.131 1.279-8.631 5.541-9.27 11.934-0.959 8.738 8.738 19.713 25.041 21.844 35.163-5.861 73.097-14.598 113.162-27.065z"></path>
<path fill="#FFF" d="M229.521 462.452c0.639-0.746 3.41-4.262 2.984-9.377-0.107-1.385-0.426-2.557-0.852-3.516-0.852-2.025-3.090-2.877-5.115-2.238-23.016 7.033-36.868 13.746-68.089 21.205-30.262 7.246-58.179 12.893-83.327 16.196-0.852 0.639-13.106 6.606-12.254 16.196 0.959 10.229 16.303 22.057 33.352 19.393 36.549-15.557 73.204-31.434 109.965-47.737 7.779-3.197 15.557-6.713 23.336-10.123z"></path>
<path fill="#FFF" d="M232.185 493.886c4.049-2.557 7.459-4.902 10.442-6.926 2.664-1.811 3.41-5.541 1.598-8.205-0.852-1.279-1.918-2.557-3.197-3.836-2.238-2.131-4.582-3.516-6.5-4.369s-4.156-0.639-5.861 0.639c-11.508 8.205-21.524 10.656-28.663 14.172-28.77 14.278-44.54 15.983-78.212 33.245-8.631 4.369-15.664 8.418-20.672 11.401-1.492 0.959-2.557 2.451-2.877 4.262-0.533 3.41 0.32 5.541 0.639 6.393 2.664 6.18 12.041 9.697 22.696 7.033 0.426-0.107 0.746-0.32 1.172-0.426 26.852-9.803 38.786-17.369 52.745-23.442 14.918-6.606 36.229-16.942 56.688-29.942z"></path>
<path fill="#FFF" d="M246.037 526.598c7.352-3.197 16.516-6.5 18.328-13.959 1.066-4.582-0.32-11.188-4.795-15.877-2.131-2.131-4.369-3.303-5.861-4.049-2.664 1.172-7.033 3.090-12.254 5.541-31.008 14.705-43.155 24.401-69.794 37.508-6.393 3.090-15.983 7.672-28.237 12.574-2.664 2.664-5.967 6.606-8.738 11.934-3.516 6.606-5.008 12.68-5.541 16.836 2.664 1.598 6.713 3.623 11.934 4.795 7.885 1.705 14.492 0.639 18.114-0.213 28.663-16.942 28.877-17.155 28.877-17.155 50.72-30.368 39.532-29.836 57.966-37.934z"></path>
<path fill="#FFF" d="M256.693 565.278c9.803-8.844 17.688-14.385 24.188-18.86 1.279-0.852 1.811-2.451 1.279-3.836-0.959-2.877-1.279-7.139-3.090-10.549-1.811-3.303-3.729-6.18-5.541-8.418-1.172-1.492-3.303-1.705-4.688-0.533-3.729 3.090-8.844 7.139-15.024 11.615-24.934 18.434-38.36 23.975-61.589 40.278-6.713 4.688-16.196 11.721-27.385 21.098-1.279 1.066-1.598 2.984-0.639 4.369 2.238 3.41 6.074 7.885 12.041 11.082 9.483 5.008 18.967 3.516 22.59 2.984 21.737-3.836 29.303-23.442 57.86-49.229z"></path>
<path fill="#FFF" d="M300.7 561.761c0.852-3.090 0.107-6.287-2.131-8.524-3.090-3.197-7.352-2.451-7.672-2.344-3.41 3.836-9.057 9.803-16.516 16.516-16.196 14.598-25.786 18.967-41.024 31.754-5.647 4.688-14.492 10.975-23.549 20.778-1.385 1.598-1.385 3.943 0.107 5.541 2.025 2.131 5.008 4.688 8.524 6.18 6.287 2.77 12.041 2.025 14.172 1.598 7.352-4.902 15.237-10.656 23.123-17.582 20.991-18.434 35.376-37.934 44.966-53.917z"></path>
<path fill="#FFF" d="M317.962 593.515c2.451-3.090 5.221-6.393 7.246-8.631 0.959-1.066 0.639-2.664-0.533-3.41-1.598-0.852-3.516-1.705-5.647-2.451-4.688-1.598-8.844-1.918-11.721-1.918-11.188 8.524-23.123 18.434-35.163 30.049-7.246 7.033-13.959 14.065-20.032 20.778 1.918 2.451 6.5 7.459 14.065 10.442 5.647 2.131 10.656 2.238 13.639 2.131 6.82-4.795 11.615-9.59 14.492-12.893 10.123-10.975 6.713-12.36 23.655-34.098z"></path>
<path fill="#FFF" d="M348.65 589.892c-5.434-2.984-10.549-2.77-12.893-2.557-6.287 8.098-12.574 16.729-18.967 26.106-8.844 13.106-16.516 25.786-23.229 37.827 2.664 0.959 5.967 1.918 9.91 2.238 8.098 0.852 14.705-0.852 18.647-2.238 2.664-3.516 5.328-7.246 7.992-11.188 10.549-15.664 18.541-31.114 24.508-45.286-1.066-1.385-3.090-3.303-5.967-4.902z"></path>
<path fill="#FFF" d="M358.773 662.457c3.623-5.541 7.246-8.951 10.869-15.451 7.033-12.467 13-24.614 18.008-36.016 0.533-1.279 0.32-2.77-0.639-3.836-1.811-2.131-4.688-4.795-8.631-6.926-3.41-1.811-6.606-2.77-9.164-3.303-1.705-0.32-3.516 0.639-4.156 2.344-2.77 7.352-5.434 13.213-7.565 17.155-7.779 15.237-14.065 21.631-21.098 37.827-1.492 3.516-2.664 6.606-3.516 9.057-0.639 1.811 0.213 3.729 1.918 4.475 0 0 0 0 0 0 8.738 3.836 17.901-1.811 22.377-4.156 0.746-0.213 1.279-0.639 1.598-1.172z"></path>
<path fill="#FFF" d="M402.994 608.966c-1.598 2.025-3.943 5.008-6.606 8.738-3.516 5.008-14.065 20.352-26.639 54.343-2.984 7.992-8.631 20.459-12.147 32.926-0.639 2.344 1.385 4.582 3.729 4.049 2.77-0.639 5.754-0.639 7.672-2.344 41.024-37.614 48.376-67.237 49.868-75.868-0.107-2.344-0.852-8.524-5.541-14.385-3.836-4.475-8.205-6.606-10.336-7.459z"></path>
<path fill="#FFF" d="M1019.205 358.56c-96.22 21.311-131.383 26.213-194.251 24.827s-137.776-12.36-150.989-12.36c-13.106 0-84.499 0.959-81.302 25.254 3.197 24.508 21.524 26.852 26.319 46.565 8.738 36.442-4.688 76.933-9.803 91.744-0.746 2.131 1.811 3.836 3.516 2.344 7.565-6.926 22.27-24.721 30.795-40.385 7.246-13.426 5.328-15.237 4.582-23.123-0.746-7.779-2.984-5.115-5.008-8.205-4.369-6.713-0.746-11.295-1.811-21.631-1.172-12.147 4.795-16.41 10.336-26.319 8.844-15.983 53.171-15.024 91.318-10.336 48.27 5.967 90.253 10.123 148.858 1.385 38.68-5.754 73.204-7.139 96.646-10.975 19.073-3.303 45.393-41.983 30.795-38.786z"></path>
<path fill="#FFF" d="M726.39 438.903c12.574 2.344 24.827 4.475 36.762 6.393 1.705 0.213 22.59 2.877 34.95-11.934 5.008-6.074 6.713-12.574 7.352-16.516-25.254 0.213-51.893-0.639-79.917-2.664-12.467-0.959-24.721-2.025-36.549-3.41-7.885-1.705-15.664 0.32-20.246 5.647-1.811 2.131-2.877 4.475-3.41 6.393-0.32 1.279 0.426 2.664 1.811 2.984 18.754 4.795 38.573 9.164 59.245 13.106z"></path>
<path fill="#FFF" d="M649.457 437.411c-1.598 4.688 0 8.738 0.32 9.697 21.418 8.418 44.221 16.729 68.302 24.401 12.893 4.156 25.573 7.885 37.934 11.401 12.254-0.213 22.59-6.606 26.213-16.090 2.344-6.18 4.049-11.934 3.197-14.811-22.377-1.279-49.975-3.943-76.72-8.844-19.5-3.516-37.508-7.885-54.024-12.467-0.852 0.639-3.729 2.664-5.221 6.713z"></path>
<path fill="#FFF" d="M754.627 508.057c5.008-5.754 4.369-12.68 4.262-13.852-11.401-2.877-23.336-6.074-35.483-9.91-24.295-7.565-46.245-16.090-66.065-24.827-0.426 1.172-0.852 2.451-1.066 3.836-1.172 5.967 2.131 10.762 3.197 13.959 14.172 10.549 31.54 22.59 56.261 30.688 8.311 2.77 12.147 3.836 19.606 5.328 0.852 0.107 13.426 1.598 19.287-5.221z"></path>
<path fill="#FFF" d="M658.407 489.304c-0.959 0.426-4.688 2.131-6.713 6.393-2.238 4.688-0.959 9.057-0.746 9.91 12.68 10.229 27.172 20.778 43.688 30.901 7.139 4.369 12.041 7.352 18.86 10.975 2.344 0.32 8.631 1.705 12.893-0.426 7.033-3.41 13.426-12.68 13-21.95-11.721-3.836-26.639-7.672-40.171-13.852-15.557-7.139-29.090-14.705-40.811-21.95z"></path>
<path fill="#FFF" d="M641.998 513.385c-6.18 4.049-5.647 11.082-6.074 13.106 5.434 7.246 9.483 14.918 16.729 22.696 10.123 11.082 20.032 19.819 29.303 27.491 2.877 0.746 7.459 1.598 12.787 0.32 9.803-2.238 15.664-9.377 18.328-13.746 0.959-1.598 0.426-3.729-1.279-4.582-11.615-5.861-24.827-13.639-38.573-24.082-10.442-7.992-19.287-15.983-26.639-23.442-1.279 0.533-2.877 1.172-4.582 2.238z"></path>
<path fill="#FFF" d="M622.179 539.385c-1.811 1.811-2.877 3.729-3.516 5.221 4.156 11.188 10.229 25.041 25.254 37.401 2.664 2.131 5.541 8.524 8.205 10.123 1.279 0.533 6.393-0.959 10.975-1.918 3.41-0.746 8.311-2.557 11.401-4.049 1.492-0.746 1.705-2.664 0.533-3.729-5.541-4.795-14.705-11.934-18.967-16.729-10.762-12.254-18.008-20.459-24.934-31.54-2.025 0.426-5.754 1.811-8.951 5.221z"></path>
<path fill="#FFF" d="M612.482 553.557c-0.639 0.107-2.131 0.32-3.41 1.385-2.557 2.238-2.131 5.754-2.131 6.074 2.344 3.516 4.902 7.779 7.139 12.787 4.369 9.59 6.287 18.434 7.139 25.254 0.639 0.533 4.262 3.943 9.59 3.516 4.582-0.32 8.631-3.197 10.656-7.459-7.352-9.59-15.77-18.86-23.123-29.836-2.451-3.623-3.729-8.205-5.861-11.721z"></path>
<path fill="#FFF" d="M996.189 412.903c-8.844-5.541-17.901-6.074-22.483-6.074-50.507 4.156-101.121 8.311-151.629 12.467-0.639 0-4.049 0.32-6.606 3.197-1.598 1.705-2.131 3.729-2.344 5.221-0.213 1.598 1.066 2.877 2.664 2.984 14.598 0.533 26.426 0.852 34.311 2.131 45.286 7.459 61.163 9.803 98.244 10.869 13.319 0.426 24.188 0 30.688-0.32 4.156-2.131 10.016-5.754 15.664-11.615 3.623-3.729 6.18-7.459 8.098-10.656 0.639-1.066 0.533-2.557-0.426-3.41-1.598-1.492-3.623-3.197-6.18-4.795z"></path>
<path fill="#FFF" d="M971.575 450.517c-8.951 0.213-18.114 0.32-27.491 0.213-49.548-0.426-95.154-5.967-136.072-14.065-0.533 0.107-2.984 0.746-4.582 3.197-0.959 1.492-1.066 2.984-1.066 3.729 12.893 4.688 26.319 9.27 40.278 13.639 40.065 12.467 77.999 21.098 113.162 27.172 16.303-2.131 26-13.106 25.041-21.844-0.639-6.606-7.139-10.762-9.27-12.041z"></path>
<path fill="#FFF" d="M948.345 491.009c-25.254-3.41-53.171-9.057-83.327-16.196-31.114-7.459-44.966-14.278-68.089-21.205-2.131-0.639-4.262 0.213-5.115 2.238-0.426 0.959-0.746 2.238-0.852 3.516-0.426 5.008 2.344 8.631 2.984 9.377 7.779 3.516 15.664 6.926 23.442 10.442 36.868 16.303 73.523 32.18 109.965 47.737 17.049 2.557 32.393-9.164 33.245-19.393 0.959-10.016-11.401-15.983-12.254-16.516z"></path>
<path fill="#FFF" d="M922.346 536.082c-4.902-2.984-12.041-6.926-20.672-11.401-33.778-17.262-49.442-18.967-78.212-33.245-7.139-3.516-17.155-5.967-28.663-14.172-1.705-1.172-3.943-1.492-5.861-0.639s-4.262 2.238-6.5 4.369c-1.279 1.279-2.344 2.557-3.197 3.836-1.811 2.664-1.066 6.393 1.598 8.205 2.877 2.025 6.393 4.369 10.442 6.926 20.565 13 41.876 23.336 56.688 29.836 13.852 6.074 25.786 13.639 52.745 23.442 0.426 0.107 0.746 0.32 1.172 0.426 10.656 2.77 19.926-0.852 22.696-7.033 0.32-0.852 1.172-3.090 0.639-6.393-0.32-1.705-1.385-3.197-2.877-4.156z"></path>
<path fill="#FFF" d="M879.937 554.622c-12.254-4.902-21.844-9.377-28.237-12.574-26.639-13.106-38.786-22.909-69.794-37.508-5.221-2.451-9.59-4.369-12.254-5.541-1.492 0.639-3.729 1.811-5.861 4.049-4.475 4.582-5.861 11.295-4.795 15.877 1.811 7.459 11.082 10.869 18.328 13.959 18.541 7.992 7.352 7.459 57.966 38.040 0 0 0.32 0.213 28.877 17.155 3.623 0.852 10.229 2.025 18.114 0.213 5.221-1.172 9.27-3.197 11.934-4.795-0.639-4.156-2.025-10.229-5.541-16.836-2.77-5.434-6.074-9.377-8.738-12.041z"></path>
<path fill="#FFF" d="M831.134 581.048c-23.123-16.196-36.655-21.844-61.589-40.278-6.18-4.582-11.295-8.631-15.024-11.615-1.492-1.172-3.623-0.959-4.688 0.533-1.811 2.344-3.729 5.115-5.541 8.418-1.918 3.41-2.131 7.779-3.090 10.549-0.533 1.385 0 2.984 1.279 3.836 6.5 4.475 14.385 10.016 24.188 18.86 28.557 25.893 36.122 45.393 57.753 49.016 3.729 0.639 13.106 2.025 22.59-2.984 5.967-3.090 9.803-7.672 12.041-11.082 0.959-1.385 0.639-3.303-0.639-4.369-10.975-9.27-20.565-16.303-27.278-20.885z"></path>
<path fill="#FFF" d="M790.11 605.236c-15.237-12.787-24.827-17.155-41.024-31.754-7.459-6.713-13.106-12.68-16.516-16.516-0.32-0.107-4.582-0.746-7.672 2.344-2.238 2.238-2.984 5.434-2.131 8.524 9.59 15.983 23.975 35.483 44.966 53.811 7.885 6.926 15.77 12.68 23.123 17.582 2.131 0.426 7.885 1.172 14.172-1.598 3.516-1.492 6.5-4.049 8.524-6.18 1.492-1.492 1.492-3.943 0.107-5.541-9.057-9.697-17.901-15.983-23.549-20.672z"></path>
<path fill="#FFF" d="M751.217 613.548c-12.041-11.615-23.975-21.631-35.163-30.049-2.877 0-7.033 0.32-11.721 1.918-2.131 0.746-4.049 1.598-5.647 2.451-1.279 0.639-1.492 2.344-0.533 3.41 2.025 2.131 4.795 5.434 7.246 8.631 16.942 21.737 13.639 23.123 23.549 34.204 2.984 3.303 7.672 8.098 14.492 12.893 2.984 0.107 7.992 0 13.639-2.131 7.565-2.877 12.147-7.885 14.065-10.442-5.967-6.926-12.574-13.852-19.926-20.885z"></path>
<path fill="#FFF" d="M687.604 593.515c-2.238-0.213-7.459-0.32-12.893 2.557-2.877 1.598-4.795 3.41-6.074 4.902 5.967 14.172 13.959 29.622 24.508 45.286 2.664 3.943 5.328 7.672 7.992 11.188 3.943 1.385 10.549 3.090 18.647 2.238 3.943-0.426 7.246-1.279 9.91-2.238-6.606-12.041-14.278-24.721-23.229-37.827-6.287-9.377-12.574-18.008-18.86-26.106z"></path>
<path fill="#FFF" d="M686.751 660.432c-6.926-16.196-13.319-22.59-21.098-37.827-2.025-4.049-4.795-9.803-7.565-17.155-0.639-1.705-2.344-2.664-4.156-2.344-2.557 0.533-5.754 1.385-9.164 3.303-3.943 2.131-6.82 4.902-8.631 6.926-0.959 1.066-1.172 2.557-0.639 3.836 5.115 11.508 10.975 23.549 18.008 36.016 3.623 6.393 7.246 9.91 10.869 15.451 0.32 0.533 0.852 0.959 1.385 1.279 4.369 2.238 13.639 7.992 22.377 4.156 0 0 0 0 0 0 1.705-0.746 2.557-2.77 1.918-4.475-0.639-2.664-1.811-5.754-3.303-9.164z"></path>
<path fill="#FFF" d="M653.719 678.227c-12.574-33.991-23.123-49.335-26.639-54.343-2.664-3.729-5.008-6.82-6.606-8.738-2.238 0.852-6.5 2.984-10.123 7.459-4.688 5.861-5.434 12.041-5.541 14.385 1.492 8.631 8.738 38.36 49.868 75.868 1.811 1.705 4.902 1.705 7.672 2.344 2.344 0.533 4.369-1.705 3.729-4.049-3.623-12.467-9.377-24.934-12.36-32.926z"></path>
<path fill="#FFF" d="M443.058 320.2c0 1.598 1.279 2.877 2.877 2.984l28.024 2.984 1.811 17.155c0.32 3.303 1.598 8.098 3.729 13.106 1.598 3.729 5.647 11.188 5.647 11.188l-0.107 9.483c8.205-1.811 15.557-2.557 21.098-2.877 0 0 1.811-0.107 5.115-0.107 0 0 0 0 0.107 0 0 0 0 0 0.107 0 3.197 0 5.115 0.107 5.115 0.107 5.328 0.32 12.467 0.959 20.352 2.664l-0.107-9.057c0 0 4.049-7.459 5.647-11.188 2.131-5.115 3.41-9.803 3.729-13.106l1.811-17.155 28.024-2.984c1.598-0.107 2.877-1.385 2.877-2.984v-11.401c0-1.066-0.852-1.918-1.918-1.918-15.557-0.426-32.819-2.131-48.696-2.664-5.115-11.188-5.008-35.909-4.688-25.68-1.066-30.581 0.107-47.311 3.516-72.245l6.393 0.107c1.279 0 2.451-1.066 2.451-2.344v-24.614c0-1.279-0.959-2.238-2.131-2.344-2.664-0.213-5.328-0.426-7.992-0.639-0.107-1.279-0.959-6.713-5.861-10.762-3.197-2.664-6.606-3.303-8.524-3.516v-0.426c-1.492 0.107-5.541 0.533-9.27 3.623-4.902 3.943-5.754 9.483-5.861 10.762-2.664 0.213-5.328 0.426-7.992 0.639-1.172 0.107-2.131 1.172-2.131 2.344v24.614c0 1.279 1.066 2.344 2.451 2.344l6.393-0.107c3.41 25.041 4.582 41.77 3.516 72.245 0.32-10.229 0.426 14.598-4.688 25.68-15.877 0.533-33.032 2.131-48.696 2.664-1.066 0-1.918 0.852-1.918 1.918v11.508z"></path>
<path fill="#FFF" d="M538.213 682.702h-54.663l-0.426 81.835c-0.32 12.893 4.582 43.262 10.442 64.147 5.221 18.328 10.762 21.95 16.836 31.327v1.492c0.213-0.213 0.32-0.533 0.533-0.746 0.107 0.213 0.213 0.32 0.32 0.533v-0.959c6.18-9.483 11.721-13 16.836-31.327 5.861-20.885 10.762-51.253 10.442-64.147l-0.32-82.154z"></path>
<path fill="#FFF" d="M599.056 551.958c-5.647-7.139 22.27-60.417 7.565-107.408-17.262-55.196-68.302-63.827-90.466-64.892 0 0-1.918-0.107-5.115-0.107 0 0 0 0-0.107 0 0 0 0 0-0.107 0-3.197 0-5.115 0.107-5.115 0.107-22.057 1.172-73.204 9.697-90.359 64.892-14.705 47.098 13.213 100.269 7.565 107.408-22.696 28.77 8.205 74.376 12.36 78.105 7.565 6.82 31.754-6.926 27.918 0.107-2.877 5.434-5.541 46.139-5.541 46.139h7.459l3.623-14.172 6.393-0.107 1.279 14.278h13.106l1.279-13.639 4.369-0.639 0.639 14.278h10.549l0.533-14.598h8.631l0.533 14.598h10.549l0.639-14.278 4.369 0.639 1.279 13.639h12.68l1.279-14.278 6.393 0.107 3.623 14.172h7.459c0 0-2.664-40.704-5.541-46.139-3.836-7.139 20.352 6.606 27.918-0.107 4.156-3.729 35.057-49.335 12.36-78.105zM496.869 581.794c-2.984 3.623-7.246 7.992-13 11.508-13.959 8.631-27.704 7.352-33.352 6.5-0.32 0-0.746-0.213-1.066-0.426-12.147-8.418-16.836-21.631-13.213-29.836 0.533-1.279 2.557-5.434 8.951-7.992 0.32-0.107 0.746-0.213 1.066-0.213 7.672 0.746 17.262 2.451 27.918 6.074 8.631 2.877 15.877 6.5 21.844 9.91 1.598 0.852 2.025 2.984 0.852 4.475zM526.065 631.555c0 0.959-1.066 1.279-1.598 0.533-1.279-1.811-3.090-3.943-5.541-5.861-2.557-2.025-5.008-3.41-7.033-4.156-1.918 0.746-4.369 2.025-7.033 4.156-2.451 1.918-4.262 4.049-5.541 5.861-0.533 0.746-1.598 0.32-1.598-0.533-0.426-6.926-0.107-21.205 9.483-31.54 1.279-1.385 2.877-2.557 4.688-3.623 1.811 1.172 3.516 2.344 4.688 3.623 9.59 10.336 9.91 24.614 9.483 31.54zM572.737 599.376c-0.32 0.213-0.639 0.32-1.066 0.426-5.541 0.852-19.393 2.025-33.352-6.5-5.754-3.516-10.016-7.885-13-11.508-1.066-1.385-0.746-3.516 0.746-4.369 5.967-3.41 13.319-6.926 21.844-9.91 10.656-3.623 20.246-5.328 27.918-6.074 0.32 0 0.746 0 1.066 0.213 6.393 2.557 8.418 6.713 8.951 7.992 3.729 8.098-0.959 21.311-13.106 29.729z"></path>
</svg>
