<!-- Generated by IcoMoon.io -->
<svg version="1.1" xmlns="http://www.w3.org/2000/svg" width="300" height="300" viewBox="0 0 1024 1024">
<title></title>
<g id="icomoon-ignore">
</g>
<path fill="#FFF" d="M695.173 505.070l58.787 15.892-38.594-45.285c13.382-23.18 22.822-48.989 27.362-76.471l96.545-30.35-94.514-28.438c-2.987-31.903-12.546-61.775-27.362-88.54l36.682-39.192-50.901 16.848c-17.087-23.778-38.594-44.21-63.447-59.863l9.917-62.85-28.677 31.664c0.358-12.307 3.107-34.054 17.923-54.725 33.337-46.719 95.589-42.179 99.174-41.82 0-13.98 0-27.84 0-41.82h-443.295c0 13.98 0 27.84 0 41.82 3.585-0.358 65.837-4.899 99.174 41.82 16.37 22.941 17.923 47.436 17.923 58.548v5.496l-37.041-40.864 10.754 67.868c-22.463 15.414-41.94 34.771-57.473 57.115l-57.712-19.237 41.94 44.927c-12.666 24.495-21.030 51.618-24.136 80.295l-102.997 30.947 105.268 33.098c4.302 24.136 12.307 46.958 23.539 67.868l-43.613 51.14 65.718-17.684c14.577 18.401 31.903 34.532 51.499 47.675l-12.785 80.056c0 0 20.91-19.715 39.431-38.236v2.39c-0.836 94.036-1.553 187.952-2.39 281.988 0.478 7.886 1.792 40.506-21.508 68.107-22.463 26.646-59.265 38.475-95.589 31.067v47.795h443.295v-47.795c-36.324 7.408-73.126-4.421-95.589-31.067-23.3-27.601-21.986-60.221-21.508-68.107-0.836-92.005-1.553-184.009-2.39-276.014 15.892 15.653 31.067 29.872 31.067 29.872l-8.842-77.069c20.671-13.382 38.953-29.872 54.366-48.87zM516.421 534.583c-91.168-0.597-164.891-74.679-164.891-166.086s73.723-165.489 164.891-166.086c91.168 0.597 164.891 74.679 164.891 166.086s-73.723 165.489-164.891 166.086z"></path>
<path fill="#FFF" d="M619.060 282.466c-18.879-55.083-74.679-63.686-98.815-64.762 0 0-2.031-0.119-5.616-0.119 0 0 0 0-0.119 0s0 0-0.119 0c-3.585 0-5.616 0.119-5.616 0.119-24.136 1.075-79.937 9.678-98.696 64.762-16.131 46.958 14.338 100.13 8.245 107.179-24.853 28.677 8.961 74.201 13.502 77.905 8.245 6.811 34.651-6.93 30.469 0.119-2.987 5.496-5.855 46.122-5.855 46.122h8.125l3.943-14.219 7.050-0.119 1.195 14.338h14.338l1.314-13.621 4.779-0.717 0.717 14.219h11.59l0.597-14.577h9.32l0.597 14.577h11.59l0.717-14.219 4.779 0.717 1.314 13.621h14.219l1.314-14.219 7.050 0.119 3.943 14.219h8.125c0 0-2.868-40.625-6.094-46.002-4.182-7.050 22.225 6.572 30.469-0.119 4.66-3.824 38.355-49.228 13.502-77.905-6.333-7.408 24.136-60.46 8.125-107.418zM499.215 419.278c-3.226 3.585-7.886 7.886-14.219 11.471-15.175 8.603-30.23 7.408-36.324 6.452-0.358 0-0.836-0.239-1.075-0.358-13.263-8.484-18.401-21.627-14.458-29.752 0.597-1.314 2.868-5.377 9.798-7.886 0.358-0.119 0.836-0.239 1.195-0.239 8.484 0.717 18.879 2.39 30.469 6.094 9.32 2.868 17.326 6.452 23.897 9.917 1.673 0.836 2.031 2.987 0.717 4.302zM531.118 469.104c0 0.956-1.195 1.314-1.792 0.597-1.434-1.792-3.465-3.943-6.094-5.855-2.868-2.031-5.496-3.346-7.647-4.182-2.031 0.717-4.779 2.031-7.647 4.182-2.629 1.912-4.66 4.063-6.094 5.855-0.597 0.717-1.792 0.358-1.792-0.597-0.478-6.93-0.119-21.149 10.276-31.544 1.314-1.314 3.107-2.509 5.138-3.585 2.031 1.075 3.824 2.27 5.138 3.585 10.634 10.395 10.993 24.614 10.515 31.544zM582.019 436.962c-0.358 0.239-0.717 0.358-1.075 0.358-6.094 0.836-21.149 2.031-36.324-6.452-6.333-3.585-10.993-7.886-14.219-11.471-1.195-1.434-0.836-3.585 0.836-4.421 6.572-3.465 14.577-6.93 23.897-9.917 11.59-3.585 22.105-5.257 30.469-6.094 0.358 0 0.836 0 1.195 0.239 6.93 2.509 9.2 6.691 9.798 7.886 3.824 8.245-1.195 21.388-14.577 29.872z"></path>
</svg>
