<!-- Generated by IcoMoon.io -->
<svg version="1.1" xmlns="http://www.w3.org/2000/svg" width="300" height="300" viewBox="0 0 1024 1024">
<title></title>
<g id="icomoon-ignore">
</g>
<path fill="#FFF" d="M471.403 0c-3.062 0-6.237 0-9.299 0.113v87.431l-51.030 5.103v73.937c-25.288 3.969-49.556 10.66-72.689 19.845l-39.010-62.597c-12.474 3.402-29.144 9.299-47.061 19.845-18.598 11-32.206 23.247-41.391 32.886 0 0 25.628 40.711 38.669 60.896-20.299 16.103-38.896 34.36-55.226 54.432l-66.792-34.927c-9.185 9.866-20.072 23.587-30.051 41.391-10.433 18.711-16.33 35.948-19.845 49.329 20.752 12.474 41.504 25.061 62.37 37.535-8.845 22.68-15.309 46.381-19.278 71.102l-77.679 6.464c-1.588 13.721-2.722 28.917-2.835 45.36-0.113 19.391 1.021 37.082 2.835 52.731 25.628 1.247 51.37 2.495 76.998 3.742 3.969 26.649 11 52.277 20.639 76.658l-63.050 33.113c2.835 11.794 7.598 26.649 15.876 42.525 11.567 22.34 25.628 38.329 36.288 48.762l61.916-35.948c16.216 20.412 34.587 39.010 54.772 55.339l-37.422 62.823c10.886 8.505 23.36 17.35 37.422 26.082 18.598 11.453 36.288 20.299 52.164 27.216 12.474-21.206 25.061-42.412 37.535-63.504 23.927 9.526 49.102 16.556 75.297 20.752v68.947c11 4.649 27.443 9.526 46.494 6.804 1.361-0.227 2.722-0.454 3.969-0.68v90.493c3.062 0 6.124 0.113 9.299 0.113 282.706 0 511.887-229.181 511.887-511.887s-229.068-512.227-511.773-512.227zM847.323 687.089c-11.907 25.628-26.422 49.896-43.092 72.349l-66.566-34.133c-9.752 5.557-20.299 16.67-32.319 27.216-13.154 11.567-24.154 19.732-31.185 29.484 4.649 8.505 9.299 17.123 13.948 25.742 7.711 14.288 16.897 31.525 22.907 43.092-23.927 17.010-49.669 31.525-76.998 43.205l-38.102-61.009c-14.062 2.835-28.917 7.371-44.226 11.34-14.402 3.742-28.010 6.691-40.824 10.773 0 23.36 0 46.721 0 70.081-13.154 1.247-26.422 1.928-39.917 1.928-1.474 0-2.835 0-4.309 0 0-47.288 0-94.462 0-141.75l-9.072 2.381v-25.628h-8.618l-1.021 27.443h-21.659l-1.247-26.762-8.959 1.247-2.495 25.515h-26.762l-2.495-26.762-13.154 0.113-7.371 26.536h-15.309c0 0 5.443-76.318 11.34-86.411 7.825-13.268-41.618 12.474-57.153-0.227-8.618-7.031-71.895-92.421-25.288-146.172 11.567-13.381-45.587-112.946-15.422-201.171 35.381-103.307 139.935-119.41 185.182-121.565 0 0 3.742-0.227 10.433-0.227 0 0 0 0 0.113 0v407.219c0.68-0.34 1.361-0.794 2.041-1.134 3.742 2.155 7.144 4.309 9.639 6.804 19.618 19.391 20.185 46.154 19.391 59.081-0.113 1.814-2.268 2.495-3.402 1.134-2.722-3.402-6.35-7.371-11.34-11-5.33-3.856-10.319-6.35-14.288-7.711-0.68 0.227-1.361 0.567-2.041 0.794v73.256h8.959l1.021 27.443h21.659l1.247-26.762 8.959 1.247 2.495 25.515h26.762l2.495-26.762 13.154 0.113 7.371 26.536h15.309c0 0-5.443-76.318-11.34-86.411-7.825-13.268 41.618 12.361 57.153-0.227 8.618-7.031 71.895-92.421 25.288-146.172-11.567-13.495 45.473-113.060 15.422-201.171-35.381-103.307-139.935-119.41-185.182-121.565v-136.42c0.907 0 1.814 0 2.722 0 11.567 0 23.020 0.454 34.36 1.361l5.557 67.359c10.433 4.423 23.247 6.464 36.288 10.206 18.371 5.33 34.133 10.66 48.762 12.474 13.608-18.938 27.216-37.989 40.937-56.927 24.154 10.546 47.174 23.36 68.607 38.102l-31.525 66.452c8.051 10.66 19.278 21.433 31.752 33.453 11.113 10.66 20.752 20.639 30.618 27.783 23.474-9.526 46.948-19.165 70.535-28.69 16.103 22.226 30.051 46.040 41.504 71.215l-65.545 39.123c2.381 13.154 6.804 27.67 11.34 43.092 5.216 17.464 9.979 32.999 15.876 46.494 24.494 0 48.875 0 73.37 0 1.474 14.288 2.268 28.69 2.268 43.319 0 14.855-0.794 29.597-2.268 43.999h-72.236c-6.124 10.319-10.433 24.721-15.876 40.824-6.464 19.278-11.453 35.381-12.474 48.762 21.433 13.721 42.865 27.443 64.298 41.164zM488.753 604.307c12.247-6.35 27.216-13.041 44.793-18.484 21.773-6.804 41.391-9.979 57.153-11.34 0.794-0.113 1.474 0 2.268 0.34 13.041 4.763 17.237 12.587 18.371 14.855 7.371 15.422-2.155 40.144-27.216 55.906-0.68 0.454-1.361 0.68-2.155 0.794-11.453 1.588-39.577 3.856-68.267-12.247-11.907-6.691-20.639-14.742-26.649-21.546-2.155-2.722-1.474-6.691 1.701-8.278z"></path>
<path fill="#FFF" d="M430.579 705.8c0.113 1.814 2.268 2.495 3.402 1.134 2.722-3.402 6.35-7.371 11.34-11 4.423-3.175 8.732-5.443 12.247-6.917v-47.855c-2.948 1.701-5.557 3.629-7.598 5.67-19.618 19.278-20.185 45.927-19.391 58.968z"></path>
<path fill="#FFF" d="M427.517 604.307c-12.247-6.35-27.216-13.041-44.793-18.484-21.659-6.804-41.278-9.979-57.153-11.34-0.794 0-1.474 0.113-2.268 0.34-13.154 4.763-17.35 12.587-18.371 14.855-7.371 15.422 2.155 40.030 27.103 55.906 0.567 0.454 1.361 0.68 2.155 0.794 11.453 1.588 39.69 3.856 68.267-12.247 11.907-6.691 20.639-14.742 26.649-21.546 2.041-2.722 1.474-6.691-1.588-8.278z"></path>
</svg>
