<!-- Generated by IcoMoon.io -->
<svg version="1.1" xmlns="http://www.w3.org/2000/svg" width="300" height="300" viewBox="0 0 1024 1024">
<title></title>
<g id="icomoon-ignore">
</g>
<path fill="#FFF" d="M691.303 385.748c-40.713-35.47-73.613-71.043-114.429-106.512l-173.854 20.151-5.655 29.198c-2.365 0.514-33.311 9.664-54.901 37.012-21.282 26.937 16.553 79.165 60.556 95.306-6.683-18.712-3.29-38.657 8.945-51.611 9.767-10.178 21.899-12.749 26.937-13.468 35.778-2.365 62.406-1.645 75.155 21.282 18.3 33.105 2.365 107.849-67.239 137.973 66.416 24.058 139.309 10.795 188.35-34.75 55.827-51.714 56.238-122.448 56.135-134.58zM442.294 343.184l-21.282-16.861 43.695-8.945-22.413 25.806z"></path>
<path fill="#FFF" d="M652.646 949.77c-25.908-25.908-24.366-56.546-23.852-63.949v0-268.44c34.236-17.992 63.846-43.695 86.361-74.744l35.573 38.246h-59.425l257.953 174.882-116.691-141.263h52.742l-131.496-152.366c5.757-21.179 8.945-43.386 8.945-66.313 0-33.208-6.477-64.977-18.3-93.969l138.487-160.591h-52.742l116.794-141.263-257.953 174.882h59.425l-49.863 53.667c-19.74-22.002-43.386-40.405-69.809-54.284v-36.395c-0.514-7.402-1.953-38.040 23.852-63.949 24.983-24.983 65.799-36.087 106.101-29.198v-44.723h-492.157v44.826c40.302-6.991 81.221 4.112 106.101 29.198 25.908 25.908 24.366 56.546 23.852 63.949v0 36.395c-27.245 14.291-51.611 33.516-71.762 56.443l-51.92-55.827h59.425l-257.748-174.985 116.588 141.263h-52.639l141.263 163.676c-11.104 28.17-17.067 58.808-17.067 90.885 0 23.133 3.187 45.545 9.047 66.827l-130.982 151.852h52.742l-116.691 141.263 257.851-174.882h-59.425l35.264-37.937c22.516 30.946 52.022 56.546 86.156 74.435v268.543c0.514 7.402 1.953 38.040-23.852 63.949-24.983 24.983-65.799 36.087-106.101 29.198v44.826h492.157v-44.826c-40.302 6.786-81.221-4.318-106.204-29.301zM512.72 593.221c-108.98 0-197.398-88.315-197.398-197.398s88.315-197.398 197.398-197.398 197.398 88.315 197.398 197.398-88.418 197.398-197.398 197.398z"></path>
</svg>
