<!-- Generated by IcoMoon.io -->
<svg version="1.1" xmlns="http://www.w3.org/2000/svg" width="300" height="300" viewBox="0 0 1024 1024">
<title></title>
<g id="icomoon-ignore">
</g>
<path fill="#FFF" d="M765.17 681.912c-80.479-8.748-150.255 17.701-230.529 77.803-96.019 71.834-108.163 135.641-205.829 100.856-106.208-37.873-27.684-115.161-17.701-123.806 29.948-25.934 118.558-44.974 118.558-44.974l164.56-42.401c0.309-0.103 0.617-0.206 0.926-0.309 8.13-3.293 119.895-48.37 154.578-86.037 2.367-2.573 7.719-7.513 9.056-10.189 25.729-23.876 40.445-44.356 52.692-61.543 16.055-22.538 26.14-41.577 32.933-56.294 12.144-26.346 19.348-41.577 17.701-61.955-2.058-25.008-3.499-36.638-8.851-43.43 0-0.206 2.367-11.835 2.367-12.041l25.42 0.926c-3.705-13.379-9.674-26.243-18.936-37.461-13.688-16.466 9.056-17.29 18.422-11.424 1.029 0.617 2.779 5.043 2.573-1.75-0.309-8.027 1.029-37.049-82.64-68.541-48.884-18.422-5.454-29.331 5.454-30.977 11.732-1.75-32.521-23.362-60.72-22.435-3.19 0.103-4.425-4.425-2.161-6.792l21.2-11.938c-2.779-1.852-7.204-4.425-12.864-6.484-6.998-2.573-10.189-4.528-15.643-6.792-3.808-1.544-8.954-2.264-14.202-8.336 16.878-10.189 30.463-19.965 40.548-27.787 0 0 29.434-23.156 35.506-43.327 0.309-1.029 1.235-4.014 0.309-4.425-2.367-1.132-25.729 33.241-98.386 53.413-10.497 2.882 4.219-6.484 5.763-8.439 2.985-3.808 28.507-13.996 53.207-39.828 4.322-4.528 19.76-35.094 19.76-35.197l-4.528 2.985c-16.261 12.967-27.478 24.391-51.972 37.358-14.923 7.822-35.3 18.833-48.473 23.876-1.029 0.412-3.087 1.029-5.66 0.823-2.779-0.309-4.734-1.544-5.557-2.161-2.676 2.882-5.352 4.734-7.41 5.969-3.087 1.955-6.072 3.19-8.336 3.911-1.544 0.617-5.557 2.264-7.822 2.676-4.734 0.926-8.851 1.544-11.629 1.029 1.338-2.779 2.779-6.895 3.499-12.041 0.823-6.278 0-11.526-0.823-14.82-3.19 3.911-15.643 20.892-19.142 24.905-9.056 10.086-6.175 7.513-15.026 15.437-5.249 4.322-13.070 9.674-23.362 13.791-7.719 3.087-14.717 4.734-20.377 5.66-2.676 4.425-6.072 11.218-8.027 20.171-1.647 7.513-1.647 14.099-1.235 18.73-0.926 1.955-2.573 4.425-5.146 6.792-5.043 4.631-11.012 5.763-14.202 5.969-0.926 0.103-1.75-0.515-1.852-1.441-0.823-6.689 2.264-15.437 0.823-21.818-4.014 5.969-8.13 12.556-12.144 19.965-4.117 7.616-6.381 19.451-6.381 19.451-0.103 0.309-10.909 10.909-9.056-11.835-2.058-9.468-2.161-17.701-1.647-23.773-4.94 6.587-10.086 14.202-15.026 23.053-3.911 6.895-7.101 13.482-9.777 19.554 0.515 0.515 5.454 5.763 4.322 12.967-0.823 5.043-4.117 8.027-5.146 8.851 0.309 7.719 0.926 16.158 2.161 25.317 1.235 8.748 2.779 16.775 4.528 24.082 1.544-3.396 4.014-8.233 7.822-13.173 1.441 0.926 2.985 1.955 4.734 2.882 3.602 1.955 6.895 3.19 9.674 4.014-0.72-1.441-2.47-5.763-1.235-11.012 0.72-3.19 2.264-5.557 3.293-6.792 1.132 1.338 2.47 2.882 4.322 4.322 4.219 3.499 8.645 5.146 11.526 5.866-0.617-1.441-2.779-6.689-0.515-12.247 0.72-1.75 1.647-3.087 2.47-4.014 2.367 1.544 5.146 3.087 8.439 4.528 4.322 1.852 8.233 2.985 11.526 3.705-0.823-0.72-4.528-4.014-4.734-9.056-0.103-1.647 0.309-3.087 0.617-4.117 1.647 1.029 4.322 2.367 7.822 3.087 4.528 0.926 8.336 0.412 10.497-0.103-1.235-2.47-2.676-6.381-3.087-11.424-0.412-4.322 0.206-8.13 0.926-10.909 0.309-0.103 0.515-0.206 0.823-0.309 7.616-10.394 16.158-13.276 23.979-18.113 1.441 0.206 2.985 0.515 4.528 0.823-1.852 1.544-3.705 3.19-5.557 5.146-5.249 5.454-8.645 10.806-10.909 15.026 0.103 4.322-0.206 9.365-1.029 14.923-1.441 9.159-4.117 13.585-6.792 19.245-0.515 1.029-1.441 1.852-2.47 2.264-5.969 2.058-13.173 6.998-21.2 8.439-6.381 1.029-12.247 1.647-17.495 1.852-1.132 0-2.264 0.412-3.19 0.926-4.734 2.779-12.144 8.027-18.319 17.084-2.676 4.014-4.631 7.924-5.969 11.424-9.468-4.528-20.686-9.262-34.168-13.893-49.399-17.187-1.544-28.816 6.175-30.154 8.233-1.441-35.506-24.494-62.778-21.818-3.19 0.309-4.528-4.322-2.367-6.689l20.892-12.453c-2.882-1.852-7.307-4.219-13.070-6.175-7.101-2.367-10.394-1.955-15.746-4.117-3.808-1.544-9.056-4.322-14.408-10.291 16.569-10.6 29.845-20.686 39.828-28.816 0 0 28.816-23.979 34.271-44.253 0.309-1.029 1.132-4.014 0.206-4.425-2.367-1.029-24.905 33.859-96.946 55.883-10.394 3.19 4.014-6.587 5.454-8.542 2.882-3.911 28.096-14.717 52.178-41.166 4.219-4.631 18.833-35.608 18.833-35.711l-4.425 3.087c-15.952 13.379-26.758 25.111-50.943 38.696-14.717 8.233-34.785 19.76-47.855 25.111-0.926 0.412-2.985 1.132-5.66 0.926-2.779-0.206-4.734-1.338-5.66-1.955-2.676 2.882-5.249 4.837-7.204 6.175-3.087 2.058-5.969 3.293-8.233 4.117-1.544 0.72-5.557 2.367-7.719 2.882-4.734 1.029-8.748 1.75-11.526 1.235 1.235-2.779 2.676-6.895 3.19-12.144 0.617-6.278-0.309-11.526-1.235-14.717-3.087 3.911-15.128 21.303-18.525 25.42-8.851 10.394-5.969 7.616-14.614 15.849-5.146 4.425-12.761 9.983-22.95 14.408-7.616 3.293-14.614 5.146-20.274 6.175-2.573 4.425-5.763 11.321-7.41 20.377-1.441 7.616-1.235 14.099-0.823 18.73-0.926 1.955-2.47 4.528-4.94 6.895-4.94 4.734-10.909 5.969-14.099 6.381-0.926 0.103-1.75-0.515-1.852-1.441-0.926-6.689 1.852-15.54 0.309-21.921-3.808 6.072-7.719 12.761-11.526 20.377-3.911 7.719-5.866 19.657-5.866 19.657 0 0.206-10.497 11.115-9.262-11.629-2.367-9.365-2.573-17.701-2.264-23.773-4.734 6.689-9.674 14.511-14.408 23.465-3.705 6.998-6.792 13.585-9.262 19.76 0.617 0.515 5.66 5.557 4.631 12.864-0.72 5.043-3.911 8.13-4.94 9.056 0.515 7.719 1.338 16.158 2.882 25.214 1.441 8.748 3.19 16.672 5.146 23.876 1.441-3.499 3.808-8.336 7.41-13.379 1.441 0.926 3.087 1.852 4.837 2.779 3.602 1.852 6.998 2.985 9.777 3.808-0.72-1.441-2.573-5.66-1.544-11.012 0.617-3.293 2.161-5.557 3.087-6.895 1.132 1.338 2.573 2.779 4.425 4.219 4.322 3.396 8.748 4.837 11.732 5.557-0.617-1.338-2.882-6.587-0.823-12.144 0.617-1.75 1.544-3.087 2.367-4.117 2.367 1.441 5.249 2.985 8.542 4.322 4.322 1.75 8.336 2.779 11.629 3.396-0.926-0.72-4.631-3.911-4.94-8.954-0.103-1.647 0.206-3.087 0.515-4.117 1.75 1.029 4.425 2.264 7.924 2.882 4.528 0.823 8.336 0.206 10.497-0.309-1.235-2.47-2.882-6.278-3.396-11.321-0.515-4.322 0-8.13 0.617-10.909 0.309-0.103 0.515-0.206 0.823-0.412 7.41-10.6 15.849-13.688 23.465-18.73 1.441 0.103 2.985 0.412 4.528 0.72-1.75 1.544-3.602 3.293-5.352 5.352-5.043 5.557-8.336 11.115-10.497 15.231 0.206 4.322 0.103 9.365-0.72 14.923-1.235 9.159-3.808 13.688-6.278 19.451-0.515 1.029-1.338 1.852-2.47 2.264-5.969 2.264-12.967 7.41-20.892 8.954-6.278 1.235-12.144 1.955-17.393 2.264-1.132 0.103-2.264 0.412-3.19 1.029-4.631 2.882-11.938 8.336-17.804 17.598-6.381 9.983-8.027 19.554-8.542 24.494 1.544-2.985 4.322-7.41 9.056-11.321 2.47-2.058 4.837-3.396 6.895-4.425-0.72 2.676-1.338 5.557-1.852 8.748-0.926 5.866-1.132 11.115-1.029 15.643 2.367-8.439 7.719-23.156 18.73-31.389 2.367-1.75 7.101-4.837 12.144-7.719 2.779-1.544 7.822-4.322 14.099-6.895 4.94-1.955 12.041-4.322 20.995-5.763-0.206 2.882 0 6.792 1.852 10.909 0.412 1.029 0.926 1.955 1.441 2.779-2.779 0.515-6.072 0.926-9.88 0.926-5.146 0-9.468-0.72-12.864-1.544 1.338 3.087 3.499 7.204 7.204 11.321 2.367 2.676 4.734 4.631 6.792 6.072 5.763-0.309 12.144 0.412 19.142 0.103 5.763-0.309 10.6 0.617 13.893 1.544 5.352-9.159 15.437-23.67 32.727-36.020 26.758-19.039 54.339-21.097 65.659-21.406-2.985-2.985-4.219-6.998-3.087-10.497 0.72-2.264 2.161-3.705 3.087-4.322 12.967 3.293 29.331 10.497 47.341 20.068 16.363 15.334 30.874 29.434 35.814 38.902 26.552 51.663 28.919 117.014-18.73 172.073-1.75 1.338-3.396 2.573-5.146 3.911-3.705-0.926-7.513-1.75-11.526-2.676-51.149-10.909 8.954-24.185 0.72-31.492-13.893-12.247-46.723-14.717-63.395-13.173-3.19 0.309-5.043-3.705-3.19-6.381l19.245-15.026c-3.087-1.441-7.719-3.293-13.688-4.528-7.307-1.441-10.497-0.72-16.158-2.161-4.014-1.029-9.468-3.19-15.54-8.439 15.128-12.556 27.067-24.288 35.917-33.55 0 0 25.729-27.272 28.61-48.164 0.103-1.029 0.617-4.117-0.412-4.425-2.47-0.72-20.48 36.741-89.227 67.512-9.983 4.425 3.19-7.101 4.425-9.159 2.367-4.219 26.037-18.113 46.62-47.341 3.602-5.146 14.305-37.667 14.305-37.77l-4.014 3.602c-14.202 15.231-23.465 28.302-45.797 44.665-13.585 9.983-32.109 23.876-44.356 30.874-0.926 0.515-2.882 1.544-5.454 1.647-2.779 0.103-4.94-0.823-5.866-1.235-2.264 3.19-4.631 5.454-6.381 6.998-2.779 2.367-5.557 4.014-7.616 5.146-1.441 0.823-5.146 2.985-7.307 3.808-4.528 1.544-8.542 2.779-11.321 2.676 0.823-2.985 1.75-7.204 1.647-12.35-0.103-6.381-1.75-11.321-2.985-14.511-2.573 4.322-12.35 23.053-15.231 27.478-7.41 11.321-4.94 8.336-12.556 17.495-4.631 5.043-11.526 11.424-20.995 17.187-7.204 4.219-13.893 6.895-19.348 8.645-1.955 4.734-4.322 12.041-4.94 21.097-0.515 7.719 0.515 14.099 1.544 18.73-0.617 2.058-1.852 4.734-4.014 7.41-4.322 5.352-10.086 7.307-13.173 8.027-0.823 0.206-1.75-0.309-1.955-1.132-1.75-6.587 0-15.643-2.367-21.715-3.087 6.484-6.175 13.688-8.954 21.612-2.985 8.13-3.396 20.274-3.396 20.274-0.103 0.309-9.159 12.453-10.806-10.394-3.499-9.056-4.734-17.187-5.146-23.259-3.911 7.204-7.822 15.54-11.424 25.008-2.779 7.41-5.043 14.305-6.792 20.789 0.617 0.515 6.278 4.837 6.175 12.144-0.103 5.146-2.882 8.542-3.705 9.571 1.441 7.616 3.293 15.849 5.969 24.699 2.47 8.439 5.249 16.158 8.027 23.156 1.029-3.602 2.676-8.645 5.763-14.202 1.544 0.72 3.293 1.544 5.146 2.161 3.808 1.338 7.307 2.161 10.189 2.573-0.926-1.338-3.293-5.352-2.882-10.703 0.206-3.293 1.441-5.763 2.264-7.204 1.338 1.235 2.882 2.47 4.837 3.602 4.734 2.779 9.262 3.705 12.35 4.117-0.823-1.338-3.705-6.175-2.367-11.938 0.412-1.852 1.132-3.293 1.852-4.425 2.573 1.132 5.557 2.264 9.056 3.19 4.528 1.235 8.645 1.75 12.041 1.955-0.926-0.617-5.043-3.293-6.072-8.233-0.309-1.647-0.206-3.087 0-4.117 1.852 0.823 4.631 1.75 8.233 1.955 4.631 0.309 8.233-0.823 10.291-1.647-1.544-2.264-3.602-5.969-4.837-10.806-1.029-4.219-1.029-8.027-0.72-10.909 0.206-0.206 0.515-0.309 0.72-0.515 5.969-11.424 13.996-15.54 20.995-21.406 1.441 0 2.985 0 4.528 0.103-1.544 1.75-3.19 3.705-4.734 5.969-4.322 6.175-6.895 12.041-8.542 16.466 0.72 4.322 1.235 9.262 1.132 14.923-0.103 9.262-2.058 14.099-3.808 20.068-0.309 1.132-1.132 2.058-2.161 2.573-5.66 2.985-11.938 8.954-19.657 11.526-6.072 2.058-11.835 3.396-16.981 4.425-1.132 0.206-2.161 0.72-3.087 1.441-4.219 3.396-10.806 9.777-15.54 19.657-5.146 10.703-5.557 20.377-5.454 25.42 1.132-3.19 3.396-7.822 7.616-12.35 2.161-2.264 4.322-4.014 6.278-5.249-0.412 2.676-0.72 5.66-0.823 8.954-0.206 5.866 0.206 11.115 0.926 15.643 1.338-8.645 4.837-23.876 14.717-33.447 2.058-2.058 6.484-5.66 11.115-9.159 2.573-1.955 7.204-5.249 13.070-8.542 4.631-2.573 11.424-5.763 20.068-8.233 0.206 2.882 0.926 6.792 3.19 10.6 0.617 0.926 1.132 1.852 1.75 2.573-2.676 0.823-5.969 1.647-9.674 2.058-5.043 0.617-9.468 0.412-12.967 0.103 1.647 2.882 4.322 6.689 8.542 10.394 2.676 2.367 5.352 4.014 7.513 5.146 5.66-1.029 12.144-1.029 19.039-2.264 5.763-1.029 10.6-0.617 13.996-0.206 4.117-9.777 12.35-25.42 27.993-39.828 24.185-22.23 51.354-27.684 62.469-29.331-3.293-2.573-5.043-6.484-4.322-10.086 0.412-2.264 1.75-3.911 2.573-4.734 13.276 1.75 41.475 7.616 20.583 34.991-1.75 2.676-3.293 5.249-4.837 7.719-15.334 10.497-30.771 21.2-46.106 32.521-23.773 17.701-46.826 35.403-69.159 53.001-14.305 13.379-36.432 37.564-51.663 73.893-6.895 16.363-33.653 79.965-5.969 146.345 20.068 48.267 58.867 73.893 69.776 81.097s18.936 10.806 81.508 39.313c23.259 5.352 79.347 10.6 136.156 3.808 17.907-2.161 43.43-2.47 69.159-20.995 16.055-8.027 23.362-17.084 32.418-23.876 36.226-42.607 72.555-85.316 108.884-127.923 12.761-10.291 27.478-21.097 44.253-31.698 12.658-7.924 24.802-14.717 36.226-20.48 35.917-16.981 65.454-18.422 82.126-17.804 20.686 0.72 38.902 5.454 54.956 9.674 2.573 0.72 31.389 8.233 49.502 16.569 44.253 20.583 68.953 66.997 80.068 92.417-0.823-0.412 49.605-187.819-200.478-214.989zM565.824 146.653c0.823-3.808 2.47-9.777 6.381-15.952 3.293-5.146 6.998-8.748 9.777-11.115 3.293-0.412 7.307-0.617 11.835-0.206 3.19 0.309 5.969 0.823 8.439 1.338-1.544 3.602-4.322 8.748-9.056 13.482-10.394 10.394-23.053 12.144-27.375 12.453zM577.968 226.412c1.441-5.249 1.955-10.086 2.058-13.996 0.72-1.441 4.528-8.336 12.967-11.115 8.954-2.985 16.363 0.617 17.804 1.441 1.235 1.338 2.367 2.676 3.396 4.014 0.617 0.823 1.235 1.75 1.852 2.676 0.515 2.264 1.132 6.895-0.72 12.041-3.602 10.086-13.688 13.379-15.026 13.791-1.955 0.926-5.146 2.058-9.365 2.058-7.822 0-13.173-4.322-14.717-5.763 0.72-1.647 1.235-3.293 1.75-5.146zM565.31 249.877c3.396-4.014 7.822-10.086 10.909-18.319-0.103 2.367 0.206 6.587 2.573 10.806 0.72 1.235 1.441 2.264 2.264 3.19-0.72 1.338-2.367 3.705-5.249 5.249-4.528 2.367-9.262 1.338-12.041 0.206 0.617-0.309 1.132-0.617 1.544-1.132zM513.441 270.562c2.367-1.75 7.204-4.631 12.35-7.41 2.882-1.544 7.924-4.117 14.202-6.484 5.043-1.852 12.144-4.014 21.097-5.146-0.309 2.882-0.103 6.792 1.544 10.909 0.412 1.029 0.926 1.955 1.338 2.779-2.779 0.412-6.072 0.72-9.88 0.617-5.146-0.103-9.468-0.926-12.864-1.852 1.235 3.087 3.293 7.307 6.895 11.526 2.264 2.676 4.631 4.734 6.689 6.278 5.763-0.206 12.144 0.72 19.142 0.617 5.866-0.103 10.6 0.926 13.791 1.955 5.557-9.056 16.055-23.259 33.653-35.197 27.272-18.422 54.956-19.76 66.174-19.657-2.882-3.087-4.014-7.101-2.779-10.6 0.823-2.264 2.264-3.602 3.19-4.322 9.571 2.779 20.995 7.616 33.447 14.099 12.761 13.379 46.003 52.178 45.591 105.899-0.515 71.32-60.102 120.101-78.524 135.23-3.396 2.47-74.098 59.999-185.967 83.052-5.146 1.029 8.336-36.020 15.54-82.332 6.484-10.291 16.055 11.629 16.055 11.629s23.156-86.963-20.068-136.259c-14.202-16.158 8.542-17.495 18.113-11.938 1.029 0.617 2.882 4.94 2.47-1.75-0.412-5.969-0.206-23.67-35.197-44.459 3.293-6.278 7.822-12.761 13.996-17.187zM490.594 281.471c2.47-1.955 4.94-3.293 6.998-4.322-0.72 2.47-1.441 5.249-2.058 8.233-1.852-1.029-3.808-2.058-5.866-3.19 0.206-0.206 0.515-0.515 0.926-0.72zM214.268 219.311c0.72-3.911 2.264-9.777 5.969-16.158 3.19-5.249 6.689-8.954 9.468-11.321 3.293-0.515 7.307-0.72 11.835-0.515 3.19 0.206 5.969 0.617 8.439 1.132-1.441 3.705-4.014 8.851-8.748 13.688-10.086 10.6-22.641 12.658-26.964 13.173zM226.927 323.049c-4.425 2.47-9.159 1.544-11.938 0.515 0.617-0.309 1.132-0.617 1.544-1.132 3.293-4.014 7.616-10.291 10.497-18.628 0 2.47 0.309 6.587 2.779 10.703 0.72 1.235 1.544 2.264 2.264 3.087-0.72 1.441-2.264 3.808-5.146 5.454zM265.828 292.689c-3.396 10.086-13.379 13.688-14.614 14.202-1.955 0.926-5.146 2.264-9.262 2.264-7.822 0.206-13.276-4.014-14.923-5.352 0.515-1.647 1.029-3.293 1.544-5.043 1.338-5.352 1.75-10.086 1.75-14.099 0.72-1.441 4.322-8.439 12.658-11.526 8.851-3.19 16.363 0.206 17.804 0.926 1.235 1.235 2.367 2.573 3.499 3.911 0.72 0.823 1.338 1.75 1.955 2.573 0.515 2.264 1.338 6.895-0.412 12.144zM146.036 499.136c0.206-3.911 1.029-9.983 4.014-16.775 2.47-5.557 5.557-9.674 7.924-12.35 3.19-0.823 7.101-1.647 11.629-1.955 3.19-0.206 6.072-0.103 8.542 0.103-1.029 3.808-2.985 9.262-6.998 14.717-8.645 11.629-20.892 15.231-25.111 16.261zM171.456 600.609c-4.117 3.087-8.954 2.676-11.835 2.058 0.515-0.309 1.029-0.823 1.338-1.338 2.779-4.425 6.278-11.115 8.13-19.76 0.309 2.367 1.132 6.484 4.117 10.291 0.926 1.132 1.852 2.058 2.676 2.779-0.515 1.338-1.75 3.911-4.425 5.969zM206.241 565.618c-2.058 10.497-11.526 15.231-12.761 15.849-1.75 1.132-4.837 2.882-8.954 3.396-7.719 1.132-13.688-2.367-15.437-3.499 0.309-1.647 0.617-3.396 0.823-5.249 0.617-5.454 0.412-10.291 0-14.202 0.515-1.544 3.19-8.851 11.218-12.967 8.336-4.322 16.261-1.75 17.804-1.235 1.338 1.132 2.676 2.264 4.014 3.499 0.823 0.72 1.544 1.544 2.264 2.367 0.72 2.161 2.161 6.689 1.029 12.041z"></path>
</svg>
