<!-- Generated by IcoMoon.io -->
<svg version="1.1" xmlns="http://www.w3.org/2000/svg" width="300" height="300" viewBox="0 0 1024 1024">
<title></title>
<g id="icomoon-ignore">
</g>
<path fill="#FFF" d="M601.561 439.109c-16.359-47.628-64.505-54.979-85.316-56.015 0 0-1.76-0.104-4.763-0.104 0 0 0 0-0.104 0 0 0 0 0-0.104 0-3.106 0-4.763 0.104-4.763 0.104-20.811 0.932-68.957 8.387-85.316 56.015-13.874 40.587 12.425 86.455 7.041 92.667-21.433 24.746 7.662 64.091 11.7 67.3 7.144 5.902 29.923-6.005 26.299 0.104-2.692 4.659-5.28 39.759-5.28 39.759h7.041l3.417-12.218 6.005-0.104 1.139 12.321h12.321l1.139-11.7 4.142-0.621 0.621 12.321h10.043l0.414-12.632h8.076l0.414 12.632h10.043l0.621-12.321 4.142 0.621 1.139 11.7h12.321l1.139-12.321 6.005 0.104 3.417 12.218h7.041c0 0-2.485-35.1-5.28-39.759-3.624-6.109 19.155 5.695 26.299-0.104 4.038-3.21 33.132-42.554 11.7-67.3-5.177-6.212 21.122-52.080 7.248-92.667zM498.126 557.35c-2.796 3.106-6.834 6.834-12.321 9.94-13.149 7.351-26.195 6.316-31.372 5.591-0.311 0-0.725-0.104-0.932-0.311-11.493-7.248-15.841-18.637-12.425-25.678 0.518-1.035 2.485-4.659 8.49-6.834 0.311-0.104 0.725-0.104 1.035-0.104 7.248 0.621 16.359 2.071 26.299 5.28 8.076 2.485 15.013 5.591 20.604 8.49 1.346 0.621 1.657 2.485 0.621 3.624zM525.564 600.319c0 0.828-1.035 1.139-1.553 0.518-1.242-1.553-2.899-3.417-5.28-5.073-2.485-1.76-4.763-2.899-6.626-3.52-1.76 0.621-4.142 1.76-6.626 3.52-2.278 1.657-4.038 3.52-5.28 5.073-0.518 0.621-1.553 0.311-1.553-0.518-0.414-6.005-0.104-18.326 8.904-27.231 1.139-1.139 2.692-2.174 4.452-3.106 1.76 0.932 3.313 1.967 4.452 3.106 9.319 9.008 9.526 21.329 9.111 27.231zM569.671 572.57c-0.311 0.207-0.621 0.311-0.932 0.311-5.28 0.725-18.223 1.76-31.372-5.591-5.488-3.106-9.526-6.73-12.321-9.94-1.035-1.242-0.725-3.106 0.725-3.831 5.695-2.899 12.528-6.005 20.604-8.49 10.043-3.106 19.051-4.556 26.299-5.28 0.311 0 0.725 0 1.035 0.104 6.005 2.174 7.972 5.798 8.49 6.834 3.313 7.248-1.035 18.637-12.528 25.885z"></path>
<path fill="#FFF" d="M410.532 469.238c-8.49-2.071-16.566-7.972-25.988-11.907-4.349-3.417-15.945-12.425-21.95-32.925-6.212-21.225 12.735-44.522 14.91-48.663 9.215-2.485 11.907-1.967 21.122-4.556v-33.132h-398.625c8.076 16.67 16.359 32.511 24.746 47.731l245.594-1.035c0.414 2.278 0.932 4.659 1.45 7.144l-233.273 18.016c15.841 26.817 31.89 51.045 47.835 73.098l188.441-58.499c1.035 3.624 2.071 7.248 3.313 10.975l-167.837 79.104c15.22 19.155 30.026 36.239 44.211 51.562l130.77-94.945c1.139 2.692 2.278 5.28 3.417 7.972l-117.724 104.367c15.117 15.427 29.094 28.577 42.14 39.759l90.597-114.1c2.278 3.727 4.659 7.351 7.144 10.872l-81.175 116.792c21.95 17.187 40.587 28.266 56.118 35.41 13.771-41.001 29.405-89.975 43.072-130.045 3.21 3.003 4.142 4.556 7.248 6.834l-39.966 127.56c26.506 10.147 42.451 7.972 49.388 6.626 2.174-0.414 4.349-0.932 6.419-1.45 5.695-38.516 9.94-81.278 15.738-119.587 2.796 0.311 5.384 0.414 7.765 0.414l-3.934 108.095c8.387-3.417 18.326-8.801 27.956-17.602 2.278-2.071 4.349-4.142 6.212-6.212 0-35.617 0-71.131 0-106.749 0.207-1.553 2.899 1.139 8.18-3.21 3.106-2.588 6.523-14.081 6.523-20.604-4.452-12.942-7.765-15.427-9.215-33.443-0.104 0.104-0.621-9.111-0.621-13.667z"></path>
<path fill="#FFF" d="M998.944 386.821c8.387-15.117 16.67-31.062 24.746-47.731h-398.625v33.132c9.215 2.485 11.907 1.967 21.122 4.556 2.278 4.142 21.122 27.438 14.91 48.663-6.005 20.501-17.602 29.612-21.95 32.925-9.422 4.038-17.498 9.836-25.988 11.907 0 4.556-0.518 13.771-0.518 13.771-1.45 18.016-4.763 20.397-9.215 33.443 0 6.523 3.417 18.016 6.523 20.604 5.28 4.349 7.869 1.657 8.18 3.21 0 35.617 0 71.131 0 106.749 1.864 2.071 3.934 4.142 6.212 6.212 9.526 8.801 19.569 14.185 27.956 17.602l-4.142-108.095c2.381 0 4.97-0.104 7.765-0.414 5.798 38.206 10.043 81.071 15.738 119.587 2.071 0.518 4.245 1.035 6.419 1.45 6.937 1.242 22.882 3.417 49.388-6.626l-39.862-127.56c3.003-2.278 4.038-3.831 7.248-6.834 13.667 40.173 29.198 89.043 43.072 130.045 15.531-7.144 34.271-18.326 56.118-35.41l-81.175-116.792c2.485-3.52 4.866-7.144 7.144-10.872l90.597 114.1c13.046-11.182 27.024-24.332 42.14-39.759l-117.827-104.471c1.139-2.588 2.278-5.28 3.417-7.972l130.77 94.945c14.185-15.324 28.991-32.511 44.211-51.562l-167.837-79.104c1.139-3.727 2.278-7.351 3.313-10.975l188.441 58.499c15.945-22.054 32.097-46.282 47.835-73.098l-233.17-18.016c0.518-2.485 1.035-4.866 1.45-7.144l245.594 1.035z"></path>
</svg>
