<!-- Generated by IcoMoon.io -->
<svg version="1.1" xmlns="http://www.w3.org/2000/svg" width="300" height="300" viewBox="0 0 1024 1024">
<title></title>
<g id="icomoon-ignore">
</g>
<path fill="#FFF" d="M496.071 939.804c-5.575-1.024-11.15-1.82-16.725-2.958-42.325-8.533-66.219-34.020-72.135-76.8-4.324-31.403-0.569-62.464 5.12-93.298 9.33-50.29 25.259-98.645 40.164-147.456 22.073-72.135 42.212-144.725 57.799-218.567 0.341-1.365 0.683-2.731 2.162-4.096 1.934 8.533 3.755 17.18 5.689 25.714 18.318 81.806 41.984 162.133 67.015 242.005 12.629 40.391 23.666 81.124 29.696 123.108 3.755 25.941 5.575 51.996 0.683 78.052-7.737 41.074-32.882 65.422-74.411 71.908-4.437 0.683-8.875 1.479-13.312 2.276-10.468 0.114-21.163 0.114-31.744 0.114z"></path>
<path fill="#FFF" d="M28.672 572.188c1.82 0 3.641-0.114 5.461 0 38.002 2.162 75.776 1.934 113.436-4.437 7.737-1.365 15.36-3.982 22.983-6.258 1.934-0.569 4.096-1.707 5.234-3.186 1.365-1.707 2.503-4.324 2.276-6.258-0.114-1.138-3.527-2.276-5.461-2.389-13.198-0.796-26.624 0.114-39.595-2.048-28.103-4.665-51.428-19.684-72.476-38.343-23.211-20.594-41.756-44.942-58.368-70.884-0.228-0.455-0.341-1.024-0.683-2.162 2.617 1.024 4.665 1.707 6.599 2.503 31.744 12.857 64.171 23.438 98.304 27.079 11.947 1.252 24.121 0.114 36.181 0 0.569 0 1.252-0.114 1.707-0.341 3.868-2.389 7.737-4.892 11.605-7.282-2.844-2.958-5.234-6.713-8.647-8.875-19.228-12.402-39.367-23.552-58.027-36.864-28.672-20.48-50.859-46.535-62.464-80.441-6.030-17.522-8.42-35.612-7.282-55.41 2.162 1.82 3.755 2.958 5.234 4.21 27.534 23.893 56.32 46.194 87.836 64.512 10.468 6.030 21.618 10.809 32.768 15.588 3.982 1.707 9.33 3.755 12.516-1.024 2.958-4.437-1.138-8.306-3.868-11.492-44.032-52.565-61.668-115.029-68.494-181.362-2.503-23.893-2.958-48.014-4.21-72.021-0.114-2.048 0-4.096 1.252-6.485 0.796 1.707 1.593 3.413 2.389 5.12 22.3 50.062 48.583 97.735 81.692 141.426 48.014 63.147 109.113 108.316 183.524 135.851 11.492 4.324 22.756 9.444 34.020 14.336 3.413 1.479 6.713 3.413 10.012 5.348 25.372 15.588 31.403 46.535 12.857 69.973-5.916 7.509-13.767 13.426-21.276 19.57-7.623 6.258-16.043 11.492-23.666 17.636-24.462 19.456-30.72 45.284-23.666 74.524 6.827 28.331 27.193 42.553 54.272 48.811 5.916 1.365 11.947 1.934 18.546 2.958-9.444 25.031-18.773 50.062-28.331 75.662-1.934-1.82-3.413-3.186-4.892-4.551-20.708-19.57-47.559-22.528-71.452-7.282-7.623 4.892-14.564 10.923-21.39 16.839-8.192 7.054-15.929 14.677-23.893 21.845-23.78 21.39-51.314 31.972-83.74 30.265-28.9-1.479-57.003-5.461-82.375-20.708-4.779-2.844-9.216-6.258-14.905-10.126 9.216-2.503 17.18-4.21 24.69-6.94 19.684-7.168 39.367-14.564 58.823-22.642 7.396-3.072 14.222-7.964 20.821-12.629 4.096-2.958 8.192-6.485 10.923-10.695 2.276-3.527 3.868-8.533 3.186-12.402-0.341-1.82-6.599-3.527-10.24-3.868-17.18-1.479-34.475-1.593-51.541-3.982-48.128-6.713-84.423-30.834-106.155-75.093-0.683-1.365-1.252-2.731-1.82-4.096-0.455-0.341-0.341-0.796-0.228-1.479z"></path>
<path fill="#FFF" d="M991.346 572.188c-1.82 0-3.641-0.114-5.461 0-38.002 2.162-75.776 1.934-113.436-4.437-7.737-1.365-15.36-3.982-22.983-6.258-1.934-0.569-4.096-1.707-5.234-3.186-1.365-1.707-2.503-4.324-2.276-6.258 0.114-1.138 3.527-2.276 5.461-2.389 13.198-0.796 26.624 0.114 39.595-2.048 28.103-4.665 51.428-19.684 72.476-38.343 23.211-20.594 41.756-44.942 58.368-70.884 0.228-0.455 0.341-1.024 0.683-2.162-2.617 1.024-4.665 1.707-6.599 2.503-31.744 12.857-64.171 23.438-98.304 27.079-11.947 1.252-24.121 0.114-36.181 0-0.569 0-1.252-0.114-1.707-0.341-3.868-2.389-7.737-4.892-11.605-7.282 2.844-2.958 5.234-6.713 8.647-8.875 19.228-12.402 39.367-23.552 58.027-36.864 28.672-20.48 50.859-46.535 62.464-80.441 6.030-17.522 8.42-35.612 7.282-55.41-2.162 1.82-3.755 2.958-5.234 4.21-27.534 23.893-56.32 46.194-87.836 64.512-10.468 6.030-21.618 10.809-32.768 15.588-3.982 1.707-9.33 3.755-12.516-1.024-2.958-4.437 1.138-8.306 3.868-11.492 44.146-52.338 61.668-114.802 68.608-181.134 2.503-23.893 2.958-48.014 4.21-72.021 0.114-2.048 0-4.096-1.252-6.485-0.796 1.707-1.593 3.413-2.389 5.12-22.3 50.062-48.583 97.735-81.692 141.426-48.014 62.919-109.227 108.089-183.524 135.623-11.492 4.324-22.756 9.444-34.020 14.336-3.413 1.479-6.713 3.413-10.012 5.348-25.372 15.588-31.403 46.535-12.857 69.973 5.916 7.509 13.767 13.426 21.276 19.57 7.623 6.258 16.043 11.492 23.666 17.636 24.462 19.456 30.72 45.284 23.666 74.524-6.827 28.331-27.193 42.553-54.272 48.811-5.916 1.365-11.947 1.934-18.546 2.958 9.444 25.031 18.773 50.062 28.331 75.662 1.934-1.82 3.413-3.186 4.892-4.551 20.708-19.57 47.559-22.528 71.452-7.282 7.623 4.892 14.564 10.923 21.39 16.839 8.192 7.054 15.929 14.677 23.893 21.845 23.78 21.39 51.314 31.972 83.74 30.265 28.9-1.479 57.003-5.461 82.375-20.708 4.779-2.844 9.216-6.258 14.905-10.126-9.216-2.503-17.18-4.21-24.69-6.94-19.684-7.168-39.367-14.564-58.823-22.642-7.396-3.072-14.222-7.964-20.821-12.629-4.096-2.958-8.192-6.485-10.923-10.695-2.276-3.527-3.868-8.533-3.186-12.402 0.341-1.82 6.599-3.527 10.24-3.868 17.18-1.479 34.475-1.593 51.541-3.982 48.128-6.713 84.423-30.834 106.155-75.093 0.683-1.365 1.252-2.731 1.82-4.096 0.228-0.341 0.114-0.796 0.114-1.479z"></path>
</svg>
