<!-- Generated by IcoMoon.io -->
<svg version="1.1" xmlns="http://www.w3.org/2000/svg" width="383" height="512" viewBox="0 0 766 1024">
<title></title>
<g id="icomoon-ignore">
</g>
<path fill="#FFFFFF" d="M258.536 77.842c-0.827 0.825-0.588 14.664 0.262 15.191 0.427 0.262 6.198 0.953 12.825 1.535 17.38 1.526 26.453 3.095 38.357 6.632 3.279 0.974 3.367 0.953 5.224-1.294 3.493-4.23 10.805-16.875 12.057-20.853l0.542-1.723h-34.378c-18.91 0-34.609 0.23-34.889 0.511zM342.508 81.35c-4.433 4.707-7.199 10.032-7.75 14.926l-0.394 3.495 2.592-0.519c3.631-0.727 8.353-7.253 8.353-11.548 0-2.165 1.397-3.484 3.692-3.484 1.384 0 1.66-0.243 1.083-0.957-0.423-0.526-1.011-2.077-1.304-3.445-0.729-3.419-1.87-3.141-6.273 1.531zM354.497 81.105c0 3.311-0.209 3.805-1.692 4.020-1.323 0.191-2.071 1.332-3.424 5.222-2.818 8.089-2.012 14.831 1.032 8.631 1.147-2.335 2.481-3.382 7.23-5.677 6.973-3.369 8.064-6.030 4.506-10.993-0.302-0.421-0.775-1.713-1.051-2.871-0.446-1.861-0.859-2.106-3.553-2.106h-3.047v3.775zM382.127 81.542c-1.030 4.603-1.512 4.902-4.542 2.806-4.060-2.81-3.244-3.535-9.322 8.296-0.972 1.895-2.27 4.035-2.883 4.755-1.455 1.713-0.708 4.64 2.188 8.579 2.833 3.849 2.812 5.187-0.136 8.857-2.743 3.413-2.624 3.845 1.575 5.739 3.733 1.684 3.794 2.274 0.674 6.579l-2.423 3.348-1.451-3.424c-4.81-11.355-13.914-12.74-23.875-3.633l-3.761 3.438 0.882 4.894c2.132 11.839 3.22 26.982 3.017 42.025l-0.207 15.464-8.422 2.659c-4.632 1.46-9.705 3.047-11.272 3.524l-2.852 0.867-5.953-5.704c-23.092-22.12-25.845-24.436-29.064-24.451-2.831-0.013-2.812-0.057-4.129 9.559-1.171 8.55-1.723 9.735-4.381 9.425-4.159-0.484-5.999-16.475-3.199-27.801l0.758-3.063-11.682-11.268c-11.414-11.010-13.523-12.698-12.482-9.986 0.448 1.17 1.924 7.444 6.167 26.231 0.618 2.737 2.088 9.111 3.266 14.165l2.144 9.188 3.015 0.383c5.185 0.658 6.761 8.801 2.785 14.387-2.831 3.974-1.681 6.386 2.433 5.105 9.328-2.904 8.681-1.824 6.933-11.565-0.716-3.979 8.449-4.625 11.975-0.842 1.189 1.279 2.68 1.66 7.622 1.945 6.958 0.402 8.013 1.39 2.297 2.148-3.868 0.513-5.266 1.323-3.824 2.215 1.694 1.047 0.67 1.972-1.709 1.547-3.221-0.574-10.078 2.664-15.964 7.542-3.099 2.567-4.96 3.553-6.699 3.553-2.858 0-2.846-0.124-0.823 8.493l1.589 6.768-13.073 12.966c-13.764 13.652-14.025 14.015-11.448 16.102 2.73 2.211 1.372 6.399-1.882 5.811-2.32-0.417-2.563-0.207-5.725 4.956-3.867 6.311-3.484 6.177-7.23 2.519-3.107-3.032-8.508-3.853-14.647-2.226l-2.211 0.586 0.523-4.062c0.463-3.595 0.957-4.462 4.316-7.578 4.862-4.508 5.421-3.945-6.736-6.782-5.79-1.351-13.973-3.273-18.184-4.27-4.211-0.999-15.409-3.568-24.884-5.712s-17.863-4.089-18.638-4.322c-3.535-1.070-2.5 0.155 24.38 28.804 3.369 3.589 10.26 10.995 15.313 16.454 5.053 5.461 12.203 13.125 15.887 17.034 7.486 7.94 7.609 8.313 4.923 15.189-0.976 2.502-2.427 7.065-3.221 10.143l-1.445 5.595-20.705-0.301c-23.71-0.343-33.606-1.648-44.354-5.855-3.047-1.193-3.156-0.877-2.096 6.054 0.66 4.311 0.699 6.542 0.132 7.601-0.44 0.825-0.802 2.017-0.802 2.649s-0.35 2.071-0.779 3.199l-0.779 2.050-1.709-2.173c-1.204-1.529-1.841-3.65-2.157-7.168-0.247-2.747-0.925-6.638-1.503-8.646-0.815-2.827-0.858-4.173-0.186-5.955 1.258-3.329-1.73-5.463-4.814-3.442-1.432 0.938-2.787 1.156-4.921 0.796-3.912-0.662-5.606 0.377-8.11 4.979-1.147 2.104-2.567 3.826-3.156 3.826-1.323 0-11.699-10.038-11.699-11.316 0-0.938 5.631 0.81 7.235 2.243 2.557 2.287 3.311 0.582 1.449-3.279-2.777-5.758-1.045-6.489 10.746-4.536 6.498 1.074 6.42 1.166 3.694-4.282-1.975-3.949-3.979-9.894-6.286-18.644-1.286-4.885-2.994-17.091-3.8-27.181-0.438-5.474-1.005-11.073-1.261-12.442l-0.463-2.488h-7.49c-9.278 0-8.418-2.515-8.418 24.644v22.223l1.92 2.28c1.912 2.274 1.937 3.683 0.065 3.683-0.984 0-2.404 200.913-1.438 203.432 0.278 0.725 2.427 0.997 7.877 0.997h7.496l0.814-6.317c0.446-3.474 1.024-9.245 1.282-12.825 0.547-7.576 2.875-21.67 4.487-27.181 0.616-2.106 1.531-5.206 2.031-6.891 6.787-22.864 25.425-31.009 70.962-31.009h16.766l1.005 4.020c1.302 5.212 3.761 12.844 4.684 14.538 1.811 3.321 0.84 5.413-5.605 12.074-3.466 3.583-9.749 10.246-13.96 14.808-8.036 8.702-9.756 10.551-17.941 19.258-2.77 2.948-9.169 9.835-14.22 15.307-5.051 5.471-9.615 10.403-10.141 10.964-1.48 1.573-1.135 2.509 0.766 2.088 2.641-0.584 14.953-3.399 20.098-4.596 2.527-0.588 7.178-1.661 10.336-2.389 3.158-0.725 6.227-1.698 6.816-2.159 0.591-0.463 1.797-0.877 2.68-0.923 0.884-0.044 5.051-0.821 9.262-1.727 17.141-3.681 31.937-6.96 38.275-8.482 2.619-0.628 3.288-0.515 4.686 0.798 1.183 1.112 2.186 1.393 3.652 1.024 1.631-0.41 1.935-0.276 1.566 0.685-0.739 1.924 3.87 7.905 13.146 17.066 9.14 9.023 11.131 12.545 8.548 15.127-0.611 0.611-1.665 3.465-2.347 6.342-0.681 2.879-2.322 9.885-3.645 15.57-1.325 5.685-3.386 14.471-4.581 19.524s-3.097 13.15-4.226 17.993c-1.129 4.843-3.011 12.767-4.182 17.61-1.17 4.843-2.006 8.931-1.859 9.084 0.536 0.553 8.185-6.324 30.592-27.51 18.561-17.549 39.41-36.701 39.956-36.703 0.345-0.002 5.536 1.585 11.536 3.524l10.911 3.528-0.002 17.721c-0.010 59.979-9.102 74.525-50.78 81.232-5.319 0.856-30.282 3.486-33.086 3.486-0.212 0-0.293 7.145-0.178 15.882l0.207 15.88 13.694 1.281c47.993 4.483 61.488 13.041 67.412 42.758 2.289 11.483 3.622 33.049 2.1 33.989-4.483 2.772-34.927-7.429-47.488-15.91-5.545-3.744-5.474-3.811-5.476 5.082-0.002 22.206 6.724 54.162 18.171 86.327 9.199 25.854 25.607 60.98 37.752 80.824 1.669 2.726 3.034 5.145 3.034 5.377 0 2.485 37.747 58.507 39.42 58.507 0.993 0 18.035-24.373 27.713-39.628 13.713-21.624 30.364-52.118 37.764-69.159 1.355-3.122 3.461-7.856 4.676-10.516 1.217-2.661 2.213-5.005 2.213-5.21s0.641-1.817 1.426-3.583c3.132-7.052 9.349-24.865 13.014-37.283 2.833-9.599 3.654-12.821 4.357-17.095 0.151-0.915 0.808-4.075 1.462-7.023 4.347-19.606 7.44-49.385 5.13-49.385-0.354 0-3.541 1.753-7.082 3.895-12.13 7.339-26.398 12.798-36.682 14.036-2.316 0.279-5.503 0.697-7.082 0.926l-2.871 0.417 0.004-9.446c0.019-49.867 14.078-63.134 72.35-68.256l10.719-0.942 0.207-15.803 0.207-15.801-2.887-0.415c-1.587-0.23-5.987-0.628-9.777-0.886-41.493-2.825-59.261-11.783-66.168-33.359-5.092-15.901-7.835-66.388-3.698-68.024 2.766-1.095 21.565-6.952 22.296-6.946 0.366 0.002 3.252 2.502 6.412 5.555s6.133 5.909 6.608 6.347c0.473 0.438 5.513 5.069 11.198 10.288 5.685 5.222 12.716 11.753 15.625 14.517s6.397 6.058 7.752 7.322c20.65 19.241 22.562 20.893 22.562 19.497 0-0.789-3.738-17.44-9.536-42.467-0.974-4.211-2.316-10.068-2.978-13.016-1.828-8.116-5.851-25.466-7.073-30.496-1.529-6.296-1.428-6.707 2.398-9.701 1.884-1.474 6.927-6.192 11.207-10.484l7.781-7.806-1.405-4.642c-1.539-5.086-1.34-5.957 1.072-4.667 1.229 0.658 1.596 1.596 1.6 4.081l0.004 3.227 2.262-2.414c2.092-2.232 2.483-2.362 5.164-1.717 2.998 0.722 11.596 2.699 16.301 3.748 5.75 1.282 13.82 3.13 23.352 5.344 5.474 1.273 12.365 2.867 15.313 3.545 2.948 0.676 7.255 1.671 9.571 2.213 18.498 4.322 24.836 5.664 25.169 5.329 0.473-0.473-7.794-9.628-29.016-32.127-3.177-3.369-9.898-10.604-14.934-16.079-15.453-16.796-17.42-18.758-18.822-18.758-2.653 0-2.257-2.603 2.391-15.696 0.299-0.842 1.164-3.512 1.924-5.934l1.38-4.402h17.327c24.478 0 39.108 2.104 50.319 7.235 5.31 2.433 5.222 2.437 6.389-0.381 2.758-6.661 6.229-5.172 13.799 5.922 5.247 7.687 5.346 10.958 0.333 10.958-2.341 0-2.389 1.101-0.32 7.274 3.476 10.373 7.408 36.841 7.593 51.107 0.015 1.191 0.917 1.34 8.058 1.34h8.041l-0.387-256.11h-15.313l-0.538 6.891c-4.977 63.746-15.437 75.137-70.668 76.946-9.264 0.304-17.752 0.806-18.86 1.114-1.229 0.345-2.218 0.235-2.534-0.274-0.283-0.461-1.11-0.838-1.834-0.838-0.957 0-1.69-1.304-2.691-4.785-0.756-2.632-2.37-7.681-3.585-11.221-2.532-7.364-2.714-6.724 3.893-13.608 2.76-2.873 9.115-9.703 14.124-15.177 5.007-5.474 11.881-12.89 15.273-16.477 14.048-14.857 16.98-18.020 17.478-18.831 1.039-1.707-4.041-9.663-5.851-9.165-0.898 0.247-8.694 2.035-17.327 3.974s-17.935 4.037-20.673 4.661c-2.737 0.626-6.355 1.441-8.039 1.817-1.684 0.373-8.878 1.996-15.985 3.604l-12.922 2.927-29.122-29.051 0.842-3.503c0.81-3.377 3.302-13.998 4.774-20.349 0.39-1.684 1.409-6.163 2.262-9.953s1.887-8.269 2.297-9.953c0.41-1.684 1.443-6.163 2.297-9.953 2.486-11.023 2.877-12.737 4.112-17.993 2.525-10.754 3.484-15.051 3.999-17.945l0.536-3.015-1.981 1.558c-1.091 0.858-6.012 5.316-10.937 9.906-4.925 4.592-9.337 8.692-9.806 9.113s-3.953 3.694-7.743 7.274c-3.79 3.579-10.838 10.126-15.663 14.547-7.205 6.604-17.865 16.592-22.671 21.247-1.273 1.233-13.47-1.838-23.99-6.037l-1.838-0.735 0.53-18.148c1.734-59.418 11.856-70.323 70.139-75.574 16.163-1.457 14.645-0.469 14.385-9.364l-0.22-7.478-54.576-0.197c-48.033-0.172-54.627-0.057-55.016 0.957-0.555 1.447-3.88 1.449-6.405 0.006-1.261-0.722-4.29-1.103-8.874-1.122l-6.962-0.027-0.942 4.211zM324.826 98.162c-0.45 0.544-1.42 2.498-2.157 4.339l-1.338 3.352 1.843 1.416c2.559 1.968 3.641 1.801 4.27-0.653 1.608-6.257-0.038-11.575-2.619-8.455zM338.935 111.328c-0.479 1.248 0.165 2.13 1.122 1.541 0.869-0.538 0.85-2.615-0.025-2.615-0.377 0-0.869 0.482-1.097 1.074zM329.23 112.457c0 0.369 0.511 1.097 1.137 1.616 0.624 0.519 1.891 2.456 2.816 4.305 1.644 3.294 2.864 3.93 5.555 2.896 3.070-1.177 0.517-4.506-6.248-8.148-2.829-1.524-3.26-1.612-3.26-0.668zM351.302 124.296c0.532 2.762-0.637 4.776-4.41 7.591-4.684 3.497-5.139 3.528-5.608 0.379-0.764-5.12 9.061-12.938 10.019-7.97zM378.28 159.682c1.397 1.263 1.166 4.175-0.329 4.156-1.954-0.027-2.864-1.305-2.36-3.315 0.593-2.36 0.903-2.458 2.689-0.84zM387.28 178.2c-0.32 2.756-2.923 3.438-2.923 0.764 0-2.102 0.557-2.864 2.092-2.864 0.718 0 0.992 0.695 0.831 2.1zM289.405 181.488c-0.513 1.237-1.204 2.081-1.537 1.876-0.727-0.45-0.084-3.409 1.057-4.86 1.263-1.606 1.575 0.339 0.48 2.984zM390.099 189.125c0 1.642-2.224 1.405-2.548-0.27-0.197-1.024 0.115-1.336 1.139-1.139 0.775 0.149 1.409 0.783 1.409 1.409zM331.165 195.276c0.53 0.858-0.923 3.028-2.029 3.028-0.785 0-0.909-2.571-0.161-3.317 0.741-0.743 1.623-0.626 2.19 0.289zM416.882 212.468c0.22 1.053 0.574 2.762 0.789 3.798 0.436 2.111-2.408 4.515-3.019 2.552-0.988-3.181-1.12-7.402-0.241-7.756 1.748-0.706 2.071-0.523 2.471 1.407zM312.386 215.148c-0.45 0.842-1.164 1.531-1.585 1.531-0.492 0-0.473-0.546 0.054-1.531 0.45-0.842 1.164-1.531 1.585-1.531 0.492 0 0.473 0.546-0.054 1.531zM373.142 220.316l-0.113 2.488h12.011c55.452 0 103.361 27.816 130.433 75.731 2.002 3.541 3.639 6.533 3.639 6.646 0 0.115 1.007 2.385 2.238 5.046 22.855 49.409 13.768 112.882-22.118 154.524-6.493 7.534-17.532 18.27-22.066 21.461-1.985 1.397-3.756 2.653-3.932 2.793-0.178 0.14-0.247 2.125-0.155 4.412 0.13 3.193-0.295 5.072-1.82 8.083-2.553 5.040-2.073 6.462 2.716 8.053 4.611 1.531 4.707 2.171 0.637 4.246l-3.153 1.61-2.622-2.542c-1.441-1.397-3.507-4.349-4.588-6.56-1.878-3.84-1.97-5.293-0.568-8.945 0.731-1.905-1.175-1.476-5.821 1.309-38.070 22.816-93.965 24.116-135.756 3.154-4.552-2.284-8.386-4.152-8.52-4.152s-0.065 1.585 0.153 3.522c0.218 1.937-0.036 5.819-0.567 8.623-0.898 4.762-0.829 5.599 1.041 12.626 2.328 8.746 2.486 11.707 0.735 13.644-2.858 3.156-4.659 0.57-9.073-13.035l-2.573-7.926 2.374-4.324c2.063-3.759 2.381-5.116 2.439-10.398l0.067-6.074-4.931-3.497c-30.844-21.875-51.080-51.815-59.807-88.484-0.802-3.369-1.466-7.073-1.478-8.231-0.013-1.483-0.415-2.109-1.359-2.117-0.97-0.010-1.072-0.182-0.371-0.628 0.773-0.49 0.791-2.232 0.092-8.6-7.877-71.655 44.228-141.94 116.394-157.010 8.238-1.721 8.495-1.828 8.495-3.53 0-2.293 3.193-4.881 5.718-4.634 2.090 0.205 2.31 0.477 2.209 2.716zM619.603 232.967c-4.425 0.85-5.361 2.965-2.789 6.299 1.148 1.491 1.271 1.432 4.569-2.18 3.168-3.468 4.159-5.229 2.814-4.992-0.316 0.054-2.383 0.448-4.594 0.873zM381.294 244.727c-24.646 2.199-44.733 10.47-61.509 25.328-5.675 5.028-11.117 11.657-10.669 12.999 0.165 0.494-0.398 1.273-1.252 1.73-4.594 2.458-11.891 20.625-13.311 33.143-1.466 12.911 1.805 31.516 7.844 44.609 2.098 4.552 3.317 11.569 3.656 21.055l0.369 10.336-2.471 2.68c-7.536 8.171-9.084 20.956-3.185 26.294 2.262 2.046 4.473 7.902 5.065 13.414 1.96 18.232 13.776 24.304 34.692 17.826 3.118-0.965 3.147-0.523 0.524 8.311-2.971 10.017-4.912 20.491-4.919 26.559l-0.008 5.505 3.254 0.486c1.79 0.266 4.804 0.373 6.699 0.237l3.445-0.247 0.766-13.016h9.953l0.444 13.464 11.041-0.448 0.766-13.016h9.953l0.444 13.464 11.041-0.448 0.766-13.016h9.953l0.222 6.736 0.222 6.734 9.509-0.454v-7.467c0-7.31 1.141-9.806 3.063-6.698 0.26 0.421 1.966 0.766 3.792 0.766 4.010 0 4.247 0.452 4.247 8.103v5.679h4.644c7.224 0 7.777-0.544 7.249-7.132-0.639-7.967-1.912-15.265-4.033-23.111-1.912-7.073-2.879-11.868-2.393-11.868 0.151 0 2.171 0.729 4.487 1.621 7.021 2.701 16.672 2.902 20.883 0.435 6.964-4.081 12.622-15.671 8.212-16.825-2.234-0.584-1.882-1.734 1.097-3.574 1.809-1.12 3.047-2.749 3.976-5.231 0.741-1.983 2.136-4.663 3.099-5.955 6.466-8.675 5.553-16.169-3.285-26.96-4.466-5.455-3.070-20.514 3.817-41.198 7.735-23.236 8.482-39.875 2.396-53.529-7.115-15.968-10.398-20.99-19.323-29.56-17.42-16.728-36.966-25.4-61.893-27.466-5.021-0.417-9.473-0.706-9.894-0.647-0.421 0.061-1.972 0.218-3.445 0.35zM277.595 250.020c0.57 3.803 0.255 4.603-1.545 3.912-1.616-0.62-1.688-7.392-0.080-7.392 0.722 0 1.282 1.206 1.625 3.48zM521.887 252.485c0.925 0.605 0.048 4.018-1.028 3.997-1.614-0.033-2.641-1.439-2.161-2.955 0.53-1.667 1.663-2.037 3.189-1.041zM209.023 255.345c0 0.632-0.323 1.148-0.72 1.148-0.967 0-1.658-1.196-1.045-1.807 0.861-0.863 1.765-0.526 1.765 0.658zM260.896 262.371c3.625 2.705 3.162 3.821-2.68 6.456-2.842 1.282-6.171 2.789-7.398 3.348-5.25 2.398-5.501-0.276-0.668-7.122 5.015-7.101 4.873-7.065 10.746-2.682zM224.336 267.978c0 0.842-0.345 1.531-0.766 1.531s-0.766-0.689-0.766-1.531c0-0.842 0.345-1.531 0.766-1.531s0.766 0.689 0.766 1.531zM354.497 269.509c0 3.26-1.281 4.062-3.059 1.918-0.766-0.923-0.706-1.518 0.306-3.063 1.809-2.76 2.753-2.368 2.753 1.145zM345.284 270.968c-0.038 1.954-2.035 4.060-3.555 3.75-1.526-0.312-1.594-3.459-0.136-6.185 0.919-1.719 3.736 0.14 3.69 2.435zM372.107 271.684c0 0.352 0.861 1.036 1.914 1.514 3.819 1.74 2.527 4.223-1.972 3.79-4.473-0.431-6.47-1.943-5.712-4.33 0.513-1.619 5.769-2.508 5.769-0.974zM545.856 272.47c1.020 1.908 0.090 2.728-1.187 1.047-1.208-1.593-1.323-2.477-0.318-2.477 0.406 0 1.083 0.643 1.505 1.43zM214.16 274.57c0.293 0.894-6.433 4.127-8.585 4.127-1.334 0-1.003-2.435 0.603-4.439 0.963-1.202 7.568-0.944 7.982 0.312zM539.784 279.407c0 0.681-2.102 3.118-2.689 3.118-0.993 0-0.959-1.602 0.057-2.619 1.346-1.346 2.632-1.589 2.632-0.5zM401.364 312.566c3.941 3.252 6.579 7.325 5.051 7.804-4.806 1.506-8.326 0.712-12.522-2.827-1.282-1.081-3.694-2.213-5.36-2.513-4.025-0.727-4.431-1.032-3.258-2.446 3.415-4.113 11.113-4.121 16.088-0.017zM385.123 323.105c0 0.421-0.882 0.766-1.96 0.766-1.11 0-1.753-0.331-1.485-0.766 0.26-0.421 1.143-0.766 1.96-0.766s1.485 0.345 1.485 0.766zM456.447 324.058c-0.877 0.877-2.64 0.029-2.021-0.972 0.232-0.373 0.949-0.477 1.596-0.228 0.768 0.293 0.915 0.71 0.425 1.2zM425.702 326.164c0 1.152-1.016 1.388-2.695 0.622-0.986-0.448-1.606-1.258-1.392-1.817 0.398-1.037 4.087 0.038 4.087 1.194zM346.074 325.702c0 1.244-1.635 1.996-4.337 1.996-3.979 0-1.21-2.188 3.763-2.973 0.316-0.050 0.574 0.39 0.574 0.976zM333.636 326.359c-0.492 1.499-5.938 1.717-5.938 0.237 0-0.886 0.804-1.194 3.126-1.194 2.159 0 3.030 0.297 2.812 0.957zM556.246 326.933c-0.26 0.421-0.97 0.766-1.577 0.766s-1.103-0.345-1.103-0.766c0-0.421 0.71-0.766 1.577-0.766s1.363 0.345 1.103 0.766zM664.585 332.293c0 0.842-0.308 1.531-0.683 1.531-0.861 0-1.663-1.991-1.051-2.605 0.923-0.921 1.734-0.419 1.734 1.074zM166.252 336.521c5.894 3.882 6.031 4.224 3.31 8.231l-1.945 2.862-2.391-1.237c-2.666-1.378-3.407-0.823-6.5 4.871-2.213 4.069-3.696 1.602-5.069-8.428-0.496-3.623-0.488-3.637 1.742-3.637 2.385 0 4.623-2.307 4.623-4.764 0-1.901 0.318-1.794 6.23 2.102zM595.975 342.537c5.005 6.221 19.643 26.727 19.312 27.058-0.607 0.607-8.214-5.388-11.87-9.352-2.462-2.67-10.038-16.492-10.038-18.312 0-0.856 1.748-0.446 2.596 0.607zM389.364 346.126c0.706 1.139-0.111 1.759-1.577 1.196-0.678-0.258-1.016-0.819-0.754-1.242 0.62-1.005 1.696-0.984 2.331 0.046zM671.185 348.346c-0.628 3.928-2.035 6.988-2.952 6.422-1.365-0.844 0.963-9.46 2.555-9.46 0.599 0 0.727 0.974 0.396 3.038zM623.583 353.157c6.257 4.956 6.608 7.165 1.42 8.96-3.93 1.357-5.090 0.567-8.378-5.716-2.104-4.018-2.117-4.121-0.708-5.677 1.929-2.132 1.878-2.15 7.666 2.433zM172.386 351.051c0 0.4-0.369 0.852-0.823 1.001-0.452 0.151-0.823-0.299-0.823-1.001s0.371-1.152 0.823-1.001c0.454 0.151 0.823 0.601 0.823 1.001zM349.55 356.845c0.706 1.139-0.111 1.759-1.577 1.196-0.678-0.258-1.016-0.819-0.754-1.242 0.62-1.005 1.696-0.984 2.331 0.046zM151.444 361.809c0.203 2.764-0.184 3.555-3.7 7.574-4.378 5.004-5.333 6.946-5.333 10.855 0 2.925-3.867 5.283-12.471 7.601-8.862 2.389-18.718-5.099-13.826-10.505 1.797-1.985 2.705-1.788 7.632 1.663 4.378 3.066 6.064 3.675 6.542 2.36 0.806-2.217 18.804-22.993 19.779-22.83 0.752 0.126 1.227 1.259 1.376 3.281zM661.083 375.424c-0.268 0.702-0.796 1.277-1.173 1.277-0.8 0-0.925-2.567-0.161-3.331 0.861-0.861 1.862 0.68 1.334 2.054zM234.249 387.611c-0.021 0.526-0.836 3.024-1.813 5.551l-1.774 4.594-1.248-4.159c-1.918-6.384-1.772-6.943 1.813-6.943 1.96 0 3.049 0.345 3.022 0.957zM351.62 402.978c3.26 1.095 8.083 2.419 10.719 2.946 8.047 1.608 15.39 8.030 11.959 10.459-9.597 6.793-21.808 11.774-32.245 13.154-3.053 0.404-6.774 0.946-8.271 1.206-9.259 1.604-19.16-22.537-12.017-29.3 6.319-5.98 11.59-6.908 18.554-3.266 2.955 1.547 8.041 3.708 11.301 4.801zM443.333 396.584c3.445 1.039 7.972 3.652 9.894 5.712 3.725 3.989-0.658 20.399-6.971 26.103-3.254 2.94-2.132 2.862-14.812 1.032-9.396-1.355-25.479-7.846-31.725-12.806-3.553-2.82 2.54-8.38 11.502-10.499 8.256-1.949 12.907-3.622 20.55-7.389 4.031-1.989 7.846-3.417 8.478-3.176s2.019 0.702 3.084 1.022zM654.24 399.381c2.519 6.030 1.206 7.946-5.446 7.946-2.245 0-2.284 0.4 0.551-5.656 2.726-5.829 3.302-6.096 4.894-2.289zM462.109 415.337c0.572 1.667 0.97 3.086 0.884 3.151-2.955 2.203-5.134 2.218-5.134 0.036 0-6.734 2.414-8.543 4.249-3.187zM212.319 419.301c0.815 0.815-0.205 1.769-1.403 1.311-0.614-0.237-0.928-0.739-0.695-1.116 0.496-0.802 1.407-0.888 2.098-0.195zM552.624 421.73c0.459 1.378-1.122 1.089-1.656-0.302-0.287-0.747-0.117-1.097 0.444-0.909 0.5 0.167 1.045 0.712 1.212 1.212zM390.49 430.417c4.785 5.786 10.595 21.674 9.798 26.802-0.226 1.457-6.163-3.484-9.645-8.024-2.136-2.787-5.235-1.623-11.069 4.154-6.096 6.037-6.474 5.934-5.193-1.416 1.709-9.825 4.95-17.246 9.86-22.592 2.553-2.779 3.141-2.678 6.25 1.078zM672.818 436.609c-0.444 1.332-9.010 3.17-10.028 2.151-1.081-1.081-0.243-1.717 3.128-2.37 4.739-0.921 7.253-0.84 6.9 0.218zM229.265 439.582c2.513 1.979 1.931 2.676-2.823 3.373-3.532 0.517-3.637 0.475-3.637-1.432 0-3.488 3.252-4.464 6.46-1.941zM244.138 439.189c2.578 1.807 0.992 2.898-3.283 2.257-3.645-0.546-4.129-1.030-2.584-2.575 1.281-1.281 3.777-1.145 5.867 0.318zM220.096 455.341c0.507 2.017-0.944 4.050-2.888 4.050-1.998 0-5.873-4.527-4.538-5.304 2.871-1.673 6.862-0.999 7.427 1.254zM400.995 466.044c0.323 0.97-1.914 1.968-2.963 1.321-0.446-0.276-0.373-0.886 0.186-1.56 0.99-1.193 2.339-1.076 2.777 0.239zM224.508 467.045c3.183 1.939 6.41 1.939 10.935 0 1.968-0.844 3.89-1.342 4.27-1.106 1.099 0.68 6.087 11.929 5.624 12.681-1.005 1.623-4.692 0.605-7.207-1.987-4.066-4.196-7.997-4.927-15.901-2.959-1.571 0.392-1.723 0.161-1.723-2.653 0-5.633 0.488-6.118 4.001-3.976zM431.906 470.338c-0.614 0.614-0.838 0.234-0.821-1.415 0.021-1.979 0.124-2.084 0.846-0.844 0.588 1.013 0.582 1.652-0.025 2.259zM394.513 472.864c1.003 1.005-0.346 2.674-1.432 1.772-0.578-0.48-0.863-1.177-0.632-1.55 0.484-0.785 1.401-0.882 2.063-0.222zM261.391 494.496c0.806 3.767 0.551 4.186-2.129 3.514-1.723-0.433-2.004-0.911-2.004-3.419 0-4.925 3.084-4.996 4.133-0.096zM477.541 501.693c-0.182 0.947-0.331 0.172-0.331-1.723s0.149-2.67 0.331-1.723c0.184 0.947 0.184 2.498 0 3.445zM176.1 498.822c0 0.632-0.517 1.148-1.148 1.148s-1.148-0.517-1.148-1.148c0-0.632 0.517-1.148 1.148-1.148s1.148 0.517 1.148 1.148zM501.502 500.353c0 0.632-0.517 1.148-1.148 1.148-1.196 0-1.52-0.905-0.637-1.786 0.88-0.882 1.786-0.559 1.786 0.637zM329.422 527.314l7.465 1.34v3.223c0 4.337-0.274 4.393-8.369 1.677-5.658-1.897-7.188-2.733-7.762-4.242-1.48-3.893-1.658-3.851 8.665-1.998zM323.407 537.097c2.086 1.933 1.713 5.528-0.5 4.791-1.614-0.538-3.71-4.071-3.2-5.396 0.668-1.744 1.271-1.646 3.7 0.605zM506.166 535.994c1.763 0.944 1.25 2.259-0.882 2.259-0.974 0-1.485-0.526-1.485-1.531 0-1.753 0.287-1.841 2.368-0.727zM359.091 584.958c0 0.842-0.323 1.531-0.72 1.531-1.028 0-1.753-1.393-1.194-2.297 0.8-1.294 1.914-0.85 1.914 0.766zM398.139 624.262c0 1.133-0.379 1.351-1.723 0.992-0.947-0.255-1.981-0.467-2.297-0.473s-0.574-0.84-0.574-1.857c0-1.736 0.14-1.795 2.297-0.982 1.441 0.544 2.297 1.409 2.297 2.32zM371.174 664.459c0.23 0.693-0.224 0.938-1.411 0.766-0.961-0.142-1.899-0.716-2.084-1.279-0.23-0.693 0.224-0.938 1.411-0.766 0.961 0.142 1.899 0.716 2.084 1.279zM384.357 665.236c0 0.674-1.602 5.662-1.962 6.11-0.354 0.44-3.398-1.426-3.398-2.083 0-0.345 0.844-1.537 1.878-2.653 1.853-1.998 3.482-2.641 3.482-1.374zM396.923 788.68c3.993 4.745 3.377 8.679-1.070 6.837-4.234-1.755-5.97-6.074-3.266-8.127 1.878-1.426 2.107-1.357 4.336 1.29zM302.126 797.751c1.221 0.389 4.927 1.282 8.236 1.985 6.822 1.447 6.776 1.778-0.632 4.554l-5.335 1.998-1.326-1.751c-2.289-3.020-4.594-7.494-3.863-7.494 0.385 0 1.698 0.318 2.919 0.708zM351.051 800.475c2.948 0.666 6.135 1.378 7.082 1.583 3.635 0.789-0.4 4.387-5.974 5.329-5.153 0.869-12.21-2.481-12.21-5.798 0-1.349 2.511-2.996 4.075-2.67 0.917 0.189 4.079 0.89 7.027 1.556zM333.143 801.744c8.282 4.414 3.206 7.369-6.393 3.721-2.215-0.842-4.63-1.531-5.367-1.531-1.771 0-1.696-1.175 0.191-3.063 2.255-2.255 6.269-1.952 11.569 0.873zM378.812 806.805c0.438 1.338-2.27 1.202-4.071-0.205-1.401-1.097-1.338-1.15 1.135-0.957 1.441 0.113 2.762 0.635 2.936 1.162zM415.312 809.207c0.697 1.126-1.79 2.76-2.745 1.805-0.452-0.452-0.588-1.194-0.306-1.652 0.62-1.003 2.469-1.097 3.051-0.153zM378.044 870.737c-0.172 0.526-1.302 1.072-2.508 1.214-1.928 0.226-2.071 0.109-1.187-0.957 1.196-1.441 4.152-1.646 3.694-0.256z"></path>
</svg>
