<!-- Generated by IcoMoon.io -->
<svg version="1.1" xmlns="http://www.w3.org/2000/svg" width="300" height="300" viewBox="0 0 1024 1024">
<title></title>
<g id="icomoon-ignore">
</g>
<path fill="#FFF" d="M21.895 309.782c99.144-0.112 198.288-0.225 297.432-0.225 2.021 17.853 8.87 57.488 38.175 96.786 30.877 41.432 69.389 59.396 86.119 66.021l-38.625 355.144-98.021-35.593 53.446-111.495c-6.961-4.154-14.26-8.646-21.67-13.698-7.86-5.277-15.158-10.554-21.895-15.719-29.193 27.958-58.386 56.028-87.579 83.986l-64.225-70.175 93.642-68.94c-5.614-7.074-11.34-14.596-17.067-22.681-7.074-9.881-13.474-19.649-19.312-28.968-37.277 18.077-74.442 36.042-111.719 54.119l-54.344-105.207c46.26-8.309 92.519-16.618 138.779-25.039-1.684-6.512-3.144-13.811-4.267-21.67s-1.796-15.27-2.021-21.895c-50.526 0.337-101.053 0.561-151.579 0.898l-15.27-115.649z"></path>
<path fill="#FFF" d="M1002.105 309.782c-99.144-0.112-198.288-0.225-297.432-0.225-2.021 17.853-8.87 57.488-38.175 96.786-30.877 41.432-69.389 59.396-86.119 66.021l38.625 355.144 98.021-35.593-53.333-111.495c6.961-4.154 14.26-8.646 21.67-13.698 7.86-5.277 15.158-10.554 21.895-15.719 29.193 27.958 58.386 56.028 87.579 83.986l64.225-70.175-93.642-68.94c5.614-7.074 11.34-14.596 17.067-22.681 7.074-9.881 13.474-19.649 19.312-28.968 37.277 18.077 74.442 36.042 111.719 54.119l54.344-105.207c-46.26-8.309-92.519-16.618-138.779-25.039 1.684-6.512 3.144-13.811 4.267-21.67s1.796-15.27 2.021-21.895c50.526 0.337 101.053 0.561 151.579 0.898l15.158-115.649z"></path>
<path fill="#FFF" d="M512.561 0l74.442 122.498-49.067 38.625 13.698 180.772h28.744l32.786-32.337 53.221 54.681-53.109 52.772-29.53-29.418-27.284 0.561 33.011 452.042-76.8 184.028-80.281-183.804 35.93-452.491-25.825-0.112-30.428 28.295-54.905-55.13 52.772-51.425 33.684 32.337h30.204l14.035-180.211-49.853-38.737z"></path>
</svg>
