<!-- Generated by IcoMoon.io -->
<svg version="1.1" xmlns="http://www.w3.org/2000/svg" width="494" height="1024" viewBox="0 0 494 1024">
<title></title>
<g id="icomoon-ignore">
</g>
<path fill="#FFF" d="M9.66 218.739v173.196h4.904c53.162 0 100.088 57.463 93.067 113.965-5.946 47.851-48.1 88.904-91.291 88.904h-6.68v88.324h170.586l6.233-3.954c7.242-4.591 12.014-10.185 13.012-15.247 3.714-18.84 38.397-63.105 65.565-83.679 13.889-10.519 24.32-21.158 25.531-26.042 0.392-1.581 0.532-37.341 0.312-79.467l-0.398-76.594-3.182-6.457c-2.948-5.984-4.518-7.195-21.392-16.49-57.8-31.843-95.714-66.516-106.667-97.548l-3.257-9.229-0.058-95.224c-0.069-114.002-0.432-117.258-13.452-120.592-12.785-3.273-72.606-7.061-111.519-7.061h-21.315v173.196zM169.802 207.409c-0.058 66.761 0.308 70.772 6.825 74.801 2.451 1.514 1.806-111.256-0.698-121.875-5.616-23.825-6.068-20.35-6.128 47.074zM191.893 258.336l-0.065 43.738 7.936 8.574c9.734 10.517 21.803 20.244 39.782 32.062l13.695 9.003 0.413-5.908c2.084-29.863-24.626-91.496-52.677-121.547l-9.017-9.66-0.067 43.738zM224.949 392.056c53.804 25.737 42.147 106.12-16.561 114.203-40.875 5.627-74.094-27.041-69.029-67.885 4.965-40.029 48.961-63.839 85.59-46.318zM184.173 408.56c-28.103 10.814-34.436 50.479-11.11 69.592 27.604 22.621 69.172 1.577 66.718-33.774-1.947-28.037-29.578-45.834-55.608-35.818zM9.66 493.369v80.733h4.54c28.663 0 61.666-27.354 70.765-58.652 13.657-46.975-25.487-102.814-72.076-102.814h-3.23v80.733zM304.991 481.122v68.485l11.437-0.6c6.291-0.33 12.19-1.066 13.111-1.634 2.196-1.359 2.431-127.981 0.245-132.068-1.24-2.316-2.974-2.669-13.111-2.669h-11.682v68.487zM345.014 481.595v55.574l13.454-0.965c50.614-3.626 75.489-21.141 75.538-53.187 0.051-32.397-27.62-52.974-75.453-56.109l-13.54-0.888v55.574zM174.801 548.083c36.72 13.739 39.090 66.142 3.775 83.421-25.885 12.665-58.246-2.956-64.156-30.965-7.449-35.309 26.766-65.033 60.381-52.456zM146.975 565.279c-26.176 14.282-17.863 52.985 11.383 52.985 27.193 0 37.991-32.881 16.486-50.2-6.496-5.232-20.769-6.659-27.869-2.785zM9.66 700.377c0 1.897 0.577 3.45 1.282 3.45 4.818 0 5.619 4.111 5.619 28.87v24.533l5.432 2.451c5.902 2.661 12.662 2.148 19.706-1.495l3.844-1.987v-43.89l3.635-2.861c11.75-9.243 18.446 1.486 18.446 29.553v18.435l4.886 1.612c5.995 1.979 6.249 1.884 18.241-6.866l9.702-7.079 26.060 6.617 13.336-26.715c7.336-14.693 13.337-27.023 13.337-27.397s-32.293-0.681-71.762-0.681h-71.763v3.45zM95.224 770.682c-3.415 1.785-9.057 5.755-12.537 8.823s-7.983 5.994-10.006 6.502l-3.678 0.924v42.147l-4.38 1.814c-15.079 6.246-19.081 1.571-19.081-22.28v-18.993l-6.194-2.365c-6.772-2.586-17.145-2.207-20.717 0.756-1.677 1.393-2.070 5.772-2.070 23.073 0 20.988-1.661 29.371-5.818 29.371-0.595 0-1.083 26.083-1.083 57.962v57.963l8.625-0.005c43.318-0.023 59.986-5.48 72.895-23.861 14.464-20.596 14.732-21.567 17.849-64.459 3.497-48.11 5.163-66.256 7.658-83.38 1.097-7.528 1.84-13.802 1.651-13.941-0.814-0.604-13.461-3.416-15.101-3.358-0.992 0.036-4.598 1.524-8.014 3.308z"></path>
</svg>
