<!-- Generated by IcoMoon.io -->
<svg version="1.1" xmlns="http://www.w3.org/2000/svg" width="300" height="300" viewBox="0 0 1024 1024">
<title></title>
<g id="icomoon-ignore">
</g>
<path fill="#FFF" d="M392.312 483.629c0.554-1.773 1.773-2.66 4.211-2.327-1.108 16.734-2.106 33.358-3.214 50.424 0.776-0.443 0.997-0.554 1.219-0.776 6.206-6.982 24.935-26.376 24.824-31.474-0.111-1.995 0-3.99-0.111-5.874-0.222-5.763-0.443-11.415-0.665-17.177-0.111-2.216 0.665-3.325 2.106-3.657 1.219-0.222 2.216 0.554 2.771 2.771 1.33 4.544 2.549 9.198 3.768 13.853 0.222 0.665 0.332 1.219 0.665 2.549 1.108-1.33 1.995-2.106 2.66-3.103 2.992-4.544 5.874-9.309 9.087-13.853 2.327-3.214 3.99-6.539 3.103-10.639-0.111-0.332 0-0.665 0-0.887 0.332-3.546 5.652-7.314 8.201-3.546 0.665 0.997 0.776 2.216 0.554 3.325-0.222 0.887-0.443 1.662-0.887 2.438-0.997 1.995-2.106 3.99-3.435 5.984-4.876 7.314-9.752 14.739-14.739 22.054-6.428 9.531-12.855 18.951-19.172 28.481-3.214 4.876-2.992 5.541 1.773 8.533 8.977 5.652 17.953 11.304 26.93 16.845 0.665 0.443 1.33 0.776 2.216 1.33 0.554-1.33 0.997-2.327 1.441-3.325 12.412-31.806 24.824-63.612 37.347-95.418 0.554-1.441 0.776-2.66 0.554-3.879-0.665-2.66-17.177-18.729-21.721-23.494l-3.325-4.322c-7.203 2.66-19.172 8.201-26.376 10.861-11.193 4.211-22.386 8.755-34.466 10.196-5.43 0.665-10.861 1.33-16.402 1.108-12.412-0.443-22.497-5.541-30.255-15.072-2.327-2.771-4.433-5.874-5.763-9.198-4.655-12.19-5.319-24.381 0.554-36.461 0.665-1.441 1.219-2.881 1.995-4.211 1.441-2.438 2.771-4.876 4.544-6.982 4.433-5.43 8.977-10.639 13.631-15.848 1.662-1.884 3.435-3.657 5.43-5.098 5.43-3.768 11.304-6.982 17.621-9.198v-16.623c-1.441 0-2.66 0-3.879 0-16.402 0.443-32.803 0.332-49.205 0.887-10.417 0.332-20.724 0.332-31.141 0.554-18.729 0.222-37.68 0.554-56.519 0.776-9.863 0.111-19.726 0.222-29.59 0.443-19.172 0.332-38.455 0.554-57.628 0.887-10.085 0.111-20.17 0.332-30.255 0.443-19.061 0.222-38.012 0.443-57.074 0.665-21.943 0.222-43.997 0.443-66.050 0.776-2.438 0-4.876 0.332-7.314 0.443-0.111 0.332-0.111 0.443-0.332 0.776 0.443 0.554 0.776 1.108 1.219 1.662 2.327 2.881 4.765 5.763 7.093 8.644 1.441 1.773 2.549 3.99 4.211 5.541 5.984 5.541 11.193 11.747 15.404 18.618 2.66 4.433 5.541 6.539 10.196 6.206 6.871-0.554 13.631-0.887 20.502-1.219 15.404-0.665 30.698-1.33 46.102-1.995 18.397-0.887 36.793-1.773 55.079-2.549 9.309-0.443 18.729-0.887 28.038-1.33 16.18-0.776 32.36-1.552 48.54-2.327 11.082-0.554 22.165-0.997 33.358-1.552 14.739-0.665 29.479-1.441 44.218-2.106 0.665 0 1.33 0 1.995 0-0.665 1.995-1.219 3.768-1.995 5.874-89.323 7.979-178.757 15.072-268.523 22.829 0.776 0.997 1.219 1.552 1.662 2.106 5.098 5.209 10.196 10.417 15.183 15.626 5.43 5.652 10.861 11.415 16.291 17.177 2.438 2.66 5.098 4.1 8.755 2.881 0.443-0.222 0.997-0.332 1.552-0.443 32.582-5.984 65.164-12.080 97.745-18.064 40.45-7.425 80.9-14.961 121.351-22.386 0.997-0.222 1.884-0.222 2.881-0.332 0.111 0.222 0.222 0.443 0.332 0.776-0.665 0.665-1.219 1.552-1.884 1.995-0.776 0.554-1.773 0.665-2.66 0.997-9.087 2.549-18.175 4.987-27.262 7.536-20.502 5.652-41.004 11.415-61.506 17.067-8.423 2.327-16.845 4.433-25.268 6.76-7.758 2.106-15.404 4.322-23.051 6.539-0.443 0.111-0.776 0.111-1.219 0.222-2.771 0.665-5.652 1.33-8.423 1.995-4.433 1.108-8.755 2.438-13.188 3.546-3.325 0.887-6.649 1.441-9.974 2.216-1.441 0.332-2.881 0.997-4.322 1.441-3.768 1.108-7.647 1.884-11.304 3.325-4.987 1.995-10.306 3.103-15.404 4.765-1.108 0.332-2.327 0.776-4.433 1.441 1.219 0.776 1.995 1.219 2.549 1.662 11.193 9.974 22.497 20.059 33.69 30.144 0.997 0.887 1.995 1.884 2.992 2.881 2.106 2.216 4.433 2.881 7.203 1.552 1.441-0.665 2.881-1.108 4.322-1.662 51.2-19.948 102.289-40.007 153.489-59.955 0.887-0.332 1.884-0.665 2.881-0.997 0.443 3.546 0.332 4.322-2.438 5.984-3.435 1.995-6.982 3.657-10.417 5.541-33.69 18.064-67.269 36.239-100.959 54.303-7.314 3.99-14.739 7.758-22.054 11.636-1.884 0.997-3.879 1.884-5.541 3.768 13.077 11.082 25.822 21.943 38.899 33.136 18.729-13.964 36.571-29.257 55.079-43.775 18.397-14.518 36.682-29.257 55.19-43.997 0.776 1.108 1.441 1.995 2.106 2.881-0.665 0.776-1.219 1.441-1.773 2.106-15.072 15.626-30.255 31.252-45.326 46.878-14.518 15.072-29.146 30.255-43.664 45.437-0.776 0.776-1.441 1.662-2.216 2.438 11.193 7.093 22.054 14.074 32.914 20.945 2.881 1.773 2.992 1.773 4.987-0.887 0.111-0.111 0.222-0.332 0.332-0.443 17.51-22.608 34.909-45.216 52.419-67.823 5.984-7.758 12.080-15.626 18.175-23.384 0.887-1.108 1.552-2.549 3.879-1.773-0.554 1.33-0.997 2.66-1.773 3.879-10.861 18.84-21.721 37.569-32.693 56.298-7.203 12.301-14.407 24.603-21.5 36.904-0.776 1.33-1.884 2.66-1.662 4.433 0.332 0.111 0.554 0.222 0.665 0.332 11.415 1.662 22.829 3.435 34.244 4.987 1.884 0.222 3.879 0.222 5.763 0.332 0.997-2.216 1.773-4.1 2.549-6.095 11.526-26.376 22.94-52.752 34.466-79.127 1.33-2.992 2.549-5.874 3.99-8.755 1.773-3.546 3.99-4.1 7.647-1.662-0.332 1.33-0.665 2.771-1.108 4.1-9.752 29.146-19.505 58.293-29.257 87.439-0.222 0.776-0.332 1.552-0.554 2.438 0.443-0.111 0.665-0.222 0.887-0.332 11.858-8.423 23.716-16.845 35.574-25.268 2.216-1.552 3.546-3.768 4.1-6.428 0.776-3.657 1.441-7.314 2.327-10.971 2.881-13.077 5.763-26.154 8.755-39.231 0.443-2.881 1.108-5.541 1.884-8.312z"></path>
<path fill="#FFF" d="M453.707 651.415c-2.438-3.879-4.876-7.758-7.536-11.526-1.773-2.549-1.995-5.209-0.887-7.979 0.443-1.108 0.997-2.216 1.662-3.325 5.652-9.974 11.304-19.837 16.956-29.811 0.443-0.665 0.665-1.441 1.219-2.549-6.649-5.209-13.188-10.417-19.948-15.737-0.887 1.773-1.552 3.103-2.216 4.544-5.541 11.636-10.971 23.273-16.734 34.798-3.879 7.647-2.438 6.982-11.969 6.76-8.201-0.222-16.402-0.443-24.603-0.776-0.887 0-1.773 0.111-2.771 0.222 1.773 11.415 3.546 22.608 5.319 33.69 0.887-0.554 1.219-1.219 1.552-1.884 2.438-4.322 4.987-8.644 7.425-12.966 0.665-1.219 1.552-2.216 3.103-2.216 3.435 0 6.76 0 10.528 0-0.443 0.997-0.776 1.662-1.108 2.216-6.428 11.747-12.745 23.605-19.172 35.352-0.776 1.33-1.441 2.771-2.106 4.211-1.662 3.546-0.997 6.871 1.773 9.42 1.884 1.773 4.1 3.103 6.317 4.433 6.539 3.768 13.742 2.881 21.389 3.103-1.219-1.33-1.995-2.438-2.881-3.325-2.106-1.995-4.322-3.879-6.317-6.095-3.657-3.99-3.879-6.649-1.108-11.193 3.657-5.874 7.314-11.858 10.971-17.732 1.995-3.103 3.99-6.317 5.984-9.531 1.441 1.108 2.66 2.106 4.1 2.992 1.662 1.108 2.327 2.438 1.552 4.544-2.106 6.095-4.211 12.19-6.317 18.286-0.222 0.665-0.332 1.219-0.665 2.549 1.441-0.997 2.438-1.552 3.325-2.216 7.314-5.209 14.518-10.417 21.721-15.626 0.554-0.443 1.219-0.776 1.773-1.33 2.327-1.995 2.771-3.435 1.773-6.317-0.332-1.662-1.108-3.435-2.106-4.987z"></path>
<path fill="#FFF" d="M517.098 400.18c4.655 10.196 9.198 20.391 13.853 30.587 0.222 0.554 0.665 1.219 1.108 1.995 0.887-0.776 1.441-1.33 1.995-1.884 5.541-6.095 11.082-12.080 16.623-18.175 3.99-4.322 7.979-8.533 11.969-12.745 1.995-2.106 2.881-4.544 2.327-7.425-1.33-7.536-4.987-13.742-10.75-18.84-1.108-0.887-2.438-1.552-3.546-2.327-2.216 1.662-3.99 3.103-5.874 4.433-8.977 6.206-17.953 12.412-26.93 18.618-2.216 1.552-2.327 1.773-1.33 4.322 0.222 0.443 0.443 0.997 0.554 1.441z"></path>
<path fill="#FFF" d="M452.932 393.087c0.554-1.33 1.108-2.66 1.773-3.99 5.652-11.415 12.634-21.278 25.822-24.713 3.99-0.997 4.544-2.66 3.546-7.203-4.433-0.332-8.866-0.776-13.299-1.108-11.526-0.776-22.94-1.33-34.466-2.106-5.874-0.332-11.747-0.665-17.732-1.108-1.552-0.111-2.438 0.443-3.103 1.884-1.995 4.211-4.1 8.423-6.095 12.634-0.222 0.443-0.222 0.997-0.443 1.552 14.407 8.201 28.703 16.402 43.221 24.603 0.554-0.111 0.776-0.222 0.776-0.443zM432.651 372.918c-2.881 0-5.763-2.66-5.874-5.319s2.438-5.541 4.876-5.43c2.992 0 6.317 2.992 6.206 5.43s-2.881 5.319-5.209 5.319z"></path>
<path fill="#FFF" d="M477.313 373.915c-8.755 4.433-17.288 14.961-19.837 24.381 2.881 4.322 28.925 35.463 30.809 36.793 2.327-3.657 15.183-36.793 15.626-40.007-0.111-0.111-0.222-0.332-0.332-0.443-7.425-5.984-14.85-12.080-22.275-18.064-1.441-0.997-2.881-1.773-3.99-2.66z"></path>
<path fill="#FFF" d="M540.26 361.503c1.884 0.443 3.768 1.108 5.763 1.33 5.209 0.665 9.42 3.214 12.966 6.871 2.771 2.771 5.209 5.874 7.647 8.977 2.106 2.771 3.214 5.984 3.546 9.42 0.443 3.879 1.219 7.758 1.884 11.636 6.317-0.776 9.087-2.66 11.304-7.979 1.662-3.99 3.768-7.647 6.539-10.971 3.214-3.879 6.871-6.871 11.747-8.312 1.441-0.443 2.881-0.443 4.211-0.997 0.665-0.222 1.441-1.108 1.441-1.552 0-3.546-0.332-6.982-0.554-10.417-9.087-1.441-64.831-5.763-67.491-5.098-0.222 1.33-0.554 2.771-0.776 4.211-0.222 1.552 0.332 2.438 1.773 2.881z"></path>
<path fill="#FFF" d="M591.127 388.987c-0.443 0.443-0.887 0.997-1.552 1.884 7.314 0.887 14.185 1.773 20.945 2.66 2.66 0.332 2.66 0.332 3.103 2.881 0.887 4.433 1.995 8.866 4.322 13.742 4.876-7.314 10.085-13.631 13.299-21.167 0.222-0.665 0.443-1.33 0.554-2.106 0.443-3.435-0.554-4.987-3.879-5.984-3.99-1.108-7.979-2.327-11.969-3.325-2.327-0.554-4.655-0.997-6.982-1.552-1.552-0.332-2.771 0.111-3.99 1.108-4.433 3.99-9.198 7.868-13.853 11.858z"></path>
<path fill="#FFF" d="M388.876 393.087c0.332 0.332 0.665 0.776 1.108 1.108 4.765 5.209 9.531 10.417 14.296 15.515 0.332 0.332 0.776 0.665 1.33 1.108 0-2.327 0.222-4.322 0-6.317-0.665-5.43 1.773-8.533 6.539-10.639s9.42-4.433 14.074-6.649c0.887-0.443 1.773-0.887 3.103-1.662-5.874-3.103-11.304-5.874-16.623-8.866-1.108-0.665-1.995-0.111-2.881 0.332-6.539 2.992-12.966 5.874-19.505 8.866-4.211 2.216-4.544 3.768-1.441 7.203z"></path>
<path fill="#FFF" d="M564.197 637.008c-0.554-1.219-0.997-2.549-1.552-3.768-5.874-12.745-11.858-25.378-17.732-38.123-0.222-0.332-0.222-0.776-0.443-1.441 0.443-0.554 0.997-1.108 1.552-1.662 7.758-6.76 15.515-13.41 23.384-20.17 4.655-3.99 4.876-4.765 2.66-10.306-16.18-41.115-32.36-82.341-48.429-123.456-3.99-10.085-7.868-20.059-11.858-30.144 0-0.111-0.111-0.222-0.111-0.332l-0.665 0.332c-3.99 10.085-7.868 20.059-11.858 30.144-16.18 41.115-32.36 82.341-48.429 123.456-2.216 5.652-1.995 6.317 2.66 10.306 7.868 6.649 15.626 13.41 23.384 20.17 0.554 0.554 1.108 1.108 1.552 1.662-0.222 0.665-0.332 0.997-0.443 1.441-5.874 12.745-11.858 25.378-17.732 38.123-0.554 1.219-0.997 2.438-1.552 3.768-0.554 1.219-0.332 2.438 0.332 3.546 0.997 1.662 6.317 6.982 8.423 8.201 0.443-0.997 0.887-1.884 1.33-2.771 4.655-10.971 9.42-21.943 14.074-32.914 0.776-1.662 1.33-3.546 3.103-4.433 2.992 1.552 3.214 2.216 1.884 5.763-4.1 11.636-8.201 23.273-12.412 34.909-0.887 2.549-0.887 4.876 0.887 6.982 2.327 2.771 4.655 5.541 6.871 8.312 2.106-0.443 2.327-2.106 2.881-3.546 3.99-11.526 7.979-23.162 11.969-34.687 0.776-2.438 1.884-4.765 2.771-7.203 2.216 2.106 2.327 2.216 1.662 4.433-1.108 4.433-2.216 8.866-3.546 13.188-2.881 9.752-5.763 19.505-8.644 29.257-0.887 2.992-0.443 5.652 1.552 8.090 3.879 4.987 14.629 14.961 19.283 19.283v0.554c0.111-0.111 0.222-0.222 0.332-0.222 0.111 0.111 0.222 0.222 0.332 0.222v-0.554c4.544-4.322 15.404-14.296 19.283-19.283 1.995-2.549 2.438-5.098 1.552-8.090-2.881-9.752-5.874-19.505-8.644-29.257-1.219-4.433-2.438-8.866-3.546-13.188-0.554-2.216-0.554-2.327 1.662-4.433 0.997 2.438 1.995 4.765 2.771 7.203 3.99 11.526 7.979 23.162 11.969 34.687 0.443 1.441 0.665 3.103 2.881 3.546 2.216-2.771 4.544-5.541 6.871-8.312 1.773-2.106 1.773-4.433 0.887-6.982-4.211-11.636-8.312-23.273-12.412-34.909-1.219-3.546-0.997-4.211 1.884-5.763 1.884 0.887 2.438 2.66 3.103 4.433 4.765 10.971 9.42 21.943 14.074 32.914 0.443 0.997 0.887 1.884 1.33 2.771 2.106-1.33 7.425-6.539 8.423-8.201 0.776-1.108 1.108-2.216 0.443-3.546z"></path>
<path fill="#FFF" d="M614.622 642.771c1.552 0 2.438 0.997 3.103 2.216 2.438 4.322 4.987 8.644 7.425 12.966 0.332 0.665 0.665 1.219 1.552 1.884 1.773-11.082 3.546-22.275 5.319-33.69-0.997-0.111-1.884-0.222-2.771-0.222-8.201 0.222-16.402 0.443-24.603 0.776-9.531 0.222-8.090 0.887-11.969-6.76-5.763-11.526-11.193-23.162-16.734-34.798-0.665-1.441-1.33-2.771-2.216-4.544-6.76 5.319-13.299 10.528-19.948 15.737 0.554 0.997 0.776 1.773 1.219 2.549 5.652 9.974 11.304 19.837 16.956 29.811 0.665 1.108 1.219 2.216 1.662 3.325 1.108 2.771 0.887 5.43-0.887 7.979-2.549 3.768-5.098 7.647-7.536 11.526-0.997 1.552-1.773 3.325-2.438 5.098-0.997 2.771-0.554 4.322 1.773 6.317 0.554 0.443 1.219 0.887 1.773 1.33 7.203 5.209 14.518 10.417 21.721 15.626 0.887 0.665 1.884 1.219 3.325 2.216-0.332-1.219-0.443-1.884-0.665-2.549-2.106-6.095-4.1-12.19-6.317-18.286-0.665-1.995-0.111-3.325 1.552-4.544 1.33-0.887 2.66-1.995 4.1-2.992 1.995 3.214 3.99 6.317 5.984 9.531 3.657 5.874 7.314 11.858 10.971 17.732 2.771 4.544 2.66 7.203-1.108 11.193-1.995 2.106-4.211 3.99-6.317 6.095-0.887 0.887-1.773 1.995-2.881 3.325 7.647-0.222 14.85 0.665 21.389-3.103 2.216-1.33 4.433-2.66 6.317-4.433 2.771-2.549 3.435-5.874 1.773-9.42-0.665-1.441-1.33-2.771-2.106-4.211-6.428-11.747-12.745-23.605-19.172-35.352-0.332-0.665-0.665-1.219-1.108-2.216 4.1-0.111 7.425-0.111 10.861-0.111z"></path>
<path fill="#FFF" d="M1024 327.813c-2.438-0.111-4.876-0.443-7.314-0.443-22.054-0.222-43.997-0.443-66.050-0.776-19.061-0.222-38.012-0.443-57.074-0.776-10.085-0.111-20.17-0.332-30.255-0.443-19.172-0.332-38.455-0.554-57.628-0.887-9.863-0.111-19.726-0.222-29.59-0.443-18.951-0.222-37.79-0.443-56.741-0.776-10.417-0.111-20.724-0.222-31.141-0.554-16.402-0.554-32.803-0.554-49.205-0.887-1.219 0-2.438 0-3.879 0v16.291c6.317 2.216 12.19 5.43 17.621 9.198 1.995 1.441 3.768 3.214 5.43 5.098 4.655 5.209 9.198 10.528 13.631 15.848 1.773 2.106 3.103 4.655 4.544 6.982 0.776 1.33 1.33 2.771 1.995 4.211 5.874 12.080 5.319 24.381 0.554 36.461-1.33 3.325-3.435 6.428-5.763 9.198-7.758 9.531-17.842 14.629-30.255 15.072-5.541 0.222-10.971-0.443-16.402-1.108-12.080-1.552-23.273-5.984-34.466-10.196-7.203-2.771-19.172-8.201-26.376-10.861l-3.325 4.322c-4.544 4.765-21.167 20.835-21.721 23.494-0.222 1.108 0 2.438 0.554 3.879 12.523 31.806 24.935 63.612 37.347 95.418 0.443 0.997 0.887 2.106 1.441 3.325 0.887-0.443 1.552-0.887 2.216-1.33 8.977-5.652 17.953-11.193 26.93-16.845 4.765-2.992 4.987-3.657 1.773-8.533-6.317-9.531-12.745-18.951-19.172-28.481-4.876-7.314-9.863-14.629-14.739-22.054-1.219-1.884-2.327-3.879-3.435-5.984-0.332-0.776-0.665-1.552-0.887-2.438-0.222-1.108-0.111-2.327 0.554-3.325 2.549-3.768 7.868 0 8.201 3.546 0 0.332 0.111 0.665 0 0.887-0.887 4.1 0.776 7.425 3.103 10.639 3.214 4.544 5.984 9.198 9.087 13.853 0.665 0.997 1.552 1.773 2.66 3.103 0.332-1.219 0.554-1.884 0.665-2.549 1.219-4.655 2.438-9.198 3.768-13.853 0.554-2.106 1.552-2.992 2.771-2.771 1.441 0.332 2.216 1.441 2.106 3.657-0.222 5.763-0.443 11.415-0.665 17.177-0.111 1.995 0 3.99-0.111 5.874-0.111 4.987 18.618 24.381 24.824 31.474 0.222 0.332 0.443 0.332 1.219 0.776-1.108-16.956-2.106-33.69-3.214-50.424 2.327-0.332 3.657 0.554 4.211 2.327 0.776 2.66 1.441 5.43 1.995 8.090 2.881 13.077 5.874 26.154 8.755 39.231 0.776 3.657 1.552 7.314 2.327 10.971 0.554 2.66 1.884 4.765 4.1 6.428 11.858 8.423 23.716 16.845 35.574 25.268 0.111 0.111 0.332 0.111 0.887 0.332-0.222-0.887-0.332-1.662-0.554-2.438-9.752-29.146-19.505-58.293-29.257-87.439-0.443-1.33-0.776-2.771-1.108-4.1 3.657-2.327 5.874-1.884 7.647 1.662 1.441 2.881 2.771 5.874 3.99 8.755 11.526 26.376 22.94 52.752 34.466 79.127 0.776 1.884 1.662 3.768 2.549 6.095 1.884-0.111 3.879 0 5.763-0.332 11.415-1.662 22.829-3.325 34.244-4.987 0.222 0 0.332-0.111 0.665-0.332 0.222-1.773-0.887-3.103-1.662-4.433-7.093-12.301-14.296-24.603-21.5-36.904-10.861-18.729-21.832-37.569-32.693-56.298-0.665-1.219-1.108-2.549-1.773-3.879 2.327-0.776 2.992 0.665 3.879 1.773 6.095 7.758 12.19 15.515 18.175 23.384 17.51 22.608 34.909 45.216 52.419 67.823 0.111 0.111 0.222 0.332 0.332 0.443 1.995 2.549 2.106 2.66 4.987 0.887 10.861-6.871 21.721-13.853 32.914-20.945-0.776-0.887-1.441-1.662-2.216-2.438-14.518-15.183-29.035-30.255-43.664-45.437-15.072-15.626-30.144-31.252-45.326-46.878-0.554-0.554-1.108-1.219-1.773-2.106 0.665-0.887 1.33-1.773 2.106-2.881 18.507 14.739 36.793 29.479 55.19 43.997s36.239 29.811 55.079 43.775c13.077-11.193 25.932-22.054 38.899-33.136-1.662-1.995-3.657-2.771-5.541-3.768-7.314-3.879-14.739-7.758-22.054-11.636-33.69-18.064-67.269-36.239-100.959-54.303-3.435-1.884-7.093-3.546-10.417-5.541-2.771-1.662-2.992-2.438-2.438-5.984 0.997 0.332 1.995 0.665 2.881 0.997 51.2 19.948 102.289 40.007 153.489 59.955 1.441 0.554 2.992 0.997 4.322 1.662 2.771 1.33 5.098 0.665 7.203-1.552 0.997-0.997 1.995-1.995 2.992-2.881 11.193-10.085 22.386-20.059 33.69-30.144 0.554-0.554 1.33-0.887 2.549-1.662-2.106-0.665-3.214-0.997-4.433-1.441-5.098-1.662-10.306-2.771-15.404-4.765-3.657-1.441-7.536-2.216-11.304-3.325-1.441-0.443-2.881-1.108-4.322-1.441-3.325-0.776-6.649-1.441-9.974-2.216-4.433-1.108-8.755-2.438-13.188-3.546-2.771-0.776-5.652-1.33-8.423-1.995-0.443-0.111-0.776-0.111-1.219-0.222-7.647-2.216-15.404-4.433-23.051-6.539-8.423-2.327-16.845-4.433-25.268-6.76-20.502-5.652-41.004-11.415-61.506-17.067-9.087-2.549-18.175-4.987-27.262-7.536-0.887-0.222-1.884-0.443-2.66-0.997s-1.33-1.33-1.884-1.995c0.111-0.222 0.222-0.443 0.332-0.776 0.997 0.111 1.884 0.111 2.881 0.332 40.45 7.425 80.9 14.961 121.351 22.386 32.582 5.984 65.164 12.080 97.745 18.064 0.554 0.111 0.997 0.222 1.552 0.443 3.546 1.33 6.206-0.222 8.755-2.881 5.43-5.763 10.861-11.526 16.291-17.177 4.987-5.209 10.196-10.417 15.183-15.626 0.443-0.443 0.887-1.108 1.662-2.106-89.766-7.758-179.2-14.85-268.523-22.94-0.665-2.106-1.219-3.768-1.995-5.874 0.665 0 1.33 0 1.995 0 14.739 0.665 29.479 1.441 44.218 2.106 11.082 0.554 22.165 0.997 33.358 1.552 16.18 0.776 32.36 1.552 48.54 2.327 9.309 0.443 18.729 0.887 28.038 1.33 18.397 0.887 36.793 1.773 55.079 2.549 15.404 0.665 30.698 1.33 46.102 1.995 6.871 0.332 13.742 0.665 20.502 1.219 4.544 0.443 7.425-1.662 10.196-6.206 4.211-6.982 9.42-13.077 15.404-18.618 1.773-1.552 2.771-3.768 4.211-5.541 2.327-2.881 4.655-5.763 7.093-8.644 0.443-0.554 0.776-1.108 1.219-1.662-0.111 0.443-0.111 0.332-0.222 0z"></path>
</svg>
