<!-- Generated by IcoMoon.io -->
<svg version="1.1" xmlns="http://www.w3.org/2000/svg" width="300" height="300" viewBox="0 0 1024 1024">
<title></title>
<g id="icomoon-ignore">
</g>
<path fill="#FFF" d="M877.496 860.099c-55.092-84.24-110.641-168.021-165.427-252.261-7.173-10.988-14.956-14.803-27.622-14.803-28.69 0.153-57.533 0.305-86.224 0.305s-57.533 0-86.224 0c-28.69 0-57.533 0-86.224 0s-57.533 0-86.224-0.153c-10.377 0-18.16 1.831-24.723 11.598-55.702 84.24-112.014 168.174-167.716 252.566-3.51 5.341-6.715 14.65-4.273 18.771 2.594 4.426 12.056 6.41 18.466 6.41 64.706 0.458 129.412 0.153 194.117 0.458 6.562 0 14.193-0.153 19.381 3.052 33.421 20.907 68.521 40.136 92.023 73.252 13.43 18.771 25.486 38.457 38.305 57.686 6.867 10.225 15.413 10.377 19.534 0 23.044-58.601 66.995-96.906 120.56-125.902 9.462-5.036 19.839-7.783 30.522-7.783 63.18-0.61 126.512-0.153 189.692-0.61 4.273 0 8.546-1.526 12.819-3.052 2.9-1.068 4.578-4.12 3.815-7.173-1.068-4.273-2.289-8.699-4.578-12.361z"></path>
<path fill="#FFF" d="M701.539 350.235c-13.582-1.679-23.196-8.851-30.522-20.602-17.092-27.622-18.16-27.927-38.457-1.068-18.008 23.654-40.136 37.084-70.047 32.353-29.759-4.731-59.212-10.988-88.513-17.703-12.514-2.9-19.686-0.61-22.281 12.819-1.526 8.546-4.883 16.787-6.41 25.333-8.546 47.461-39.068 69.894-84.85 74.625-12.666 1.373-25.638 1.373-38.305 0.916-14.345-0.61-28.538-3.052-42.883-3.815-13.43-0.61-18.313 6.867-12.056 18.16 16.329 29.759 32.811 59.365 50.055 88.513 2.9 4.883 9.92 8.851 15.413 8.851 58.449 0.61 117.050 0.458 175.499 0.458 0-0.153 0-0.305 0-0.458 57.991 0 115.982 0 173.973 0 7.783 0 14.040 0.153 17.245-10.53 17.092-57.991 35.252-115.677 53.108-173.515 9.156-29.453 9.156-29.301-21.976-30.827-9.614-0.458-19.381-2.289-28.996-3.51z"></path>
<path fill="#FFF" d="M208.92 316.662c7.478 25.943 16.787 51.582 26.554 76.762 9.156 23.502 28.080 36.473 52.345 40.136 16.176 2.442 32.658 3.968 48.987 3.205 53.565-2.9 72.489-17.855 89.276-68.674 5.189-16.024 9.614-32.2 14.65-49.292 5.799 1.373 10.53 2.747 15.566 3.51 36.321 5.799 72.489 12.056 108.962 16.787 16.787 2.137 32.2-4.883 41.662-18.771 10.835-15.871 19.686-33.269 28.080-50.666 1.373-2.747-2.594-10.53-6.104-12.666-10.072-5.952-20.907-10.53-31.742-15.108-66.232-28.385-132.311-56.923-198.696-84.697-5.036-2.137-14.193-0.61-18.466 2.9-54.939 44.714-109.42 89.886-163.443 135.669-5.189 4.273-9.309 14.956-7.63 20.907z"></path>
<path fill="#FFF" d="M669.644 255.313c0 12.361-0.458 24.57 0.153 36.931 1.221 25.791 23.807 41.204 59.212 38.61 8.546-0.61 20.602-5.799 24.112-12.514 21.823-42.578 44.867-84.85 61.959-129.412 14.040-36.931-3.205-79.051-39.678-94.159-34.795-14.345-62.722-4.578-76.762 28.232-18.16 41.967-30.522 85.613-28.996 132.311z"></path>
<path fill="#FFF" d="M236.695 219.145c5.494 13.124 11.751 14.65 23.654 5.341 30.216-23.807 60.128-47.919 89.734-72.489 3.815-3.205 8.241-9.309 7.783-13.735-2.747-37.084-10.683-72.947-26.706-106.673-7.173-15.566-20.144-23.654-37.389-19.381-20.602 5.189-41.204 11.293-60.891 19.534-23.349 9.614-32.048 28.996-29.148 48.987 3.51 51.276 15.108 95.685 32.963 138.415z"></path>
<path fill="#FFF" d="M543.742 191.218c0 0 0 0 0 0 28.080 12.361 56.007 25.028 83.782 37.694 0.458 0.153 0.763 0.305 1.221 0.458 0.305 0.153 0.61 0.305 0.916 0.305 0.61 0.153 1.068 0.305 1.526 0.458 0.153 0 0.458 0.153 0.61 0.153 0.763 0.153 1.373 0.305 1.984 0.458 0.153 0 0.305 0 0.458 0 0.458 0.153 0.916 0.153 1.526 0.153 0.153 0 0.458 0 0.61 0 0.305 0 0.763 0 1.068 0s0.458 0 0.61-0.153c0.305 0 0.61-0.153 0.916-0.153 0.153 0 0.458-0.153 0.61-0.153 0.305-0.153 0.61-0.153 0.916-0.305 0.153-0.153 0.458-0.153 0.61-0.305 0.305-0.153 0.458-0.305 0.763-0.458 0.153-0.153 0.458-0.305 0.61-0.305 0.305-0.153 0.458-0.305 0.763-0.458 0.153-0.153 0.305-0.305 0.61-0.458 0.153-0.153 0.458-0.458 0.61-0.61s0.305-0.305 0.458-0.61c0.153-0.305 0.458-0.458 0.61-0.763 0.153-0.153 0.305-0.458 0.458-0.61 0.153-0.305 0.305-0.61 0.61-0.916 0.153-0.305 0.305-0.458 0.458-0.763s0.305-0.763 0.458-1.068c0.153-0.305 0.153-0.458 0.305-0.763 0.153-0.458 0.305-0.916 0.458-1.373 0.153-0.153 0.153-0.458 0.305-0.61 0.305-0.763 0.458-1.373 0.763-2.137 5.799-20.755 13.43-41.052 17.55-62.111 5.036-24.57 8.088-49.445 10.377-74.473 1.526-17.855-7.936-29.911-24.875-36.321-23.044-8.851-46.851-11.446-70.963-7.325-24.265 4.12-38.762 18.008-42.73 42.12-3.052 18.618-4.273 37.694-6.867 60.738 0 1.373 0 2.9 0 4.426 0 3.815 0.153 8.088 0.153 12.819 0 0.763 0 1.373 0 2.137 0 1.831 0 3.815-0.153 5.799 0 0.305 0 0.61 0 0.916 0 1.221-0.153 2.442-0.153 3.663 0 0 0 0 0 0-1.068 10.53 2.442 16.787 12.056 20.907z"></path>
<path fill="#FFF" d="M403.648 132.769c29.301 13.43 59.212 25.791 88.665 38.762 11.446 5.036 16.176 0.61 17.855-10.377 5.799-36.626 8.088-73.252 0.458-110.030-8.088-39.525-21.365-51.124-61.654-51.124-51.582 0-62.264 10.835-62.111 70.2 1.068 10.835 2.289 29.911 5.494 48.529 0.763 5.341 6.257 11.751 11.293 14.040z"></path>
</svg>
