<!-- Generated by IcoMoon.io -->
<svg version="1.1" xmlns="http://www.w3.org/2000/svg" width="300" height="300" viewBox="0 0 1024 1024">
<title></title>
<g id="icomoon-ignore">
</g>
<path fill="#FFF" d="M484.966 1002.803l-173.363-125.542 58.675-122.778-69.632-8.192v-6.861l77.722-12.288v-10.957l-42.701-75.878c-1.126-2.15-0.512-4.71 1.331-6.144l14.131-7.987-53.965-163.942 13.107-7.987-30.003-126.874 8.192-5.427-12.493-68.301 4.301-2.56-3.482-43.11 23.859-13.005 9.933 49.459 8.294 0.614 9.728 65.946 12.083-0.512 26.931 100.147-10.957-125.542 9.523-1.331-8.192-80.486h8.192l1.331-64.102 25.907-4.096 6.861 68.198 8.192 1.331 2.765 72.294h8.192l17.715 95.539 2.765-122.778h9.523l-2.765-84.582h6.861l6.861-61.44h29.491l1.843 57.344h7.782l-0.922 88.371 9.933 0.307v158.31l13.312-129.638 10.445 1.331v-88.678l8.909-0.307 2.56-63.283 28.672 3.584 3.789 60.518 5.427 2.253 2.867 87.654 8.090 2.765-6.656 134.656c0 0 15.053 5.427 15.053 25.907s36.864-70.963 36.864-70.963v-57.344c0 0 16.384-28.672 25.907-25.907s19.149 83.251 19.149 83.251 8.192 0 10.957 9.523c2.765 9.523-31.334 92.774-31.334 92.774s4.096 4.096 1.331 17.715-47.718 128.307-47.718 128.307 20.48 5.427 21.811 15.053c1.331 9.523-42.291 80.486-42.291 80.486l72.294 17.715v10.957l-71.578 11.059 57.958 118.477-169.37 126.976z"></path>
</svg>
