<!-- Generated by IcoMoon.io -->
<svg version="1.1" xmlns="http://www.w3.org/2000/svg" width="383" height="512" viewBox="0 0 593 1024">
<title></title>
<g id="icomoon-ignore">
</g>
<path fill="#FFFFFF" d="M10.22 33.67c-0.591 0.376-0.713 22.306-0.593 107.682l0.15 107.211 3.555 0.48c22.042 2.974 40.808 22.787 38.97 41.145-0.477 4.777 4.45 3.789 12.394-2.483 10.634-8.398 7.399-24.625-4.908-24.625-4.601 0-4.684-0.167-4.684-9.409 0-7.175 0.133-8.304 1.083-9.163 1.589-1.438 193.687-1.523 194.238-0.084 0.276 0.718-3.435 6.55-5.085 7.992-0.185 0.163-1.129 1.363-2.093 2.666-3.302 4.46-10.457 12.64-11.359 12.985-0.496 0.191-9.129 0.347-19.186 0.347-28.34 0-23.75 2.077 7.42 3.357 7.995 0.329 8.251 0.397 7.402 1.985-0.489 0.912-13.727 16.343-18.627 21.71-0.344 0.378-2.225 2.5-4.18 4.716-6.22 7.054-6.792 7.433-9.215 6.137-0.625-0.335-2.274-0.85-3.663-1.147-2.585-0.551-4.011-0.923-10.23-2.672-4.694-1.32-9.584-2.629-12.147-3.251-1.141-0.277-3.54-0.938-5.333-1.469-6.618-1.964-11.575-3.114-12.292-2.849-1.16 0.427-0.233 1.332 1.366 1.332 0.795 0 1.446 0.262 1.446 0.581s0.733 0.757 1.629 0.972c0.896 0.213 1.896 0.581 2.222 0.816s1.926 0.921 3.555 1.524c1.629 0.604 3.629 1.44 4.444 1.858s1.684 0.761 1.932 0.764c0.249 0.001 1.582 0.524 2.963 1.16 1.382 0.637 3.88 1.687 5.549 2.333 1.671 0.646 4.204 1.689 5.629 2.317 1.426 0.628 3.792 1.625 5.259 2.218 5.613 2.263 6.085 1.409-9.387 17.010-10.325 10.411-10.008 10.264-14.977 6.962-1.963-1.304-3.68-2.37-3.816-2.37s-2.052-1.155-4.254-2.566c-14.252-9.129-13.595-7.531 1.92 4.675 8.31 6.537 8.112 6.054 4.038 9.849-1.862 1.733-4.068 3.817-4.902 4.632-0.835 0.815-4.41 3.957-7.943 6.981l-6.424 5.499-2.090-2.24c-13.398-14.364-18.413-18.21-9.066-6.952 0.825 0.994 2.385 2.905 3.465 4.248s2.615 3.197 3.407 4.12c2.219 2.579 1.881 3.112-5.239 8.263-18.027 13.041-21.928 14.62-23.851 9.658-0.641-1.658-1.501-3.29-1.908-3.628-0.407-0.339-0.741-1.304-0.741-2.143 0-1.064-0.188-1.339-0.619-0.908-0.433 0.433-0.234 1.954 0.65 5.007 2.090 7.22 2.096 6.838-0.121 7.835-5.259 2.366-8.497 2.977-15.611 2.954-12.234-0.043-14.24-1.609-14.459-11.289-0.133-5.85-1.835-1.526-1.835 4.662v3.477l-2.457-0.984c-5.817-2.327-17.454-10.003-19.605-12.932-0.24-0.326-0.44-8.658-0.444-18.516s-0.209-17.922-0.453-17.919c-0.705 0.006-3.014 3.675-3.736 5.934-3.266 10.234-6.435 13.615-12.76 13.615h-2.769l0.486 2.222c0.267 1.222 0.502 5.022 0.521 8.443l0.037 6.221-22.812 0.321v26.533c0 19.845 0.179 26.711 0.711 27.243 0.548 0.548 31.053 0.711 133.694 0.711h132.983l7.475-1.471c7.143-1.404 11.618-2.32 19.224-3.934 4.084-0.865 4.511-0.524 4.555 3.628 0.016 1.466 0.284 4.533 0.595 6.814 0.621 4.531-0.104 12.726-1.555 17.591-0.455 1.527-0.828 3.145-0.828 3.592 0 0.449-1.078 2.604-2.397 4.791-2.355 3.903-2.586 5.61-0.655 4.811 0.538-0.222 2.844-0.643 5.125-0.933 2.281-0.292 5.152-0.69 6.381-0.887 2.155-0.347 2.398-0.197 7.017 4.33l4.785 4.69 0.511 4.413c0.281 2.426 0.52 7.346 0.53 10.931s0.281 9.717 0.601 13.628c0.751 9.149 2.369 34.494 2.666 41.773 0.127 3.096 0.649 12.295 1.158 20.442 1.086 17.343 1.795 29.367 2.675 45.328 0.735 13.307 1.529 26.124 2.403 38.81 0.338 4.888 0.615 10.088 0.616 11.554 0.006 4.339 0.751 4.819 3.197 2.059 4.419-4.986 4.383-4.745 3.865-26.352-0.606-25.314-0.604-134.485 0.004-227.529 0.431-65.843 0.384-74.532-0.409-75.843-0.963-1.594-18.187-18.83-29.094-29.112l-6.682-6.3 0.424-76.871 1.586-4.444c1.997-5.599 2.016-5.165-0.487-11.85-2.8-7.476-11.63-26.018-13.545-28.441-0.387-0.489-1.432-2.275-2.326-3.97-1.692-3.214-11.048-17.159-13.238-19.731-0.693-0.815-2.859-3.487-4.813-5.937-13.797-17.312-35.025-35.925-57.069-50.037-0.526-0.336-1.992-1.215-3.259-1.951s-2.829-1.669-3.472-2.074c-5.75-3.607-9.107-5.457-18.423-10.145-5.903-2.971-11.642-5.777-12.753-6.236-1.111-0.458-3.337-1.458-4.946-2.222s-3.134-1.388-3.391-1.388-1.872-0.631-3.592-1.401c-3.765-1.689-6.521-2.772-12.015-4.724-2.281-0.812-5.747-2.063-7.703-2.783s-4.355-1.524-5.333-1.789c-0.978-0.264-2.977-0.927-4.444-1.477-1.466-0.548-4.133-1.379-5.925-1.844s-4.059-1.084-5.036-1.375c-5.74-1.704-19.894-5.353-23.108-5.959-1.629-0.307-4.696-0.972-6.814-1.478-4.322-1.034-10.969-2.354-16.294-3.235-1.955-0.324-5.822-1.007-8.592-1.518s-7.17-1.175-9.777-1.474c-2.607-0.299-7.806-0.954-11.554-1.455-3.748-0.502-10.147-1.167-14.221-1.477-4.074-0.311-9.94-0.835-13.035-1.164-6.743-0.717-14.822-0.784-15.851-0.13zM391.657 115.366c-2.098 0.764-4.148 3.377-4.148 5.288 0 1.061-0.237 2.074-0.526 2.253s-0.705 1.327-0.924 2.554c-0.219 1.225-0.641 3.028-0.939 4.005-0.726 2.389-2.066 7.168-2.823 10.073-2.053 7.87-1.659 7.21-5.316 8.901-1.868 0.865-3.859 1.815-4.425 2.112s-1.344 0.541-1.73 0.541c-0.387 0-1.191 0.443-1.789 0.984-0.598 0.542-1.586 1.275-2.194 1.629-7.204 4.201-17.179 13.986-23.305 22.865-3.995 5.789-11.132 19.5-11.132 21.386 0 0.584-0.267 1.225-0.593 1.426s-0.593 0.987-0.593 1.745c0 0.758-0.398 2.142-0.886 3.075-0.486 0.933-0.886 2.148-0.889 2.699-0.001 0.551-0.27 1.167-0.595 1.369s-0.601 1.484-0.612 2.85c-0.010 1.366-0.41 3-0.889 3.632-0.478 0.634-0.87 1.723-0.87 2.42s-0.2 1.469-0.444 1.712c-1.828 1.829-2.158 6.903-2.348 36.034l-0.193 29.466 2.256 2.234c5.001 4.952 13.936 13.348 22.227 20.885 4.817 4.379 8.88 8.507 9.027 9.172s0.683 2.943 1.191 5.062c3.096 12.887 2.86-0.83 2.905 169.758 0.034 127.244 0.188 157.867 0.803 158.944 0.844 1.48 5.619 1.884 9.27 0.787 1-0.301 3.278-0.874 5.062-1.274 6.069-1.36 11.735-4.776 17.223-10.385l5.013-5.122 0.329-115.025c0.307-107.775 0.461-117.786 1.816-118.624 0.286-0.176 0.521-0.936 0.521-1.686 0-2.253 4.525-9.74 7.407-12.252 6.236-5.439 14.459-6.315 50.379-5.362 11.981 0.317 22.156 0.434 22.612 0.259 0.921-0.354 3.148-4.391 3.148-5.709 0-0.465 0.398-1.609 0.886-2.542 0.486-0.933 0.886-2.281 0.889-2.995 0.001-0.714 0.238-1.444 0.527-1.622s0.658-1.061 0.821-1.961c0.271-1.496 1.046-3.884 2.262-6.97 0.256-0.652 0.63-1.772 0.831-2.489 0.2-0.717 1.349-1.902 2.555-2.634 2.843-1.726 5.814-4.257 17.475-14.89 8.23-7.506 12.926-12.437 21.944-23.046 0.921-1.086 2.73-4.051 4.019-6.592 1.289-2.539 2.668-4.708 3.063-4.819 3.496-0.97 6.069-1.619 9.609-2.42 2.281-0.517 4.814-1.161 5.629-1.434s2.681-0.838 4.148-1.256c3.717-1.062 7.38-2.718 8.202-3.708 0.518-0.625 0.655-12.412 0.541-46.897l-0.151-46.061-2.963-1.695c-1.629-0.932-3.432-1.706-4.007-1.72s-1.508-0.261-2.074-0.548c-2.646-1.344-7.577-2.234-20.356-3.678-5.663-0.64-6.263-0.821-6.005-1.81 0.158-0.604 0.558-1.099 0.889-1.099s1.466-0.535 2.523-1.187l1.92-1.187-1.139-2.303c-0.627-1.268-1.659-2.774-2.295-3.349s-1.155-1.492-1.155-2.035c0-0.545-0.667-1.616-1.481-2.382s-1.481-1.704-1.481-2.086c0-0.381-0.567-1.201-1.261-1.822-0.695-0.621-2.803-3.129-4.684-5.573-5.552-7.208-16.862-17.315-25.027-22.363-2.382-1.472-3.515-2.579-3.736-3.651-0.176-0.846-0.573-2.604-0.886-3.908-0.311-1.304-0.849-4.37-1.194-6.814-1.767-12.526-1.675-12.239-5.057-15.64-4.195-4.219-0.216-3.914-50.59-3.865-24.93 0.025-45.728 0.19-46.217 0.367zM447.354 160.849c2.77 0.436 6.636 1.229 8.592 1.766s4.355 1.192 5.333 1.458c0.978 0.267 3.377 1.296 5.333 2.29 1.955 0.992 4.488 2.225 5.629 2.737 10.437 4.69 28.57 21.606 33.306 31.070 0.924 1.849 2.206 4.161 2.846 5.139s1.329 2.178 1.53 2.666c0.201 0.489 0.714 1.689 1.139 2.666 1.189 2.737 3.164 9.012 3.603 11.443 0.216 1.201 0.59 2.452 0.831 2.777 2.546 3.448 1.517 38.123-1.213 40.853-0.311 0.311-0.564 1.115-0.564 1.788 0 1.595-1.961 6.934-3.517 9.568-0.673 1.142-1.224 2.5-1.224 3.022s-0.667 1.821-1.481 2.89c-0.815 1.068-1.481 2.244-1.481 2.613 0 2.764-16.705 21.187-22.837 25.187-1.644 1.072-3.343 2.376-3.776 2.897-0.434 0.523-1.018 0.95-1.299 0.95s-1.812 0.8-3.4 1.778c-1.589 0.978-3.334 1.778-3.88 1.778-0.544 0-1.144 0.4-1.33 0.889-0.188 0.489-0.69 0.889-1.118 0.889s-2.065 0.561-3.64 1.247c-15.252 6.638-44.633 7.327-58.057 1.36-1.028-0.456-2.182-0.83-2.566-0.83-1.032 0-10.877-4.983-13.978-7.076-1.477-0.997-2.82-1.812-2.986-1.812-1.677 0-20.070-18.011-21.039-20.602-0.21-0.564-0.948-1.533-1.638-2.154s-1.255-1.466-1.255-1.88c0-0.413-0.616-1.505-1.37-2.426-2.625-3.21-6.555-12.093-8.473-19.155-0.487-1.792-1.138-4.075-1.444-5.072-1.901-6.171-1.849-33.541 0.068-35.486 0.305-0.31 0.554-1.326 0.554-2.259 0-1.862 1.65-7.512 2.456-8.406 0.278-0.31 0.507-1.256 0.507-2.103s0.236-1.794 0.524-2.103c0.289-0.31 1.538-2.563 2.774-5.007 2.259-4.463 5.445-9.514 8.784-13.924 2.318-3.065 13.512-14.517 14.188-14.517 0.286 0 1.592-0.85 2.903-1.89 1.312-1.038 3.217-2.492 4.234-3.229 1.992-1.446 12.387-6.675 15.771-7.935 1.141-0.425 2.34-0.96 2.666-1.189s3.259-0.874 6.518-1.431c3.259-0.557 6.725-1.231 7.703-1.496 2.856-0.776 20.284-0.597 25.775 0.264zM431.356 178.274c-0.489 0.281-3.422 0.692-6.518 0.911-5.503 0.39-7.863 0.899-11.643 2.514-1.028 0.44-2.163 0.798-2.523 0.798-1.641 0-12.077 5.756-15.222 8.396-7.932 6.66-9.954 8.578-11.428 10.842-0.852 1.308-2.296 3.118-3.209 4.022-6.158 6.103-11.745 23.656-11.756 36.93-0.006 7.62 1.406 18.913 2.508 20.067 0.296 0.31 0.538 1.070 0.538 1.689 0 2.010 6.537 14.13 9.882 18.322 8.513 10.67 20.101 18.953 30.918 22.103 1.838 0.535 3.837 1.235 4.441 1.558 0.995 0.532 3.36 0.862 14.308 1.995 5.472 0.567 19.778-1.77 24.138-3.945 0.566-0.281 1.527-0.513 2.139-0.513 0.61 0 2.013-0.604 3.118-1.342s3.142-1.844 4.527-2.46c1.385-0.615 2.518-1.344 2.518-1.621s0.289-0.502 0.643-0.502c3.334 0 18.422-16.056 21.808-23.209 0.72-1.521 1.678-3.072 2.13-3.447s1.006-1.521 1.231-2.548c0.225-1.025 0.616-2.274 0.87-2.773 0.252-0.499 0.779-2.108 1.172-3.574 0.391-1.466 0.964-3.309 1.274-4.096 1.56-3.968 1.946-25.332 0.52-28.789-1.422-3.451-2.391-6.728-2.391-8.092 0-1.511-2.746-7.125-3.674-7.51-0.261-0.11-0.474-0.474-0.474-0.812 0-4.493-15.997-21.455-24.104-25.56-1.687-0.855-3.237-1.825-3.441-2.157-0.206-0.333-0.782-0.604-1.283-0.604-0.499 0-1.558-0.511-2.352-1.136s-2.558-1.324-3.921-1.554c-1.363-0.231-2.889-0.627-3.391-0.88-2.114-1.071-6.033-1.841-11.873-2.332-3.422-0.289-6.755-0.677-7.407-0.865-0.652-0.187-1.585-0.11-2.074 0.173zM290.040 437.944c-1.304 0.289-3.837 0.838-5.629 1.222-2.416 0.515-38.381 0.785-138.946 1.040-74.628 0.19-135.754 0.409-135.836 0.487-0.924 0.898-0.001 18.549 0.998 19.084 1.49 0.797 263.487 0.864 263.979 0.067 0.185-0.301 1.201-0.733 2.258-0.963 5.439-1.175 12.838-7.144 15.26-12.311 2.229-4.754 2.535-9.6 0.582-9.211-0.163 0.033-1.363 0.296-2.666 0.585zM414.766 529.087c0 42.823 0.227 75.948 0.52 76.13 0.527 0.326 1.721-0.455 7.175-4.696 8.78-6.824 14.68-13.874 15.515-18.536 3.186-17.771 4.94-52.973 3.447-69.158-1.444-15.665-3.78-30.439-5.281-33.403-0.597-1.182-1.265-2.948-1.484-3.925s-1.173-2.844-2.123-4.148c-0.948-1.304-2.095-3.17-2.545-4.148-0.452-0.978-1.262-2.143-1.801-2.591s-0.981-1.124-0.981-1.504c0-1.521-9.981-9.83-11.809-9.83-0.447 0-0.634 22.366-0.634 75.807zM304.853 475.844c-0.978 0.298-3.511 0.782-5.629 1.078s-6.907 1.099-10.642 1.788c-3.734 0.687-7.812 1.29-9.061 1.339-2.794 0.11-3.392 0.815-1.083 1.277l1.711 0.342 0.353 5.802c0.193 3.192 0.757 10.070 1.252 15.284s1.015 11.347 1.155 13.628c0.49 8.001 1.378 19.018 2.026 25.182 0.36 3.422 0.929 8.755 1.261 11.85s0.872 9.095 1.198 13.332c0.324 4.237 0.861 10.502 1.191 13.924s1.003 10.754 1.495 16.294c0.93 10.491 1.493 16.472 2.537 26.96 0.341 3.422 0.914 9.688 1.274 13.924s1.037 11.169 1.505 15.406c0.467 4.237 0.973 9.303 1.123 11.258 0.382 4.946 0.978 8.812 1.432 9.295 1.388 1.475 20.174-4.254 21.331-6.504 0.523-1.019-0.092-18.593-0.822-23.462-0.212-1.413-0.621-8.006-0.908-14.65-0.286-6.644-0.918-19.413-1.403-28.374-1.644-30.388-2.059-38.19-2.969-55.993-0.991-19.396-1.789-33.912-2.675-48.587-0.314-5.214-0.581-11.919-0.594-14.897-0.027-6.42-0.461-6.893-5.059-5.496zM10.214 481.62c-0.585 0.372-0.714 5.069-0.593 21.472l0.156 20.995 54.157 0.593 2.548 2.991c1.401 1.646 3.614 4.279 4.918 5.851s3.603 4.226 5.109 5.897c1.506 1.669 4.164 4.77 5.904 6.888s6.384 7.584 10.32 12.147c3.936 4.562 10.505 12.302 14.6 17.199 11.205 13.4 11.997 14.135 16.208 15.023 1.955 0.413 4.488 0.972 5.629 1.243 8.744 2.078 38.518 3.157 47.698 1.729 1.955-0.304 5.155-0.692 7.11-0.859 1.955-0.169 4.488-0.56 5.629-0.868s3.94-0.988 6.221-1.509c4.392-1.003 8.802-2.377 10.51-3.272 0.566-0.298 1.422-0.541 1.905-0.541s1.886-0.437 3.118-0.97c1.234-0.535 2.776-1.176 3.428-1.425 13.117-5.025 26.715-14.299 39.259-26.775l7.855-7.814-0.153-34.094-0.153-34.095-125.318-0.139c-68.925-0.077-125.655 0.074-126.067 0.335zM9.769 554.749c-0.179 0.733-0.25 8.532-0.158 17.331l0.166 15.998 24.886 0.342c35.688 0.492 35.255 0.238 35.255 20.639v11.821l-5.796 6.304-54.668 0.353 0.323 20.978 25.158 0.154c15.582 0.096 25.382 0.378 25.745 0.741 0.323 0.323 1.013 0.587 1.535 0.587s2.468 1.354 4.325 3.010l3.377 3.010v10.045c0 18.469 1.501 17.669-33.478 17.86l-26.664 0.145-0.311 44.709 1.341 0.317c3.462 0.815 58.817 0.598 60.889-0.24 4.488-1.813 8.48-7.361 8.957-12.447 0.2-2.143 0.673-6.83 1.050-10.415 1.070-10.165 1.742-17.915 2.751-31.7 0.513-7.007 1.173-14.472 1.468-16.591s0.832-8.251 1.194-13.628c0.363-5.377 0.912-12.976 1.225-16.887 3.035-38.157 4.503-33.858-19.962-58.42l-14.517-14.572-10.732-0.39c-23.242-0.841-32.992-0.566-33.36 0.945zM267.228 575.815c-2.118 0.099-4.105 0.433-4.414 0.741-0.31 0.31-0.992 0.561-1.518 0.561-0.99 0-3.791 2.617-4.955 4.631-3.357 5.802-15.496 16.496-24.367 21.464-5.944 3.328-14.961 7.679-15.918 7.679-0.495 0-1.783 0.508-2.86 1.129s-3.149 1.32-4.604 1.554c-1.453 0.236-3.053 0.631-3.555 0.881-2.071 1.034-7.698 2.361-10.008 2.361-1.36 0-2.936 0.247-3.502 0.55-1.818 0.97-18.010 2.016-24.787 1.601-7.846-0.481-17.082-1.358-19.497-1.852-2.601-0.533-8.768-1.951-14.517-3.34-7.513-1.815-9.060-1.911-13.767-0.864-7.447 1.656-7.332 1.443-8.723 16.348-1.53 16.382-1.664 17.706-2.751 27.256-0.502 4.399-1.155 10.932-1.452 14.517-0.298 3.585-0.923 10.117-1.389 14.517s-1.517 14.532-2.333 22.516c-1.742 17.019-1.187 15.123-6.952 23.701-6.912 10.288-8.141 12.898-6.534 13.89 0.295 0.182 0.72 1.664 0.944 3.293s0.649 3.111 0.944 3.293c0.296 0.182 0.538 1.101 0.538 2.040s0.231 1.85 0.514 2.026c0.284 0.175 0.687 1.389 0.896 2.7 0.49 3.060 2.231 3.311 3.177 0.458 1.592-4.804 2.455-6.747 7.694-17.331 6.119-12.364 8.507-16.226 16.906-27.343 12.772-16.903 41.121-38.483 54.992-41.857 0.792-0.193 2.773-0.647 4.402-1.012s3.496-0.892 4.148-1.172c4.103-1.763 7.881-2.619 15.702-3.56 2.444-0.293 5.573-0.849 6.953-1.235 2.173-0.607 26.129-0.477 35.634 0.196 2.112 0.148 2.686-0.584 5.691-7.266 0.514-1.141 1.151-2.474 1.418-2.963 1.458-2.678 1.853-3.626 1.853-4.454 0-0.504 0.4-1.070 0.889-1.256 0.489-0.188 0.889-0.717 0.889-1.175 0-0.754 0.413-1.727 1.853-4.373 0.267-0.489 0.914-1.822 1.438-2.963 0.526-1.141 1.201-2.474 1.502-2.963s0.708-1.289 0.907-1.778c0.198-0.489 3.182-6.61 6.632-13.601 7.608-15.425 9.788-26.926 7.909-41.731-0.72-5.673-1.102-6.044-6.020-5.814zM274.954 641.828c-0.947 1.486-1.918 3.512-4.487 9.354-0.93 2.118-3.619 7.753-5.973 12.521l-4.281 8.67 1.878 1.757c1.032 0.966 2.943 2.53 4.247 3.475 1.304 0.947 2.746 2.078 3.206 2.514 0.459 0.437 1.926 1.478 3.259 2.314s3.471 2.413 4.752 3.503c3.823 3.253 4.202 2.521 3.056-5.899-1.207-8.873-1.967-15.526-3.028-26.486-0.52-5.377-1.129-10.52-1.354-11.428l-0.41-1.652-0.865 1.355zM351.341 668.124c-2.776 2.862-10.151 7.961-15.246 10.542-1.658 0.84-3.182 1.798-3.386 2.13-0.206 0.333-0.859 0.604-1.452 0.604s-1.409 0.4-1.815 0.889c-0.406 0.489-1.172 0.89-1.702 0.892s-1.729 0.403-2.662 0.889c-0.933 0.487-2.14 0.886-2.683 0.886s-1.511 0.366-2.154 0.815c-0.643 0.447-2.369 1.012-3.835 1.253s-3.114 0.674-3.66 0.961c-0.548 0.287-3.081 0.874-5.629 1.305-5.872 0.991-6.426 1.955-4.481 7.78 1.881 5.636 3.308 7.038 6.658 6.541 4.414-0.653 17.728-4.219 21.036-5.632 0.652-0.278 1.852-0.689 2.666-0.911 1.478-0.404 8.389-3.444 10.073-4.432 0.489-0.286 2.229-1.178 3.866-1.982s3.48-2.013 4.091-2.69c0.613-0.677 1.567-1.231 2.123-1.231 1.311 0 10.67-9.799 11.905-12.464 4.291-9.263 4.474-8.867-4.087-8.867h-6.986l-2.643 2.721zM219.233 681.983c-5.663 0.444-8.475 0.945-18.368 3.275-3.942 0.929-10.156 3.142-10.932 3.893-0.31 0.299-1.124 0.545-1.812 0.545-1.982 0-15.34 7.131-22.929 12.239-10.008 6.738-30.622 27.253-33.058 32.9-0.326 0.757-1.932 2.974-3.568 4.93-1.635 1.955-3.354 4.376-3.817 5.38s-1.228 2.143-1.699 2.535c-0.47 0.391-1.855 2.77-3.075 5.285-1.221 2.517-2.585 4.789-3.029 5.050-0.446 0.261-0.81 0.978-0.81 1.594s-0.247 1.274-0.55 1.461c-0.692 0.428-6.561 12.082-6.561 13.028 0 0.385-0.667 2.083-1.481 3.771s-1.481 3.431-1.481 3.872c0 0.44-0.384 1.575-0.852 2.521-2.127 4.293-1.935 26.201 0.276 31.346 0.28 0.652 0.681 2.317 0.89 3.7s0.625 2.665 0.923 2.85c0.298 0.184 0.544 0.918 0.548 1.632 0.003 0.714 0.67 2.457 1.481 3.877 0.81 1.418 1.474 2.949 1.474 3.403 0 1.189 1.975 5.573 2.509 5.573 0.249 0 0.453 0.247 0.453 0.551 0 0.647 7.052 11.44 7.795 11.929 0.278 0.182 1.179 1.249 2.003 2.37 2.145 2.918 8.655 9.477 10.052 10.128 0.652 0.304 1.852 0.936 2.666 1.406 1.798 1.038 4.167 1.108 6.193 0.185 1.782-0.812 1.781-0.801 0.553-6.127-0.526-2.281-1.259-6.327-1.629-8.989s-0.872-5.041-1.117-5.284c-0.816-0.812-0.495-20.692 0.407-25.262 0.468-2.372 1.28-6.578 1.803-9.349 1.041-5.516 2.794-11.388 4.527-15.174 0.612-1.339 1.114-2.769 1.114-3.177s0.502-1.714 1.115-2.899c0.615-1.184 1.994-3.887 3.065-6.005 2.823-5.586 3.090-6.045 4.559-7.894 0.733-0.923 1.333-1.927 1.333-2.234 0-0.305 1.333-2.389 2.963-4.629s2.963-4.318 2.963-4.619c0-1.179 14.818-15.583 16.031-15.583 0.677 0 1.752-0.28 2.391-0.621 7.411-3.967 24.024-0.613 29.044 5.862 6.86 8.848 8.223 31.103 2.098 34.27-4.875 2.521-11.511 10.79-15.843 19.741-0.71 1.466-2.055 4.247-2.989 6.179-0.933 1.932-1.698 3.89-1.698 4.352s-0.366 1.548-0.813 2.413c-1.019 1.973-1.957 5.022-2.487 8.091-0.225 1.304-0.61 2.637-0.856 2.963-0.47 0.624-1.311 3.948-2.623 10.369-2.369 11.59-3.086 17.665-3.647 30.961l-0.396 9.332 1.653 2.518c1.81 2.755 5.506 6.304 6.605 6.343 0.382 0.015 1.487 0.692 2.456 1.506s2.022 1.481 2.343 1.481c0.32 0 0.924 0.413 1.344 0.917s5.451 3.28 11.182 6.165c5.731 2.887 11.221 5.672 12.199 6.189 0.978 0.518 2.324 0.944 2.992 0.947 0.668 0.001 1.468 0.228 1.778 0.504 3.277 2.92 25.015 2.133 32.263-1.166 4.645-2.115 9.631-4.773 10.089-5.379 0.172-0.228 1.155-1.028 2.186-1.778 2.243-1.632 10.276-7.741 12.108-9.208 2.74-2.192 19.463-18.752 19.463-19.273 0-0.301 1.533-2.14 3.407-4.088s3.807-4.305 4.296-5.236c0.489-0.933 2.022-3.309 3.407-5.284 1.385-1.973 2.518-3.825 2.518-4.114s0.4-0.859 0.889-1.265 0.889-1.21 0.889-1.786c0-0.578 0.4-1.203 0.889-1.391s0.889-0.85 0.889-1.471c0-0.622 0.4-1.464 0.889-1.869s0.889-1.074 0.889-1.486c0-0.724 0.874-2.603 2.063-4.439 0.628-0.969 2.172-5.115 3.64-9.777 0.513-1.629 1.204-3.629 1.538-4.444 3.305-8.092 5.752-42.168 3.462-48.194-0.347-0.91-0.63-2.64-0.63-3.843s-0.283-3.118-0.63-4.257c-0.347-1.138-0.85-3.403-1.12-5.032-0.478-2.893-1.446-6.070-2.478-8.14-0.281-0.566-0.513-1.458-0.513-1.982s-0.39-1.661-0.867-2.526c-0.477-0.865-1.255-2.773-1.73-4.239-1.613-4.985-5.407-11.498-7.245-12.443-0.952-0.489-3.725-2.364-6.165-4.168-4.546-3.363-7.103-5.156-8.833-6.201-0.539-0.326-2.198-1.592-3.685-2.814s-2.963-2.222-3.28-2.222c-0.317 0-1.203-0.667-1.969-1.481s-1.712-1.481-2.105-1.481c-0.391 0-1.067-0.427-1.501-0.95-0.433-0.521-2.132-1.81-3.776-2.863-1.643-1.055-3.354-2.36-3.801-2.903s-1.255-0.987-1.794-0.987-1.394-0.467-1.899-1.037c-0.998-1.126-5.482-4.474-8.532-6.37-1.047-0.652-3.44-2.385-5.316-3.851s-4.245-3.137-5.266-3.712c-1.022-0.575-3.457-2.246-5.413-3.711-7.833-5.875-6.85-5.542-17.288-5.842-5.156-0.147-12.175-0.049-15.597 0.219zM10.517 746.625c-0.966 0.563-1.037 2.635-1.037 30.131v29.528l1.333 0.357c0.733 0.197 14.746 0.361 31.141 0.366l29.808 0.007 2.78-1.53c5.873-3.234 5.793-1.514 1.070-23.059-0.787-3.585-1.997-9.184-2.692-12.443-3.13-14.699-5.436-19.515-10.966-22.886-2.102-1.281-49.304-1.714-51.438-0.471zM183.242 761.963c-2.794 2.595-10.569 11.776-12.311 14.538-0.616 0.978-1.85 2.635-2.74 3.683-2.352 2.769-8.35 15.057-10.203 20.907-2.53 7.989-2.649 8.43-3.080 11.554-0.225 1.629-0.65 3.268-0.947 3.641-0.918 1.155-0.256 28.906 0.812 33.984 1.964 9.344 2.626 10.51 7.593 13.379 7.232 4.179 7.666 3.854 7.681-5.721 0.007-5.186 0.911-12.704 2.346-19.509 0.31-1.466 0.735-4.066 0.945-5.777 0.21-1.709 0.624-3.259 0.918-3.441 0.296-0.182 0.538-1.101 0.538-2.040s0.241-1.858 0.538-2.040c0.295-0.182 0.72-1.664 0.944-3.293s0.649-3.111 0.944-3.293c0.296-0.182 0.547-1.050 0.557-1.927s0.41-2.111 0.889-2.743c0.478-0.634 0.87-1.606 0.87-2.161 0-0.557 0.914-2.838 2.029-5.072 1.117-2.234 2.974-6.060 4.128-8.504 2.169-4.595 4.54-8.953 5.156-9.477 0.194-0.164 1.511-2.004 2.926-4.088s4.016-5.349 5.782-7.255c8.673-9.368 4.622-17.705-8.596-17.685l-5.204 0.007-2.514 2.335zM85.713 813.884c-1.489 2.044 0.807 8.169 7.755 20.683 0.361 0.652 0.819 1.696 1.016 2.321 0.238 0.757 0.557 0.938 0.951 0.544 0.649-0.649 0.144-2.569-0.675-2.569-0.281 0-0.367-0.373-0.193-0.831 0.176-0.456-0.204-1.989-0.846-3.407-0.641-1.416-1.484-3.776-1.874-5.242-0.391-1.466-0.917-3.074-1.169-3.571-0.253-0.498-0.804-2.831-1.225-5.185-0.846-4.733-1.788-5.425-3.74-2.743zM6.199 823.75c-0.156 0.409-0.215 23.009-0.13 50.221l0.153 49.476 26.96 0.181c26.844 0.181 39.111-0.518 41.151-2.343 0.31-0.277 1.089-0.504 1.733-0.504 2.021 0 9.879-2.936 16.961-6.339 16.808-8.073 14.994-6.734 14.897-10.987-0.037-1.635-0.301-3.272-0.587-3.638-0.286-0.364-0.701-1.464-0.923-2.441s-2.428-5.91-4.9-10.962c-2.474-5.051-5.082-10.517-5.799-12.147-0.715-1.629-3.662-7.762-6.546-13.628-4.767-9.691-7.491-15.484-10.261-21.82-0.545-1.247-2.471-5.247-4.279-8.888l-3.288-6.621-32.427-0.153c-25.627-0.121-32.488 0.003-32.713 0.593zM95.989 838.942c0 0.652 0.267 1.349 0.593 1.551s0.593-0.167 0.593-0.819c0-0.652-0.267-1.349-0.593-1.551s-0.593 0.167-0.593 0.819zM97.454 841.57c-0.244 0.603-0.147 1.367 0.224 1.738 1 1 1.544 0.041 0.837-1.475-0.572-1.228-0.659-1.25-1.061-0.262zM98.951 845.529c0 0.652 0.267 1.185 0.593 1.185s0.593-0.533 0.593-1.185c0-0.652-0.267-1.185-0.593-1.185s-0.593 0.533-0.593 1.185zM100.136 847.907c0 0.33 0.243 1.064 0.541 1.629s1.398 2.834 2.444 5.039c1.047 2.206 2.138 4.155 2.422 4.331 0.286 0.176 0.518 0.812 0.518 1.413 0 1.567 15.94 33.203 16.73 33.203 0.89 0 20.007-9.633 20.007-10.082 0-0.484-4.327-2.361-5.444-2.361-0.84 0-3.816-1.478-8.839-4.391-7.118-4.127-17.097-14.148-23.239-23.334-3.696-5.528-5.14-7.058-5.14-5.45zM156.17 895.356c-3.537 2.312-7.125 4.845-7.971 5.629s-1.743 1.426-1.994 1.426c-0.61 0-7.796 4.881-8.048 5.466-0.11 0.253-0.533 0.459-0.945 0.459-0.41 0-2.588 1.29-4.838 2.868-2.252 1.578-5.693 3.745-7.648 4.816s-3.955 2.293-4.444 2.712c-0.864 0.742-4.694 2.992-7.703 4.527-0.815 0.415-1.615 0.911-1.778 1.101s-3.896 2.099-8.295 4.242c-18.464 8.993-20.503 9.313-62.807 9.861l-29.922 0.388v27.849h38.81c40.431 0 44.164-0.219 47.076-2.767 0.31-0.27 1.126-0.492 1.813-0.492s1.766-0.391 2.4-0.87c0.633-0.478 1.723-0.878 2.422-0.889 0.701-0.010 3.1-1.13 5.333-2.489 2.234-1.357 5.029-3.023 6.211-3.703 1.184-0.678 3.183-1.964 4.444-2.857s4.484-3.16 7.161-5.036 7.691-5.413 11.144-7.857c3.451-2.444 9.713-6.844 13.914-9.777 4.202-2.933 11.585-8.155 16.41-11.603 4.823-3.448 10.277-7.258 12.122-8.464 5.401-3.536 5.783-5.39 1.477-7.19-1.040-0.434-2.392-1.345-3.007-2.023s-1.462-1.234-1.883-1.234c-0.422 0-1.486-0.667-2.366-1.481-0.878-0.815-1.764-1.481-1.967-1.481s-1.964-1.197-3.914-2.66c-4.428-3.324-3.603-3.437-11.206 1.53z"></path>
</svg>
