<!-- Generated by IcoMoon.io -->
<svg version="1.1" xmlns="http://www.w3.org/2000/svg" width="300" height="300" viewBox="0 0 1024 1024">
<title></title>
<g id="icomoon-ignore">
</g>
<path fill="#FFF" d="M967.715 868.508v-176.421l-0.473-0.473-156.083-180.56h156.083v-186.354h-297.031l119.545-138.346h177.485v-186.354h-332.977l-126.404 146.387-122.383-146.387h-329.903v186.354h171.1l119.545 138.346h-290.646v186.354h156.083l-154.073 178.195h-2.010v334.16h119.191v-122.62l78.751 0.236v122.265h119.191v-121.91l78.751 0.236v121.674h119.191v-121.201l78.751 0.236v121.083h119.191v-120.728l76.977 0.236v120.491h122.856l-0.828-120.137h0.118v-2.838l0.709-31.926h-0.709zM336.525 690.195l172.519-190.965 178.195 192.030-350.714-1.064z"></path>
</svg>
