<!-- Generated by IcoMoon.io -->
<svg version="1.1" xmlns="http://www.w3.org/2000/svg" width="300" height="300" viewBox="0 0 1024 1024">
<title></title>
<g id="icomoon-ignore">
</g>
<path fill="#FFF" d="M665.498 496.64c30.822 75.059-8.294 156.672-64.614 139.264l1.946 17.408h62.054l304.64-466.739-112.026-1.126-192 311.194z"></path>
<path fill="#FFF" d="M900.506 306.483l-32.256 46.592h86.016l54.374-67.482h-93.594z"></path>
<path fill="#FFF" d="M842.752 394.547l-27.75 40.038h99.021l54.374-67.379h-106.598z"></path>
<path fill="#FFF" d="M764.314 514.048h108.339l54.374-67.482h-119.706l-46.694 67.482z"></path>
<path fill="#FFF" d="M757.248 524.902h-1.024l-46.797 67.482h125.133l54.374-67.482z"></path>
<path fill="#FFF" d="M672.973 653.312h34.304l33.69-50.074h-34.816l-14.234 21.197-19.456 28.877z"></path>
<path fill="#FFF" d="M539.75 854.63h29.389l52.224-72.909h-31.642z"></path>
<path fill="#FFF" d="M446.157 781.722l66.355 101.171 66.355-101.171z"></path>
<path fill="#FFF" d="M422.195 653.312l1.946-17.408c-63.898 23.962-95.539-95.744-64.614-139.264l-191.898-311.194-112.026 1.126 304.64 466.739h61.952z"></path>
<path fill="#FFF" d="M512.512 237.67c144.691 10.854 196.915 97.894 154.522 240.435l214.323-347.034h-737.69l207.77 343.859c-42.394-142.541 16.384-226.304 161.075-237.261z"></path>
<path fill="#FFF" d="M155.034 353.075h1.741l-32.256-46.592-14.541-20.89h-93.594l54.374 67.482z"></path>
<path fill="#FFF" d="M208.589 434.586h1.434l-27.75-40.038-19.046-27.341h-106.598l54.374 67.379z"></path>
<path fill="#FFF" d="M264.397 514.048l-46.694-67.482h-119.706l54.374 67.482h108.339z"></path>
<path fill="#FFF" d="M312.115 592.384h3.482l-46.797-67.482h-132.71l54.374 67.482z"></path>
<path fill="#FFF" d="M352.051 653.312h0.512l-19.456-28.877-14.234-21.197h-34.816l33.69 50.074z"></path>
<path fill="#FFF" d="M403.661 781.722l52.224 72.909h29.389l-49.971-72.909z"></path>
<path fill="#FFF" d="M727.962 644.608l-6.554 15.258h-117.453l1.126 43.52h-191.488l4.301-43.52h-193.741c-16.794 12.902-45.466 21.402-81.613 27.238 8.806 21.197 24.781 36.352 51.098 42.394l523.366 6.554c14.234-4.403-3.277 68.506 4.301 78.336 24.986-24.986 18.534-91.341 18.534-91.341 7.578 1.126 13.107-69.632 6.554-78.336h-18.432z"></path>
<path fill="#FFF" d="M132.813 690.278l-46.797 6.554c33.485 39.014 73.626 67.277 128.41 71.782l429.773 6.554 13.107-31.539-463.462-6.554c-22.938-4.301-43.622-17.51-61.030-46.797z"></path>
<path fill="#FFF" d="M766.054 668.57h-4.301c-3.584 0-6.554 2.97-6.554 6.554v35.942c0 3.584 2.97 6.554 6.554 6.554h4.301c3.584 0 6.554-2.97 6.554-6.554v-35.942c-0.102-3.686-2.97-6.554-6.554-6.554z"></path>
<path fill="#FFF" d="M792.678 668.57h-4.301c-3.584 0-6.554 2.97-6.554 6.554v35.942c0 3.584 2.97 6.554 6.554 6.554h4.301c3.584 0 6.554-2.97 6.554-6.554v-35.942c0-3.686-2.97-6.554-6.554-6.554z"></path>
<path fill="#FFF" d="M819.302 668.57h-4.301c-3.584 0-6.554 2.97-6.554 6.554v35.942c0 3.584 2.97 6.554 6.554 6.554h4.301c3.584 0 6.554-2.97 6.554-6.554v-35.942c0-3.686-2.97-6.554-6.554-6.554z"></path>
<path fill="#FFF" d="M846.029 668.57h-4.301c-3.584 0-6.554 2.97-6.554 6.554v35.942c0 3.584 2.97 6.554 6.554 6.554h4.301c3.584 0 6.554-2.97 6.554-6.554v-35.942c-0.102-3.686-2.97-6.554-6.554-6.554z"></path>
<path fill="#FFF" d="M872.653 668.57h-4.301c-3.584 0-6.554 2.97-6.554 6.554v35.942c0 3.584 2.97 6.554 6.554 6.554h4.301c3.584 0 6.554-2.97 6.554-6.554v-35.942c0-3.686-2.97-6.554-6.554-6.554z"></path>
<path fill="#FFF" d="M931.738 663.245l-38.4 0.922-6.349 10.752c-0.102 0.102-0.205 0.205-0.205 0.41v30.822c0 5.222 3.994 9.728 9.216 10.342l9.318 1.126 0.205 2.662c0.512 5.222 4.915 9.216 10.138 9.216h9.933c5.018 0 9.216-3.994 9.421-9.011l2.56-51.2c0.205-3.379-2.458-6.144-5.837-6.042z"></path>
<path fill="#FFF" d="M635.597 626.688c6.963-5.734 58.163-74.752 20.48-118.272-9.421-10.854 36.864-91.443 12.493-162.714-28.672-83.558-113.254-96.666-149.914-98.304 0 0-3.174-0.205-8.397-0.205-0.102 0-0.102 0-0.102 0-0.102 0-0.102 0-0.102 0-5.427 0-8.397 0.205-8.397 0.205-36.557 1.741-121.242 14.746-149.811 98.304-24.474 71.373 21.811 151.859 12.493 162.714-37.683 43.52 13.517 112.64 20.48 118.272 12.595 10.24 52.634-10.547 46.285 0.205-4.813 8.192-9.216 69.939-9.216 69.939h12.288l5.939-21.504 10.65-0.102 2.048 21.606h21.606l2.048-20.582 7.168-1.024 1.024 21.606h17.51l0.819-22.221h14.234l0.819 22.221h17.51l1.024-21.606 7.168 1.024 2.048 20.582h21.606l2.048-21.606 10.65 0.102 5.939 21.504h12.39c0 0-4.403-61.747-9.216-69.939-6.144-10.752 33.792 10.035 46.387-0.205zM633.242 486.093c6.042 0 10.854 4.915 10.854 10.854 0 6.042-4.915 10.854-10.854 10.854s-10.854-4.915-10.854-10.854c0-5.939 4.915-10.854 10.854-10.854zM510.157 349.798c7.782 0 14.131 6.349 14.131 14.131s-6.349 14.131-14.131 14.131-14.131-6.349-14.131-14.131 6.349-14.131 14.131-14.131zM525.005 420.454c0 7.168-5.837 13.107-13.005 13.107s-13.107-5.837-13.107-13.107c0-7.168 5.837-13.107 13.107-13.107s13.005 5.939 13.005 13.107zM379.802 507.904c-6.042 0-10.854-4.915-10.854-10.854 0-6.042 4.915-10.854 10.854-10.854s10.854 4.915 10.854 10.854c0 5.939-4.915 10.854-10.854 10.854zM441.754 590.234c-30.003 0-54.374-24.371-54.374-54.374s24.371-54.374 54.374-54.374 54.374 24.371 54.374 54.374c0.102 30.003-24.269 54.374-54.374 54.374zM535.142 628.941c-0.102 1.434-1.843 1.946-2.765 0.922-2.15-2.765-5.222-5.939-9.216-8.909-4.301-3.174-8.397-5.12-11.571-6.246-3.174 1.126-7.27 3.174-11.571 6.246-3.994 2.97-6.963 6.144-9.216 8.909-0.922 1.126-2.662 0.512-2.765-0.922-0.717-10.547-0.205-32.154 15.667-47.821 2.048-2.048 4.71-3.789 7.782-5.53 3.072 1.741 5.734 3.482 7.782 5.53 16.077 15.77 16.589 37.376 15.872 47.821zM555.622 570.88c-9.626-5.427-16.691-11.878-21.606-17.408-1.843-2.15-1.331-5.427 1.229-6.656 9.933-5.222 22.016-10.547 36.25-14.95 17.613-5.53 33.485-7.987 46.182-9.216 0.614-0.102 1.229 0 1.843 0.307 10.547 3.891 13.926 10.24 14.95 12.083 5.939 12.493-1.741 32.461-22.016 45.158-0.512 0.307-1.126 0.512-1.741 0.614-9.216 1.229-31.949 3.072-55.091-9.933z"></path>
<path fill="#FFF" d="M516.915 363.93c0 3.619-2.934 6.554-6.554 6.554s-6.554-2.934-6.554-6.554c0-3.619 2.934-6.554 6.554-6.554s6.554 2.934 6.554 6.554z"></path>
<path fill="#FFF" d="M639.795 496.64c0 3.619-2.934 6.554-6.554 6.554s-6.554-2.934-6.554-6.554c0-3.619 2.934-6.554 6.554-6.554s6.554 2.934 6.554 6.554z"></path>
<path fill="#FFF" d="M386.355 496.64c0 3.619-2.934 6.554-6.554 6.554s-6.554-2.934-6.554-6.554c0-3.619 2.934-6.554 6.554-6.554s6.554 2.934 6.554 6.554z"></path>
<path fill="#FFF" d="M481.997 535.757c0 22.226-18.017 40.243-40.243 40.243s-40.243-18.017-40.243-40.243c0-22.226 18.017-40.243 40.243-40.243s40.243 18.017 40.243 40.243z"></path>
</svg>
