<svg xmlns="http://www.w3.org/2000/svg" xmlns:xlink="http://www.w3.org/1999/xlink" width="500" zoomAndPan="magnify" viewBox="0 0 375 374.999991" height="500" preserveAspectRatio="xMidYMid meet" version="1.0"><defs><clipPath id="533e65473f"><path d="M 0 0 L 167 0 L 167 374.941406 L 0 374.941406 Z M 0 0 " clip-rule="nonzero"/></clipPath></defs><g clip-path="url(#533e65473f)"><path fill="#ffffff" d="M -39.453125 -90.90625 C -41.769531 -89.484375 -43.847656 -86.511719 -43.488281 -85.136719 C -43.390625 -84.765625 -43.519531 -84.144531 -43.773438 -83.757812 C -44.078125 -83.292969 -44.304688 -81.523438 -44.441406 -78.570312 C -44.554688 -76.105469 -44.699219 -73.191406 -44.761719 -72.097656 C -44.824219 -71.003906 -44.890625 -69.804688 -44.910156 -69.441406 C -44.9375 -68.886719 -44.996094 -68.859375 -45.269531 -69.277344 C -45.558594 -69.71875 -45.632812 -69.71875 -45.921875 -69.277344 C -46.433594 -68.5 -46.320312 -68.1875 -45.59375 -68.375 C -45.140625 -68.496094 -44.914062 -68.378906 -44.882812 -68 C -44.78125 -66.910156 -44.992188 -65.449219 -45.292969 -65.140625 C -46.039062 -64.367188 -45.492188 -62.695312 -44.707031 -63.347656 C -44.023438 -63.914062 -43.765625 -63.410156 -44.261719 -62.484375 C -44.601562 -61.84375 -44.648438 -60.148438 -44.480469 -54.699219 C -44.285156 -48.273438 -44.3125 -47.703125 -44.847656 -47.378906 C -45.398438 -47.050781 -45.394531 -47.003906 -44.800781 -46.542969 C -44.308594 -46.164062 -44.144531 -45.523438 -44.046875 -43.640625 C -43.980469 -42.308594 -43.703125 -37.070312 -43.433594 -32 C -43.160156 -26.925781 -42.941406 -21.820312 -42.941406 -20.648438 C -42.941406 -18.378906 -42.59375 -17.785156 -41.753906 -18.625 C -41.167969 -19.210938 -40.742188 -19.285156 -40.472656 -18.84375 C -40.371094 -18.679688 -40.8125 -18.085938 -41.453125 -17.523438 L -42.621094 -16.496094 L -42.109375 -8.773438 C -41.5625 -0.441406 -41.050781 6.585938 -39.78125 23.1875 C -39.335938 29.027344 -38.664062 37.84375 -38.292969 42.773438 C -37.921875 47.703125 -37.480469 53.082031 -37.3125 54.726562 C -37.144531 56.371094 -36.914062 59.28125 -36.800781 61.199219 C -36.472656 66.820312 -36.65625 66.589844 -33.402344 65.382812 C -31.347656 64.617188 -27.660156 64.121094 -23.695312 64.070312 L -20.207031 64.023438 L -19.96875 62.363281 C -19.703125 60.496094 -18.835938 59.539062 -17.421875 59.546875 C -15.769531 59.554688 -15.546875 59.945312 -16.179688 61.75 C -16.492188 62.632812 -16.828125 63.597656 -16.921875 63.894531 C -17.109375 64.460938 -16.25 64.839844 -14.753906 64.847656 C -13.882812 64.855469 -13.875 63.878906 -14.695312 58.214844 C -14.871094 57.027344 -15.320312 53.589844 -15.699219 50.578125 C -16.082031 47.5625 -16.617188 43.304688 -16.894531 41.113281 C -17.175781 38.925781 -17.550781 35.785156 -17.734375 34.144531 C -17.917969 32.5 -18.128906 30.972656 -18.203125 30.75 C -18.40625 30.164062 -17.816406 29.910156 -17.113281 30.285156 C -16.347656 30.695312 -15.554688 30.230469 -15.824219 29.527344 C -15.957031 29.183594 -16.425781 28.996094 -17.167969 28.996094 C -18.234375 28.996094 -18.324219 28.914062 -18.5 27.75 C -18.921875 24.972656 -19.734375 18.53125 -20.375 12.894531 C -20.746094 9.605469 -21.273438 5.273438 -21.539062 3.265625 C -21.957031 0.152344 -23.179688 -9.933594 -23.894531 -16.15625 L -24.105469 -17.984375 L -23.390625 -17.347656 C -22.683594 -16.714844 -22.675781 -16.714844 -21.6875 -17.824219 L -20.695312 -18.933594 L -21.417969 -19.703125 C -21.890625 -20.207031 -22.519531 -20.472656 -23.238281 -20.472656 C -24.515625 -20.472656 -24.507812 -20.445312 -25 -25.121094 C -25.183594 -26.855469 -25.558594 -30.140625 -25.835938 -32.421875 C -26.109375 -34.707031 -26.492188 -37.992188 -26.6875 -39.726562 C -26.878906 -41.460938 -27.066406 -43.105469 -27.105469 -43.378906 C -27.148438 -43.699219 -26.839844 -43.917969 -26.257812 -43.984375 C -25.003906 -44.125 -25.046875 -45.039062 -26.304688 -45.039062 C -27.410156 -45.039062 -27.667969 -45.492188 -27.675781 -47.472656 C -27.679688 -48.234375 -28.058594 -51.847656 -28.515625 -55.496094 C -28.976562 -59.148438 -29.359375 -62.359375 -29.371094 -62.636719 C -29.394531 -63.148438 -29.433594 -63.566406 -30.820312 -77.410156 C -31.28125 -81.972656 -31.691406 -86.597656 -31.738281 -87.683594 C -31.824219 -89.761719 -33.570312 -91.71875 -34.296875 -90.546875 C -34.472656 -90.261719 -34.605469 -90.34375 -34.730469 -90.828125 C -34.972656 -91.761719 -37.976562 -91.8125 -39.457031 -90.90625 Z M -26.339844 -87.886719 C -26.339844 -88.316406 -25.101562 -88.28125 -24.832031 -87.84375 C -24.710938 -87.648438 -24.691406 -87.410156 -24.785156 -87.316406 C -25.046875 -87.054688 -26.339844 -87.53125 -26.339844 -87.886719 Z M -63.734375 -75.75 C -63.382812 -76.667969 -62.148438 -76.28125 -60.828125 -74.835938 C -59.230469 -73.089844 -59.214844 -72.789062 -60.734375 -73.035156 C -62.816406 -73.371094 -64.175781 -74.601562 -63.734375 -75.75 Z M -26.945312 -74.707031 C -27.082031 -75.414062 -25.914062 -75.4375 -25.332031 -74.738281 C -25.003906 -74.34375 -24.996094 -74.136719 -25.300781 -73.832031 C -25.78125 -73.347656 -26.78125 -73.878906 -26.945312 -74.703125 Z M -55.484375 -73.722656 C -57.195312 -72.847656 -58.875 -69.894531 -58.875 -67.753906 C -58.875 -67.332031 -59.121094 -66.84375 -59.425781 -66.675781 C -59.78125 -66.476562 -59.894531 -66.160156 -59.75 -65.777344 C -59.546875 -65.253906 -59.476562 -65.242188 -59.117188 -65.699219 C -58.324219 -66.699219 -56.378906 -66.742188 -55.746094 -65.777344 C -54.84375 -64.398438 -55.175781 -63.773438 -56.730469 -63.925781 C -59.566406 -64.199219 -59.363281 -64.339844 -59.472656 -62.03125 C -59.601562 -59.339844 -58.761719 -50.476562 -57.679688 -43.097656 C -56.746094 -36.714844 -56.769531 -36.40625 -58.179688 -36.40625 C -59.121094 -36.40625 -59.15625 -36.355469 -58.976562 -35.246094 C -58.746094 -33.828125 -58.976562 -33.808594 -60.972656 -35.078125 C -62.675781 -36.15625 -63.277344 -37.246094 -63.125 -38.96875 C -62.976562 -40.597656 -62.386719 -40.453125 -62.195312 -38.742188 C -62.039062 -37.339844 -61.957031 -37.242188 -60.765625 -36.960938 C -58.855469 -36.511719 -58.855469 -35.691406 -60.769531 -49.023438 C -60.886719 -49.84375 -60.996094 -51.453125 -61.007812 -52.59375 C -61.019531 -53.734375 -61.144531 -54.667969 -61.28125 -54.667969 C -61.417969 -54.667969 -61.527344 -54.453125 -61.527344 -54.191406 C -61.527344 -53.660156 -62.671875 -53.183594 -63.1875 -53.503906 C -63.699219 -53.820312 -63.589844 -54.285156 -62.855469 -54.910156 C -61.859375 -55.765625 -62.007812 -56.109375 -64.265625 -58.136719 C -69.597656 -62.921875 -73.113281 -62.976562 -74.121094 -58.289062 C -74.582031 -56.125 -74.578125 -42.464844 -74.113281 -37.34375 C -73.847656 -34.445312 -73.847656 -33.25 -74.113281 -32.988281 C -74.632812 -32.464844 -74.5625 -31.25 -73.976562 -30.765625 C -73.703125 -30.539062 -73.480469 -30.160156 -73.480469 -29.929688 C -73.480469 -29.699219 -73.253906 -29.421875 -72.980469 -29.316406 C -72.382812 -29.085938 -72.332031 -28.007812 -72.882812 -27.128906 C -73.550781 -26.054688 -71.148438 -4.785156 -68.113281 15.050781 C -66.308594 26.875 -66.269531 27.003906 -64.828125 27.003906 C -64.3125 27.003906 -63.796875 27.152344 -63.6875 27.335938 C -63.570312 27.519531 -63.820312 27.671875 -64.246094 27.671875 C -66.171875 27.6875 -66.191406 28.3125 -64.515625 36.964844 C -64.179688 38.699219 -63.515625 42.210938 -63.039062 44.765625 C -60.703125 57.355469 -58.59375 67.894531 -58.371094 68.121094 C -58.289062 68.203125 -57.035156 68.015625 -55.585938 67.703125 C -52.613281 67.058594 -44.875 66.9375 -42.9375 67.5 C -40.867188 68.105469 -40.5 67.984375 -40.714844 66.761719 C -40.980469 65.246094 -42.082031 59.214844 -43.101562 53.730469 C -43.578125 51.171875 -44.175781 47.886719 -44.433594 46.425781 C -44.6875 44.964844 -45.210938 42.125 -45.597656 40.117188 C -46.554688 35.078125 -47.128906 31.953125 -48.121094 26.339844 C -48.585938 23.691406 -49.328125 19.507812 -49.765625 17.042969 C -50.203125 14.578125 -50.9375 10.320312 -51.398438 7.582031 C -51.855469 4.839844 -52.378906 1.855469 -52.554688 0.941406 C -53.652344 -4.652344 -55.164062 -13.269531 -56.90625 -23.792969 C -57.644531 -28.265625 -58.332031 -32.261719 -58.429688 -32.675781 C -58.644531 -33.554688 -57.867188 -33.710938 -57.210938 -32.921875 C -56.394531 -31.9375 -56.121094 -32.390625 -56.304688 -34.417969 C -56.546875 -37.0625 -55.9375 -37.0625 -54.75 -34.414062 C -53.800781 -32.304688 -53.839844 -31.890625 -55.039062 -31.433594 L -55.789062 -31.148438 L -55.050781 -26.890625 C -53.320312 -16.910156 -49.554688 3.242188 -47.582031 13.0625 C -47.050781 15.710938 -45.792969 21.984375 -44.785156 27.003906 C -43.78125 32.027344 -42.8125 36.808594 -42.632812 37.628906 C -40.59375 47.039062 -40.5 47.269531 -40.820312 41.984375 L -41.039062 38.367188 L -40.136719 38.542969 C -39.332031 38.695312 -39.242188 38.625 -39.339844 37.925781 C -39.40625 37.453125 -39.714844 37.089844 -40.117188 37.019531 C -41.246094 36.820312 -41.289062 36.613281 -41.78125 29.136719 C -42.046875 25.132812 -42.335938 21.113281 -42.425781 20.199219 C -42.515625 19.285156 -42.964844 12.9375 -43.421875 6.089844 C -43.878906 -0.757812 -44.402344 -8.230469 -44.585938 -10.511719 C -44.769531 -12.792969 -45.015625 -15.898438 -45.132812 -17.410156 C -45.320312 -19.808594 -45.421875 -20.132812 -45.921875 -19.972656 C -46.574219 -19.769531 -47.421875 -20.59375 -47.097656 -21.121094 C -46.78125 -21.632812 -45.738281 -21.542969 -45.257812 -20.964844 C -44.941406 -20.582031 -44.730469 -20.554688 -44.386719 -20.839844 C -43.746094 -21.371094 -43.824219 -21.796875 -44.5625 -21.796875 C -45.253906 -21.796875 -45.398438 -22.605469 -45.75 -28.605469 C -45.847656 -30.246094 -46 -32.863281 -46.089844 -34.414062 C -46.179688 -35.964844 -46.335938 -38.132812 -46.433594 -39.230469 C -46.605469 -41.164062 -47.578125 -58.234375 -47.582031 -59.398438 C -47.582031 -59.71875 -47.367188 -59.980469 -47.097656 -59.980469 C -46.074219 -59.980469 -45.761719 -61.367188 -46.625 -62.070312 C -47.324219 -62.636719 -47.429688 -62.648438 -47.523438 -62.175781 C -47.664062 -61.484375 -48.449219 -61.480469 -48.710938 -62.167969 C -48.847656 -62.519531 -48.695312 -62.753906 -48.253906 -62.867188 C -47.351562 -63.105469 -47.320312 -71.277344 -48.21875 -72.039062 C -50.511719 -73.980469 -53.582031 -74.691406 -55.480469 -73.722656 Z M -31.542969 -69.191406 C -31.023438 -68.808594 -31.019531 -68.714844 -31.5 -68.03125 C -32.121094 -67.140625 -33.476562 -67.042969 -33.929688 -67.855469 C -34.671875 -69.179688 -32.890625 -70.175781 -31.542969 -69.191406 Z M -67.839844 -66.957031 C -67.839844 -67.734375 -67.046875 -67.644531 -65.597656 -66.699219 C -64.835938 -66.199219 -64.574219 -65.289062 -65.195312 -65.289062 C -66.230469 -65.289062 -67.839844 -66.304688 -67.839844 -66.957031 Z M -39.253906 -63.464844 C -39.277344 -64.023438 -40.808594 -64.03125 -41.273438 -63.472656 C -41.511719 -63.183594 -41.613281 -62.855469 -41.5 -62.742188 C -41.199219 -62.441406 -39.238281 -63.070312 -39.253906 -63.464844 Z M -26.988281 -62.15625 C -26.152344 -63.160156 -24.914062 -62.285156 -24.339844 -60.285156 C -23.902344 -58.75 -24.390625 -58.449219 -25.636719 -59.5 C -27.058594 -60.699219 -27.492188 -61.546875 -26.988281 -62.160156 Z M -77.753906 -59.347656 C -77.277344 -59.644531 -76.070312 -58.433594 -76.25 -57.839844 C -76.453125 -57.179688 -77.070312 -57.335938 -77.625 -58.183594 C -78.097656 -58.90625 -78.121094 -59.117188 -77.753906 -59.347656 Z M -54.40625 -58.339844 C -54.652344 -58.734375 -55.789062 -58.742188 -56.03125 -58.355469 C -56.238281 -58.023438 -54.921875 -57.597656 -54.496094 -57.859375 C -54.34375 -57.957031 -54.300781 -58.171875 -54.40625 -58.34375 Z M -80.234375 -52.453125 C -79.8125 -52.875 -79.460938 -52.671875 -79.460938 -52.011719 C -79.460938 -51.640625 -79.683594 -51.347656 -79.957031 -51.347656 C -80.464844 -51.347656 -80.640625 -52.046875 -80.234375 -52.453125 Z M -23.351562 -49.6875 C -23.351562 -50.050781 -23.203125 -50.347656 -23.019531 -50.347656 C -22.835938 -50.347656 -22.6875 -50.050781 -22.6875 -49.6875 C -22.6875 -49.320312 -22.835938 -49.023438 -23.019531 -49.023438 C -23.203125 -49.023438 -23.351562 -49.320312 -23.351562 -49.6875 Z M -63.523438 -47.066406 C -63.523438 -46.648438 -64.425781 -46.351562 -65.015625 -46.578125 C -65.289062 -46.683594 -65.429688 -46.902344 -65.328125 -47.066406 C -65.089844 -47.453125 -63.523438 -47.453125 -63.523438 -47.066406 Z M -78.132812 -43.691406 C -78.132812 -44.941406 -77.429688 -45.039062 -76.675781 -43.886719 C -75.90625 -42.710938 -75.96875 -41.386719 -76.792969 -41.386719 C -77.585938 -41.386719 -78.132812 -42.324219 -78.132812 -43.691406 Z M -36.351562 -43.894531 C -36.414062 -44.21875 -36.667969 -44.550781 -36.914062 -44.632812 C -37.199219 -44.730469 -37.320312 -44.570312 -37.242188 -44.191406 C -37.179688 -43.867188 -36.929688 -43.535156 -36.683594 -43.449219 C -36.398438 -43.355469 -36.277344 -43.515625 -36.351562 -43.894531 Z M -76.96875 -37.402344 C -77.085938 -37.589844 -76.808594 -37.734375 -76.324219 -37.734375 C -75.859375 -37.734375 -75.476562 -37.582031 -75.476562 -37.402344 C -75.476562 -37.21875 -75.765625 -37.070312 -76.121094 -37.070312 C -76.472656 -37.070312 -76.855469 -37.21875 -76.96875 -37.402344 Z M -34.972656 -35.195312 C -34.972656 -36.183594 -35.316406 -36.480469 -35.984375 -36.0625 C -36.347656 -35.835938 -36.378906 -35.621094 -36.109375 -35.191406 C -35.535156 -34.269531 -34.972656 -34.273438 -34.972656 -35.199219 Z M -80.253906 -35.546875 C -80.144531 -35.835938 -79.859375 -36.074219 -79.625 -36.074219 C -79.390625 -36.074219 -79.105469 -35.835938 -78.996094 -35.546875 C -78.601562 -34.519531 -78.789062 -34.082031 -79.625 -34.082031 C -80.460938 -34.082031 -80.648438 -34.519531 -80.253906 -35.546875 Z M -37.363281 -25.382812 C -37.910156 -25.933594 -38.292969 -25.882812 -38.292969 -25.261719 C -38.292969 -24.757812 -37.542969 -23.789062 -37.152344 -23.789062 C -36.804688 -23.789062 -36.960938 -24.980469 -37.363281 -25.382812 Z M -70.519531 -22.792969 C -70.519531 -23.066406 -70.734375 -23.582031 -71.003906 -23.9375 C -71.625 -24.757812 -71.617188 -24.21875 -70.992188 -23.128906 C -70.71875 -22.644531 -70.519531 -22.507812 -70.519531 -22.792969 Z M -69.101562 -19.738281 C -68.792969 -20.050781 -68.90625 -20.136719 -69.609375 -20.136719 C -70.75 -20.136719 -70.96875 -19.574219 -70.503906 -17.839844 C -70.066406 -16.207031 -69.5 -16.351562 -69.5 -18.101562 C -69.5 -18.78125 -69.320312 -19.519531 -69.101562 -19.742188 Z M -75.851562 -4.234375 C -73.222656 -5.261719 -73.394531 -5.511719 -72.820312 0.113281 C -71.640625 11.632812 -68.535156 31.101562 -67.753906 31.878906 C -67.359375 32.277344 -67.3125 32.550781 -67.574219 32.96875 C -67.832031 33.378906 -67.636719 35.054688 -66.828125 39.3125 C -65.3125 47.332031 -65.148438 46.542969 -68.503906 47.441406 C -74.34375 49.007812 -78.988281 51.015625 -83.15625 53.769531 C -85.28125 55.175781 -86.082031 55.5 -86.113281 54.976562 C -86.121094 54.839844 -86.269531 54.054688 -86.441406 53.234375 C -86.769531 51.652344 -87.402344 44.101562 -87.535156 40.109375 C -87.59375 38.378906 -87.773438 37.566406 -88.183594 37.15625 C -88.882812 36.457031 -88.898438 36.167969 -88.257812 35.636719 C -87.851562 35.300781 -87.757812 34.1875 -87.757812 29.539062 C -87.75 5.132812 -85.820312 -0.335938 -75.847656 -4.234375 Z M -28.164062 2.4375 C -28.164062 3.019531 -29.585938 3.308594 -30.066406 2.828125 C -30.597656 2.296875 -30.007812 1.726562 -29.046875 1.835938 C -28.53125 1.898438 -28.164062 2.144531 -28.164062 2.4375 Z M 0.324219 18.957031 C -14.84375 19.042969 -15.347656 19.066406 -15.546875 19.6875 C -15.65625 20.042969 -16.050781 20.425781 -16.417969 20.542969 C -17.414062 20.859375 -17.128906 22.1875 -16.058594 22.199219 C -15.117188 22.207031 -15.210938 21.855469 -14.03125 29.828125 C -13.125 35.949219 -13.363281 35.632812 -9.617188 35.648438 C -6.824219 35.65625 -6.636719 35.699219 -7.25 36.164062 C -7.902344 36.667969 -7.898438 36.6875 -6.945312 37.515625 C -5.664062 38.628906 -6.183594 38.945312 -9.324219 38.953125 C -12.070312 38.957031 -11.988281 38.832031 -11.351562 42.140625 C -10.898438 44.480469 -10.570312 44.957031 -9.964844 44.128906 C -9.433594 43.402344 -8.433594 43.625 -7.824219 44.605469 C -7.382812 45.308594 -7.363281 45.289062 -9.65625 46.09375 C -9.882812 46.175781 -10.070312 46.617188 -10.070312 47.078125 L -10.070312 47.914062 L 10.007812 48.089844 L 10.300781 49.75 C 10.457031 50.660156 10.609375 55.46875 10.636719 60.429688 C 10.683594 70.523438 10.539062 71.210938 8.320312 71.421875 C 6.28125 71.613281 5.917969 71.816406 5.53125 72.988281 C 5.222656 73.929688 3.542969 74.839844 3.542969 74.0625 C 3.542969 74.019531 3.679688 73.496094 3.851562 72.902344 C 4.148438 71.863281 4.125 71.828125 3.1875 71.828125 C 2.296875 71.828125 2.214844 71.925781 2.214844 72.988281 C 2.214844 73.929688 2.089844 74.148438 1.550781 74.148438 C 1.1875 74.148438 0.886719 74.300781 0.886719 74.480469 C 0.886719 74.664062 1.1875 74.8125 1.550781 74.8125 C 2.007812 74.8125 2.214844 75.035156 2.214844 75.523438 C 2.214844 75.914062 2.457031 76.410156 2.75 76.625 C 3.246094 76.988281 3.242188 77.105469 2.730469 78.097656 C 1.410156 80.652344 1.273438 80.613281 11.269531 80.710938 C 18.988281 80.789062 20.183594 80.734375 20.351562 80.292969 C 20.460938 80.015625 20.382812 76.613281 20.179688 72.734375 C 19.972656 68.855469 19.664062 62.546875 19.484375 58.710938 C 18.695312 41.847656 18.441406 38.988281 17.722656 38.757812 C 17.359375 38.644531 13.910156 38.652344 10.054688 38.78125 C -3.375 39.21875 -4.433594 39.148438 -4.183594 37.832031 C -4.066406 37.222656 -4.25 36.878906 -4.910156 36.441406 C -6.371094 35.488281 -5.640625 35.425781 8.160156 35.335938 L 21.398438 35.253906 L 21.59375 37.1875 C 22.234375 43.632812 22.214844 53.230469 21.5625 53.230469 C 21.207031 53.230469 20.828125 53.320312 20.71875 53.429688 C 20.355469 53.789062 20.867188 54.558594 21.464844 54.558594 C 22.273438 54.558594 22.894531 55.390625 22.652344 56.15625 C 22.238281 57.457031 23.363281 79.894531 23.800781 79.089844 C 25.523438 75.914062 26.347656 67.417969 26.574219 50.40625 C 26.734375 38.5 25.863281 33.75 21.949219 25.167969 C 20.585938 22.179688 20.554688 21.652344 21.765625 22.109375 C 23.179688 22.640625 24.394531 21.640625 23.316406 20.835938 C 22.519531 20.25 21.414062 20.222656 20.835938 20.773438 C 20.488281 21.109375 20.328125 21.070312 20.023438 20.578125 C 19.078125 19.066406 18.886719 18.941406 17.457031 18.90625 C 16.652344 18.882812 8.941406 18.90625 0.324219 18.953125 Z M 37.960938 20.253906 C 38.339844 19.875 39.300781 20.011719 39.710938 20.507812 C 40.023438 20.886719 39.972656 21.054688 39.441406 21.339844 C 38.355469 21.917969 37.164062 21.050781 37.960938 20.253906 Z M -57.878906 21.363281 C -57.878906 20.996094 -58.03125 20.699219 -58.210938 20.699219 C -58.394531 20.699219 -58.542969 21 -58.542969 21.363281 C -58.542969 21.726562 -58.394531 22.027344 -58.210938 22.027344 C -58.03125 22.027344 -57.878906 21.726562 -57.878906 21.363281 Z M 34.605469 23.980469 C 34.707031 23.816406 34.933594 23.6875 35.109375 23.6875 C 35.503906 23.6875 35.90625 24.632812 35.628906 24.910156 C 35.339844 25.199219 34.390625 24.332031 34.605469 23.980469 Z M -81.75 25.882812 C -82.277344 25.25 -82.894531 25.167969 -82.695312 25.761719 C -82.621094 25.988281 -82.277344 26.230469 -81.929688 26.296875 C -81.390625 26.402344 -81.367188 26.347656 -81.75 25.882812 Z M -35.714844 28.5625 C -35.398438 28.480469 -35.734375 28.414062 -36.464844 28.417969 C -37.195312 28.421875 -37.457031 28.488281 -37.042969 28.570312 C -36.628906 28.648438 -36.03125 28.644531 -35.714844 28.5625 Z M -21.316406 29.375 C -19.464844 31.226562 -22.726562 35.5625 -25.261719 34.617188 C -26.277344 34.238281 -31.03125 29.335938 -30.78125 28.929688 C -30.40625 28.324219 -21.96875 28.722656 -21.316406 29.375 Z M -0.25 30.410156 C -0.113281 30.546875 -2.378906 30.628906 -5.285156 30.59375 C -10.332031 30.53125 -10.414062 30.519531 -7.082031 30.34375 C -2.371094 30.09375 -0.546875 30.113281 -0.25 30.410156 Z M 26.359375 32.226562 C 25.769531 32.152344 26.332031 32.09375 27.613281 32.097656 C 28.890625 32.097656 29.371094 32.15625 28.683594 32.230469 C 27.992188 32.300781 26.949219 32.300781 26.359375 32.226562 Z M -74.351562 34.503906 C -74.460938 34.214844 -74.757812 33.976562 -75.011719 33.976562 C -75.707031 33.976562 -75.566406 34.898438 -74.8125 35.304688 C -74.121094 35.675781 -73.988281 35.441406 -74.351562 34.503906 Z M 40.945312 35.789062 C 41.171875 35.199219 42.09375 35.265625 42.300781 35.886719 C 42.390625 36.148438 42.125 36.300781 41.59375 36.300781 C 40.964844 36.300781 40.796875 36.167969 40.941406 35.789062 Z M 33.421875 36.804688 C 35.402344 35.730469 36.242188 35.824219 36.242188 37.128906 C 36.242188 37.976562 36.007812 38.253906 34.675781 38.96875 C 32.71875 40.027344 31.597656 41.070312 31.082031 42.3125 C 30.5625 43.5625 29.980469 43.53125 29.15625 42.195312 C 27.707031 39.84375 27.808594 39.382812 29.980469 38.453125 C 31.050781 37.992188 32.597656 37.253906 33.421875 36.804688 Z M -52.050781 37.660156 C -52.398438 37.097656 -53.914062 37.199219 -53.695312 37.769531 C -53.59375 38.03125 -53.273438 38.335938 -52.984375 38.445312 C -52.355469 38.6875 -51.738281 38.167969 -52.050781 37.660156 Z M -106.019531 41.640625 C -106.019531 41.234375 -105.808594 40.949219 -105.5 40.949219 C -105.1875 40.949219 -105.019531 41.175781 -105.082031 41.503906 C -105.246094 42.335938 -106.019531 42.449219 -106.019531 41.640625 Z M -108.011719 43.574219 C -105.9375 43.140625 -102.878906 43.644531 -103.121094 44.375 C -103.375 45.132812 -110.667969 45.730469 -110.667969 44.992188 C -110.667969 44.597656 -109.222656 43.828125 -108.011719 43.574219 Z M 37.074219 44.566406 C 37.074219 43.855469 37.335938 43.800781 38.546875 44.261719 C 39.515625 44.632812 39.621094 45.183594 38.898438 46.117188 C 38.316406 46.867188 37.074219 45.8125 37.074219 44.566406 Z M 30.996094 44.484375 C 31.367188 44.109375 31.761719 44.253906 31.761719 44.769531 C 31.761719 45.042969 31.621094 45.265625 31.449219 45.265625 C 31.03125 45.265625 30.730469 44.746094 30.996094 44.484375 Z M -68.835938 49.933594 C -65.6875 48.824219 -65.078125 48.792969 -64.914062 49.75 C -64.855469 50.113281 -64.421875 51.636719 -63.957031 53.132812 C -62.917969 56.464844 -62.996094 56.695312 -65.414062 57.351562 C -73.347656 59.511719 -79.992188 62.230469 -83.066406 64.574219 C -83.699219 65.058594 -83.984375 65.097656 -84.558594 64.792969 C -85.195312 64.453125 -85.222656 64.46875 -84.828125 64.949219 C -84.441406 65.417969 -84.550781 65.660156 -85.617188 66.746094 C -87.21875 68.375 -88.417969 70.945312 -88.421875 72.75 C -88.425781 74.089844 -88.464844 74.148438 -89.117188 73.800781 C -91.441406 72.558594 -91.707031 66.050781 -89.582031 62.351562 C -87.648438 58.984375 -78.90625 53.25 -72.652344 51.246094 C -72.105469 51.074219 -70.386719 50.480469 -68.835938 49.933594 Z M -103.863281 49.582031 C -103.515625 49.019531 -103.03125 49.214844 -103.03125 49.914062 C -103.03125 50.277344 -103.171875 50.578125 -103.34375 50.578125 C -103.792969 50.578125 -104.105469 49.972656 -103.863281 49.582031 Z M 35.207031 53.054688 C 35.429688 52.476562 35.582031 52.460938 36.453125 52.925781 C 36.980469 53.210938 37.035156 53.375 36.722656 53.757812 C 35.976562 54.65625 34.800781 54.109375 35.207031 53.054688 Z M 45.863281 52.917969 C 46.226562 52.328125 47.03125 52.535156 47.03125 53.214844 C 47.03125 53.570312 46.898438 53.941406 46.738281 54.042969 C 46.332031 54.292969 45.597656 53.347656 45.863281 52.917969 Z M 42.433594 53.21875 C 42.363281 53 42.480469 52.878906 42.699219 52.953125 C 43.128906 53.09375 43.203125 53.550781 42.808594 53.589844 C 42.675781 53.605469 42.507812 53.4375 42.433594 53.21875 Z M -19.519531 54.964844 C -18.25 56.230469 -21.265625 56.9375 -27.632812 56.859375 C -34.214844 56.785156 -35.472656 56.601562 -35.472656 55.71875 C -35.472656 54.921875 -20.28125 54.203125 -19.523438 54.960938 Z M 3.101562 54.8125 C 3.382812 54.332031 3.898438 54.570312 4.175781 55.3125 C 4.480469 56.113281 4.359375 56.554688 3.84375 56.554688 C 3.46875 56.554688 2.882812 55.183594 3.101562 54.8125 Z M -8.578125 56.886719 C -8.414062 56.625 -8.226562 56.605469 -8.003906 56.828125 C -7.820312 57.011719 -7.78125 57.335938 -7.914062 57.550781 C -8.074219 57.808594 -8.265625 57.828125 -8.484375 57.609375 C -8.667969 57.425781 -8.710938 57.097656 -8.578125 56.886719 Z M 29.625 57.257812 C 30.523438 54.582031 55.964844 64.738281 61.640625 70.042969 C 61.914062 70.296875 63.109375 71.203125 64.296875 72.058594 C 73.671875 78.796875 82.683594 91.585938 86.53125 103.628906 C 86.828125 104.558594 87.167969 105.03125 87.511719 105 C 91.480469 104.625 92.449219 105.691406 89.253906 106.914062 C 88.074219 107.363281 87.839844 107.585938 87.976562 108.15625 C 88.066406 108.535156 88.367188 109.878906 88.648438 111.140625 C 88.929688 112.398438 89.355469 113.558594 89.59375 113.710938 C 89.945312 113.941406 89.941406 114.046875 89.5625 114.289062 C 89.265625 114.480469 89.191406 114.808594 89.351562 115.203125 C 90.765625 118.644531 90.902344 132.667969 89.582031 138.890625 C 87.960938 146.554688 83.535156 153.832031 80.496094 153.832031 C 80.4375 153.832031 80.449219 149.082031 80.515625 143.269531 C 80.835938 115.664062 77.496094 102.359375 67.40625 91.066406 C 66.355469 89.890625 65.265625 88.921875 64.980469 88.914062 C 64.101562 88.894531 63.636719 88.425781 63.636719 87.5625 C 63.636719 84.722656 51.375 75.675781 42.96875 72.320312 C 40.683594 71.410156 40.90625 71.050781 44 70.640625 C 46.222656 70.34375 46.734375 69.980469 45.871094 69.300781 C 45.039062 68.644531 40.175781 68.828125 38.402344 69.582031 L 37.238281 70.078125 L 38.152344 70.507812 C 39.296875 71.046875 39.328125 71.496094 38.21875 71.496094 C 37.734375 71.496094 37.03125 71.125 36.5625 70.621094 C 36 70.007812 34.777344 69.457031 32.519531 68.785156 C 30.742188 68.257812 29.160156 67.695312 29.007812 67.542969 C 28.746094 67.285156 29.292969 58.265625 29.628906 57.257812 Z M -64.519531 59.777344 C -78.515625 62.109375 -87.085938 67.902344 -87.09375 75.035156 C -87.09375 78.339844 -86.738281 78.730469 -85.03125 77.292969 C -84.257812 76.640625 -83.933594 76.539062 -83.578125 76.832031 C -83.222656 77.125 -83.070312 77.085938 -82.910156 76.660156 C -82.78125 76.324219 -82.929688 75.941406 -83.289062 75.675781 C -83.664062 75.402344 -83.804688 75.027344 -83.667969 74.671875 C -83.421875 74.035156 -82.78125 74.265625 -82.78125 75 C -82.78125 75.707031 -82.367188 75.597656 -80.230469 74.324219 C -79.167969 73.691406 -76.546875 72.511719 -74.40625 71.699219 C -71.105469 70.449219 -68.9375 69.835938 -63.597656 68.65625 C -62.851562 68.488281 -62.84375 68.429688 -62.933594 64.125 C -63.03125 59.617188 -63.0625 59.53125 -64.519531 59.773438 Z M 56.484375 60.886719 C 56.71875 60.507812 58.082031 60.410156 58.421875 60.75 C 58.734375 61.0625 58.03125 62.199219 57.519531 62.199219 C 56.917969 62.199219 56.222656 61.316406 56.484375 60.886719 Z M 15.152344 62.28125 C 15.125 64.0625 13.1875 65.089844 12.375 63.753906 C 12.070312 63.253906 12.175781 63.015625 13.003906 62.34375 C 14.28125 61.308594 15.164062 61.285156 15.152344 62.28125 Z M -98.851562 63.734375 C -98.601562 63.078125 -98.363281 63.0625 -97.5625 63.644531 C -96.882812 64.144531 -97.066406 65.1875 -97.835938 65.1875 C -98.515625 65.1875 -99.09375 64.363281 -98.851562 63.734375 Z M 110.183594 67.242188 C 110.695312 66.730469 111.242188 66.90625 111.382812 67.621094 C 111.460938 68.023438 111.253906 68.175781 110.632812 68.175781 C 109.703125 68.175781 109.554688 67.867188 110.183594 67.238281 Z M -28 68.496094 C -37.269531 69.78125 -41.628906 73.96875 -50.339844 89.921875 C -53.007812 94.808594 -57.046875 99.050781 -59.03125 99.050781 C -60.535156 99.050781 -72.019531 109.628906 -76.328125 114.984375 C -82.925781 123.1875 -83.980469 126.191406 -82.292969 132.007812 C -79.238281 142.550781 -79.980469 147.914062 -85.28125 153.625 C -88.691406 157.300781 -88.601562 159.734375 -84.824219 165.699219 C -82.304688 169.679688 -81.25 171.796875 -80.804688 173.765625 C -79.933594 177.613281 -79.070312 178.09375 -71.824219 178.722656 C -66.464844 179.1875 -64.625 179.660156 -60.878906 181.535156 C -49.121094 187.425781 -42.175781 192.449219 -36.21875 199.371094 C -33.894531 202.070312 -31.511719 203.496094 -28.210938 204.171875 L -25.753906 204.671875 L -20.484375 202.613281 C -14.167969 200.140625 -12.21875 199.632812 -8.078125 199.355469 L -4.925781 199.148438 L -4.96875 172.253906 C -4.988281 157.464844 -5.03125 129.152344 -5.054688 109.339844 C -5.101562 70.945312 -5.019531 72.550781 -6.957031 72.140625 C -7.664062 71.992188 -9.738281 71.339844 -11.566406 70.695312 C -16.886719 68.808594 -23.699219 67.898438 -28 68.496094 Z M -80.941406 69.851562 C -80.59375 70.414062 -81.085938 71.828125 -81.625 71.828125 C -81.941406 71.828125 -82.117188 71.496094 -82.117188 70.886719 C -82.117188 69.601562 -81.457031 69.023438 -80.941406 69.855469 Z M -52.542969 70.535156 C -50.066406 70.117188 -43.910156 70.722656 -43.175781 71.457031 C -43.007812 71.625 -43.53125 72.628906 -44.410156 73.824219 C -45.25 74.960938 -47.386719 78.230469 -49.15625 81.082031 C -58.320312 95.84375 -61.558594 96.363281 -64 83.464844 L -64.53125 80.660156 L -63.242188 79.316406 C -62.53125 78.574219 -61.648438 77.597656 -61.277344 77.140625 C -56.992188 71.851562 -56.035156 71.128906 -52.542969 70.539062 Z M -61.035156 70.734375 C -73.074219 72.367188 -88.472656 79.664062 -87.558594 83.304688 C -87.441406 83.773438 -87.558594 84.089844 -87.902344 84.222656 C -88.902344 84.605469 -88.414062 85.105469 -87.011719 85.136719 L -85.601562 85.171875 L -87.09375 85.566406 C -88.800781 86.023438 -89.054688 86.699219 -89.042969 90.75 C -89.027344 95.476562 -88.125 96.507812 -86.359375 93.804688 C -85.679688 92.761719 -84.351562 91.125 -83.402344 90.164062 L -81.679688 88.417969 L -82.105469 87.128906 C -82.675781 85.410156 -82.492188 85.222656 -79.972656 84.953125 C -76.984375 84.632812 -76.816406 84.941406 -79.125 86.480469 C -80.976562 87.71875 -81.957031 89.175781 -80.542969 88.585938 C -78.351562 87.671875 -78.136719 87.625 -77.769531 87.992188 C -77.488281 88.273438 -77.734375 88.542969 -78.730469 89.050781 C -86.835938 93.1875 -89.808594 103.316406 -86.179688 114.433594 C -85.101562 117.742188 -84.863281 117.800781 -82.601562 115.355469 C -80.773438 113.382812 -80.722656 113.351562 -79.933594 113.871094 C -78.828125 114.59375 -77.800781 113.910156 -78.625 113 C -79.394531 112.148438 -79.332031 112.0625 -75.40625 108.511719 C -65.015625 99.113281 -62.355469 96.210938 -63.125 95.125 C -64.601562 93.039062 -65.703125 89.863281 -66.351562 85.828125 C -66.628906 84.09375 -67.140625 83.839844 -68.839844 84.605469 C -69.550781 84.925781 -70.339844 85.109375 -70.597656 85.007812 C -70.859375 84.910156 -71.5 85.113281 -72.027344 85.460938 C -73.171875 86.214844 -74.148438 86.289062 -74.148438 85.617188 C -74.148438 85.351562 -74.394531 85 -74.695312 84.832031 C -75.542969 84.355469 -75.039062 83.949219 -72.113281 82.742188 C -67.109375 80.675781 -56.332031 70.148438 -59.625 70.546875 C -59.851562 70.574219 -60.488281 70.65625 -61.035156 70.730469 Z M 11.316406 71.117188 C 11.082031 70.738281 10.179688 70.746094 10.179688 71.125 C 10.179688 71.492188 11.042969 71.851562 11.300781 71.589844 C 11.40625 71.488281 11.414062 71.273438 11.316406 71.117188 Z M -25.914062 72.195312 C -25.65625 71.941406 -25.648438 71.71875 -25.890625 71.480469 C -26.128906 71.238281 -26.359375 71.28125 -26.636719 71.617188 C -27.140625 72.222656 -26.472656 72.753906 -25.914062 72.195312 Z M 28.617188 72.210938 C 28.832031 71.304688 30.667969 71.402344 34.140625 72.511719 C 38.226562 73.8125 38.300781 73.894531 38.925781 77.734375 C 39.699219 82.511719 39.8125 82.246094 36.824219 82.765625 C 32.699219 83.476562 32.460938 83.734375 34.207031 85.582031 C 35.054688 86.480469 35.59375 86.765625 36.429688 86.765625 C 38.410156 86.765625 39.9375 88.160156 40.175781 90.183594 C 40.621094 94.011719 41.742188 114.714844 41.652344 117.492188 L 41.554688 120.464844 L 21.632812 120.652344 L 20.335938 122.71875 C 19.621094 123.851562 18.5 125.652344 17.84375 126.710938 C 17.191406 127.773438 16.242188 129.230469 15.738281 129.949219 L 14.824219 131.257812 L 11.558594 131.257812 C 7.90625 131.257812 7.890625 131.246094 6.511719 128.601562 C 4.976562 125.652344 3.835938 124.019531 3.195312 123.851562 C 2.621094 123.703125 2.542969 123.386719 2.542969 121.21875 C 2.542969 118.265625 2.523438 118.238281 0.859375 118.894531 C 0.140625 119.175781 -0.546875 119.3125 -0.667969 119.195312 C -1.082031 118.777344 0.332031 117.644531 1.269531 117.644531 C 1.9375 117.644531 2.222656 117.472656 2.242188 117.0625 C 2.261719 116.746094 2.25 109.292969 2.214844 100.5 C 2.175781 89.210938 2.265625 84.453125 2.523438 84.292969 C 3.054688 83.964844 9.859375 83.863281 10.054688 84.175781 C 10.265625 84.515625 11.511719 84.53125 11.511719 84.195312 C 11.511719 84.058594 14.207031 84 17.5 84.0625 L 23.492188 84.175781 L 24.929688 82.699219 C 26.472656 81.109375 27.101562 79.597656 27.9375 75.480469 C 28.214844 74.109375 28.523438 72.640625 28.621094 72.214844 Z M 50.273438 72.40625 C 50.347656 72.636719 50.167969 72.914062 49.878906 73.027344 C 49.265625 73.261719 48.277344 72.566406 48.5625 72.101562 C 48.828125 71.671875 50.105469 71.898438 50.273438 72.40625 Z M 26.449219 74.179688 C 26.449219 74.988281 27.226562 74.871094 27.386719 74.039062 C 27.449219 73.710938 27.28125 73.488281 26.972656 73.488281 C 26.664062 73.488281 26.449219 73.769531 26.449219 74.179688 Z M 41.1875 77.386719 C 41.375 79.195312 41.699219 83.785156 42.875 101.042969 C 43.71875 113.445312 44.378906 126.625 44.601562 135.578125 L 44.8125 144.050781 L 43.90625 144.464844 C 42.449219 145.125 42.386719 144.847656 42.386719 137.875 C 42.386719 133.867188 42.257812 131.253906 42.066406 131.253906 C 41.890625 131.253906 39.5625 133.757812 36.894531 136.816406 C 34.222656 139.875 30.167969 144.429688 27.878906 146.941406 C 25.589844 149.453125 23.695312 151.535156 23.671875 151.570312 C 23.648438 151.605469 20.566406 151.71875 16.820312 151.820312 L 10.015625 152.003906 L 9.933594 153.332031 C 9.894531 154.0625 9.765625 155.886719 9.660156 157.382812 L 9.460938 160.105469 L 7.746094 161.179688 C 6.804688 161.773438 5.242188 162.769531 4.277344 163.398438 L 2.519531 164.539062 L 2.617188 167.070312 L 2.710938 169.601562 L 6.53125 169.597656 C 19.714844 169.582031 35.859375 167.992188 39.867188 166.316406 C 41.898438 165.46875 42.097656 164.484375 42.355469 154 L 42.550781 146.03125 L 43.632812 145.925781 C 44.558594 145.835938 44.71875 145.929688 44.757812 146.589844 C 44.886719 148.753906 44.625 160.917969 44.40625 162.742188 C 44.085938 165.449219 43.894531 165.398438 50.410156 164.3125 C 62.617188 162.277344 72.148438 159.023438 76.820312 155.296875 L 77.722656 154.574219 L 77.710938 146.152344 C 77.660156 111.964844 65.832031 86.84375 45.128906 76.945312 C 41.035156 74.988281 40.945312 75 41.1875 77.386719 Z M -12.0625 76.121094 C -12.0625 76.570312 -12.667969 76.882812 -13.066406 76.636719 C -13.25 76.523438 -13.316406 76.289062 -13.210938 76.117188 C -12.964844 75.71875 -12.066406 75.71875 -12.066406 76.121094 Z M -89.890625 79.046875 C -90.382812 79.539062 -89.980469 80.160156 -88.863281 80.628906 C -87.503906 81.195312 -86.691406 80.851562 -87.394531 80 C -87.867188 79.429688 -89.609375 78.765625 -89.890625 79.046875 Z M -98.316406 81.039062 C -99.402344 81.976562 -99.503906 82.933594 -98.628906 83.953125 C -97.65625 85.082031 -96.722656 84.429688 -96.722656 82.621094 C -96.722656 80.492188 -97.171875 80.046875 -98.316406 81.039062 Z M -0.0351562 84.167969 C -0.761719 84.890625 -0.496094 85.4375 0.578125 85.4375 C 1.441406 85.4375 1.578125 85.324219 1.488281 84.695312 C 1.367188 83.84375 0.566406 83.566406 -0.0351562 84.167969 Z M -38.492188 85.824219 C -38.789062 86.304688 -39.289062 85.78125 -39.277344 85.003906 C -39.269531 84.300781 -39.25 84.296875 -38.789062 84.90625 C -38.527344 85.253906 -38.394531 85.664062 -38.492188 85.824219 Z M 114.171875 85.828125 C 114.339844 86.335938 115.753906 86.433594 115.765625 85.9375 C 115.773438 85.753906 115.382812 85.554688 114.902344 85.496094 C 114.289062 85.421875 114.070312 85.519531 114.171875 85.828125 Z M -36.691406 86.492188 C -36.847656 87.554688 -37.628906 87.667969 -37.628906 86.628906 C -37.628906 86.070312 -37.445312 85.769531 -37.105469 85.769531 C -36.761719 85.769531 -36.621094 86.011719 -36.691406 86.492188 Z M 17.519531 86.964844 C 18.15625 87.539062 18.019531 88.425781 17.292969 88.425781 C 16.75 88.425781 16.046875 87.214844 16.324219 86.761719 C 16.605469 86.308594 16.839844 86.351562 17.519531 86.964844 Z M -74.148438 88.261719 C -74.148438 89.902344 -74.292969 89.980469 -75.984375 89.273438 C -77.453125 88.660156 -77.4375 88.269531 -75.890625 87.453125 C -74.183594 86.554688 -74.148438 86.570312 -74.148438 88.261719 Z M 22.390625 90.023438 C 22.46875 90.261719 22.175781 90.417969 21.664062 90.417969 C 20.773438 90.417969 20.496094 89.933594 21.21875 89.644531 C 21.792969 89.414062 22.234375 89.558594 22.390625 90.023438 Z M 30.917969 94.046875 C 31.160156 94.445312 30.539062 94.839844 30.097656 94.566406 C 29.726562 94.335938 29.96875 93.738281 30.433594 93.738281 C 30.59375 93.738281 30.8125 93.878906 30.917969 94.046875 Z M -103.894531 96.523438 C -104.195312 97.3125 -103.507812 98 -102.964844 97.457031 C -102.648438 97.140625 -102.683594 96.933594 -103.117188 96.5 C -103.632812 95.984375 -103.6875 95.984375 -103.894531 96.527344 Z M -104.496094 104.570312 C -104.777344 105.304688 -103.925781 106.179688 -103.199219 105.902344 C -102.863281 105.773438 -102.695312 105.40625 -102.761719 104.945312 C -102.890625 104.011719 -104.175781 103.734375 -104.496094 104.570312 Z M -12.4375 107.464844 C -12.003906 107.988281 -12.269531 108.347656 -13.09375 108.347656 C -13.777344 108.347656 -14.1875 107.832031 -13.890625 107.351562 C -13.601562 106.882812 -12.875 106.941406 -12.4375 107.464844 Z M 108.453125 109.507812 C 108.453125 110.023438 108.640625 110.339844 108.949219 110.339844 C 109.261719 110.339844 109.449219 110.023438 109.449219 109.507812 C 109.449219 108.992188 109.261719 108.679688 108.949219 108.679688 C 108.640625 108.679688 108.453125 108.992188 108.453125 109.507812 Z M 89.714844 111.195312 C 88.949219 111.960938 89.527344 112.457031 90.84375 112.167969 C 91.574219 112.007812 91.859375 111.773438 91.785156 111.386719 C 91.640625 110.628906 90.398438 110.515625 89.714844 111.195312 Z M 67.890625 112.109375 C 68.003906 113.09375 67.167969 113.675781 66.542969 113.046875 C 66.273438 112.78125 66.28125 112.449219 66.570312 111.816406 C 67.054688 110.753906 67.746094 110.910156 67.890625 112.109375 Z M -54.894531 112.371094 C -54.894531 112.757812 -55.339844 113.582031 -55.886719 114.207031 C -56.609375 115.027344 -56.886719 115.683594 -56.890625 116.574219 C -56.898438 119.023438 -58.222656 119.359375 -58.855469 117.082031 C -59.507812 114.726562 -59.34375 113.105469 -58.523438 113.84375 C -57.777344 114.519531 -57.859375 114.574219 -56.636719 112.578125 C -55.960938 111.480469 -54.890625 111.347656 -54.890625 112.371094 Z M -91 118.667969 C -95.1875 120.765625 -101.863281 130.394531 -101.804688 134.261719 C -101.769531 136.679688 -98.300781 144.597656 -95.417969 148.851562 C -94.859375 149.671875 -94.402344 150.503906 -94.402344 150.699219 C -94.398438 151.523438 -92.527344 152.835938 -91.359375 152.835938 C -89.628906 152.835938 -85.4375 149.367188 -85.4375 147.9375 C -85.4375 147.761719 -85.046875 147.046875 -84.574219 146.347656 C -83.28125 144.445312 -83.472656 137.191406 -84.902344 133.910156 C -86.316406 130.664062 -87.050781 127.480469 -87.511719 122.574219 C -87.988281 117.492188 -88.195312 117.265625 -90.996094 118.667969 Z M -3.347656 118.523438 C -4.125 118.84375 -3.765625 119.300781 -2.742188 119.300781 C -2.070312 119.300781 -1.765625 119.160156 -1.855469 118.886719 C -2.007812 118.425781 -2.707031 118.257812 -3.347656 118.519531 Z M 15.824219 119.933594 C 15.824219 120.632812 14.964844 121.121094 14.644531 120.601562 C 14.421875 120.242188 15.0625 119.304688 15.535156 119.304688 C 15.691406 119.304688 15.824219 119.585938 15.824219 119.933594 Z M -15.246094 121.496094 C -14.398438 121.820312 -14.628906 122.183594 -16.054688 122.753906 C -17.605469 123.375 -19.859375 123.484375 -19.511719 122.921875 C -18.972656 122.042969 -16.214844 121.125 -15.246094 121.496094 Z M 38.070312 122.953125 C 37.730469 123.582031 37.371094 123.617188 31.238281 123.617188 C 24.949219 123.617188 24.746094 123.640625 24.074219 124.367188 C 23.429688 125.0625 19.996094 130.253906 18.503906 132.78125 L 17.835938 133.910156 L 5.871094 133.910156 L 4.382812 130.949219 C 2.808594 127.816406 2.375 127.304688 1.792969 127.890625 C 1.53125 128.152344 1.585938 128.421875 1.988281 128.867188 C 2.492188 129.421875 2.542969 130.910156 2.542969 144.421875 C 2.542969 160.894531 2.445312 160.039062 4.257812 159.117188 C 5.949219 158.25 6.195312 157.5 6.195312 153.164062 C 6.195312 149.074219 6.128906 149.175781 8.894531 148.957031 C 11.335938 148.761719 12.222656 148.996094 11.375 149.617188 C 10.679688 150.125 10.992188 151.175781 11.835938 151.175781 C 12.785156 151.175781 13.277344 150.351562 12.640625 149.824219 C 11.816406 149.140625 12.714844 148.964844 17.480469 148.878906 L 21.632812 148.808594 L 23.460938 146.777344 C 24.464844 145.660156 26.332031 143.613281 27.609375 142.234375 C 28.890625 140.851562 31.128906 138.386719 32.589844 136.75 C 36.164062 132.753906 38.316406 130.378906 39.816406 128.773438 C 41.816406 126.640625 42.0625 123.882812 40.273438 123.679688 C 39.671875 123.609375 39.257812 123.335938 39.15625 122.929688 C 38.941406 122.109375 38.515625 122.117188 38.070312 122.957031 Z M -25.878906 125.140625 C -25.5625 125.957031 -25.636719 126.273438 -26.132812 126.273438 C -26.746094 126.273438 -27.445312 125.394531 -27.179688 124.960938 C -26.859375 124.441406 -26.105469 124.542969 -25.875 125.140625 Z M -31.816406 127.269531 C -31.703125 127.453125 -31.929688 127.601562 -32.316406 127.601562 C -32.703125 127.601562 -32.925781 127.453125 -32.8125 127.269531 C -32.699219 127.085938 -32.476562 126.9375 -32.316406 126.9375 C -32.15625 126.9375 -31.929688 127.089844 -31.816406 127.269531 Z M 92.71875 134.4375 C 92.605469 134.730469 92.597656 135.097656 92.695312 135.257812 C 92.890625 135.574219 92.011719 142.808594 91.488281 145.199219 C 89.390625 154.71875 73.523438 164.566406 53 169.078125 C 50.355469 169.660156 47.671875 170.265625 47.03125 170.425781 C 46.394531 170.585938 44.527344 170.882812 42.882812 171.082031 C 41.238281 171.285156 39.074219 171.59375 38.070312 171.773438 C 32.527344 172.753906 21.035156 173.675781 10.679688 173.96875 C 6.84375 174.078125 3.445312 174.304688 3.125 174.46875 C 2.3125 174.894531 2.242188 182.289062 3.050781 182.597656 C 3.488281 182.765625 11.144531 182.496094 24.078125 181.859375 C 35.390625 181.300781 51.34375 179.691406 57.070312 178.53125 C 66.261719 176.667969 70.199219 180.460938 72.605469 193.507812 C 73.984375 200.988281 74.585938 203.667969 75.46875 206.289062 C 76.960938 210.703125 74.5625 216.734375 70.3125 219.261719 C 69.285156 219.871094 67.476562 220.988281 66.289062 221.738281 C 65.101562 222.492188 63.679688 223.386719 63.132812 223.734375 C 62.328125 224.242188 62.25 224.382812 62.722656 224.480469 C 63.046875 224.546875 63.765625 224.214844 64.328125 223.746094 C 65.972656 222.359375 72.59375 222.5625 72.59375 224 C 72.59375 224.917969 70.292969 226.722656 69.679688 226.285156 C 68.578125 225.496094 68.160156 225.4375 66.296875 225.824219 C 62.242188 226.660156 59.339844 226.25 60.847656 225.046875 L 61.773438 224.304688 L 60.730469 223.765625 C 59.222656 222.988281 59.15625 222.65625 60.382812 222.027344 C 72.054688 216.046875 74.675781 211.804688 72.117188 203.007812 C 71.457031 200.742188 70.621094 197.308594 70.25 195.371094 C 68.671875 187.089844 68.375 186.222656 66.390625 184.023438 C 63.660156 181.003906 59.632812 180.535156 52.339844 182.386719 C 49.546875 183.097656 41.910156 184.042969 41.585938 183.71875 C 41.101562 183.234375 39.824219 183.308594 39.625 183.835938 C 39.515625 184.117188 38.605469 184.371094 37.183594 184.515625 C 29.398438 185.320312 20.386719 185.882812 9.679688 186.242188 C 6.027344 186.367188 2.960938 186.585938 2.867188 186.730469 C 2.351562 187.519531 2.773438 203.71875 3.316406 204.023438 C 4.003906 204.410156 4.027344 205.085938 3.371094 205.628906 C 2.476562 206.371094 2.738281 207.621094 3.789062 207.621094 C 4.984375 207.625 10.578125 209.128906 11.871094 209.796875 C 12.453125 210.097656 13.257812 210.242188 13.769531 210.132812 C 14.875 209.902344 15.898438 210.453125 15.199219 210.90625 C 14.519531 211.34375 14.78125 211.59375 19.222656 214.792969 C 27.03125 220.425781 27.1875 220.570312 25.476562 220.570312 C 23.96875 220.570312 24.203125 220.976562 26.695312 222.675781 C 27.925781 223.515625 29.308594 224.503906 29.765625 224.871094 C 30.785156 225.6875 33.359375 224.933594 32.390625 224.101562 C 32.316406 224.035156 31.507812 223.417969 30.59375 222.722656 C 29.105469 221.59375 29.039062 221.488281 29.933594 221.707031 C 32.03125 222.21875 33.089844 222.921875 32.910156 223.675781 C 32.714844 224.484375 34.800781 225.980469 39.113281 228.132812 C 43.015625 230.078125 47.835938 230.042969 50.515625 228.046875 C 51.0625 227.636719 52.109375 226.980469 52.839844 226.578125 C 53.570312 226.179688 54.671875 225.539062 55.289062 225.148438 L 56.40625 224.445312 L 56.949219 225.113281 C 57.246094 225.484375 57.789062 225.894531 58.152344 226.03125 C 58.796875 226.269531 58.796875 226.289062 58.195312 226.660156 C 57.855469 226.871094 56.0625 228 54.210938 229.167969 C 46.109375 234.285156 40.460938 233.726562 33.148438 227.082031 C 31.613281 225.691406 21.65625 226.433594 22.933594 227.84375 C 23.679688 228.664062 31.496094 233.890625 35.386719 236.167969 C 37.894531 237.632812 40.007812 239.425781 40.613281 240.597656 C 41.136719 241.609375 41.097656 265.0625 40.523438 292.527344 C 40.292969 303.515625 39.839844 302.597656 44.953125 301.445312 C 51.550781 299.957031 53.472656 298.457031 52.042969 295.914062 C 51.402344 294.773438 51.355469 294.300781 51.507812 290.402344 C 51.804688 282.683594 51.980469 276.691406 52.339844 262.234375 C 52.535156 254.382812 52.777344 246.75 52.878906 245.277344 L 53.058594 242.59375 L 56.933594 240.738281 C 66.503906 236.152344 71.371094 233.847656 71.492188 233.847656 C 71.566406 233.847656 73.152344 233.15625 75.015625 232.3125 C 92.191406 224.535156 95.257812 221.917969 101.210938 209.941406 C 106.519531 199.257812 107.371094 195.195312 106.359375 185.375 C 106.015625 182.023438 105.566406 176.863281 104.96875 169.273438 C 103.070312 145.285156 102.027344 140.261719 98.097656 136.210938 C 96.164062 134.21875 93.179688 133.238281 92.71875 134.441406 Z M 20.804688 135.820312 C 22.957031 136.894531 21.824219 138.453125 18.449219 139.0625 C 16.40625 139.429688 15.449219 137.394531 16.863281 135.683594 C 17.382812 135.058594 19.425781 135.128906 20.804688 135.820312 Z M 133.570312 150.453125 C 132.453125 151.6875 133.199219 153.167969 134.941406 153.167969 C 136.648438 153.167969 137.59375 150.378906 135.992188 150.058594 C 134.425781 149.746094 134.171875 149.785156 133.570312 150.453125 Z M 56.175781 151.09375 C 55.921875 152.140625 54.386719 154.496094 53.960938 154.496094 C 53.527344 154.496094 53.585938 154.324219 54.75 152.171875 C 55.886719 150.066406 56.550781 149.566406 56.175781 151.09375 Z M -99.960938 153.75 C -102.613281 156.054688 -104.71875 162.171875 -104.839844 167.941406 C -104.890625 170.316406 -105.195312 173.664062 -105.519531 175.378906 C -106.71875 181.742188 -104.351562 189.023438 -101.082031 189.023438 C -100.585938 189.023438 -99.992188 189.207031 -99.769531 189.433594 C -99.441406 189.757812 -99.320312 189.703125 -99.183594 189.167969 C -99.050781 188.671875 -98.355469 188.296875 -96.476562 187.710938 C -90.464844 185.847656 -85.957031 182.519531 -85.070312 179.292969 C -84.0625 175.628906 -85.554688 169.90625 -88.25 167.109375 C -89.984375 165.3125 -92.46875 161.441406 -95.546875 155.738281 C -97.34375 152.417969 -98.054688 152.09375 -99.960938 153.746094 Z M 28.117188 154.832031 C 28.792969 155.195312 28.667969 156.15625 27.949219 156.15625 C 27.363281 156.15625 26.675781 155.261719 26.9375 154.84375 C 27.203125 154.410156 27.328125 154.410156 28.117188 154.832031 Z M 119.226562 155.1875 C 119.105469 155.386719 119.164062 155.710938 119.359375 155.90625 C 119.773438 156.320312 120.851562 155.609375 120.546875 155.121094 C 120.296875 154.710938 119.496094 154.753906 119.226562 155.1875 Z M 32.09375 155.824219 C 32.09375 156.1875 31.945312 156.488281 31.761719 156.488281 C 31.578125 156.488281 31.429688 156.1875 31.429688 155.824219 C 31.429688 155.457031 31.578125 155.160156 31.761719 155.160156 C 31.945312 155.160156 32.09375 155.460938 32.09375 155.824219 Z M -15.96875 157.628906 C -14.851562 160.246094 -15.621094 162.007812 -17.226562 160.507812 C -17.398438 160.347656 -18.476562 159.734375 -19.617188 159.148438 C -22.285156 157.773438 -22.347656 156.878906 -19.832031 155.980469 C -17.351562 155.097656 -16.980469 155.253906 -15.964844 157.628906 Z M 52.160156 157.242188 C 52.878906 158.339844 52.976562 160.25 52.320312 160.390625 C 51.957031 160.464844 51.675781 160.09375 51.40625 159.203125 C 50.671875 156.75 51.101562 155.628906 52.160156 157.242188 Z M -72 158.5 C -72.148438 158.730469 -72.367188 158.71875 -72.6875 158.449219 C -73.058594 158.144531 -73.074219 157.957031 -72.765625 157.585938 C -72.304688 157.027344 -71.609375 157.863281 -72 158.5 Z M 31.078125 162.878906 C 32.207031 164.082031 32.414062 164.929688 31.511719 164.660156 C 31.191406 164.566406 30.519531 164.386719 30.011719 164.269531 C 28.96875 164.019531 28.074219 162.945312 28.335938 162.261719 C 28.652344 161.445312 30.027344 161.753906 31.082031 162.878906 Z M -133.90625 173.941406 C -133.90625 174.25 -133.683594 174.421875 -133.355469 174.355469 C -132.519531 174.195312 -132.40625 173.417969 -133.214844 173.417969 C -133.625 173.417969 -133.90625 173.632812 -133.90625 173.941406 Z M -8.429688 177.71875 C -7.214844 178.933594 -7.144531 182.214844 -8.339844 181.984375 C -9.730469 181.71875 -11.097656 177.070312 -9.78125 177.070312 C -9.390625 177.070312 -8.785156 177.363281 -8.429688 177.71875 Z M -81.347656 180.90625 C -85.386719 182.984375 -81.820312 189.058594 -75.015625 191.707031 L -72.6875 192.613281 L -72.78125 197.070312 C -72.910156 203.1875 -72.652344 204.042969 -70.3125 205.148438 C -69.308594 205.621094 -68.027344 206.398438 -67.460938 206.875 C -66.492188 207.695312 -65.25 208.484375 -63.644531 209.3125 C -63.0625 209.613281 -62.808594 209.554688 -62.234375 208.980469 C -61.433594 208.175781 -61.058594 208.136719 -59.035156 208.648438 C -56.378906 209.316406 -56.742188 211.511719 -59.445312 211.140625 C -61.691406 210.835938 -61.28125 211.277344 -56.015625 214.863281 C -53.59375 216.511719 -53.679688 216.503906 -51.046875 215.261719 C -48.011719 213.828125 -45.433594 213.027344 -42.585938 212.632812 C -38.953125 212.132812 -36.222656 211.035156 -36.644531 210.25 C -37.285156 209.050781 -36.949219 206.617188 -36.140625 206.617188 C -35.664062 206.617188 -35.316406 207.636719 -35.308594 209.050781 C -35.300781 210.71875 -34.164062 210.058594 -34.039062 208.3125 C -33.902344 206.421875 -34.421875 205.234375 -36.007812 203.800781 C -37.511719 202.441406 -37.3125 202.46875 -40.386719 203.214844 C -52.636719 206.175781 -63.089844 199.519531 -66.292969 186.722656 C -66.699219 185.101562 -66.867188 184.875 -67.933594 184.503906 C -68.585938 184.28125 -69.953125 183.5625 -70.96875 182.910156 C -74.652344 180.554688 -79.03125 179.710938 -81.351562 180.90625 Z M -62.527344 185.355469 C -62.527344 191.824219 -57.03125 199.050781 -50.980469 200.535156 C -47.871094 201.300781 -40.574219 201.144531 -39.277344 200.28125 C -37.792969 199.300781 -51.210938 189.453125 -60.441406 184.753906 C -62.339844 183.789062 -62.527344 183.839844 -62.527344 185.355469 Z M -108.949219 186.261719 C -108.863281 186.707031 -108.53125 186.867188 -107.675781 186.867188 C -105.988281 186.867188 -106.089844 185.90625 -107.792969 185.765625 C -108.871094 185.675781 -109.046875 185.753906 -108.949219 186.261719 Z M -83.746094 187.34375 C -84.246094 187.65625 -84.015625 188.691406 -83.445312 188.691406 C -82.957031 188.691406 -82.625 187.714844 -82.988281 187.355469 C -83.152344 187.1875 -83.484375 187.183594 -83.746094 187.34375 Z M -11.914062 187.339844 C -11.542969 187.9375 -12.457031 189.386719 -12.945312 188.980469 C -13.496094 188.523438 -13.515625 187.953125 -12.992188 187.429688 C -12.515625 186.953125 -12.167969 186.925781 -11.914062 187.339844 Z M 39.882812 187.777344 C 39.496094 189.089844 37.738281 189.972656 37.738281 188.859375 C 37.738281 188.207031 38.925781 187.03125 39.585938 187.03125 C 39.972656 187.03125 40.046875 187.230469 39.886719 187.78125 Z M 85.890625 188.8125 C 85.449219 189.253906 84.703125 188.582031 85.039062 188.039062 C 85.214844 187.761719 85.398438 187.765625 85.757812 188.0625 C 86.089844 188.339844 86.132812 188.570312 85.890625 188.808594 Z M -89.421875 189.085938 C -92.410156 190.132812 -98.78125 191.722656 -103.199219 192.53125 C -107.003906 193.226562 -107.808594 193.550781 -109.300781 195 C -111.675781 197.304688 -112.195312 201.6875 -110.5 205.125 C -109.957031 206.222656 -109.515625 207.292969 -109.507812 207.511719 C -109.492188 208.195312 -109.09375 208.339844 -108.40625 207.910156 C -107.867188 207.570312 -107.464844 207.582031 -106.300781 207.964844 L -104.859375 208.4375 L -106.292969 208.546875 C -107.210938 208.613281 -107.679688 208.792969 -107.59375 209.046875 C -107.453125 209.488281 -102.929688 213.386719 -101.832031 214.019531 C -97.394531 216.570312 -96.867188 216.683594 -96.558594 215.167969 C -95.886719 211.894531 -91.921875 206.019531 -86.367188 200.074219 C -82.328125 195.746094 -81.558594 193.722656 -83.363281 192.191406 C -84.210938 191.472656 -85.109375 190 -85.5625 188.609375 C -85.800781 187.871094 -86.011719 187.898438 -89.421875 189.085938 Z M 121.46875 191.746094 C 120.878906 192.335938 120.984375 193.007812 121.667969 193.007812 C 122.5625 193.007812 123.128906 192.328125 122.683594 191.789062 C 122.230469 191.246094 121.976562 191.234375 121.46875 191.746094 Z M 31.03125 192.035156 C 30.96875 192.234375 30.773438 192.394531 30.597656 192.394531 C 30.425781 192.394531 30.230469 192.234375 30.164062 192.035156 C 30.101562 191.839844 30.292969 191.679688 30.597656 191.679688 C 30.902344 191.679688 31.097656 191.839844 31.03125 192.035156 Z M 120.53125 194.492188 C 120.078125 195.667969 121.316406 196.757812 122.234375 195.992188 C 122.957031 195.394531 122.851562 195.078125 121.726562 194.5 C 120.828125 194.035156 120.707031 194.035156 120.53125 194.492188 Z M -79.355469 196.078125 C -79.671875 196.671875 -80.253906 197.828125 -80.648438 198.652344 C -81.042969 199.472656 -83.140625 202.019531 -85.3125 204.3125 C -93.28125 212.710938 -95.75 218.453125 -93.089844 222.390625 L -91.742188 224.382812 L -92.757812 224.488281 C -93.476562 224.5625 -93.746094 224.75 -93.671875 225.117188 C -93.496094 226.019531 -92.507812 226.429688 -91.710938 225.933594 C -91.09375 225.546875 -90.949219 225.585938 -90.472656 226.269531 C -85.863281 232.859375 -82.152344 235.039062 -78.671875 233.207031 C -76.824219 232.234375 -76.539062 232.179688 -73.359375 232.242188 C -68.527344 232.335938 -66.1875 230.910156 -62.285156 225.5 C -56.988281 218.140625 -57.289062 219.226562 -59.78125 216.585938 C -60.828125 215.476562 -62.777344 213.863281 -64.109375 213.003906 C -66.453125 211.484375 -66.527344 211.398438 -66.335938 210.339844 C -65.933594 208.085938 -67.742188 206.78125 -68.5 208.777344 C -68.953125 209.964844 -69.269531 209.855469 -73.148438 207.179688 C -78.121094 203.753906 -79.015625 201.671875 -77.464844 197.160156 C -77.101562 196.097656 -76.800781 195.175781 -76.800781 195.113281 C -76.800781 194.390625 -78.867188 195.171875 -79.351562 196.082031 Z M -66.855469 195.644531 C -66.640625 196.046875 -66.628906 196.359375 -66.828125 196.484375 C -67.101562 196.652344 -67.839844 195.710938 -67.839844 195.1875 C -67.839844 194.742188 -67.171875 195.054688 -66.855469 195.644531 Z M 12.519531 196.503906 C 13.460938 196.988281 13.921875 198.320312 13.152344 198.320312 C 12.46875 198.320312 10.84375 197.300781 10.84375 196.871094 C 10.84375 195.921875 11.230469 195.835938 12.519531 196.503906 Z M -120.632812 202.808594 C -121.148438 203.429688 -120.230469 204.628906 -119.238281 204.628906 C -118.351562 204.628906 -118.121094 203.722656 -118.8125 202.957031 C -119.523438 202.171875 -120.070312 202.128906 -120.632812 202.808594 Z M -14.496094 203.441406 C -14.851562 204.367188 -14.765625 204.574219 -13.972656 204.6875 C -13.390625 204.769531 -13.246094 204.976562 -13.324219 205.621094 C -13.378906 206.078125 -13.53125 207.796875 -13.65625 209.441406 C -13.875 212.253906 -13.933594 212.433594 -14.671875 212.539062 C -15.824219 212.703125 -16.207031 212.152344 -15.589844 211.214844 C -15.28125 210.742188 -15.003906 209.332031 -14.898438 207.691406 L -14.71875 204.960938 L -15.644531 204.960938 C -18.820312 204.960938 -23.847656 207.089844 -26.515625 209.570312 C -30.398438 213.175781 -33.113281 214.753906 -36.238281 215.214844 C -42.453125 216.136719 -55.828125 221.878906 -54.1875 222.917969 C -53.933594 223.078125 -53.878906 223.222656 -54.0625 223.242188 C -54.242188 223.257812 -54.75 223.3125 -55.1875 223.359375 C -55.9375 223.441406 -60.867188 228.289062 -60.867188 228.945312 C -60.867188 229.09375 -61.84375 230.511719 -63.035156 232.089844 C -65.890625 235.878906 -66.464844 237.714844 -65.820312 240.980469 C -65.296875 243.636719 -65.261719 247.089844 -65.664062 256.753906 C -65.976562 264.28125 -65.730469 267.078125 -64.332031 271.777344 C -63.164062 275.710938 -63.207031 275.617188 -62.820312 274.929688 C -62.382812 274.148438 -61.863281 274.191406 -61.863281 275.011719 C -61.863281 275.378906 -62.085938 275.675781 -62.363281 275.675781 C -63.003906 275.675781 -63 276.761719 -62.355469 278.015625 C -61.199219 280.246094 -58.628906 277.140625 -56.671875 271.148438 C -55.027344 266.113281 -53.738281 265.261719 -45.265625 263.609375 C -40.46875 262.675781 -38.6875 261.738281 -36.652344 259.074219 C -33.683594 255.199219 -31.160156 253.8125 -23.683594 251.953125 C -22.496094 251.65625 -20.953125 251.035156 -20.25 250.570312 C -19.082031 249.800781 -18.925781 249.773438 -18.398438 250.253906 C -17.675781 250.90625 -16.378906 250.9375 -16.378906 250.300781 C -16.378906 250.039062 -16.765625 249.523438 -17.242188 249.148438 L -18.101562 248.472656 L -17.074219 246.417969 C -16.511719 245.289062 -16.046875 244.179688 -16.046875 243.957031 C -16.046875 242.585938 -9.9375 238.761719 -6.75 238.132812 C -5.65625 237.917969 -4.75 237.574219 -4.738281 237.371094 C -4.726562 237.164062 -4.734375 234.742188 -4.757812 231.984375 L -4.800781 226.972656 L -1.453125 226.769531 C 3.265625 226.484375 2.847656 225.816406 2.953125 233.792969 L 3.042969 240.648438 L 10.511719 240.828125 C 21.132812 241.082031 24.144531 242.722656 24.117188 248.253906 C 24.097656 251.996094 22.507812 253.195312 16.589844 253.933594 C 10.929688 254.640625 9.726562 254.609375 10.175781 253.769531 C 10.371094 253.410156 10.429688 252.726562 10.3125 252.253906 C 10.179688 251.722656 10.324219 250.898438 10.691406 250.078125 C 11.25 248.835938 11.253906 248.691406 10.730469 247.597656 C 9.933594 245.929688 10.03125 245.527344 11.40625 244.714844 L 12.636719 243.992188 L 11.65625 243.816406 C 11.117188 243.71875 8.921875 243.683594 6.777344 243.738281 L 2.875 243.84375 L 2.875 252.394531 L 4.386719 252.621094 C 5.21875 252.746094 6.410156 252.765625 7.03125 252.664062 C 8.027344 252.5 8.21875 252.59375 8.636719 253.433594 C 9.253906 254.675781 9.128906 254.757812 6.65625 254.757812 C 2.851562 254.757812 2.875 254.730469 2.875 259.554688 C 2.875 264.648438 2.359375 264.296875 9.757812 264.230469 C 16.457031 264.171875 16.066406 264.367188 15.34375 261.382812 C 14.59375 258.292969 15.1875 257.929688 17.480469 260.070312 L 18.507812 261.035156 L 17.84375 262.339844 C 17.027344 263.9375 17.136719 264.058594 19.375 264.058594 C 25.121094 264.058594 28.453125 269.9375 25.304688 274.507812 C 23.652344 276.90625 20.785156 277.515625 9.152344 277.941406 L 3.039062 278.167969 L 3 280.824219 C 2.980469 282.285156 3.035156 283.910156 3.121094 284.433594 L 3.277344 285.386719 L 11.625 285.117188 C 23.804688 284.730469 24.703125 284.996094 26.640625 289.550781 C 29.40625 296.0625 23.53125 299.605469 9.097656 300.132812 L 3.207031 300.351562 L 3.207031 304.28125 C 3.207031 307.191406 3.3125 308.222656 3.621094 308.246094 C 15.699219 309.148438 30.625 306.195312 35.445312 301.953125 L 36.972656 300.609375 L 37.191406 291.710938 C 38.0625 256.347656 38.152344 244.777344 37.574219 243.148438 C 36.691406 240.667969 36.234375 240.292969 26.28125 233.953125 C 21.058594 230.628906 21.285156 230.722656 20.519531 231.542969 C 20.152344 231.9375 19.789062 232.09375 19.671875 231.90625 C 19.339844 231.367188 19.820312 230.570312 20.546875 230.460938 C 21.101562 230.378906 21.929688 228.738281 22.125 227.335938 C 22.125 227.3125 20.632812 226.277344 18.804688 225.027344 C 16.207031 223.253906 15.570312 222.671875 15.898438 222.371094 C 16.636719 221.699219 18.980469 220.949219 21.085938 220.710938 C 23.835938 220.398438 23.941406 220.53125 16.960938 215.574219 C 10.582031 211.050781 10.203125 210.863281 5.929688 210.117188 C 2.722656 209.558594 2.871094 209.421875 2.871094 212.929688 L 2.871094 215.886719 L 4.117188 216.113281 C 6.4375 216.539062 9.710938 218.40625 13.984375 221.746094 C 15.238281 222.730469 15.117188 222.824219 12.230469 223.089844 C 9.386719 223.355469 9.328125 223.507812 11.558594 224.878906 C 13.574219 226.121094 13.386719 226.390625 10.273438 226.722656 C 8.25 226.941406 8.183594 226.976562 8.183594 227.894531 C 8.183594 228.613281 7.941406 228.96875 7.179688 229.363281 C 6.160156 229.890625 5.527344 229.792969 5.527344 229.109375 C 5.527344 228.578125 3.835938 226.871094 3.308594 226.871094 C 3 226.871094 2.875 226.300781 2.875 224.875 C 2.875 223.78125 2.777344 222.882812 2.652344 222.882812 C 2.53125 222.882812 1.652344 223.132812 0.699219 223.429688 C -0.988281 223.964844 -1.0625 223.957031 -2.035156 223.265625 C -2.589844 222.875 -3.425781 222.550781 -3.902344 222.550781 L -4.761719 222.550781 L -4.761719 204.652344 L -5.945312 204.433594 C -6.59375 204.308594 -8.425781 204.285156 -10.011719 204.371094 C -12.785156 204.527344 -12.925781 204.503906 -13.589844 203.695312 C -14.203125 202.949219 -14.304688 202.921875 -14.503906 203.433594 Z M 64.960938 203.621094 C 64.960938 204.382812 63.8125 205.101562 63.058594 204.808594 C 62.617188 204.640625 62.652344 204.488281 63.308594 203.789062 C 64.238281 202.800781 64.960938 202.726562 64.960938 203.621094 Z M 25.605469 205.648438 C 25.5 205.816406 25.179688 205.957031 24.894531 205.957031 C 24.472656 205.957031 24.453125 205.863281 24.785156 205.460938 C 25.214844 204.945312 25.9375 205.109375 25.605469 205.648438 Z M 61.90625 206.6875 C 62.484375 207.265625 62.40625 207.464844 61.421875 207.914062 C 60.269531 208.4375 59.253906 207.664062 59.964844 206.804688 C 60.476562 206.191406 61.355469 206.136719 61.90625 206.6875 Z M -115.480469 206.953125 C -115.722656 207.339844 -114.082031 208.046875 -113.613281 207.753906 C -113.148438 207.46875 -113.941406 206.621094 -114.671875 206.621094 C -115.003906 206.621094 -115.367188 206.769531 -115.480469 206.953125 Z M -52.566406 208.613281 C -52.566406 208.976562 -52.71875 209.277344 -52.898438 209.277344 C -53.082031 209.277344 -53.230469 208.976562 -53.230469 208.613281 C -53.230469 208.246094 -53.082031 207.949219 -52.898438 207.949219 C -52.71875 207.949219 -52.566406 208.246094 -52.566406 208.613281 Z M -43.273438 209.921875 C -43.273438 210.253906 -44.574219 211.265625 -45.007812 211.265625 C -45.320312 211.265625 -45.351562 210.136719 -45.042969 209.828125 C -44.703125 209.492188 -43.273438 209.566406 -43.273438 209.917969 Z M -39.804688 213.957031 C -40.136719 214.488281 -39.050781 215.480469 -38.613281 215.042969 C -38.425781 214.855469 -38.367188 214.449219 -38.480469 214.144531 C -38.722656 213.515625 -39.46875 213.410156 -39.804688 213.957031 Z M 105.796875 218.589844 C 105.796875 218.824219 106.007812 219.253906 106.265625 219.542969 C 108.265625 221.792969 110.890625 230.144531 111.921875 237.542969 L 112.136719 239.082031 L 110.09375 241.027344 C 105.476562 245.433594 100.546875 255.066406 96.871094 266.878906 C 94.808594 273.507812 93.429688 278.195312 93.160156 279.496094 C 93.007812 280.222656 92.523438 282.242188 92.082031 283.976562 C 91.015625 288.175781 90.023438 293.546875 90.273438 293.796875 C 90.535156 294.058594 96.21875 289.503906 100.949219 285.234375 L 102.3125 284.003906 L 101.222656 281.914062 C 99.972656 279.519531 99.898438 278.996094 100.796875 278.996094 C 101.46875 278.996094 102.566406 280.304688 103.125 281.777344 C 103.628906 283.09375 104.652344 282.449219 110.613281 277.078125 C 112.597656 275.289062 113.191406 274.765625 117.902344 270.691406 C 119.902344 268.960938 122.597656 266.570312 123.890625 265.386719 C 125.183594 264.199219 127.648438 261.957031 129.371094 260.40625 C 142.351562 248.703125 150.953125 239.289062 150.953125 236.777344 C 150.953125 234.402344 132.835938 225.699219 128.324219 225.910156 C 127.53125 225.945312 126.007812 225.789062 124.9375 225.5625 C 123.261719 225.207031 122.652344 225.230469 120.503906 225.738281 C 117.800781 226.375 117.003906 226.203125 116.816406 224.949219 C 116.640625 223.769531 118.113281 223.046875 119.371094 223.699219 C 120.425781 224.246094 123.566406 224.425781 123.253906 223.925781 C 123.0625 223.621094 115.144531 220.917969 109.949219 219.386719 C 108.308594 218.902344 106.699219 218.429688 106.378906 218.335938 C 106.039062 218.234375 105.800781 218.339844 105.800781 218.59375 Z M 3.097656 220.453125 C 2.027344 221.523438 2.902344 222.464844 5.285156 222.800781 C 8.492188 223.25 8.636719 222.9375 5.90625 221.460938 C 3.441406 220.128906 3.425781 220.125 3.097656 220.453125 Z M 98.679688 222.144531 L 97.367188 223.382812 L 98.261719 223.699219 C 99.394531 224.097656 99.417969 224.984375 98.320312 226.082031 C 97.289062 227.113281 96.335938 227.011719 96.335938 225.871094 C 96.335938 225.078125 96.261719 225.050781 94.507812 225.160156 C 91.238281 225.363281 91.191406 226.160156 94.425781 226.699219 C 96.109375 226.976562 96.089844 226.84375 94.96875 231.425781 C 94.289062 234.179688 94.179688 235.101562 94.472656 235.566406 C 94.769531 236.046875 94.710938 236.296875 94.179688 236.832031 C 93.808594 237.199219 92.679688 239.996094 91.660156 243.058594 C 87.574219 255.320312 81.238281 269.011719 74.273438 280.628906 C 69.9375 287.859375 70.066406 287.015625 72.847656 289.765625 C 75.820312 292.703125 78.933594 294.285156 81.914062 294.371094 L 84.042969 294.433594 L 86.390625 285.136719 C 89.835938 271.5 90.863281 268.296875 91.871094 268.023438 C 92.820312 267.769531 95.429688 266.050781 96.25 265.144531 C 97.246094 264.042969 96.164062 262.9375 94.296875 263.148438 C 92.578125 263.34375 92.585938 263.410156 93.824219 259.964844 C 97.570312 249.511719 101.800781 241.511719 105.433594 238.011719 C 107.851562 235.679688 105.847656 226.550781 101.980469 222.265625 C 100.46875 220.59375 100.320312 220.589844 98.679688 222.144531 Z M -116.644531 222.058594 C -116.644531 222.945312 -116.429688 223.058594 -115.667969 222.578125 C -115.273438 222.328125 -115.265625 222.183594 -115.628906 221.75 C -116.257812 220.992188 -116.644531 221.109375 -116.644531 222.058594 Z M -4.757812 224.714844 L -4.757812 226.871094 L -9.710938 226.871094 C -15.582031 226.871094 -15.582031 226.871094 -16.480469 224.914062 C -16.867188 224.074219 -17.234375 223.28125 -17.300781 223.148438 C -17.421875 222.917969 -14.613281 222.753906 -8.160156 222.625 L -4.757812 222.554688 Z M 16.917969 225.875 C 17.058594 226.410156 17.371094 226.539062 18.535156 226.546875 C 20.636719 226.554688 20.972656 226.855469 20.488281 228.328125 C 19.957031 229.9375 19.71875 229.886719 15.699219 227.285156 C 14.804688 226.707031 13.917969 226.183594 13.730469 226.121094 C 12.902344 225.84375 14 225.214844 15.308594 225.214844 C 16.464844 225.214844 16.777344 225.34375 16.917969 225.875 Z M -28.332031 227.15625 C -28.332031 227.308594 -29.75 227.53125 -31.484375 227.644531 C -33.375 227.769531 -35.058594 228.066406 -35.6875 228.394531 C -36.734375 228.9375 -38.277344 227.988281 -37.746094 227.128906 C -37.527344 226.777344 -28.332031 226.800781 -28.332031 227.152344 Z M -47.089844 227.535156 C -47.203125 227.71875 -47.578125 227.867188 -47.917969 227.867188 C -48.261719 227.867188 -48.636719 227.71875 -48.75 227.535156 C -48.871094 227.34375 -48.527344 227.203125 -47.917969 227.203125 C -47.3125 227.203125 -46.96875 227.339844 -47.089844 227.535156 Z M -101.496094 228.914062 C -101.996094 229.203125 -102.027344 229.328125 -101.660156 229.5625 C -101.007812 229.976562 -98.796875 229.925781 -98.527344 229.492188 C -98.011719 228.652344 -100.285156 228.210938 -101.496094 228.914062 Z M 90.527344 229.699219 C 90.070312 229.96875 88.648438 230.65625 87.371094 231.230469 C 86.09375 231.800781 82.539062 233.445312 79.476562 234.882812 C 76.410156 236.320312 73.835938 237.496094 73.753906 237.496094 C 73.671875 237.496094 72.332031 238.09375 70.773438 238.824219 C 69.210938 239.554688 67.867188 240.152344 67.777344 240.152344 C 67.691406 240.152344 66.683594 240.578125 65.542969 241.101562 C 62.214844 242.628906 56.863281 244.800781 56.429688 244.800781 C 55.859375 244.800781 55.722656 246.097656 55.511719 253.597656 C 55.226562 263.714844 55 269.957031 54.824219 272.515625 C 54.738281 273.785156 54.59375 277.523438 54.496094 280.8125 C 54.402344 284.105469 54.246094 287.746094 54.152344 288.90625 C 53.917969 291.773438 54.152344 292.003906 56.691406 291.414062 C 60.046875 290.628906 60.464844 290.316406 63.296875 286.402344 C 66.03125 282.628906 67.328125 281.339844 67.984375 281.75 C 68.460938 282.046875 68.695312 282.035156 69.023438 281.683594 C 69.359375 281.328125 69.359375 281.207031 69.03125 281.085938 C 68.417969 280.859375 68.523438 280.175781 69.28125 279.492188 C 70.351562 278.523438 70.078125 278.332031 67.601562 278.332031 C 64.820312 278.332031 63.402344 277.726562 63.109375 276.417969 C 63 275.917969 62.8125 275.210938 62.695312 274.847656 C 62.402344 273.933594 62.414062 267.046875 62.710938 267.046875 C 62.84375 267.046875 63.363281 266.1875 63.875 265.136719 C 65.007812 262.792969 67.011719 260.722656 69.25 259.589844 C 70.179688 259.117188 70.9375 258.511719 70.9375 258.238281 C 70.9375 257.605469 71.738281 257.605469 72.265625 258.242188 C 72.488281 258.511719 72.785156 258.667969 72.917969 258.585938 C 73.457031 258.25 76.773438 260.636719 77.703125 262.019531 L 78.675781 263.472656 L 79.292969 262.683594 C 82.0625 259.144531 90.691406 239.199219 92.046875 233.207031 C 92.996094 229 92.738281 228.402344 90.53125 229.699219 Z M -78.132812 237.363281 C -83.132812 238.253906 -87.070312 240.300781 -88.589844 242.8125 C -92.25 248.835938 -93.21875 257.609375 -91.023438 264.886719 C -89.835938 268.816406 -90.101562 268.425781 -88.863281 268.070312 C -87.273438 267.613281 -86.816406 268.140625 -87.917969 269.164062 L -88.84375 270.023438 L -87.210938 272.265625 C -84.761719 275.621094 -81.121094 277.273438 -78.140625 276.378906 C -76.167969 275.789062 -75.398438 274.171875 -73.476562 266.574219 C -71.621094 259.234375 -71.316406 258.386719 -69.515625 255.589844 C -67.007812 251.691406 -67.03125 246.128906 -69.574219 240.085938 C -70.449219 238.007812 -74.503906 236.71875 -78.132812 237.363281 Z M 165.085938 237.792969 C 164.746094 238.335938 165.761719 238.882812 166.175781 238.382812 C 166.382812 238.136719 166.453125 237.835938 166.332031 237.714844 C 166.019531 237.402344 165.296875 237.445312 165.085938 237.792969 Z M 151.796875 243.914062 C 150.324219 245.433594 146.65625 249.257812 143.644531 252.410156 C 137.566406 258.773438 126.941406 268.867188 120.074219 274.8125 C 117.609375 276.945312 115.367188 278.882812 115.09375 279.121094 C 112.460938 281.402344 109.382812 283.992188 108.339844 284.808594 C 107.636719 285.355469 106.144531 286.527344 105.019531 287.414062 C 95.996094 294.527344 81.378906 304.660156 73.59375 309.191406 C 71.308594 310.523438 68.621094 312.097656 67.617188 312.695312 C 65.445312 313.980469 58.277344 317.847656 54.398438 319.824219 C 51.96875 321.058594 51.589844 321.164062 51.246094 320.714844 C 50.363281 319.5625 48.847656 319.871094 48.960938 321.183594 C 49.078125 322.558594 49.734375 322.148438 41.71875 325.664062 C 38.273438 327.179688 36.265625 328.234375 36.304688 328.515625 C 36.335938 328.761719 36.460938 329.335938 36.578125 329.792969 L 36.789062 330.621094 L 36.125 329.871094 C 35.761719 329.457031 35.40625 328.945312 35.335938 328.730469 C 35.246094 328.46875 33.503906 328.957031 30.078125 330.199219 C 24.738281 332.132812 20.820312 333.355469 16.320312 334.484375 C 11.730469 335.636719 11.457031 335.753906 11.683594 336.460938 C 11.894531 337.132812 11.617188 337.261719 10.914062 336.816406 C 10.679688 336.667969 10.574219 336.320312 10.679688 336.042969 C 10.921875 335.414062 10.074219 334.679688 9.28125 334.835938 C 8.898438 334.910156 8.683594 335.25 8.679688 335.777344 C 8.671875 336.796875 4.75 337.632812 4.171875 336.734375 C 3.679688 335.96875 3.976562 335.300781 5.058594 334.761719 C 5.617188 334.480469 6.019531 334.082031 5.949219 333.878906 C 5.792969 333.40625 6.121094 333.304688 11.171875 332.3125 C 25.023438 329.585938 47.671875 320.945312 47.28125 318.539062 C 47.222656 318.179688 47.464844 318.011719 48.074219 317.996094 C 49.144531 317.972656 52.097656 316.09375 51.320312 315.933594 C 50.722656 315.808594 48.964844 316.101562 43.046875 317.320312 C 33.578125 319.261719 20.730469 320.726562 9.84375 321.101562 L 3.371094 321.328125 L 3.261719 322.816406 C 3.203125 323.632812 2.996094 324.5 2.796875 324.738281 C 2.535156 325.054688 2.539062 325.277344 2.820312 325.558594 C 3.308594 326.046875 3.34375 331.121094 2.859375 331.121094 C 2.082031 331.121094 0.90625 330.011719 0.707031 329.09375 C 0.585938 328.550781 0.0351562 327.777344 -0.519531 327.375 C -1.140625 326.921875 -1.953125 325.703125 -2.640625 324.207031 C -4.039062 321.15625 -4.433594 321.367188 -4.433594 325.164062 C -4.433594 328.441406 -4.441406 328.449219 -6.511719 327.457031 C -9 326.261719 -10.15625 324.8125 -8.621094 324.8125 C -7.816406 324.8125 -6.804688 323.328125 -6.699219 321.988281 C -6.59375 320.71875 -6.546875 320.664062 -5.492188 320.714844 L -4.390625 320.761719 L -4.496094 282.367188 L -4.601562 243.96875 L -6.757812 243.996094 C -10.75 244.046875 -11.972656 245.128906 -15.363281 251.605469 C -17.652344 255.980469 -18.167969 256.390625 -21.378906 256.40625 C -27.136719 256.433594 -32.414062 259.15625 -35.175781 263.515625 C -36.777344 266.054688 -38.496094 266.824219 -42.78125 266.917969 C -50.132812 267.082031 -51.800781 267.988281 -52.886719 272.417969 C -53.976562 276.875 -57.628906 281.890625 -60.417969 282.773438 C -62.628906 283.472656 -61.753906 305.722656 -59.046875 317.664062 C -57.539062 324.304688 -55.457031 328.484375 -52.402344 330.988281 C -51.535156 331.699219 -50.1875 332.804688 -49.414062 333.441406 C -48.640625 334.082031 -46.261719 335.800781 -44.132812 337.261719 C -42 338.722656 -39.792969 340.304688 -39.222656 340.777344 L -38.191406 341.636719 L -42.421875 341.859375 C -48.820312 342.203125 -51.742188 343.859375 -46.074219 343.933594 C -44.628906 343.949219 -42.660156 344.082031 -41.699219 344.222656 C -40.132812 344.457031 -36.371094 344.015625 -35.535156 343.5 C -35.382812 343.40625 -35.597656 342.976562 -36.007812 342.535156 L -36.753906 341.742188 L -34.125 341.738281 C -31.042969 341.730469 -30.019531 341.308594 -29.527344 339.84375 C -28.796875 337.667969 -27.34375 337.148438 -27.34375 339.066406 C -27.34375 340.808594 -26.863281 340.917969 -19.644531 340.84375 L -13.050781 340.777344 L -11.613281 339.597656 C -9.867188 338.171875 -9.414062 338.125 -9.414062 339.382812 C -9.414062 340.347656 -8.933594 340.746094 -7.769531 340.746094 C -6.96875 340.746094 -6.25 341.59375 -6.773438 341.917969 C -6.984375 342.046875 -10.914062 342.132812 -15.507812 342.113281 C -22.058594 342.078125 -24.355469 342.183594 -26.179688 342.597656 C -27.460938 342.886719 -29.59375 343.242188 -30.925781 343.386719 C -33.929688 343.710938 -34.03125 343.816406 -32.382812 344.859375 C -31.355469 345.507812 -31.089844 345.855469 -31.226562 346.378906 C -31.328125 346.761719 -31.242188 347.054688 -31.03125 347.054688 C -30.828125 347.054688 -30.660156 346.90625 -30.660156 346.722656 C -30.660156 346.121094 -29.917969 346.371094 -26.535156 348.105469 C -20.671875 351.117188 -20.53125 351.207031 -20.628906 351.769531 C -20.792969 352.746094 -18.796875 353.875 -18.066406 353.214844 C -17.5 352.703125 -17.210938 352.75 -13.519531 353.96875 C -9.210938 355.398438 -5.410156 356.210938 -4.566406 355.886719 C -4.078125 355.699219 -4.039062 354.410156 -4.148438 342.515625 C -4.246094 331.722656 -4.1875 329.320312 -3.820312 329.199219 C -2.921875 328.898438 0.386719 332.820312 1.15625 335.09375 C 1.980469 337.539062 2.027344 337.4375 -0.214844 338.105469 C -1.535156 338.496094 -2.007812 338.820312 -2.238281 339.476562 C -2.816406 341.117188 -2.398438 341.410156 0.535156 341.410156 L 3.203125 341.410156 L 3.207031 339.835938 C 3.214844 337.425781 3.632812 337.03125 4.808594 338.316406 C 5.339844 338.894531 6.390625 339.550781 7.144531 339.777344 L 8.515625 340.1875 L 8.480469 341.878906 C 8.417969 345.191406 7.507812 346.300781 6.304688 344.539062 C 5.386719 343.191406 3.964844 341.746094 3.558594 341.746094 C 3.148438 341.746094 3.050781 354.949219 3.457031 355.554688 C 4.125 356.546875 19.75 353.585938 29.175781 350.683594 C 32.207031 349.746094 32.453125 349.71875 33.21875 350.21875 C 34.660156 351.164062 36.113281 350.75 37 349.140625 C 38.894531 345.695312 41.878906 347.589844 40.175781 351.160156 C 39.398438 352.796875 39.75 353.664062 42.363281 356.570312 C 43.625 357.976562 44.753906 359.507812 44.867188 359.980469 C 45.527344 362.734375 45.765625 363.324219 46.207031 363.324219 C 46.476562 363.324219 46.714844 362.992188 46.742188 362.578125 C 46.800781 361.648438 46.894531 360.621094 46.96875 360.121094 C 47 359.910156 47.5625 359.613281 48.21875 359.457031 C 49.828125 359.078125 49.746094 358.691406 47.804688 357.515625 C 44.335938 355.414062 44.339844 355.421875 43.84375 352.320312 C 43.597656 350.765625 43.097656 348.832031 42.734375 348.027344 C 41.933594 346.238281 41.722656 346.441406 46.363281 344.574219 C 51.6875 342.433594 63.625 336.554688 63.625 336.074219 C 63.625 335.671875 61.878906 335.730469 56.355469 336.3125 C 54.921875 336.460938 54.296875 336.421875 54.441406 336.191406 C 54.558594 336.003906 55.628906 335.742188 56.820312 335.617188 C 58.007812 335.488281 59.195312 335.171875 59.457031 334.914062 C 60.28125 334.085938 66.902344 334.238281 66.152344 335.066406 C 65.363281 335.9375 65.921875 336.101562 69.753906 336.101562 C 74.308594 336.101562 75.050781 334.667969 70.722656 334.234375 C 69.648438 334.128906 68.730469 334.003906 68.679688 333.957031 C 68.59375 333.878906 73.738281 330.765625 74.414062 330.488281 C 75.191406 330.167969 85.34375 323.863281 88.75 321.582031 C 92.082031 319.351562 93.140625 318.171875 91.808594 318.171875 C 91.40625 318.171875 91.433594 317.265625 91.84375 317.011719 C 92.027344 316.898438 92.605469 317.058594 93.128906 317.367188 C 94.066406 317.921875 94.109375 317.914062 95.703125 316.820312 C 98.605469 314.824219 108.5625 307.460938 110.601562 305.800781 C 111.699219 304.90625 114.015625 303.035156 115.75 301.640625 C 117.484375 300.242188 118.976562 299.015625 119.070312 298.914062 C 119.160156 298.8125 120.65625 297.546875 122.390625 296.101562 C 124.125 294.652344 126.445312 292.640625 127.546875 291.628906 C 128.644531 290.613281 130.402344 289.058594 131.449219 288.167969 L 133.347656 286.550781 L 134.035156 287.421875 C 135.414062 289.175781 136.050781 288.03125 134.914062 285.828125 C 134.566406 285.152344 134.425781 285.3125 140.15625 279.96875 C 142.746094 277.550781 150.765625 269.261719 153.785156 265.882812 C 156.5625 262.769531 157.304688 261.421875 158.035156 258.183594 C 158.953125 254.113281 158.636719 244.9375 157.710938 248.644531 C 157.351562 250.0625 156.105469 250.285156 154.074219 249.289062 C 150.921875 247.746094 150.933594 247.636719 154.511719 245.101562 L 155.929688 244.097656 L 157.910156 245.507812 L 157.910156 244.707031 C 157.910156 243.453125 157.238281 241.832031 156.570312 241.472656 C 155.210938 240.746094 154.488281 241.117188 151.785156 243.914062 Z M 114.945312 244.105469 C 114.824219 244.304688 114.433594 244.46875 114.078125 244.46875 C 113.351562 244.46875 113.164062 243.296875 113.847656 243.042969 C 114.398438 242.835938 115.230469 243.640625 114.945312 244.105469 Z M 12.914062 247.542969 C 12.132812 249.777344 11.460938 251.753906 11.417969 251.9375 C 11.25 252.675781 17.183594 251.851562 19.023438 250.882812 C 23.054688 248.757812 20.664062 243.5 15.660156 243.480469 L 14.332031 243.476562 Z M 82.558594 247.457031 C 82.558594 247.640625 82.25 247.789062 81.875 247.789062 C 81.5 247.789062 81.28125 247.640625 81.394531 247.457031 C 81.507812 247.273438 81.816406 247.125 82.078125 247.125 C 82.34375 247.125 82.558594 247.273438 82.558594 247.457031 Z M -58.054688 249.390625 C -58.886719 250.160156 -61.46875 251.28125 -61.753906 250.996094 C -62.386719 250.363281 -60.046875 248.839844 -58.386719 248.804688 C -57.414062 248.785156 -57.410156 248.792969 -58.054688 249.390625 Z M 5.699219 250.445312 C 5.585938 250.625 5.164062 250.773438 4.765625 250.769531 C 4.175781 250.765625 4.132812 250.707031 4.535156 250.445312 C 5.191406 250.019531 5.960938 250.019531 5.699219 250.445312 Z M -34.308594 252.464844 C -34.308594 253.273438 -35.082031 253.15625 -35.246094 252.324219 C -35.308594 251.996094 -35.140625 251.773438 -34.828125 251.773438 C -34.523438 251.773438 -34.308594 252.054688 -34.308594 252.464844 Z M 44.828125 256.917969 C 45.265625 258.050781 44.238281 259.535156 43.347656 259.058594 C 42.582031 258.648438 42.550781 258.132812 43.234375 257.160156 C 43.828125 256.304688 44.550781 256.199219 44.828125 256.917969 Z M 8.371094 258.304688 C 8.078125 259.460938 6.550781 262.0625 6.164062 262.0625 C 5.539062 262.0625 5.90625 260.632812 6.9375 259.054688 C 8.125 257.242188 8.714844 256.933594 8.371094 258.304688 Z M -12.726562 258.058594 C -12.726562 258.230469 -12.882812 258.46875 -13.074219 258.589844 C -13.5625 258.886719 -14.472656 258.488281 -14.222656 258.082031 C -13.960938 257.660156 -12.726562 257.640625 -12.726562 258.058594 Z M -55.375 259.558594 C -54.507812 260.425781 -54.289062 261.679688 -54.972656 261.863281 C -55.203125 261.921875 -55.960938 262.15625 -56.660156 262.378906 C -58.675781 263.03125 -59.515625 261.570312 -58.1875 259.707031 C -57.347656 258.53125 -56.449219 258.480469 -55.375 259.558594 Z M 87.867188 261.617188 C 87.867188 262.171875 87.464844 262.191406 86.9375 261.667969 C 86.167969 260.894531 86.417969 259.859375 87.203125 260.570312 C 87.570312 260.902344 87.867188 261.375 87.867188 261.621094 Z M 72.289062 262.582031 C 66.371094 265.152344 63.628906 272.988281 67.898438 275.136719 C 72.503906 277.457031 77.359375 274.03125 77.832031 268.128906 C 78.203125 263.503906 75.773438 261.070312 72.289062 262.582031 Z M 109.449219 262.894531 C 107.742188 263.550781 105.582031 263.550781 106.128906 262.894531 C 106.417969 262.542969 107.148438 262.402344 108.578125 262.421875 L 110.613281 262.449219 Z M 92.1875 264.292969 C 92.1875 265.503906 91.035156 267.402344 90.632812 266.851562 C 90.046875 266.050781 90.082031 265.398438 90.742188 264.664062 C 91.285156 264.0625 92.1875 263.832031 92.1875 264.296875 Z M -79.96875 264.707031 C -79.859375 264.882812 -80.214844 265.253906 -80.757812 265.535156 C -81.574219 265.957031 -82.644531 265.71875 -82.066406 265.246094 C -81.167969 264.507812 -80.234375 264.273438 -79.96875 264.707031 Z M 2.714844 267.371094 C 1.507812 269.113281 1.136719 271.738281 2.140625 271.476562 C 2.945312 271.265625 3.234375 271.96875 3.058594 273.714844 C 2.84375 275.808594 2.816406 275.800781 9.566406 275.570312 C 12.917969 275.457031 16.433594 275.265625 17.386719 275.144531 C 19.046875 274.929688 19.117188 274.953125 19.332031 275.796875 C 19.699219 277.269531 20.375 276.710938 20.167969 275.105469 C 20.140625 274.882812 20.625 274.484375 21.25 274.226562 C 24.070312 273.046875 24.296875 269.902344 21.679688 268.203125 C 20.824219 267.640625 19.957031 267.578125 12.714844 267.5625 L 4.703125 267.542969 L 4.808594 266.792969 C 4.980469 265.539062 3.75 265.878906 2.71875 267.367188 Z M -70.933594 267.941406 C -71.886719 269.484375 -73.820312 277.792969 -73.808594 280.308594 C -73.800781 283.074219 -71.863281 290.410156 -68.519531 300.363281 C -67.050781 304.734375 -66.765625 305.222656 -65.683594 305.222656 C -64.191406 305.222656 -64.023438 304.511719 -64.628906 300.761719 C -65.429688 295.832031 -65.394531 295.199219 -64.355469 295.460938 C -63.664062 295.632812 -63.523438 295.550781 -63.523438 294.960938 C -63.523438 294.53125 -63.847656 294.105469 -64.355469 293.875 C -65.320312 293.433594 -65.296875 293.792969 -64.820312 287.628906 L -64.453125 282.8125 L -66.59375 278.664062 C -69.050781 273.90625 -69.773438 272.117188 -70.308594 269.445312 C -70.523438 268.371094 -70.796875 267.714844 -70.933594 267.9375 Z M 4.203125 268.0625 C 4.203125 268.257812 4.027344 268.742188 3.808594 269.140625 L 3.414062 269.867188 L 3.199219 269.035156 C 3.078125 268.582031 3.039062 268.09375 3.113281 267.957031 C 3.316406 267.578125 4.203125 267.660156 4.203125 268.0625 Z M -90.023438 269.058594 C -89.941406 269.296875 -89.679688 269.558594 -89.441406 269.636719 C -89.191406 269.722656 -89.066406 269.597656 -89.148438 269.347656 C -89.230469 269.105469 -89.492188 268.847656 -89.730469 268.765625 C -89.980469 268.683594 -90.105469 268.808594 -90.023438 269.058594 Z M -79.792969 270.03125 C -79.386719 270.601562 -79.25 271.027344 -79.46875 271.027344 C -79.863281 271.027344 -81.089844 269.726562 -81.109375 269.285156 C -81.136719 268.71875 -80.453125 269.101562 -79.792969 270.03125 Z M 18.8125 271.027344 C 18.8125 271.394531 18.664062 271.691406 18.480469 271.691406 C 18.296875 271.691406 18.148438 271.394531 18.148438 271.027344 C 18.148438 270.664062 18.296875 270.367188 18.480469 270.367188 C 18.664062 270.367188 18.8125 270.664062 18.8125 271.027344 Z M -31.289062 272.523438 C -31.289062 272.703125 -31.597656 272.902344 -31.96875 272.960938 C -32.636719 273.066406 -32.867188 272.6875 -32.414062 272.234375 C -32.089844 271.914062 -31.285156 272.117188 -31.289062 272.523438 Z M -15.683594 274.253906 C -14.488281 274.960938 -14.449219 275.597656 -15.582031 275.878906 C -16.242188 276.046875 -16.640625 275.898438 -17.28125 275.257812 C -18.6875 273.855469 -17.558594 273.148438 -15.683594 274.253906 Z M -0.0507812 275.449219 C -0.601562 276.765625 -0.546875 277.25 0.0820312 276.621094 C 0.375 276.328125 0.550781 275.742188 0.472656 275.304688 C 0.339844 274.519531 0.335938 274.523438 -0.0507812 275.449219 Z M -17.875 278.6875 C -17.875 278.945312 -18.136719 279.203125 -18.453125 279.265625 C -19.027344 279.375 -19.261719 278.671875 -18.808594 278.214844 C -18.460938 277.867188 -17.875 278.164062 -17.875 278.6875 Z M -2.199219 278.769531 C -2.429688 279.367188 -2.09375 280.988281 -1.738281 280.988281 C -1.351562 280.988281 -0.988281 279.453125 -1.226562 278.832031 C -1.464844 278.214844 -1.976562 278.183594 -2.199219 278.769531 Z M -31.984375 280.296875 C -31.984375 280.648438 -31.898438 281.207031 -31.792969 281.542969 C -31.691406 281.875 -31.835938 281.773438 -32.113281 281.320312 C -32.707031 280.355469 -32.789062 279.660156 -32.316406 279.660156 C -32.132812 279.660156 -31.984375 279.945312 -31.984375 280.296875 Z M 109.53125 280.878906 C 109.304688 280.96875 109.117188 281.191406 109.117188 281.371094 C 109.117188 281.796875 110.46875 281.589844 110.484375 281.164062 C 110.5 280.773438 110.097656 280.652344 109.53125 280.878906 Z M -29.328125 282.316406 C -29.328125 283.257812 -29.75 283.640625 -30.121094 283.039062 C -30.363281 282.648438 -29.972656 281.320312 -29.621094 281.320312 C -29.460938 281.320312 -29.328125 281.769531 -29.328125 282.316406 Z M -5.089844 287.609375 C -5.089844 288 -5.738281 288.417969 -5.976562 288.183594 C -6.214844 287.945312 -5.792969 287.296875 -5.402344 287.296875 C -5.230469 287.296875 -5.089844 287.4375 -5.089844 287.609375 Z M 10.871094 289.007812 C 6.78125 289.160156 3.394531 289.324219 3.351562 289.371094 C 3.175781 289.554688 3.128906 290.613281 3.167969 293.902344 L 3.207031 297.351562 L 9.101562 297.164062 C 18.738281 296.859375 23.171875 295.746094 23.585938 293.535156 C 24.109375 290.746094 22.527344 288.601562 20 288.675781 C 19.070312 288.703125 14.964844 288.855469 10.871094 289.007812 Z M 136.675781 289.621094 C 136.675781 289.800781 136.8125 289.953125 136.976562 289.953125 C 137.144531 289.953125 137.519531 290.042969 137.808594 290.152344 C 138.152344 290.285156 138.335938 290.171875 138.335938 289.820312 C 138.335938 289.472656 138.046875 289.289062 137.503906 289.289062 C 137.046875 289.289062 136.675781 289.4375 136.675781 289.621094 Z M -17.855469 291.75 C -17.09375 292.308594 -17.488281 292.910156 -18.285156 292.40625 C -18.90625 292.015625 -19.238281 291.28125 -18.796875 291.28125 C -18.632812 291.28125 -18.210938 291.492188 -17.855469 291.75 Z M 61.144531 292.957031 C 59.5 293.667969 57.898438 294.253906 57.585938 294.257812 C 56.933594 294.273438 56.332031 295.230469 56.332031 296.253906 C 56.332031 300.757812 48.285156 304.878906 38.402344 305.4375 C 35.679688 305.589844 34.523438 305.8125 33.128906 306.457031 C 27.71875 308.949219 20.851562 310.191406 10.84375 310.484375 L 3.375 310.703125 L 3.28125 314.328125 C 3.230469 316.320312 3.304688 318.050781 3.445312 318.167969 C 4.410156 318.96875 34.761719 316.351562 36.453125 315.324219 C 36.566406 315.253906 38.136719 314.914062 39.941406 314.5625 C 51.992188 312.226562 63.734375 307.238281 71.519531 301.144531 C 73.007812 299.980469 73.59375 299.304688 73.59375 298.746094 C 73.59375 294.457031 70.433594 290.746094 68.402344 292.652344 C 67.5 293.503906 66.460938 293.269531 66.71875 292.273438 C 67.007812 291.167969 64.601562 291.464844 61.144531 292.957031 Z M -7.414062 292.824219 C -7.414062 294.671875 -9.710938 297.34375 -10.203125 296.066406 C -10.597656 295.039062 -10.390625 294.382812 -9.28125 293.171875 C -7.953125 291.722656 -7.417969 291.621094 -7.417969 292.824219 Z M -67.175781 296.425781 C -67.175781 296.953125 -68.34375 297.121094 -68.640625 296.636719 C -68.886719 296.242188 -68.507812 295.929688 -67.785156 295.929688 C -67.449219 295.929688 -67.175781 296.152344 -67.175781 296.425781 Z M -51.355469 300.757812 C -51.246094 301.039062 -51.238281 301.347656 -51.335938 301.449219 C -51.585938 301.695312 -52.898438 300.953125 -52.898438 300.566406 C -52.898438 300.039062 -51.566406 300.203125 -51.355469 300.757812 Z M 51.082031 300.933594 C 51.144531 301.128906 51.339844 301.289062 51.515625 301.289062 C 51.6875 301.289062 51.882812 301.132812 51.949219 300.933594 C 52.011719 300.738281 51.820312 300.578125 51.515625 300.578125 C 51.210938 300.578125 51.015625 300.738281 51.082031 300.933594 Z M -45.511719 302.699219 C -44.808594 303.234375 -44.753906 304.089844 -45.40625 304.339844 C -46.179688 304.636719 -47.699219 303.265625 -47.226562 302.699219 C -46.75 302.125 -46.265625 302.125 -45.511719 302.699219 Z M -12.074219 302.652344 C -12.089844 303.328125 -12.988281 304.3125 -13.371094 304.078125 C -13.761719 303.832031 -13.847656 302.804688 -13.503906 302.457031 C -13.121094 302.074219 -12.0625 302.21875 -12.074219 302.652344 Z M 21.433594 303.441406 C 20.9375 304.039062 20.257812 304.023438 20.023438 303.410156 C 19.777344 302.757812 20.820312 302.167969 21.386719 302.640625 C 21.703125 302.902344 21.714844 303.101562 21.433594 303.445312 Z M -12.65625 308.132812 C -11.714844 310.253906 -12.421875 310.925781 -13.90625 309.328125 C -14.679688 308.488281 -15.023438 306.636719 -14.5 306.113281 C -14.136719 305.746094 -13.316406 306.640625 -12.65625 308.136719 Z M 0.636719 310.09375 C 0.40625 310.183594 0.21875 310.621094 0.21875 311.0625 C 0.21875 312.070312 1.402344 312.179688 1.714844 311.203125 C 2.046875 310.152344 1.609375 309.699219 0.632812 310.09375 Z M -15.207031 310.550781 C -15.089844 310.742188 -15.144531 311.078125 -15.324219 311.296875 C -16.074219 312.207031 -18.03125 316.316406 -18.53125 318.027344 C -19.21875 320.394531 -19.683594 320.535156 -21.566406 318.957031 C -24.316406 316.652344 -24.648438 316.46875 -26.464844 316.28125 C -28.132812 316.109375 -28.996094 315.453125 -28.996094 314.347656 C -28.996094 314.269531 -27.613281 314.292969 -25.925781 314.398438 C -20.363281 314.742188 -17.042969 313.671875 -17.042969 311.53125 C -17.042969 310.601562 -15.640625 309.851562 -15.207031 310.550781 Z M -10.617188 311.601562 C -10.421875 311.910156 -10.375 312.277344 -10.511719 312.417969 C -10.867188 312.773438 -11.875 312.078125 -12.011719 311.382812 C -12.15625 310.644531 -11.117188 310.804688 -10.617188 311.601562 Z M 108.785156 312.707031 C 108.785156 313.503906 109.582031 314.167969 110.015625 313.734375 C 110.300781 313.449219 109.542969 311.867188 109.125 311.867188 C 108.9375 311.867188 108.785156 312.246094 108.785156 312.707031 Z M -42.609375 315.332031 C -42.609375 315.59375 -42.746094 315.894531 -42.917969 316 C -43.3125 316.246094 -43.707031 315.621094 -43.4375 315.183594 C -43.132812 314.691406 -42.609375 314.78125 -42.609375 315.332031 Z M -7.746094 317.195312 C -7.746094 317.367188 -7.972656 317.507812 -8.246094 317.507812 C -8.757812 317.507812 -8.90625 317.117188 -8.53125 316.742188 C -8.265625 316.476562 -7.746094 316.777344 -7.746094 317.195312 Z M -19.160156 326.742188 C -19.449219 327.027344 -19.785156 327.164062 -19.902344 327.042969 C -20.222656 326.722656 -19.355469 325.777344 -18.964844 326.019531 C -18.773438 326.136719 -18.851562 326.429688 -19.160156 326.742188 Z M 20.492188 328.144531 C 21.292969 328.570312 21.335938 329.460938 20.554688 329.457031 C 19.644531 329.449219 19.027344 328.914062 19.25 328.332031 C 19.492188 327.707031 19.636719 327.683594 20.492188 328.144531 Z M 37.542969 332.53125 C 37.625 332.941406 37.773438 333.875 37.875 334.605469 C 38.136719 336.5625 38.734375 336.855469 41.886719 336.589844 C 46.15625 336.226562 46.203125 336.226562 46.203125 336.757812 C 46.203125 337.085938 45.667969 337.335938 44.59375 337.515625 C 42.527344 337.863281 41.507812 338.546875 40.699219 340.136719 C 39.886719 341.726562 39.964844 341.738281 38.113281 339.796875 C 37.265625 338.90625 36.378906 338.117188 36.136719 338.046875 C 35.800781 337.941406 35.78125 337.703125 36.054688 336.984375 C 36.25 336.476562 36.40625 335.332031 36.40625 334.445312 C 36.40625 332.023438 37.175781 330.726562 37.542969 332.53125 Z M 4.867188 333.191406 C 4.867188 333.566406 3.613281 333.5 3.375 333.113281 C 2.988281 332.492188 3.542969 332.113281 4.222656 332.535156 C 4.578125 332.757812 4.871094 333.054688 4.871094 333.191406 Z M 90.855469 333.128906 C 90.21875 333.28125 88.308594 333.511719 86.613281 333.636719 C 81.546875 334.019531 82.785156 334.441406 88.976562 334.441406 C 93.59375 334.441406 94.804688 334.347656 94.945312 333.984375 C 95.371094 332.878906 93.515625 332.488281 90.855469 333.128906 Z M -5.902344 335.132812 C -5.589844 335.640625 -6.269531 336.230469 -6.886719 335.992188 C -7.1875 335.875 -7.320312 335.578125 -7.207031 335.285156 C -6.980469 334.691406 -6.230469 334.605469 -5.902344 335.132812 Z M 51.621094 336.351562 C 51.492188 337.019531 50.109375 337.273438 49.355469 336.769531 C 48.914062 336.46875 48.914062 336.398438 49.355469 336.105469 C 50.242188 335.527344 51.746094 335.691406 51.621094 336.351562 Z M 15.921875 338.320312 C 18.304688 338.832031 18.558594 338.964844 18.957031 339.917969 C 19.21875 340.542969 20.066406 341.390625 21.09375 342.046875 C 22.679688 343.066406 23.230469 343.734375 22.480469 343.734375 C 22.304688 343.734375 21.65625 343.390625 21.035156 342.972656 C 20.1875 342.398438 19.050781 342.105469 16.457031 341.804688 C 10.445312 341.105469 9.429688 340.476562 11.496094 338.730469 C 12.847656 337.589844 12.621094 337.609375 15.921875 338.320312 Z M -58.949219 343.746094 C -62.828125 344.042969 -63.949219 344.292969 -63.765625 344.828125 C -63.460938 345.703125 -50.296875 344.742188 -49.996094 343.820312 C -49.839844 343.351562 -53.359375 343.324219 -58.949219 343.746094 Z M 40.925781 344.929688 L 41.722656 346.285156 L 40.882812 346.667969 C 39.972656 347.082031 39.621094 346.597656 39.15625 344.285156 C 38.871094 342.859375 39.933594 343.246094 40.925781 344.929688 Z M 101.207031 344.621094 C 101.339844 345.296875 101.824219 345.484375 102.4375 345.097656 C 103.039062 344.71875 102.617188 344.070312 101.769531 344.070312 C 101.320312 344.070312 101.136719 344.253906 101.207031 344.625 Z M -69.167969 344.957031 C -71.515625 345.191406 -72.503906 345.4375 -72.3125 345.746094 C -72.054688 346.15625 -68.785156 346.152344 -67.695312 345.738281 C -66.730469 345.371094 -66.539062 344.707031 -67.425781 344.785156 C -67.742188 344.816406 -68.527344 344.890625 -69.167969 344.957031 Z M -93.734375 346.628906 C -99.339844 347.613281 -98.296875 348.316406 -92.082031 347.75 C -87.191406 347.300781 -85.898438 347.054688 -86.488281 346.683594 C -86.933594 346.402344 -92.207031 346.359375 -93.734375 346.628906 Z M 0.21875 347.675781 C 0.21875 348.914062 0.769531 349.304688 1.492188 348.582031 C 2.113281 347.960938 1.714844 346.96875 0.765625 346.78125 C 0.355469 346.703125 0.21875 346.925781 0.21875 347.675781 Z M -6.515625 349.683594 C -6.199219 350.1875 -6.210938 350.394531 -6.558594 350.683594 C -7.113281 351.144531 -7.917969 350.296875 -7.628906 349.550781 C -7.367188 348.875 -6.992188 348.917969 -6.515625 349.683594 Z M -18.34375 351.425781 C -18.011719 352.039062 -18.039062 352.109375 -18.527344 351.921875 C -18.835938 351.800781 -19.152344 351.703125 -19.230469 351.703125 C -19.304688 351.703125 -19.367188 351.480469 -19.367188 351.207031 C -19.367188 350.476562 -18.785156 350.601562 -18.34375 351.425781 Z M 23.316406 358.65625 C 22.628906 359.414062 22.855469 360.441406 23.671875 360.28125 C 24.597656 360.097656 25.023438 359.101562 24.429688 358.507812 C 23.964844 358.042969 23.855469 358.054688 23.316406 358.65625 Z M -71.59375 359.574219 C -71.921875 359.660156 -72.132812 359.902344 -72.0625 360.117188 C -71.863281 360.722656 -70.683594 360.570312 -70.558594 359.921875 C -70.445312 359.332031 -70.539062 359.300781 -71.59375 359.574219 Z M 30.113281 373.59375 C 29.925781 373.949219 29.769531 374.398438 29.769531 374.589844 C 29.769531 375.144531 30.671875 375.007812 30.894531 374.421875 C 31.417969 373.058594 30.765625 372.371094 30.113281 373.597656 Z M 30.113281 373.59375 " fill-opacity="1" fill-rule="nonzero"/></g></svg>