<!-- Generated by IcoMoon.io -->
<svg version="1.1" xmlns="http://www.w3.org/2000/svg" width="300" height="300" viewBox="0 0 1024 1024">
<title></title>
<g id="icomoon-ignore">
</g>
<path fill="#FFF" d="M600.678 396.698c0 49.089-39.794 88.883-88.883 88.883s-88.883-39.794-88.883-88.883c0-49.089 39.794-88.883 88.883-88.883s88.883 39.794 88.883 88.883z"></path>
<path fill="#FFF" d="M633.037 18.432h-242.483l-193.946 313.651 166.502 672.461h297.472l166.502-672.461-194.048-313.651zM713.728 576.307l-37.683 37.683-101.99-101.99c-11.264 6.042-23.45 10.547-36.352 13.107v400.282h-53.35v-400.691c-12.39-2.662-24.166-7.066-35.021-13.005l-102.195 102.298-37.683-37.683 99.123-99.123c-12.288-15.667-20.992-34.304-25.088-54.579h-102.81v-53.35h103.117c10.752-50.278 50.278-89.805 100.557-100.557v-43.008c-59.085-12.595-103.424-65.126-103.424-128h41.984c0 49.152 39.834 88.883 88.883 88.883s88.883-39.834 88.883-88.883h41.984c0 63.488-45.158 116.326-105.062 128.41v42.189c50.995 10.24 91.341 50.074 102.195 100.864h108.032v53.35h-107.622c-4.096 20.378-12.902 39.117-25.293 54.886l98.816 98.918z"></path>
</svg>
