<!-- Generated by IcoMoon.io -->
<svg version="1.1" xmlns="http://www.w3.org/2000/svg" width="300" height="300" viewBox="0 0 1024 1024">
<title></title>
<g id="icomoon-ignore">
</g>
<path fill="#FFF" d="M914.949 664.861l-105.989-90.788c102.083-16.68 179.992-105.356 179.992-212.19 0-118.763-96.277-215.040-215.040-215.040-79.386 0-148.744 43.071-186.009 107.151l-5.701-94.377 35.154 6.651-109.579-145.682-112.323 156.661 35.154-12.562c0 0-1.9 61.968-4.012 82.026-38.954-52.15-101.133-85.932-171.23-85.932-117.918 0-213.562 95.644-213.562 213.562 0 110.106 83.292 200.683 190.337 212.295l-107.362 60.701-21.747-69.569-103.033 276.48 235.414-0.845-25.969-53.628 67.141-48.561c0 1.478-0.106 3.061-0.106 4.539 0 136.92 110.951 247.977 247.977 247.977 122.774 0 224.647-89.204 244.388-206.384l55.528 42.649-40.221 35.998 239.637 41.91-81.287-343.515-27.553 90.471zM774.017 223.485c76.431 0 138.398 61.968 138.398 138.398s-61.968 138.398-138.398 138.398-138.504-61.862-138.504-138.293 61.968-138.504 138.504-138.504zM106.728 374.341c0-82.131 66.613-148.744 148.744-148.744s148.744 66.613 148.744 148.744-66.718 148.744-148.849 148.744-148.638-66.613-148.638-148.744zM526.040 931.84c-95.010 0-171.969-76.958-171.969-171.969s76.958-171.969 171.969-171.969 171.969 76.958 171.969 171.969-76.958 171.969-171.969 171.969z"></path>
</svg>
