<!-- Generated by IcoMoon.io -->
<svg version="1.1" xmlns="http://www.w3.org/2000/svg" width="300" height="300" viewBox="0 0 1024 1024">
<title></title>
<g id="icomoon-ignore">
</g>
<path fill="#FFF" d="M451.651 722.824c-23.526 35.914-46.938 71.941-70.805 108.424-19.889-11.592-39.551-23.071-59.667-34.664 1.705-2.159 2.955-3.75 4.319-5.228 31.368-35.687 62.736-71.487 94.217-107.060 2.841-3.182 3.637-5.91 2.614-10.115-3.41-13.411-6.251-26.822-9.547-41.142-24.549 10.342-48.416 20.457-73.192 30.913 2.728 7.501 5.455 14.661 7.956 21.935 1.818 5.001 5.569 10.57 4.432 14.775s-7.274 7.16-11.365 10.456c-5.796 4.887-11.706 9.547-17.616 14.32-0.227 0.227-0.682 0.227-1.818 0.455 0-2.159-0.341-4.091 0.114-6.024 1.818-8.183-1.364-14.434-6.819-20.457-5.342-5.796-9.888-12.274-15.457-19.207-6.933 14.32-13.525 27.617-19.662 41.142-0.682 1.477 0.341 3.978 1.137 5.683 9.547 19.093 19.321 38.187 28.981 57.28 0.909 1.818 1.705 3.637 1.705 6.251-30.686-17.843-61.258-35.687-92.285-53.644 0.796-2.728 1.477-5.228 2.273-7.728 5.683-17.843 11.479-35.687 16.934-53.644 1.25-4.091 3.41-6.592 7.387-8.524 52.166-24.662 104.332-49.552 156.498-74.214 3.41-1.591 4.887-3.296 4.205-7.16-6.933-41.824-13.525-83.648-20.571-125.471-0.909-5.228-2.728-10.229-4.546-15.229-0.682-2.046-2.159-3.864-3.978-7.046-1.591 4.773-2.955 7.956-3.864 11.365-10.683 39.323-21.366 78.533-31.709 117.857-1.364 5.001-3.523 7.387-8.524 8.751-26.026 7.274-51.939 15.116-77.965 22.617-1.818 0.568-3.523 0.909-6.251 1.705 33.527-76.033 55.803-154.907 77.283-234.349-1.477-0.682-2.273-1.023-3.182-1.364-6.251-2.046-12.502-4.205-19.434-6.478-0.682 2.159-1.25 4.091-1.818 5.91-26.253 87.853-62.963 171.159-110.356 249.692-1.364 2.273-4.091 4.546-6.705 5.342-32.050 9.66-64.327 18.98-96.49 28.299-1.364 0.455-2.841 0.682-4.887 1.023 0.568-1.25 0.682-1.932 1.137-2.5 31.027-41.71 54.325-87.853 76.26-134.677 27.276-58.531 51.030-118.539 72.737-179.342 0.455-1.364 0.909-2.841 1.477-4.773-2.955-1.477-5.796-2.841-8.638-4.205s-5.796-2.728-9.206-4.319c-1.137 2.5-2.046 4.66-3.069 6.933-29.777 68.646-61.94 136.154-101.263 200.027-13.979 22.73-28.981 44.892-47.279 64.554-6.364 6.933-13.525 13.070-20.798 20.003-14.888-15.911-29.208-31.254-44.551-47.734 1.364-0.568 2.387-0.796 3.069-1.364 78.079-61.713 133.768-140.132 172.523-231.053 23.526-55.121 40.119-112.288 47.961-171.727 0.455-3.523 1.705-5.228 5.228-6.024 52.621-11.706 105.355-23.412 157.976-35.232 1.25-0.227 2.614-0.341 4.091-0.455 0.909 8.865 2.046 17.502 2.614 26.14 0.114 1.591-1.705 3.523-2.955 5.001-8.865 10.342-18.866 19.889-26.481 31.027-11.365 16.82-16.479 35.8-12.388 56.257 6.137 30.004 32.050 51.825 61.258 50.802 23.867-0.796 41.142-12.956 51.598-34.323 5.114-10.57 1.591-21.026-9.319-25.458-7.956-3.182-16.707-5.342-25.231-5.683-17.048-0.682-34.095 0.114-51.143 0.227-3.182 0-6.364 0-9.888 0 0-6.478 2.273-11.365 6.364-14.661 7.387-5.796 14.888-11.82 23.185-16.139 30.459-15.457 63.304-23.98 96.49-31.027 11.592-2.5 23.412-4.773 35.232-5.796 28.64-2.387 49.097 11.024 57.28 38.528 3.978 13.070 5.342 27.049 6.933 40.687 1.137 10.115 0.568 20.457 0.682 30.686 0.227 15.002 11.365 24.435 26.367 22.048 30.572-4.773 54.553-37.050 51.143-68.532-2.614-24.208-13.979-43.983-31.368-60.122-8.751-8.069-13.638-15.798-10.229-27.731 1.023-3.75 0.796-7.842 1.25-12.161 2.046 0.341 3.637 0.455 5.342 0.909 52.052 11.592 103.991 23.299 155.93 34.664 3.978 0.909 5.796 2.273 6.478 6.705 16.707 113.879 58.076 217.529 128.199 309.246 26.253 34.323 56.485 64.781 90.239 91.717 1.25 1.023 2.5 2.159 4.205 3.637-14.434 15.457-28.64 30.686-43.188 46.37-1.818-1.25-3.637-2.273-5.001-3.637-11.706-12.615-24.321-24.549-34.777-38.073-27.845-36.141-50.348-75.692-70.578-116.379-20.798-41.824-40.119-84.443-60.008-126.721-0.796-1.705-1.591-3.41-2.614-5.796-5.91 2.728-11.592 5.455-17.616 8.297 0.227 1.364 0.341 2.5 0.682 3.523 30.572 85.011 63.872 169 107.401 248.442 12.388 22.73 27.39 43.983 41.142 65.918 0.682 1.023 1.364 2.159 2.5 4.091-2.841-0.682-4.887-1.137-6.819-1.705-31.254-9.092-62.508-18.298-93.762-27.276-3.978-1.137-6.478-3.182-8.524-6.705-46.938-78.533-83.648-161.612-109.674-249.351-0.455-1.591-1.023-3.182-1.818-5.455-7.387 2.5-14.661 4.887-22.73 7.615 21.48 79.556 43.756 158.317 77.283 234.236-2.046-0.455-3.637-0.568-5.114-1.023-26.935-7.842-53.757-15.798-80.693-23.526-3.864-1.137-5.455-3.069-6.364-6.705-10.456-39.551-21.139-78.988-31.822-118.425-1.023-3.637-2.387-7.16-5.114-11.138-1.364 2.841-3.41 5.569-4.091 8.638-4.091 18.071-8.524 36.141-11.592 54.325-4.66 27.39-8.069 55.121-12.274 82.625-0.682 4.546 0.568 6.592 4.66 8.524 52.052 24.549 103.991 49.325 156.044 73.873 3.75 1.818 5.91 3.978 7.16 7.956 5.91 19.207 12.047 38.301 18.298 57.394 0.909 2.955 0.796 4.66-2.159 6.478-29.208 16.82-58.303 33.868-87.398 50.689-0.568 0.341-1.25 0.568-3.069 1.25 1.818-3.637 3.069-6.251 4.432-8.865 9.319-18.412 18.639-36.823 27.845-55.235 0.796-1.705 1.591-4.205 0.909-5.683-6.137-13.411-12.615-26.594-19.548-41.028-5.228 6.478-9.433 12.729-14.547 18.071-6.592 6.819-9.547 14.206-7.728 23.526 0.227 1.25 0 2.5 0 5.114-10.683-8.751-20.457-16.593-30.004-24.776-1.023-0.796-0.796-3.864-0.227-5.455 3.75-10.683 7.728-21.253 12.047-32.732-24.321-10.342-48.416-20.457-73.192-30.913-2.614 11.365-4.432 22.503-7.956 32.959-3.41 10.115-0.682 16.82 6.251 24.549 30.004 33.186 59.212 66.941 88.762 100.582 1.364 1.591 2.614 3.182 4.546 5.455-19.889 11.592-39.437 22.958-59.781 34.777-23.64-36.141-47.165-72.169-70.691-108.196-0.341 0.114-0.682 0.227-1.023 0.341 0.227 1.477 0.455 2.955 0.796 4.432 10.001 40.233 20.003 80.465 30.345 120.584 1.25 4.66 0 6.592-3.864 8.865-27.617 15.798-55.121 31.822-82.511 47.961-2.728 1.591-4.66 1.818-7.615 0.114-27.731-16.366-55.576-32.504-83.534-48.529-3.864-2.159-4.091-4.319-3.182-8.183 10.229-40.574 20.457-81.147 30.572-121.721 0.341-1.25 0.568-2.5 0.796-3.75-0.455-0.568-0.909-0.682-1.25-0.796zM480.632 185.707c3.75 1.477 5.91 2.728 8.069 2.955 11.592 1.364 23.071 0 33.868-4.432 1.818-0.796 3.069-2.955 4.546-4.432-1.818-1.023-3.637-2.728-5.569-3.069-11.592-1.705-22.958-0.227-33.868 4.091-2.159 0.796-3.864 2.614-7.046 4.887z"></path>
</svg>
