<!-- Generated by IcoMoon.io -->
<svg version="1.1" xmlns="http://www.w3.org/2000/svg" width="300" height="300" viewBox="0 0 1024 1024">
<title></title>
<g id="icomoon-ignore">
</g>
<path fill="#FFF" d="M5.349 722.804c1.528-9.061 2.402-18.34 4.694-27.183 2.402-9.279 6.004-18.231 9.279-27.292 0.764-2.074 2.293-3.821 4.694-5.568 0.546 4.585 0.983 9.061 1.747 13.646 0.983 5.786 1.747 11.681 3.712 17.139 2.293 6.659 7.642 7.86 12.882 3.057 4.148-3.821 8.078-8.078 11.463-12.554 24.126-31.113 49.344-61.353 79.038-87.444 6.659-5.895 13.646-11.463 20.196-17.358 1.528-1.31 3.057-3.603 3.057-5.458 1.092-41.375 17.249-76.855 43.122-108.077 14.956-18.013 31.55-34.606 47.379-51.855 0.546 0.218 1.092 0.328 1.528 0.546 0.437 2.838 0.546 5.677 1.201 8.515 0.873 4.039 1.638 8.188 3.384 11.899 2.074 4.803 5.677 5.786 10.153 3.275 3.275-1.856 6.441-4.039 9.279-6.441 28.93-24.89 53.711-53.274 73.143-86.134 7.642-12.882 14.301-26.31 13.319-42.139-0.109-1.638 2.074-3.821 3.712-5.131 29.803-24.563 59.497-49.126 89.518-73.47 58.078-47.161 116.155-94.103 174.342-141.046 1.528-1.201 3.057-2.402 5.24-2.948-5.022 10.48-10.262 20.96-15.065 31.55-10.699 23.58-21.179 47.27-26.965 72.706-2.729 11.899-2.402 23.69 1.419 35.261 5.786 17.467 19.214 25.545 37.336 22.598 14.629-2.293 27.838-8.406 40.72-15.284 40.283-21.506 76.309-49.126 111.024-78.383 17.139-14.519 33.406-30.13 50.108-45.305 0.655-0.655 1.31-1.201 3.057-1.31-1.201 3.821-2.074 7.751-3.712 11.354-11.026 24.235-22.161 48.471-33.515 72.597-21.615 45.632-43.995 90.937-59.824 139.081-6.004 18.231-10.371 37.117-13.537 56.113-1.638 9.498 0.437 19.869 1.747 29.694 0.764 6.223 5.458 10.371 11.681 10.589 14.083 0.546 28.384 1.638 42.357 0.328 57.313-5.458 113.426-18.231 169.648-30.458 23.471-5.131 46.833-10.48 70.304-15.72 1.856-0.437 3.821-0.655 6.223 0-1.528 1.31-2.948 2.729-4.585 3.93-43.231 35.261-86.461 70.632-126.090 110.042-11.244 11.135-21.943 23.035-31.55 35.698-12.118 15.939-9.498 25.436 9.716 31.222 18.886 5.677 38.646 8.733 58.078 12.554 9.934 1.965 20.087 2.838 30.24 5.458-1.965 0.873-3.93 1.856-5.895 2.729-56.768 24.563-116.264 40.72-176.416 54.475-39.082 8.843-78.165 17.794-117.029 27.401-15.284 3.712-29.912 9.607-42.794 19.104-11.244 8.297-17.030 19.214-14.629 33.406 0.655 3.712 2.402 7.533 4.476 10.808 4.148 6.223 4.476 10.262-1.638 14.519-6.659 4.585-13.755 8.733-21.288 11.681-20.305 7.751-40.72 15.393-61.353 21.943-84.715 27.183-163.643 66.811-241.59 109.059-17.904 9.716-35.698 19.869-53.82 29.148-22.707 11.681-45.632 22.707-68.558 33.951-2.293 0-4.585 0-6.768 0-16.703-6.332-32.641-13.974-44.322-29.148 21.615-6.878 43.558-10.043 61.68-21.943-3.275-5.24-6.004-9.607-9.388-15.174 21.288-1.31 40.501-3.057 56.658-14.738-3.712-4.039-6.878-7.533-10.699-11.681 18.013-2.183 36.135 1.092 48.689-13.864-2.62-2.62-4.803-4.803-7.642-7.533 17.794-5.458 31.331-15.502 44.65-25.764 12.882-9.934 25.436-20.305 38.1-30.458 31.222-25 63.973-47.707 101.308-62.881 0.546-0.218 0.983-0.437 2.074-0.983-3.712-2.511-6.659-4.694-9.607-6.55-19.323-12.009-40.392-19.541-62.663-24.126-29.257-6.004-54.257 1.856-74.999 23.144-16.157 16.594-26.637 36.571-32.751 58.842-0.546 1.965-1.092 3.821-2.074 7.642-6.55-7.969-12.118-14.738-17.685-21.506-5.131-6.332-7.969-6.441-12.664 0.109-2.293 3.166-4.367 6.659-6.113 10.153-5.131 10.153-9.825 20.414-14.956 30.567-2.729 5.568-5.786 10.917-8.952 16.812-10.043-7.096-8.624-18.995-13.646-29.257-14.847 15.611-19.214 35.48-29.257 53.602-3.275-3.493-6.332-6.441-8.843-9.716-1.747-2.402-2.729-5.349-4.258-7.969-3.493-6.332-7.86-7.314-13.209-2.293-3.275 3.057-6.659 6.55-8.515 10.48-4.803 10.262-8.733 20.851-12.991 31.331-0.655 1.638-0.983 3.493-1.419 5.24-0.546 0.328-1.092 0.655-1.747 0.983-2.729-3.057-6.113-5.677-8.078-9.17-2.074-3.712-2.402-8.297-3.93-12.336-0.764-2.183-2.511-3.93-3.712-6.004-1.747 1.638-4.258 2.838-5.022 4.803-5.458 13.864-10.589 27.838-15.829 41.812-0.655 1.638-0.983 3.384-1.528 5.349-0.983-0.873-1.419-1.201-1.747-1.528-23.362-30.24-40.174-63.536-47.816-101.090-1.856-9.279-3.057-18.559-4.585-27.947-0.109-9.498-0.109-18.668-0.109-27.729zM199.56 564.183c0.546 0.437 1.092 0.764 1.638 1.201 11.244-9.17 22.707-18.013 33.406-27.729 8.078-7.314 15.393-15.611 22.27-24.017 3.166-3.821 5.24-8.843 6.441-13.646 1.965-8.078-4.148-13.209-11.681-9.716-5.349 2.511-10.589 6.004-14.956 10.043-15.284 14.083-26.419 31.004-33.515 50.545-1.31 4.148-2.293 8.733-3.603 13.319zM32.641 725.315c-11.244 6.332-14.956 31.113-6.768 43.012 8.188-13.428 7.205-27.838 6.768-43.012z"></path>
<path fill="#fff" d="M4.258 670.076c-7.86-11.463-4.258-35.261 6.55-41.375z"></path>
</svg>
