<!-- Generated by IcoMoon.io -->
<svg version="1.1" xmlns="http://www.w3.org/2000/svg" width="300" height="300" viewBox="0 0 1024 1024">
<title></title>
<g id="icomoon-ignore">
</g>
<path fill="#FFF" d="M834.083 515.668c-12.053-72.529-56.598-105.649-116.445-109.003-36.264-1.991-83.849 12.368-119.17 43.287 15.931-40.352 48.632-141.809 17.399-264.123-24.106-94.015-74.73-156.273-102.4-185.829v0c-27.565 29.557-78.294 91.814-102.295 185.829-32.701 127.659 4.507 232.68 19.39 269.154-35.845-34.378-86.469-50.414-124.62-48.318-59.847 3.354-104.391 36.474-116.445 109.003-9.119 165.601 196.31 158.054 195.472 94.015-105.649-8.28-6.708-89.823 22.429-13.311 5.241 16.875 5.765 49.68 5.869 56.283l-1.782 8.594h-79.656v66.555h125.668c-0.524 1.467-1.153 3.144-1.677 5.136-16.35 57.436-107.536 37.732-107.536 37.732 6.289 81.752 71.271 96.426 107.536 86.993 1.467-0.419 2.725-1.048 3.983-1.887l1.258 4.402c2.935 25.469 8.804 56.493 20.333 90.766 9.433 27.984 20.543 51.776 31.129 71.271l0.524 1.782c10.586-19.495 21.696-43.287 31.129-71.271 11.529-34.273 17.399-65.402 20.333-90.766l0.838-3.249c41.4 8.385 96.74-10.795 102.714-88.041 0 0-91.185 19.704-107.536-37.732-0.524-1.991-1.153-3.668-1.677-5.136h136.359v-66.555h-85.211v-7.546c0.21 0.105 0.314 0.105 0.314 0.105s0-38.57 5.869-57.436c29.137-76.512 128.079 5.031 22.429 13.311-0.838 64.039 204.59 71.586 195.472-94.015z"></path>
</svg>
