<!-- Generated by IcoMoon.io -->
<svg version="1.1" xmlns="http://www.w3.org/2000/svg" width="300" height="300" viewBox="0 0 1024 1024">
<title></title>
<g id="icomoon-ignore">
</g>
<path fill="#FFF" d="M1023.782 168.447c-13.537 33.733-46.506 57.532-85.151 57.532-50.654 0-91.701-41.047-91.701-91.701s41.047-91.701 91.701-91.701c11.244 0 22.161 2.074 32.096 5.786-30.24-28.602-71.069-46.178-116.046-46.178-93.448 0-169.211 75.763-169.211 169.211 0 20.851 3.712 40.72 10.589 59.169-0.328-0.109-0.437-0.218-0.437-0.218l-63.209 63.318c-64.955-44.541-143.666-70.741-228.38-70.741-139.299 0-262.113 70.523-334.82 177.726 64.191-44.65 142.137-70.741 226.197-70.741 85.042 0 163.971 26.855 228.49 72.488l-72.815 72.925c-45.196-28.056-98.579-44.322-155.674-44.322-163.098 0-295.41 132.312-295.41 295.519s132.312 295.41 295.41 295.41 295.41-132.312 295.41-295.41c0-51.855-13.428-100.544-36.79-142.901v0c0 0 31.768-31.222 74.016-72.925 40.392 62.117 63.864 136.242 63.864 215.826 0 96.723-34.606 185.368-92.138 254.144 124.234-68.885 208.403-201.416 208.403-353.597 0-83.841-25.545-161.788-69.322-226.306 25.655-25.545 49.126-49.235 66.702-67.357 15.502 4.694 31.986 7.205 49.017 7.205 93.448 0 169.211-75.763 169.211-169.211 0.109-0.983 0-1.965 0-2.948z"></path>
</svg>
