<!-- Generated by IcoMoon.io -->
<svg version="1.1" xmlns="http://www.w3.org/2000/svg" width="300" height="300" viewBox="0 0 1024 1024">
<title></title>
<g id="icomoon-ignore">
</g>
<path fill="#FFF" d="M963.878 348.115c-9.433 0-18.866-0.341-28.299 0.114-8.751 0.455-17.275 2.614-24.321 8.297-6.592 5.114-6.705 8.524 0.114 13.184 7.501 5.228 15.229 9.888 22.958 14.661 45.006 28.186 73.533 68.418 87.853 119.22 0.227 0.909 0.455 1.705-0.114 3.069-1.137-1.364-2.273-2.728-3.41-4.091-15.229-17.843-32.504-33.3-53.075-44.892-7.956-4.432-16.139-8.297-25.913-7.501-0.114 0.796-0.341 1.364-0.114 1.705 20.344 55.462 31.822 112.856 35.118 171.841 0.909 15.343 0.114 30.686-4.091 45.688-2.614 9.319-6.024 14.661-11.933 18.639-2.728-13.865-5.683-27.617-14.206-39.096-8.41-11.479-19.662-19.662-31.709-26.708-7.728 63.645-25.003 123.653-57.962 178.433-0.682-0.114-1.364-0.114-2.046-0.227-0.682-1.364-1.477-2.728-2.159-4.205-3.523-7.046-6.705-14.434-10.797-21.253-2.273-3.75-5.569-7.274-9.092-10.001-6.933-5.228-10.683-3.864-14.888 3.75-28.867 52.848-61.94 102.855-100.923 148.656-5.001 5.796-10.911 10.911-16.366 16.366-0.568-0.227-1.137-0.341-1.705-0.568-0.341-4.319-0.568-8.751-1.023-13.070-0.796-10.342-1.364-20.798-2.728-31.027-1.023-7.387-3.637-14.547-10.456-18.752-1.591-1.023-5.114-1.137-6.251 0-37.619 34.55-83.761 51.484-131.722 64.781-41.596 11.592-83.988 19.548-126.608 26.594-0.796 0.114-1.705 0-2.614 0 0.114-0.455 0-0.682 0.114-0.796 45.461-26.253 77.965-65.577 106.946-108.083 9.092-13.297 16.593-27.504 24.662-41.483 2.273-3.864 3.864-8.183 5.342-12.502 2.387-7.274-2.728-13.638-10.342-12.502-4.546 0.682-9.319 2.273-13.184 4.773-8.638 5.455-16.707 11.706-25.003 17.616-2.841 2.046-5.683 4.319-9.66 7.387 0.227-2.955 0.227-4.546 0.568-6.024 0.455-1.591 1.023-3.296 1.818-4.773 21.139-38.301 32.618-80.124 45.574-121.493 3.296-10.57 7.615-20.912 11.706-32.163 17.957 10.115 33.527 21.821 45.461 37.278 11.82 15.229 22.048 31.595 33.3 47.961 3.523-3.182 7.842-6.592 11.592-10.456 25.799-25.799 44.21-56.598 58.985-89.671 1.023-2.387 3.41-4.091 5.114-6.137 3.182-3.523 7.046-6.478 9.319-10.456 13.297-22.844 21.253-47.62 24.549-73.76 0.227-1.818 0.682-3.75 1.705-5.228 17.048-26.253 22.048-54.325 13.297-84.67-0.682-2.5-1.023-5.114-1.705-8.751 2.841 1.137 4.773 1.932 6.705 2.728 5.455 1.932 7.728 0.568 7.615-5.114-0.227-21.935 0.227-43.983-1.25-65.804-1.137-17.73-4.205-35.346-7.615-52.734-1.705-8.524-6.137-16.479-9.547-25.458 40.346-15.343 80.124-34.891 125.13-34.777 0.227 0.682 0.568 1.364 0.796 2.046-2.955 1.932-6.024 3.75-8.751 5.91-6.251 4.887-12.615 9.774-18.412 15.002-2.387 2.159-4.319 5.342-5.683 8.41-3.069 7.046-0.909 12.161 6.592 13.752 9.547 2.046 19.434 3.296 29.095 4.773 28.754 4.432 55.689 13.979 81.147 28.072 0.909 0.568 1.818 1.137 2.728 1.705 0 0.455-0.114 1.137-0.227 1.818z"></path>
<path fill="#FFF" d="M731.461 277.31c-12.502-41.824-31.481-80.352-60.576-113.311-1.364-1.591-2.614-3.41-3.864-5.114-2.046 6.364-2.614 11.592-3.523 16.707-0.909 5.001-2.046 10.001-3.41 14.888s-2.955 9.66-4.887 16.139c-12.161-64.781-56.257-105.014-101.491-146.383-1.364 4.887-2.387 8.524-3.296 11.706-5.228-3.182-10.342-6.251-16.139-9.774-0.114 2.159-0.227 2.728-0.114 3.296 0.909 4.432 1.932 8.865 2.955 13.297 8.069 36.937 13.979 74.101 11.82 112.060-0.568 9.547-2.046 19.207-3.864 28.64-5.114 26.367-20.116 45.574-42.96 59.212-20.457 12.161-42.392 21.026-64.895 28.527-38.073 12.729-76.374 24.662-114.333 37.619-23.299 7.956-45.915 17.843-66.145 32.163-7.842 5.569-14.888 12.161-22.389 18.298 1.364 1.705 1.818 2.5 2.387 3.182 5.342 6.819 4.091 10.683-4.319 12.956-5.114 1.364-10.456 1.818-15.684 2.614-7.274 1.137-15.002 1.137-21.707 3.637-33.641 12.615-67.395 25.117-100.468 39.096-25.231 10.683-49.666 23.412-74.101 35.687-5.569 2.841-10.342 7.501-15.116 11.82-3.978 3.637-5.114 8.524-1.25 12.615 4.205 4.432 9.206 8.183 14.206 11.592 6.592 4.546 14.206 7.956 20.344 13.184 6.592 5.569 12.161 12.388 17.843 18.98 15.229 17.73 32.163 33.754 52.052 46.256 24.094 15.002 48.87 28.867 73.305 43.301 0.909 0.568 1.932 0.796 3.75 1.477-0.796-2.955-1.591-5.001-2.046-7.16-1.477-7.046-3.523-13.979-4.091-21.139-0.909-11.138 4.319-15.57 15.229-13.184 6.592 1.477 13.070 3.75 19.662 5.683 5.683 1.705 11.479 3.296 17.957 5.228-0.568-2.614-0.796-3.978-1.137-5.455-1.023-4.66-2.387-9.206-2.841-13.865-1.023-9.092 2.046-11.933 11.138-10.229 5.342 1.023 10.57 2.841 15.798 4.432 6.933 2.159 13.865 4.546 20.571 6.819 0-7.046-0.455-13.411 0.114-19.775 0.568-7.16 3.978-9.092 10.911-6.819 3.069 1.023 6.024 2.387 8.978 3.523 4.887 1.932 9.774 3.864 14.775 5.91v-47.393c21.139 31.141 37.846 63.986 71.373 83.307-4.773 1.932-2.955 1.705-10.911 2.273-14.206 1.137-28.413-3.41-39.323-12.615-2.387-2.046-4.887-4.205-7.728-6.478-0.796 10.115-1.364 19.207-2.387 28.186-1.137 10.456-5.001 13.525-15.229 10.911-9.319-2.273-18.525-5.569-27.731-8.41-2.159-0.682-4.319-1.364-7.615-2.5 2.614 4.319 4.546 7.046 6.137 10.115 1.591 2.955 3.296 6.024 4.432 9.206 3.75 10.342-0.227 16.025-11.024 14.434-8.751-1.25-17.275-3.978-25.685-6.705-6.251-1.932-12.161-4.887-19.548-7.842 7.615 12.502 10.57 24.662 10.456 37.846 0 1.25 2.046 3.069 3.41 3.637 20.912 8.865 41.71 18.071 62.963 26.026 29.208 11.024 32.845 10.683 60.463-4.205 24.321-13.184 48.188-27.049 72.396-40.346 24.89-13.638 50.007-27.163 77.851-34.095 38.301-9.547 71.6-0.796 97.058 30.345 10.001 12.274 17.389 26.594 25.799 39.892 1.023 1.705 1.932 3.523 2.841 5.228 5.228-8.978 10.001-17.502 15.116-25.913 7.046-11.479 14.547-22.617 21.48-34.095 7.274-12.047 12.615-25.003 15.116-38.982 0.568-3.296 0.909-6.592 1.477-10.229 2.841 1.364 5.114 2.5 7.274 3.523 0.682-0.682 1.137-0.796 1.25-1.137 12.274-25.913 22.958-52.393 27.049-81.147 0-0.227 0.114-0.455 0.227-0.682 2.841-6.592 8.41-12.729 9.547-19.548 3.182-18.184 4.887-36.709 6.933-55.121 0.227-1.932-1.023-4.205-2.159-6.137-3.523-5.91-6.137-12.047-6.024-19.889 3.75 2.955 6.705 5.228 10.797 8.524 0.796-8.638 1.818-15.911 2.046-23.185 1.932-46.029-4.091-91.035-17.275-135.132zM120.13 514.955c-4.66-7.046 0.568-14.661 7.274-14.547 5.001 0 8.978 4.091 8.978 8.978-0.114 7.274-9.319 12.956-16.252 5.569zM162.749 516.205c-9.319 6.819-19.889-3.978-12.843-13.184 9.547-7.956 21.139 3.864 12.843 13.184zM156.498 492.793c-6.819 0-11.592-7.274-7.16-14.661 7.274-6.933 16.366-1.364 16.252 5.796 0 4.887-4.091 8.865-9.092 8.865zM183.661 518.364c-6.933-0.227-12.047-8.524-6.251-15.57 7.274-5.91 15.684-0.227 15.457 6.705 0 4.887-4.319 9.092-9.206 8.865zM183.888 492.793c-5.001 0-8.978-3.978-8.865-8.978 0-5.001 4.091-8.865 9.092-8.865 4.887 0 8.978 4.205 8.978 8.978-0.227 5.001-4.319 8.865-9.206 8.865zM316.747 446.423c-0.909 0.909-2.728 1.705-3.864 1.477-13.070-2.728-26.14-5.683-39.323-9.66 29.777-13.297 59.44-26.708 89.216-40.005-15.343 16.025-30.572 32.163-46.029 48.188z"></path>
</svg>
