<!-- Generated by IcoMoon.io -->
<svg version="1.1" xmlns="http://www.w3.org/2000/svg" width="300" height="300" viewBox="0 0 1024 1024">
<title></title>
<g id="icomoon-ignore">
</g>
<path fill="#FFF" d="M811.141 659.497c-5.356 0-9.687-2.171-9.687-4.844 0-2.406 3.523-4.403 8.131-4.772l-31.816-62.515c0 0-5.386 36.608-24.76 47.37-7.67-4.26-30.863-28.764-40.182-38.789 18.719-18.668 34.734-40.049 47.411-63.478 12.104 3.021 30.341 10.056 48.753 17.213v8.612l31.222-3.226-21.535-16.148-5.386 5.386c-18.074-7.782-35.379-15.401-47.862-21.955 11.971-24.525 20.347-51.118 24.474-79.084 22.784-6.38 45.414-9.011 64.307 3.062-7.967 2.652-13.681 10.793-18.299 21.535 46.377-29.614 100.516-47.258 160.42-55.982-20.808-4.25-41.267-8.95-61.389-14.090l1.096 5.478-4.424-6.328c-23.071-5.96-45.67-12.524-67.748-19.773-0.195 1.987-1.065 3.482-2.109 3.482-1.188 0-2.15-1.925-2.15-4.311 0-0.195 0.020-0.379 0.031-0.563-9.8-3.267-19.507-6.656-29.102-10.199 0 0 9.687 22.61 5.386 25.836-3.604 2.703-30.648-4.413-43.756-7.424-1.823-26.020-7.291-51.036-15.933-74.537l16.62-12.78-20.736 2.304c-10.312-24.812-24.187-47.78-41.001-68.25 3.635-5.704 6.82-10.496 6.82-10.496 8.11-2.724 14.797 0.727 20.46 8.612 26.184-40.95 52.081-78.879 77.517-111.964-62.444 36.608-100.127 66.755-131.348 66.755 0 0 15.073 4.311 13.998 7.537s-3.226 6.461-3.226 6.461l-9.687-3.226c2.355 3.389 2.693 6.697 0.635 9.882-21.34-19.917-45.885-36.454-72.776-48.753-1.608-11.448-1.065-24.33 0.010-38.646l-16.302 31.826c-23.306-8.878-48.138-14.653-73.994-16.835l-0.44-7.537c2.253-1.382 4.608-3.092 4.608-4.219 0-1.331-3.297-10.086-5.816-16.568l-0.102-1.741 8.069-7.526-7.363-19.876 14.879 3.707c-5.376-10.762-11.837-34.458-23.685-68.905-3.226 33.372-5.386 47.37-21.535 60.293h11.848c3.389 14.899 4.301 32.348 3.697 51.681h-5.847l5.765 2.161c-0.092 2.509-0.205 5.048-0.348 7.619-2.345-0.061-4.69-0.092-7.045-0.092-18.678 0-36.946 2.171-54.579 6.287-6.83-8.847-14.080-24.852-21.32-40.735l5.11 45.117c-10.854 3.338-21.422 7.424-31.642 12.216l-4.69-7.813 1.341 9.421c-17.92 8.724-34.744 19.599-50.156 32.358l-11.489-13.783c7.537-3.226 17.224-9.687 23.685-17.224-34.765-2.611-78.653-21.473-116.275-47.37 29.235 39.311 56.248 76.964 58.143 95.816l12.923-5.386 11.653 7.762c-17.9 18.586-33.198 40.028-45.24 63.693-12.145 1.669-26.030-2.386-40.694-9.021 12.134 9.882 23.204 20.091 30.505 31.508-3.277 8.223-6.175 16.66-8.673 25.303l-11.069 18.555 3.615 14.766c-0.952 5.929-1.731 11.919-2.314 17.981-16.742-2.57-38.963-12.831-40.069-25.211-16.148 15.073-14.418-2.376-20.46-13.998-12.892 25.846-141.64 29.338-195.922 34.458 84.296 20.634 174.203 33.864 219.628 61.368v-23.685l35.533-4.444c0.041 15.514 1.178 30.781 3.328 45.691 2.488 0.532 4.198 1.628 4.198 2.888 0 1.116-1.321 2.099-3.338 2.683 1.382 8.53 3.123 16.937 5.171 25.19-8.1 5.11-19.159 10.639-30.904 16.261 12.687-0.788 26.225-1.874 35.021-1.26 6.676 22.016 15.729 42.844 26.941 62.024l-4.895-1.556c-1.782 1.526-0.461 4.372-2.499 6.359l-14.725-4.209 6.84 12.165c-6.543 6.779-14.254 15.032-23.48 24.422l1.567 8.632-6.984-3.174c-1.782 1.772-3.604 3.584-5.489 5.427l-0.44 5.284-3.215-1.731c-8.581 8.284-18.207 17.162-29.082 26.491v17.224l-7.537-5.386 5.663 19.814-0.942 1.208-14.408-3.789 4.649 16.282-4.076 5.212c-13.097-11.93-27.3-23.040-42.568-33.331l-106.076 182.989 1.638 3.277-2.877-1.147-21.883 37.755 126.444-64.993c0.983-1.751 2.12-3.594 3.4-5.489 5.499-8.12 11.356-13.763 13.076-12.595 1.331 0.901-0.195 5.581-3.471 11.397l90.952-46.746c-10.66-17.736-23.009-34.181-36.936-49.449l22.938-12.995 9.687 8.612 26.972-24.074c-0.297-0.44-0.563-0.901-0.788-1.382-3.348-7.291 2.693-17.234 13.496-22.2 5.693-2.611 11.551-3.308 16.333-2.335l20.818-18.575c7.977 3.727 15.708 8.827 23.296 14.735-2.836-8.888-7.086-16.978-12.431-24.433l6.758-6.031c20.111 18.217 43.172 33.014 68.731 43.551l-5.591 14.899h-1.485v3.953l-5.386 14.356h-4.311c0 0 0.266 5.11 0.676 9.687l-2.826 7.537c-2.109 1.249-5.294-1.29-8.612-4.311 1.864 19.087-0.102 36.209-3.226 52.756 7.711-16.876 16.404-31.498 26.911-41.984l-6.461-3.226 21.535-49.347c25.324 8.95 52.9 13.824 82.36 13.824 0.829 0 1.659-0.020 2.478-0.031 0.748 9.083 0.594 20.419 0.358 31.959l-6.615 3.604 6.973 3.277 1.352 25.59-13.701 3.43 14.551 12.739 2.673 50.79-25.836-27.996c17.275 44.145 31.59 91.167 43.581 140.483 1.628 0.573 2.714 1.577 2.714 2.714 0 0.84-0.584 1.597-1.536 2.171 7.025 29.368 13.24 59.546 18.77 90.419 11.909-73.277 25.385-144.957 41.984-213.176-9.421 15.145-18.811 28.303-27.996 31.222l-2.007-68.506 12.769-2.55-13.046-6.81-0.891-30.607c4.209-2.396 8.55-4.567 8.55-4.567l-8.796-3.512c-2.365-15.534-5.448-31.795-5.816-45.302 5.222-0.973 10.394-2.099 15.514-3.369 12.759 4.628 21.627 14.080 16.323 19.886l15.073 26.911 3.226-30.147c-3.901-10.424-3.932-19.753 0.287-27.863 18.729-7.444 36.444-16.906 52.869-28.119l46.971 43.059c-1.27 7.66-10.762 20.46-31.222 24.76l103.363 64.87c1.014-0.174 2.099-0.266 3.215-0.266 5.949 0 10.762 2.652 10.762 5.919 0 0.891-0.369 1.731-1.014 2.488l94.679 59.412-86.159-169.308c-0.963 0.164-2.038 0.266-3.164 0.266zM687.196 569.856l-57.047-58.921c20.224-19.261 34.898-44.626 40.765-73.974 0.358-1.792 0.666-3.584 0.952-5.376 6.902-4.895 13.773-8.94 17.613-8.94 9.687 0 17.224 5.386 19.384 9.687 9.687-5.386 37.683 2.15 37.683 2.15 2.314 0.87 4.301 2.232 6.042 3.963-3.369 22.897-9.994 44.708-19.354 64.942-10.015-0.338-26.839-3.922-43.756-7.537 12.759 8.765 26.829 17.613 34.181 26.020-10.097 17.592-22.374 33.71-36.465 47.985zM443.269 622.561c-19.999-7.803-38.656-18.36-55.521-31.242 7.404-9.083 19.528-21.207 34.191-35.164 9.011 1.618 17.828 4.639 26.388 9.677-7.987-6.728-14.346-13.169-18.115-19.128 7.711-8.847 14.52-16.855 18.811-22.262 15.77 11.008 34.038 19.036 54.149 23.060 2.263 0.451 4.516 0.84 6.779 1.188-3.492 22.794 2.068 45.332 14.623 67.676-5.519 3.727-9.298 0.461-12.718-4.239 2.232 7.629 1.311 16.241-1.167 25.354-21.545-1.382-42.291-5.796-61.819-12.82v-7.68l-5.601 5.581zM309.617 484.577c5.97-4.25 21.35-21.033 21.35-21.033l-21.75 3.482c0.727-14.971 1.362-29.87 2.314-44.698 28.436-4.403 62.843-10.547 76.626-10.691 0.502 22.18 6.277 43.52 16.353 62.525-7.496 7.639-19.64 19.712-23.153 21.381-5.192 2.458-9.492-3.994-9.492-3.994s-0.85 6.779-1.731 14.623c-8.407 13.179-18.985 24.34-32.297 32.963-11.622-16.701-21.156-35.021-28.221-54.559zM517.161 293.069c5.212 14.981 9.472 32.522 12.984 52.060 5.437-26.399 2.478-38.236 3.625-52.48 6.584 0.266 13.24 1.044 19.917 2.376 15.667 3.133 30.054 9.021 42.732 17.039 1.669 7.404 1.731 16.343-1.679 15.831 0 0-18.299 6.461-19.384 9.687s-9.687 22.61-9.687 22.61 20.46-7.537 24.76-6.461 9.687 2.15 9.687 2.15c-3.461-8.643 6.298-18.924 19.18-25.221 14.469 14.961 24.924 33.341 30.147 53.361-15.452 1.802-32.020 1.915-49.326 0.932l-15.073 9.687-13.998 6.461c28.15 12.042 50.565 23.306 48.445 31.222 10.076-5.038 19.599 3.052 29.010 13.619-6.287 21.514-18.442 40.059-34.437 54.323-14.94-9.093-40.735-36.403-64.553-60.406 18.422 27.638 36.536 54.999 45.558 74.291-9.82 5.806-20.5 10.271-31.734 13.189-1.761-3.594-2.673-7.117-3.052-10.578-3.789-7.7-4.823-14.868 0-20.92 0 0-11.848 0-12.052-3.809-8.397-8.038-13.926-33.843-17.009-47.872l-18.299 31.222c-4.219-0.625 2.908 46.162 1.044 54.692-2.355-0.338-4.71-0.727-7.066-1.208-16.435-3.287-31.468-9.615-44.595-18.237 1.29-18.586 12.063-52.685 26.931-80.466-19.814 9.492-39.291 18.954-47.37 26.911-2.857-3.113-1.966-7.322 0-11.848-8.038 6.164-15.964 11.254-23.685 14.316-6.195-13.445-9.902-28.047-10.66-43.141 9.933-5.734 33.659-14.797 66.642-26.081-21.432-7.117-46.961-14.991-59.423-20.46 7.26-19.446 19.466-36.137 34.918-48.978 9.533 4.895 17.572 11.387 19.118 24.218 10.629 3.092 22.794 13.169 35.533 25.836-13.763-19.845-23.788-37.192-24.76-48.445-9.165-1.126-12.39-6.349-13.097-13.332 15.237-8.796 32.522-14.408 50.708-16.087zM623.227 190.874c17.879 8.612 34.488 19.497 49.48 32.307-4.669 6.595-15.452 17.132-24.668 26.655l5.386 4.311-18.299 8.612-21.535 15.073 13.998 11.848-13.507 4.68c-16.067-11.479-34.796-19.835-55.45-23.972-6.902-1.382-13.793-2.232-20.613-2.611l2.212-43.039 7.158-5.571-6.308-11.039 1.997-38.871c23.726 1.853 46.438 7.393 67.604 16.036-0.952 4.925-4.69 12.421-8.387 19.876l20.931-14.295zM717.476 337.582v-9.687c7.465-2.14 14.95-5.837 24.556-2.97 5.437 15.677 9.298 32.123 11.366 49.142-7.885 7.936-38.707 15.196-42.373 15.196-4.311 0-15.073-6.461-15.073-6.461l-25.252-2.017c-5.202-24.791-17.039-47.657-33.935-66.253 3.932-3.799 8.049-7.629 8.049-7.629l17.224-12.923 9.687-11.848 5.386-4.311 7.537-6.461c7.926-4.495 15.954-8.11 24.248-9.349 9.984 13.517 18.575 28.16 25.549 43.725-5.079 4.772-12.943 9.185-21.258 13.537l-3.226-3.226-18.299 16.148 25.815 5.386zM393.349 370.575c-17.766-1.249-47.043-5.366-74.988-9.134 3.441-19.22 8.428-38.318 15.892-57.272 6.799 0.174 13.599 0.911 20.398 2.191-5.54-3.748-11.090-7.506-16.63-11.254 7.199-16.425 16.374-32.737 28.17-48.937 21.883 17.787 42.506 39.096 61.676 64.481-15.944 16.374-28.047 36.731-34.519 59.924zM600.115 625.244l-3.226-10.957-2.263 12.81c-7.608 2.458-15.38 4.526-23.306 6.164l-10.066-86.036c13.466-2.857 26.337-7.619 38.257-14.049l55.286 64.020c-16.763 11.684-35.123 21.176-54.682 28.047zM523.776 168.581c-3.328 30.874-8.212 64.512-11.94 99.031v1.126c-20.367 2.632-39.68 9.605-56.719 20.111-35.523-31.601-68.567-61.921-57.283-80.906 16.251-11.080 33.956-20.101 52.777-26.696l20.326 35.768 2.898-42.537c16.067-3.768 32.778-5.786 49.94-5.898z"></path>
</svg>
