<!-- Generated by IcoMoon.io -->
<svg version="1.1" xmlns="http://www.w3.org/2000/svg" width="300" height="300" viewBox="0 0 1024 1024">
<title></title>
<g id="icomoon-ignore">
</g>
<path fill="#FFF" d="M480.778 594.944h15.821l1.495-15.073 5.274-0.748 0.748 15.821h12.831l0.594-16.22h10.394l0.594 16.22h12.831l0.748-15.821 5.274 0.748 1.495 15.073h15.821l1.495-15.821 7.762 0.102 4.332 15.718h9.052c0 0-3.236-45.128-6.717-51.098-4.628-7.864 24.627 7.311 33.833-0.154 5.12-4.178 42.486-54.63 14.971-86.467-6.861-7.956 26.911-66.867 9.103-118.958-20.941-61.092-82.79-70.646-109.548-71.895 0 0-2.284-0.154-6.164-0.154-0.051 0-0.051 0-0.102 0s-0.051 0-0.102 0c-3.932 0-6.164 0.154-6.164 0.154-26.716 1.239-88.607 10.793-109.507 71.895-17.859 52.142 15.974 111.043 9.103 118.958-27.515 31.836 9.902 82.34 14.971 86.467 9.206 7.516 38.461-7.711 33.833 0.154-3.482 5.97-6.717 51.098-6.717 51.098h9.052l4.332-15.718 7.762-0.102 1.505 15.821zM541.082 485.294c7.26-3.779 16.118-7.711 26.522-10.947 12.882-4.035 24.474-5.868 33.782-6.717 0.451-0.051 0.891 0 1.341 0.195 7.711 2.836 10.199 7.465 10.895 8.806 4.332 9.103-1.29 23.726-16.067 33.034-0.399 0.246-0.799 0.399-1.239 0.451-6.769 0.942-23.429 2.284-40.346-7.209-7.014-3.932-12.186-8.704-15.77-12.739-1.362-1.546-0.963-3.932 0.881-4.874zM518.144 510.413c1.495-1.495 3.43-2.785 5.724-4.035 2.243 1.239 4.229 2.54 5.724 4.035 11.592 11.438 11.94 27.259 11.438 34.929-0.051 1.044-1.341 1.444-1.987 0.645-1.587-2.038-3.779-4.383-6.717-6.513-3.133-2.284-6.124-3.727-8.458-4.577-2.284 0.85-5.325 2.284-8.458 4.577-2.939 2.14-5.12 4.475-6.717 6.513-0.645 0.799-1.935 0.399-1.987-0.645-0.502-7.711-0.154-23.48 11.438-34.929zM449.587 510.116c-0.451-0.051-0.891-0.195-1.239-0.451-14.776-9.349-20.398-23.931-16.015-33.034 0.645-1.393 3.133-5.97 10.895-8.806 0.451-0.154 0.891-0.195 1.341-0.195 9.349 0.85 20.941 2.683 33.782 6.717 10.394 3.236 19.251 7.168 26.522 10.947 1.792 0.942 2.191 3.338 0.85 4.874-3.584 4.035-8.755 8.806-15.77 12.739-16.886 9.503-33.597 8.161-40.366 7.209z"></path>
<path fill="#FFF" d="M522.742 261.12c31.744 1.024 54.272 5.12 82.944 21.504l16.384-12.288-37.888-37.888-17.408 21.504-20.48-5.12-6.144-108.544 29.696-18.432-47.104-75.776-47.104 75.776 29.696 18.432-6.144 108.544-20.48 5.12-17.408-21.504-37.888 37.888 16.384 12.288c28.672-16.384 51.2-20.48 82.944-21.504z"></path>
<path fill="#FFF" d="M241.142 273.408l17.51 17.51c0.85-10.138 5.11-18.483 12.411-24.207l5.56-4.362 1.751 6.851c0.573 2.243 2.99 4.209 6.052 6.697 0.901 0.737 1.874 1.516 2.867 2.376 0.748-1.69 2.202-4.116 4.229-6.922l-27.853-23.542 4.096-35.84-84.992-17.408 22.528 88.064 35.84-9.216z"></path>
<path fill="#FFF" d="M337.92 310.548c-2.867 6.84-6.861 12.298-12.083 16.425 2.099-0.594 4.209-1.157 6.298-1.71l5.775-1.505v5.97c0 9.779-3.42 20.634-9.574 30.874l1.608 1.608-12.001 12.575v6.144l21.268-9.452 66.796 66.796c-3.82-23.163-11.264-45.056-10.24-78.848l-23.798-20.111 12.534-18.801h21.504l4.096-45.056h-51.2l4.096 26.624-19.016 13.588-6.062-5.12z"></path>
<path fill="#FFF" d="M470.19 607.58l5.437-5.468h-24.576l6.144-53.248c-8.008 4.608-17.818 4.833-29.696 0l-22.856 20.347c16.364 4.465 28.365 11.868 36.516 22.559 6.533 8.561 10.639 19.292 12.431 32.502l1.751-1.761c-0.399-3.82-0.635-7.854-0.707-12.124l-0.082-5.335 5.294 0.696c3.625 0.461 7.066 1.085 10.342 1.833z"></path>
<path fill="#FFF" d="M395.561 606.331c-0.225-0.768-0.44-1.546-0.635-2.324-0.102 0.553-0.205 1.096-0.317 1.649 0.317 0.225 0.635 0.451 0.952 0.676z"></path>
<path fill="#FFF" d="M382.218 623.636c0.584-0.133 1.167-0.256 1.772-0.379-0.102-0.072-0.205-0.143-0.307-0.225-0.481 0.205-0.973 0.41-1.464 0.604z"></path>
<path fill="#FFF" d="M758.19 278.262c0.993-0.85 1.956-1.638 2.867-2.376 3.062-2.488 5.478-4.444 6.052-6.697l1.751-6.851 5.56 4.362c7.301 5.734 11.561 14.080 12.411 24.207l17.51-17.51 35.84 9.216 22.528-88.064-84.992 17.408 4.096 35.84-27.853 23.542c2.017 2.806 3.471 5.243 4.229 6.922z"></path>
<path fill="#FFF" d="M660.982 320.512l12.534 18.801-23.798 20.111c1.024 33.792-6.42 55.685-10.24 78.848l66.796-66.796 21.268 9.452v-6.144l-12.001-12.575 1.608-1.608c-6.144-10.24-9.574-21.105-9.574-30.874v-5.96l5.775 1.505c2.089 0.543 4.198 1.116 6.298 1.71-5.222-4.127-9.216-9.585-12.083-16.425l-6.052 5.12-19.026-13.599 4.096-26.624h-51.2l4.096 45.056h21.504z"></path>
<path fill="#FFF" d="M590.121 622.51l1.751 1.761c1.792-13.21 5.888-23.941 12.431-32.502 8.161-10.691 20.152-18.094 36.516-22.559l-22.845-20.347c-11.878 4.833-21.688 4.608-29.696 0l6.144 53.248h-24.576l5.437 5.468c3.277-0.748 6.717-1.372 10.342-1.843l5.294-0.696-0.082 5.335c-0.072 4.28-0.317 8.305-0.717 12.134z"></path>
<path fill="#FFF" d="M650.865 605.655c-0.113-0.553-0.215-1.106-0.317-1.649-0.205 0.788-0.41 1.567-0.635 2.324 0.317-0.225 0.635-0.451 0.952-0.676z"></path>
<path fill="#FFF" d="M663.255 623.636c-0.492-0.195-0.983-0.389-1.454-0.604-0.102 0.072-0.205 0.143-0.307 0.225 0.594 0.123 1.178 0.246 1.761 0.379z"></path>
<path fill="#FFF" d="M525.66 808.458c-0.686 0-1.372 0-2.058 0-14.182-0.061-28.406-0.799-42.65-2.181l-2.243 61.051 44.032 114.688 44.032-114.688-2.222-60.518c-12.995 1.085-25.958 1.649-38.892 1.649z"></path>
<path fill="#FFF" d="M291.318 281.6c-0.522 1.956-0.922 4.014-1.26 6.134-6.185-8.1-14.469-10.813-16.148-17.398-19.057 14.961-9.646 47.145 3.236 59.238-1.167 5.366-2.212 10.67-3.133 15.923-11.54-10.916-22.682-16.179-27.75-28.068-21.678 28.314 1.731 61.655 22.692 74.598-0.164 4.424-0.236 8.806-0.215 13.148-16.804-16.456-28.426-12.595-37.253-21.064-8.735 31.836 20.593 62.505 41.892 69.827 0.686 3.615 1.464 7.188 2.314 10.742-18.022-11.315-30.403-7.66-39.885-13.486-5.14 32.625 34.232 63.355 56.381 60.406 1.556 3.277 3.195 6.523 4.905 9.728-24.115-7.598-33.567-2.744-46.346-5.837 8.878 36.526 53.197 55.644 77.435 51.19 5.14 6.011 10.598 11.889 16.384 17.613-30.863-2.98-38.902 4.977-53.309 5.14 18.381 29.573 71.864 39.916 92.877 28.232 3.84 2.785 7.782 5.54 11.817 8.243-31.355 4.086-37.837 13.619-52.521 16.968 24.504 23.941 76.923 24.054 99.236 10.506 6.82 3.523 13.834 6.953 21.033 10.312-32.276 6.523-37.949 16.783-52.562 21.35 18.412 15.35 49.521 18.002 73.8 12.974l-0.696 19.057c14.561 1.311 29.102 1.976 43.602 1.976 0.061 0 0.113 0 0.164 0 11.069 0 22.159-0.389 33.29-1.157l-0.727-19.876c24.279 5.018 55.398 2.376 73.8-12.974-14.612-4.567-20.285-14.828-52.562-21.35 7.209-3.348 14.223-6.789 21.033-10.312 22.303 13.558 74.732 13.435 99.236-10.506-14.684-3.348-21.166-12.882-52.521-16.968 4.035-2.703 7.967-5.458 11.817-8.243 21.012 11.684 74.496 1.341 92.877-28.232-14.397-0.164-22.436-8.12-53.309-5.14 5.786-5.724 11.244-11.602 16.384-17.613 24.238 4.454 68.547-14.664 77.435-51.19-12.78 3.092-22.231-1.761-46.346 5.837 1.71-3.215 3.348-6.451 4.905-9.728 22.149 2.949 61.522-27.781 56.381-60.406-9.482 5.816-21.862 2.171-39.885 13.486 0.84-3.543 1.618-7.127 2.314-10.742 21.299-7.322 50.616-37.98 41.892-69.827-8.827 8.468-20.449 4.608-37.253 21.064 0.020-4.342-0.051-8.724-0.215-13.148 20.961-12.943 44.37-46.275 22.692-74.598-5.059 11.878-16.21 17.142-27.75 28.068-0.922-5.253-1.966-10.568-3.133-15.923 12.882-12.104 22.292-44.278 3.236-59.238-1.679 6.584-9.964 9.298-16.148 17.398-0.338-2.12-0.727-4.178-1.26-6.134 2.243-1.075-21.514-35.738-47.104-32.768 4.608 10.138 3.42 29.409 27.044 54.077-7.352-1.444-15.647-1.423-24.504-0.543 5.878 21.105 20.214 30.433 47.739 29.87 1.167 7.117 2.15 14.162 2.939 21.135-11.254-11.643-25.917-17.848-48.097-23.634 0 23.89 22.262 53.535 50.504 62.331 0.051 5.898-0.061 11.725-0.328 17.5-8.448-9.718-26.235-15.36-38.922-22.518-10.957 28.744 5.304 46.060 34.099 64.092-1.044 5.448-2.243 10.834-3.615 16.159-6.339-12.298-20.398-23.859-33.567-34.12-12.186 23.060 0.922 52.234 21.217 70.164-2.908 6.717-6.113 13.312-9.646 19.763 0.43-14.746-10.834-27.986-20.664-43.981-26.194 22.436-23.992 44.718-3.932 80.384-4.588 5.612-9.482 11.090-14.674 16.435 3.297-12.749 1.454-27.126-3.031-42.353-31.212 14.602-41.8 36.844-33.659 74.056-5.448 3.973-11.11 7.834-17.009 11.592 8.397-12.677 10.353-29.010 9.226-47.084-37.202 7.905-53.402 29-52.746 70.932-6.031 2.836-12.227 5.601-18.616 8.274 6.676-11.284 9.124-25.426 9.38-41.052-11.264 1.485-20.746 4.291-28.58 8.612l-0.092-2.468 0.87-14.336h-71.373l0.87 14.336-0.092 2.468c-7.844-4.321-17.316-7.127-28.58-8.612 0.256 15.626 2.703 29.768 9.38 41.052-6.39-2.673-12.585-5.427-18.616-8.274 0.655-41.933-15.555-63.017-52.746-70.932-1.126 18.074 0.829 34.396 9.226 47.084-5.888-3.758-11.561-7.619-17.009-11.592 8.141-37.212-2.437-59.453-33.659-74.056-4.475 15.227-6.328 29.614-3.031 42.353-5.192-5.345-10.086-10.813-14.674-16.435 20.060-35.666 22.262-57.948-3.932-80.384-9.83 16.005-21.094 29.235-20.664 43.981-3.533-6.451-6.738-13.036-9.646-19.763 20.306-17.93 33.403-47.104 21.217-70.164-13.169 10.25-27.218 21.811-33.567 34.12-1.372-5.315-2.57-10.701-3.615-16.159 28.795-18.033 45.056-35.348 34.099-64.092-12.687 7.158-30.474 12.8-38.922 22.518-0.256-5.775-0.369-11.612-0.328-17.5 28.242-8.806 50.504-38.441 50.504-62.331-22.18 5.786-36.844 11.991-48.097 23.634 0.788-6.973 1.772-14.019 2.939-21.135 27.535 0.573 41.861-8.755 47.739-29.87-8.858-0.881-17.152-0.901-24.504 0.543 23.624-24.658 22.436-43.93 27.044-54.077-25.549-2.97-49.316 31.693-47.063 32.768z"></path>
<path fill="#FFF" d="M703.488 624.978c-11.233 2.273-21.965 2.652-30.945 1.137 7.209 2.273 12.452 4.803 17.019 7.004 4.639 2.232 8.643 4.157 13.527 5.274l8.243 1.874-6.052 5.908c-12.032 11.756-30.833 19.067-52.951 20.613-6.154 0.43-12.329 0.369-18.278-0.123l27.351 27.505 0.164-0.205c2.284-2.949 0.358-13.937-0.369-18.074-0.399-2.294 0.113-4.618 1.464-6.523 1.352-1.915 3.359-3.185 5.663-3.584 17.213-2.949 37.274-2.263 61.317 2.089 4.291 0.778 7.537 4.372 7.905 8.735 2.171 26.061 5.97 47.452 11.602 65.393 1.434 4.577-0.758 9.574-5.089 11.633-5.386 2.56-10.783 5.007-16.179 7.373l24.238 24.402 110.592 43.008-49.152-105.472-110.070-97.966z"></path>
<path fill="#FFF" d="M296.97 741.386c7.905-19.313 12.657-41.656 14.131-66.406 0.276-4.649 3.83-8.458 8.438-9.062 18.852-2.468 36.168-2.488 51.456-0.072 4.68 0.737 7.956 5.151 7.301 9.841-1.198 8.53-0.963 14.080 0.696 16.476l2.417 3.502c0.307 0.092 0.614 0.174 0.922 0.266l29.082-29.245c-5.949 0.492-12.124 0.553-18.278 0.123-22.118-1.546-40.919-8.868-52.951-20.613l-6.052-5.908 8.243-1.874c4.884-1.116 8.888-3.041 13.527-5.274 4.557-2.202 9.81-4.731 17.019-7.004-8.98 1.505-19.722 1.137-30.945-1.137l-110.049 97.946-49.152 105.472 110.592-43.008 24.238-24.381c-5.284-2.324-10.557-4.721-15.821-7.229-4.649-2.191-6.758-7.649-4.813-12.411z"></path>
<path fill="#FFF" d="M328.52 685.056c17.94 4.782 33.792 9.216 46.080 12.288-2.079-3.011-3.215-8.264-1.556-20.091 0.276-1.956-1.075-3.768-3.031-4.076-15.391-2.427-32.133-2.243-49.992 0.092-2.191 0.287-3.86 2.089-3.994 4.291-1.485 24.883-6.164 47.657-14.5 68.045-0.911 2.243 0.072 4.813 2.263 5.847 142.868 67.809 288.696 70.595 437.883-0.154 2.048-0.973 3.082-3.308 2.396-5.468-5.98-19.046-9.728-41.492-11.817-66.499-0.174-2.058-1.679-3.758-3.717-4.127-21.381-3.871-41.513-5.171-59.546-2.079-1.966 0.338-3.297 2.212-2.949 4.168 1.628 9.247 2.652 17.879-0.635 22.108 16.384-2.048 34.263-8.724 56.32-14.336-131.574 52.081-262.646 52.265-393.206-0.010z"></path>
</svg>
