<!-- Generated by IcoMoon.io -->
<svg version="1.1" xmlns="http://www.w3.org/2000/svg" width="300" height="300" viewBox="0 0 1024 1024">
<title></title>
<g id="icomoon-ignore">
</g>
<path fill="#FFF" d="M134.861 452.301c7.27-3.482 17.101-6.451 29.082-4.813 15.667 14.029 33.075 17.92 50.893 19.354 0 0-2.458 24.166-6.042 26.624s-27.853 1.229-27.853 1.229 10.957 16.896 16.077 19.968c21.504 1.843 32.461-3.072 37.274-9.114 33.894 3.686 26.010-28.365 44.851-33.894 3.686 1.229 47.309 47.309 63.078 52.122-3.174-8.499-2.662-17.92 0-27.853 9.728 0 33.894 26.624 50.893 29.082-5.12-12.186-9.728-22.733-8.499-33.894 11.776 8.090 26.214 14.029 43.827 17.613-6.042-13.619-9.83-26.522-9.83-38.195 6.246-5.018 14.131-7.066 23.040-7.27 0 0 23.040 16.896 27.853 33.894-3.584 13.312-123.597 56.934-123.597 95.744 0 13.414 71.475 129.741 71.475 129.741-33.894 26.419-70.963 45.056-113.971 49.664-5.018 0.819-10.854-24.166-13.312-27.853-6.042-6.042-38.81-27.853-43.622-29.082-40.96-3.482-46.080 1.229-44.851 25.498 15.872-4.198 28.262-4.198 35.123 2.458l2.458 29.082c0 0 23.040 25.498 18.227 30.31-4.403 4.403-27.853 0.819-30.208-0.819-1.741 3.379-19.763 25.293-23.040 27.443-3.584 2.355-20.070 23.552-20.582 27.853-1.024 8.192 19.763 27.341 23.040 23.040-3.072-14.131-0.102-23.757 8.499-29.082 0 0 16.998 9.728 31.539 6.042 14.541-3.584 32.768-14.541 32.768-14.541-6.144 11.162-10.957 26.624-3.686 41.165 0 27.853 34.304 53.862 60.621 35.123 0 0-25.395-12.083-27.853-23.040 19.354-16.998 23.040-32.768 23.040-32.768-6.042-10.138-8.499-18.637-2.458-25.498 49.050-3.072 100.864-3.584 147.866 4.813-4.608-14.029-13.005-25.088-24.269-33.894 20.787-0.512 41.779 2.15 63.078 7.27-1.126-8.806-6.861-15.462-17.101-20.173 14.95-0.102 29.184-0.307 42.598-0.41 0.512-4.71-1.126-8.294-4.813-10.957 9.83-2.355 20.378-0.614 31.539 3.686-29.082-39.936-48.742-83.354-32.768-132.096 0 0 37.581 105.37 61.85 116.326 3.174 1.331 52.122-2.458 52.122-2.458 1.229 37.581-9.626 100.557-26.624 104.243-20.582 1.229-35.123-27.853-58.163-13.312-55.706 3.584-61.747 27.853-48.435 55.706 2.458 1.024 20.582-25.498 37.581-24.269 6.042 1.126 8.499 18.125 16.998 19.354 2.458 4.813 18.227 8.499 18.227 8.499 0 4.813-25.498 14.541-30.31 42.394-15.77 25.498-3.584 58.163 23.040 61.85-6.554-0.512-4.608-36.966 8.499-38.81 5.427-0.717 21.811-8.499 24.269-13.312s6.042-27.853 8.499-26.624c2.458 1.229 1.434 22.835 3.686 21.811 12.083 7.27 30.31 24.269 36.352 32.768 8.499 7.27 43.622 1.229 43.622 1.229-12.288-7.885-22.938-16.384-27.853-26.624 0 0 10.342-17.818 7.27-23.040-2.458-4.198-8.499-25.498-8.499-31.539 25.395-25.498 72.704-37.581 87.245-53.35-19.763-2.048-39.526-4.096-41.165-18.227 5.325-24.678 25.498-52.326 56.934-82.432-13.517 3.789-26.112 6.963-33.894 7.27 17.408-15.155 28.877-35.533 37.581-58.163-8.602 4.506-16.998 8.090-24.269 6.042 13.005-12.493 19.251-34.099 16.998-54.579-11.469 16.282-26.624 27.853-41.165 33.894 10.854-23.654 21.197-48.742 15.77-59.392-61.85 49.766-126.054-18.125-16.998-33.894-1.024-0.307 26.112 5.734 44.851 7.27 44.954-8.294 86.016-44.237 96.973-89.702l-26.624 13.312c16.282-21.197 29.491-63.59 42.394-109.056-8.090 3.789-15.974 5.734-23.040 2.458 12.083-18.842 21.299-42.189 29.082-67.891-11.059 5.632-21.811 10.65-29.082 9.728 11.264-31.13 17.92-60.211 16.998-86.016-10.035 8.090-19.763 14.643-29.082 18.227 1.843-23.654-1.024-54.477-8.499-79.974-7.987 12.39-17.408 22.938-29.082 30.31-5.53-23.859-16.179-46.49-32.768-67.891-9.421 32.87-13.926 59.904-23.040 66.662-4.71-10.138-10.547-18.227-19.354-20.378 3.686 33.997 8.602 69.632 0 87.040-2.458-6.963-6.246-10.342-11.469-10.138-0.819 29.286-3.174 55.706-11.571 71.987-6.963-1.638-13.824-3.277-20.582-4.813 0.819 18.944 8.499 45.875 18.227 75.162 0 0-8.499 2.458-16.998 1.229 1.229 9.728 30.618 72.294 30.925 92.16-16.384 23.142-35.84 24.269-40.653 3.686 0 0 0-36.352-9.728-64.205-8.499-27.955-61.85-57.037-70.349-76.39-3.686-9.728 0.819-70.042 29.082-75.162 8.909 1.024 19.968 7.578 31.539 15.77 1.434-13.619 1.741-26.419 0-37.581l26.624 13.312c-0.614-13.926-4.198-28.57-9.728-43.622h20.582c-3.891-22.221-12.8-42.189-25.498-60.621 4.813-2.048 11.878 2.56 19.354 8.499 3.277-18.739-8.499-40.346-26.624-63.078l25.498 1.229c-7.475-20.275-22.118-38.298-42.394-54.579 5.325-4.506 16.486-4.608 29.082-3.686-23.040-20.89-48.64-41.062-75.162-50.893 4.813-4.915 11.776-8.909 20.582-12.083-23.552-7.782-52.326-13.005-83.661-16.998 7.27-8.704 20.89-15.667 31.539-20.582-40.038-7.782-80.077-3.584-105.677 13.312-53.146-31.539-84.89-29.389-142.541 2.253 0 0 66.662 15.77 55.706 46.080-2.458 9.728-44.851 60.621-44.851 60.621l10.957 19.354c-25.907 21.709-45.67 43.827-55.706 66.662 15.872 7.373 43.52 9.728 71.475 12.083 4.813-77.619 87.245-26.726 17.101 5.632 7.168 10.445 18.534 17.92 32.563 23.45 0 0 35.226-39.936 47.514-53.248 2.56 6.042-17.203 50.79-37.786 66.56-9.114 6.861-49.766 30.31-77.619 26.624-10.957 1.229-84.89-72.704-84.89-75.162 0-10.957 32.768-18.227 23.040-46.080-1.229-19.354-12.186-37.581-38.81-44.851 3.072 0.307 8.499 27.648 1.229 30.31-5.734 2.048-4.915 21.811-9.728 21.811s-6.042-27.853-6.042-27.853c-8.499 0.717-42.496-31.539-47.309-31.539-25.498-6.144-37.581 12.083-37.581 12.083 2.458-3.584 15.667-4.301 32.768 18.227 0 26.726 12.083 43.622 19.354 54.579-2.458 2.458-31.539 0-31.539 0-10.752-2.765-16.896-10.24-24.269-20.582-14.541 26.624-1.229 43.622 21.811 59.392 0 0 12.083 13.312 20.582 13.312 12.083-1.126 26.624-15.667 36.352 3.686 2.458 4.915 7.27 84.89 7.27 84.89 7.475-8.704 18.022-14.848 30.31-19.354-1.126 16.179 0.102 31.949 4.813 47.309 5.325-7.578 11.571-13.107 19.354-15.77-3.072 13.312-2.15 25.907 3.686 37.581 6.349-7.27 14.131-12.8 23.040-16.998 1.229 7.475 6.451 15.77 13.312 24.269 0 0 6.042-47.309 37.581-44.851 3.686 0 24.269 4.915 24.269 24.269s-69.837 38.4-134.554 30.31c-3.686-42.394-16.589-44.237-23.040-41.165-7.475-4.71-20.685-21.094-19.354-20.582-21.402-5.53-42.496-4.608-59.392 2.458 2.048-1.741 37.478 19.354 41.165 23.040-0.717 3.686 4.813 33.894 4.813 33.894-22.118-0.41-65.536 1.229-67.277 36.352zM411.853 134.758c-13.312 8.499-30.31 7.27-30.31 7.27 1.946-8.192 16.589-23.962 40.038-44.851 0 0 2.355 25.498-9.728 37.581z"></path>
<path fill="#FFF" d="M227.635 801.792c0.205-0.41 0.205-0.512 0-0.41s-0.205 0.307 0 0.41z"></path>
</svg>
