<!-- Generated by IcoMoon.io -->
<svg version="1.1" xmlns="http://www.w3.org/2000/svg" width="300" height="300" viewBox="0 0 1024 1024">
<title></title>
<g id="icomoon-ignore">
</g>
<path fill="#d16969" d="M772.039 125.565l1.188-1.782c-2.138-0.594-2.257 0.238-1.188 1.782z"></path>
<path fill="#FFF" d="M1024.119 647.662c-4.752-18.651 1.426-38.37-0.594-57.496-3.564-34.094-32.549-60.941-38.252-94.797-0.713-4.395-1.069-9.147 0.832-13.305 1.901-4.039 6.652-7.128 10.929-5.94 2.97 0.832 5.108 3.326 6.771 5.821 6.534 9.266 10.335 20.432 11.048 31.837 8.791-19.245 7.009-42.172-1.663-61.416s-23.64-35.044-40.39-47.874c-6.771-5.227-14.018-10.097-19.007-16.987-1.188-1.544-18.888-38.489-22.927-52.507-4.395-15.443-3.683-40.509-9.028-50.25 0.119 0.119 0.356 0.238 0.594 0.356 16.394 9.028 29.58 13.661 32.787 14.849 8.434 3.089 20.789 9.741 38.133 25.184-9.028-25.303-23.402-38.252-31.243-48.23-21.264-26.847-60.11-34.094-83.037-59.634-2.97-3.326-5.821-7.128-6.415-11.642s1.782-9.622 6.058-10.929c2.851-0.832 6.058 0.119 8.791 1.307 10.454 4.395 19.72 11.761 26.372 21.026-2.97-20.908-16.75-39.321-34.331-50.962s-38.727-17.106-59.753-18.888c-8.553-0.713-17.225-0.95-25.184-4.158-4.039-1.663-39.202-19.482-61.654-31.837 3.326-2.376 7.603-3.089 11.761-3.564 26.966-3.445 53.813-7.009 80.78-10.454-19.126-2.138-35.282-15.087-53.932-19.957-33.262-8.791-68.663 8.672-102.281 2.019-4.395-0.832-8.91-2.257-12.117-5.465-3.089-3.207-4.395-8.791-1.663-12.355 1.782-2.376 4.871-3.445 7.84-4.158 11.048-2.732 22.927-2.376 33.737 1.069-14.849-14.968-36.945-21.502-57.971-20.314s-41.221 9.503-59.159 20.67c-7.246 4.514-14.374 9.503-22.571 11.761-5.108 1.307-18.057 1.188-25.184 0.238 0.119-0.832 0.356-1.544 0.713-2.376 2.019-4.514 6.652-7.009 11.048-9.147 24.353-12.117 48.587-24.234 72.939-36.351-18.769 4.277-38.252-2.613-57.496-1.188-34.094 2.613-61.891 30.649-95.866 35.4-4.514 0.713-9.147 0.832-13.305-1.188s-7.128-6.771-5.702-11.048c0.95-2.851 3.564-4.871 6.058-6.534 9.503-6.177 20.789-9.622 32.193-9.979-18.888-9.266-41.934-8.197-61.416-0.119-19.601 8.078-35.876 22.571-49.181 38.964-5.346 6.652-10.335 13.78-17.463 18.532-7.128 4.871-34.331 12.592-27.916 7.009 3.445-3.089 30.886-46.329 22.571-43.954-27.323 22.571-56.071 32.431-69.375 60.703-3.089 6.652-6.652 15.681-14.018 15.443-7.84-0.119-10.573-10.691-10.097-18.651 1.544-30.174 13.78-59.753 33.856-82.324-30.411 25.778-54.764 43.003-65.218 98.361-2.495 7.959-4.752 16.275-9.86 22.808-6.415 8.078-16.394 12.236-24.353 18.888-15.443 12.948-21.739 34.094-36.232 47.993-2.257 2.257-4.752 4.158-7.246 6.058-11.761 8.672-19.839 14.73-21.739 16.156-24.59 19.482-10.335 68.187-10.454 67.475 4.633-1.307 28.867-48.824 62.129-53.101 6.177-0.713 9.622-2.732 12.473-1.188 5.583 2.97 6.534 11.879 6.415 15.8-0.713 25.541-10.573 50.725-27.323 69.969 11.285 2.019 24.471 3.564 32.906-4.277 4.039-3.801 6.058-9.028 8.434-14.018 10.81-23.284 28.629-43.122 50.606-56.308 7.128-4.277 15.681-9.266 16.037-17.581 0.238-4.514-2.257-8.791-2.97-13.305-2.138-13.542 11.998-24.59 25.541-26.253 13.424-1.663 26.966 2.732 40.627 3.089s29.461-5.108 33.381-18.175c0.95-3.207 1.663-7.009 3.089-9.979s13.542-4.752 16.631-3.564c-8.078-8.434-30.768 1.544-42.528 1.426-1.901 0-3.801-0.356-5.346-1.426-3.326-2.376-3.445-7.722-1.069-11.167s6.296-5.346 10.216-6.771c19.363-6.89 41.459-5.702 59.753 3.445 7.959 3.92 15.324 9.385 23.759 12.236 16.631 5.702 36.588 0 47.755-13.542-5.583 0.356-11.523 0.594-16.156-2.495-4.514-3.089-6.296-10.81-1.782-14.018 2.732-1.901 6.534-1.426 9.86-0.832 18.057 3.326 36.945 6.89 51.438 18.175 8.197 6.415 14.374 15.206 22.69 21.383 21.502 16.156 36.232 21.977 62.961 19.007-26.61-11.761-43.597-32.312-54.883-58.446 11.167 3.801 21.502 10.216 29.817 18.651 6.177 6.415 11.404 13.899 18.413 19.363 13.899 10.929 34.569 12.117 49.656 2.97-5.346-1.426-11.048-3.207-14.374-7.603s-2.495-12.236 2.851-13.78c3.326-0.832 6.652 0.832 9.622 2.495 16.037 9.028 8.91 18.532 18.888 33.975 5.583 8.672 8.791 18.888 14.612 27.441 14.968 22.214 43.478 30.174 69.732 36.113-23.759-22.096-49.299-47.755-49.893-80.186 0-2.019 0.594-4.158 1.663-6.177 19.601 14.493 54.526 41.578 57.021 59.516 1.188 8.91 0.832 17.938 3.207 26.61 4.633 16.987 20.432 30.411 38.014 32.074-3.445-4.395-7.009-9.147-7.009-14.73s5.346-11.285 10.573-9.385c3.089 1.188 4.752 4.633 6.177 7.722 7.365 16.75 14.968 34.45 13.78 52.744-0.594 10.335-4.158 20.432-4.633 30.768-1.307 26.847 16.75 50.25 34.213 70.682-5.94-31.837-10.929-67.712 7.959-94.084 0.119-0.119 0.119-0.119 0.238-0.238 9.385 16.631 13.78 31.599 15.918 41.934 3.089 14.493 9.266 43.478-2.97 71.989-5.465 12.592-8.434 14.136-11.523 24.115-5.227 16.869 1.069 36.588 14.968 47.399-0.594-5.465-0.95-11.404 1.901-16.156s10.573-6.652 13.899-2.257c2.019 2.732 1.544 6.534 1.069 9.86-2.732 18.057-5.702 37.064-16.512 51.913-6.058 8.434-14.374 15.087-20.314 23.521-15.443 21.977-12.711 51.438-8.91 78.047 11.761-29.223 26.135-61.297 54.645-74.246-3.326 19.126-9.622 33.619-14.374 43.003-6.534 12.473-17.819 34.094-40.865 47.636-12.473 7.365-15.8 6.177-24.353 12.236-14.612 10.335-21.739 30.174-16.987 47.517 2.97-4.752 6.296-9.741 11.523-11.761 5.227-1.901 12.711 1.307 12.711 6.89 0 3.445-2.613 6.177-5.108 8.553-13.424 12.948-15.8 2.495-33.737 7.722-10.216 2.97-21.026 3.089-31.124 6.177-26.135 7.959-42.053 33.5-55.358 57.258 28.392-16.631 61.060-33.975 93.015-24.947 0.356 0.119 0.713 0.238 0.95 0.356-21.026 18.651-49.299 48.705-63.792 43.003-8.316-3.207-16.156-7.959-24.828-10.097-17.106-4.158-36.47 3.207-46.448 17.7 5.465-0.95 11.404-1.663 16.275 0.95s7.365 10.216 3.089 13.78c-2.613 2.138-6.415 2.019-9.741 1.663-18.294-1.663-75.196-3.564-83.987-9.028-28.51-3.564-33.737 14.374-60.11 20.076 18.175 6.058 37.42 13.067 53.101 23.996-4.871 1.188-12.83 2.97-22.69 4.039-19.72 2.257-45.735 5.227-68.187-8.078-11.523-6.771-10.335-9.979-20.432-15.8-14.968-8.672-35.4-9.147-49.062-1.069 5.465 1.069 11.285 2.376 15.087 5.94 3.92 3.564 3.92 10.216-1.069 11.642-3.089 0.832-6.652-0.475-9.741-1.782-16.869-7.128-34.331-14.73-46.092-27.441-6.534-7.128-10.929-15.443-17.7-22.571-17.463-18.294-46.448-24.234-72.939-28.51 23.877 16.394 49.656 35.282 57.14 59.278-6.652-1.901-16.275-5.227-26.966-10.81-16.037-8.316-38.489-20.076-47.042-42.647-4.752-12.355-1.544-15.443-5.465-26.253-6.058-16.512-23.046-28.51-40.627-28.629 3.683 4.039 7.722 8.553 8.197 14.018s-4.395 11.761-9.741 10.216c-3.326-0.95-5.227-4.158-6.89-7.128-8.791-16.037-17.938-32.906-18.294-51.319-0.238-10.335 2.376-20.67 2.019-31.005-1.069-26.847-21.145-48.587-40.271-67.475 8.434 30.292 16.275 64.386 1.663 91.946-14.849-27.679-42.172-72.108-37.182-85.294 2.851-7.484 6.652-14.255 8.672-22.096 4.039-15.443 0.119-33.856-9.503-44.31 0.238 5.108 0.356 10.691-1.782 14.968s-7.603 5.821-9.86 1.663c-1.426-2.613-1.069-6.058-0.594-9.147 2.257-16.75 4.871-34.213 12.83-47.636 4.395-7.603 10.454-13.424 14.849-21.145 11.404-19.957 10.216-47.399 8.078-72.108-9.147 27.56-20.432 57.734-41.934 68.069-1.069 0.475-2.019 0.95-3.089 1.307 13.424-25.303 0.238-41.34 15.562-70.682 7.603-14.73 12.236-13.186 18.175-28.154 9.028-22.452 0-53.101 0-53.101s-9.503 32.431-25.303 25.778c-15.8-6.771 4.395-28.867 16.275-37.658s29.698-61.060 28.51-61.773c-2.019-1.307-6.771 22.214-26.966 29.342-12.592 4.514-38.489 24.828-47.874 47.874-7.246 17.819 0.356 22.333-2.376 74.484-0.832 15.918-2.613 48.23-8.316 48.705-4.039 0.356-4.752-14.255-11.523-28.154s-0.356-27.679-0.356-27.679-17.225 11.285-19.363 27.679c-2.138 16.512 9.147 20.908 16.275 48.349 2.613 9.979 3.207 17.581 3.564 23.165-2.613-1.426-5.702-2.851-8.316-4.514-14.255-8.91-25.303-21.026-28.867-44.31 2.732 17.463-7.959 17.819 0 36.826 12.236 29.342 28.867 46.567 32.074 78.047 0.475 4.158 0.594 8.553-0.832 12.355s-4.752 6.534-7.84 5.227c-2.019-0.832-3.445-3.207-4.633-5.583-4.395-8.91-6.771-19.363-7.009-29.936-6.652 17.581-5.94 38.964-0.238 57.021 5.583 18.057 15.8 33.262 27.323 45.617 2.495 2.613 5.108 5.465 7.959 9.147 2.851 3.564 4.633 6.415 5.108 7.128 8.434 12.83 33.143 29.698 31.243 35.163-1.188 3.326-54.17-10.929-57.615-21.977 7.128 23.165 32.074 32.668 55.952 47.28 11.404 7.009 16.037 27.085 11.761 31.124-2.851 2.613-10.097-0.832-26.135-9.503-12.592-6.771-29.817-16.275-50.487-28.392 3.801 9.979 10.691 23.64 23.521 35.757 3.801 3.564 7.365 6.415 11.879 9.622 27.085 18.888 70.326 35.282 87.907 52.15 3.207 3.089 6.415 6.652 7.365 11.048 1.069 4.395-0.832 9.741-4.989 11.404-2.851 1.069-6.058 0.356-8.91-0.594-10.81-3.445-20.67-9.979-28.035-18.651 4.752 20.67 20.076 37.776 38.608 47.874s40.033 13.661 61.179 13.661c11.167 0 8.316 0.356 25.422 1.901 56.189 4.989 77.216 13.186 86.006 16.987 7.365 3.207 13.186 6.415 16.75 8.434-3.683 1.188-7.365 2.97-11.285 3.445-26.016 3.683-52.032 7.246-78.047 10.929 19.126 1.307 36.588 11.642 55.477 15.324 33.737 6.534 66.406-9.147 100.262-4.395 4.395 0.594 9.028 1.663 12.592 4.277s5.465 7.246 3.207 10.335c-1.426 2.138-4.277 3.089-7.128 3.801-10.573 2.613-22.214 2.613-33.262 0 16.512 12.117 38.964 16.987 59.516 15.443s39.321-9.028 55.595-18.888c11.404-6.89 11.285-6.534 20.789-10.454 19.482-7.959 36.826-10.454 49.656-12.236 6.415-0.832 14.968-1.782 25.422-2.257-4.395 7.722-11.167 17.581-21.264 27.204-17.7 16.869-36.707 24.234-47.755 27.56 18.294-5.94 38.37-0.832 57.377-4.039 33.856-5.702 38.489-51.913 97.173-59.278 4.395-0.594 9.028-1.663 13.305 0s7.603 6.177 6.652 10.573c-0.713 2.851-3.089 5.108-5.465 7.009-9.028 7.009-19.957 11.523-31.243 12.83 19.72 7.484 42.409 4.395 61.179-5.346s33.737-25.541 45.498-43.122c5.346-8.078 7.484-10.216 15.8-20.076 13.186-15.681 19.245-20.314 28.035-30.649 6.652-7.84 15.562-19.601 24.115-36.113 0.356 3.089 1.426 7.84 0.594 13.424-4.277 27.323-8.434 54.526-12.711 81.849 7.484-18.057 24.828-30.055 34.925-46.686 18.057-29.698 11.048-69.494 27.204-100.262 2.138-4.039 4.871-8.078 8.91-10.216s9.86-1.663 12.592 2.019c1.901 2.495 2.019 5.821 1.901 8.91-0.475 11.642-4.277 22.927-10.691 32.549 19.007-9.979 31.599-29.58 36.47-50.487s2.376-43.003-3.445-63.792c-4.158-14.968-5.227-16.631-5.108-25.541 0.119-20.551 11.048-31.005 19.482-49.774 5.346-11.879 11.048-30.174 10.335-56.427 0.832 1.307 2.138 3.207 3.445 5.702 12.711 23.877 25.541 47.874 38.37 71.751z"></path>
<path fill="#d16969" d="M960.921 648.731l2.138 0.475c-0.238-2.257-1.069-2.138-2.138-0.475z"></path>
<path fill="#d16969" d="M835.831 890.12l1.069 1.901c1.426-1.663 0.832-2.138-1.069-1.901z"></path>
<path fill="#d16969" d="M571.397 962.227l0.475 1.782c1.782-0.832 1.307-1.426-0.475-1.782z"></path>
<path fill="#d16969" d="M286.768 922.669l-0.95 1.901c2.138 0.356 2.138-0.475 0.95-1.901z"></path>
<path fill="#FFF" d="M6.058 482.302c-24.471 53.695 33.143 64.861 33.143 64.861-24.353-16.156-30.292-46.686-33.143-64.861z"></path>
</svg>
