<!-- Generated by IcoMoon.io -->
<svg version="1.1" xmlns="http://www.w3.org/2000/svg" width="300" height="300" viewBox="0 0 1024 1024">
<title></title>
<g id="icomoon-ignore">
</g>
<path fill="#FFF" d="M759.91 806.414c0 119.982-97.265 217.246-217.246 217.246s-217.246-97.265-217.246-217.246c0-119.982 97.265-217.246 217.246-217.246s217.246 97.265 217.246 217.246z"></path>
<path fill="#FFF" d="M293.735 762.286c26.024-138.042 110.886-173.118 214.87-202.537 0 0-68.908-16.972-81.354-80.336s97.761-99.458 115.412-184.433c11.315-54.312-22.63-53.18-16.972-116.544s99.571-39.602 99.571-39.602 136.91 29.419 176.513-117.675c0 0-58.838 110.886-293.17-11.315-69.926-36.434-167.348 37.339-183.189 75.81s8.373 97.082-7.92 159.54c-27.156 104.097-145.962 58.838-237.613 186.696s-27.156 346.236 28.287 416.389 227.317 157.843 277.215 158.409c6.789 0.113-121.522-85.654-91.651-244.402z"></path>
<path fill="#FFF" d="M987.34 646.874c-63.364 107.492-209.326 55.443-209.326 55.443 54.312 212.72-79.204 296.451-79.204 296.451 335.827-50.917 288.53-351.894 288.53-351.894z"></path>
</svg>
