<!-- Generated by IcoMoon.io -->
<svg version="1.1" xmlns="http://www.w3.org/2000/svg" width="300" height="300" viewBox="0 0 1024 1024">
<title></title>
<g id="icomoon-ignore">
</g>
<path fill="#FFF" d="M1.135 242.945c0-80.944 0-161.887 0-242.945 150.648 0 301.183 0 451.831 0 0.227 1.816 0.568 3.746 0.568 5.563 0 69.591 0 139.182 0.114 208.887 0 4.2-1.476 5.676-5.336 6.812-101.378 29.403-167.45 95.134-190.836 197.648-23.613 103.308 6.698 192.539 87.642 261.676 59.374 50.746 129.078 71.975 207.071 59.147 143.269-23.613 239.652-156.665 218.877-300.843-14.985-104.216-92.75-191.177-194.696-217.401-4.995-1.249-5.903-3.519-5.903-8.060 0.114-68.91 0.114-137.706 0.114-206.616 0-2.271 0.341-4.541 0.568-6.698 150.648 0 301.183 0 451.831 0 0 80.944 0 162.001 0 242.945-62.78 0-125.559-0.114-188.339-0.114-0.681 0-1.249 0.454-1.703 0.568 11.353 12.601 23.046 24.408 33.49 37.35 92.296 114.32 123.97 243.966 93.886 387.463-39.961 190.382-196.286 330.927-393.366 352.61-11.012 1.249-22.137 2.157-33.263 3.292-14.418 0-28.722 0-43.14 0-1.816-0.341-3.633-0.795-5.563-0.908-27.587-1.589-54.946-5.336-81.852-11.58-231.365-53.584-376.451-269.055-345.685-502.918 13.396-101.719 58.352-188.339 130.554-260.995 1.249-1.249 2.384-2.611 4.314-4.768-2.952 0-4.882 0-6.698 0-22.137 0-44.275 0-66.412 0-39.393-0.227-78.787-0.114-118.067-0.114z"></path>
</svg>
