<!-- Generated by IcoMoon.io -->
<svg version="1.1" xmlns="http://www.w3.org/2000/svg" width="300" height="300" viewBox="0 0 1024 1024">
<title></title>
<g id="icomoon-ignore">
</g>
<path fill="#FFF" d="M884.684 234.020c0.391-2.087 1.174-4.044 1.696-6.001 0-0.652 0-1.304 0-1.957-28.698 8.349-57.135 16.958-85.964 24.654-17.48 4.696-35.351 7.957-52.961 11.871-0.913 0.261-1.826 0.261-4.174 0.652 16.828-22.306 33.003-43.569 49.048-64.962-0.261-0.261-0.522-0.652-0.652-0.913-45.786 21.915-91.443 43.83-137.229 65.614-0.261-0.261-0.522-0.522-0.783-0.783 0.913-1.435 1.826-2.87 2.739-4.174 56.614-83.485 113.357-167.101 169.971-250.586 1.565-2.348 2.87-4.957 4.435-7.435-86.616 0-173.102 0-259.457 0-0.652 1.304-1.174 2.609-1.957 3.913-54.918 90.79-109.835 181.581-164.623 272.501-2.218 3.652-4.435 4.826-8.609 4.174-21.784-3-43.699-5.348-65.484-8.609-64.44-9.914-127.837-24.002-189.538-45.004-0.783-0.261-1.696-0.391-2.87-0.652 0.13 1.174 0.13 1.696 0.261 2.348 12.001 63.397 24.132 126.793 36.134 190.19 0.522 2.609 0.522 5.609 0.13 8.218-9.392 50.091-19.045 100.182-28.568 150.404-2.609 14.088-5.348 28.046-8.088 42.917 37.699-13.045 75.398-22.958 113.618-31.307s76.833-15.132 116.749-19.958c-18.784 36.134-36.916 71.093-55.048 106.052 0.261 0.261 0.652 0.391 0.913 0.652 38.090-17.871 76.18-35.873 114.271-53.744 0.261 0.261 0.522 0.522 0.783 0.913-69.789 131.489-139.447 262.979-209.105 394.468 2.087-0.913 3.392-2.348 4.566-3.783 122.88-148.839 245.89-297.677 368.77-446.516 2.348-2.87 4.696-4.174 8.609-3.783 74.745 6.392 148.447 18.523 220.845 37.96 21.263 5.74 42.134 12.523 63.266 18.915 0-0.652 0-1.304 0-1.957-2.218-10.827-4.696-21.524-6.783-32.481-10.044-52.57-20.089-105.27-30.003-157.97-0.522-3.131-0.522-6.522 0-9.653 11.74-61.31 23.35-122.75 35.090-184.19zM472.344 369.031c-27.655 53.222-55.309 106.444-82.833 159.666-1.565 3.131-3.522 4.435-7.044 4.826-65.353 7.175-130.055 17.871-193.973 33.655-0.913 0.261-1.957 0.261-3.522 0.522 0.391-3.131 0.783-6.001 1.174-8.74 6.914-43.047 13.827-86.225 21.002-129.272 1.696-10.697-1.565-20.741-3.131-30.916-6.001-38.742-12.392-77.615-18.654-116.358-0.13-0.913-0.13-1.957-0.261-2.87 32.872 6.522 65.353 13.697 98.095 19.306 32.742 5.74 65.614 9.914 99.008 15.001-13.045 21.524-26.089 43.178-39.134 64.701-13.045 21.654-26.089 43.178-38.482 65.745 57.005-27.915 114.010-55.961 171.145-83.877 0.261 0.261 0.522 0.522 0.783 0.783-1.435 2.478-2.87 5.218-4.174 7.827zM820.374 448.342c6.001 38.612 12.392 77.224 18.654 115.836 0.13 0.913 0.13 1.826 0.261 3.652-71.093-17.349-142.577-29.089-216.149-36.264 35.481-42.917 70.18-85.051 105.009-127.185-0.261-0.261-0.391-0.652-0.652-0.913-44.091 19.176-88.312 38.351-133.577 58.048 1.174-1.957 1.565-3 2.348-3.913 37.96-50.352 76.050-100.704 114.14-150.926 1.435-1.826 4.044-3.261 6.261-3.783 39.786-8.088 79.572-16.045 119.358-23.872 0.913-0.13 1.826-0.261 3.261-0.391-0.261 1.957-0.391 3.522-0.652 5.087-7.175 44.352-14.349 88.834-21.524 133.185-1.696 10.957 1.696 21.132 3.261 31.437z"></path>
</svg>
