<!-- Generated by IcoMoon.io -->
<svg version="1.1" xmlns="http://www.w3.org/2000/svg" width="300" height="300" viewBox="0 0 1024 1024">
<title></title>
<g id="icomoon-ignore">
</g>
<path fill="#FFF" d="M564.638 734.936c-2.101 4.092-4.202 7.63-6.303 9.289-0.885-2.101-2.101-3.981-4.423-5.529-3.539 18.578-12.164 30.3-23.222 38.704 1.659-9.51 3.76-19.241 2.212-27.646-3.649 7.409-8.294 11.279-13.27 12.164-0.774-3.981-1.438-7.741-3.317-8.847-4.092 4.202-6.746 6.524-7.741 6.635-1.216-5.087-2.322-10.616-3.649-13.933-1.659-1.106-3.207-1.106-4.866 0-1.327 3.207-2.433 8.847-3.649 13.933-0.995-0.111-3.649-2.433-7.741-6.635-1.88 1.106-2.543 4.866-3.317 8.847-4.976-0.885-9.621-4.755-13.27-12.164-1.548 8.404 0.553 18.136 2.212 27.646-11.058-8.404-19.684-20.126-23.222-38.704-2.322 1.548-3.539 3.428-4.423 5.529-1.99-1.659-4.092-5.087-6.303-9.289-0.221-0.332-0.663-0.111-0.553 0.221 18.799 68.009 12.385 80.173 15.703 109.588 3.981-4.202 7.962-7.409 12.164-8.847 0.332 2.212 0.995 3.87 2.212 4.423 2.986-5.971 5.971-10.616 8.847-13.27 3.317 8.847 6.524 18.91 9.952 19.905 1.659-5.64 4.092-10.284 7.741-13.27 2.101 5.197 4.202 9.178 6.082 9.842 1.88-0.663 3.981-4.644 6.082-9.842 3.649 2.986 6.082 7.63 7.741 13.27 3.428-0.995 6.635-11.058 9.952-19.905 2.875 2.654 5.861 7.298 8.847 13.27 1.216-0.553 1.88-2.212 2.212-4.423 4.202 1.438 8.183 4.644 12.164 8.847 3.317-29.415-3.096-41.69 15.703-109.588 0.221-0.332-0.332-0.553-0.553-0.221z"></path>
<path fill="#FFF" d="M474.402 643.594c-16.809-17.914-33.175-32.511-47.551-34.281-9.842 12.717-17.693 19.905-25.434 26.54-0.221 11.943 0.332 23.112 11.058 24.328 9.51 3.539 30.41 1.659 50.868 0 8.183-1.769 9.731-9.068 11.058-16.587z"></path>
<path fill="#FFF" d="M492.095 697.78c2.875-3.649 5.529-7.409 8.294-9.731 0 0 1.548-1.99 2.212-1.659 0.774-0.442 2.212 1.659 2.212 1.659 2.654 2.322 5.308 6.082 8.294 9.731 4.313 1.106 6.635 2.212 6.635-3.317-0.995-5.861-8.073-23.665-10.395-32.18-0.221-0.885-1.438-0.995-1.88-0.221-0.885 1.659-1.769 3.87-2.875 5.861 0 0-1.327 3.539-1.99 2.875-0.663 0.663-1.99-2.875-1.99-2.875-1.106-1.99-2.101-4.202-2.875-5.861-0.442-0.774-1.659-0.663-1.88 0.221-2.322 8.515-9.4 26.429-10.395 32.18 0 5.529 2.322 4.423 6.635 3.317z"></path>
<path fill="#FFF" d="M797.305 651.335c-13.049 7.741-16.035 0.553-13.27-15.482 17.362-19.794 28.309-41.137 28.752-65.244-14.929-32.401 0-85.149 0-95.102s-9.51-22.67-19.905-32.069c8.625 17.251 9.952 29.857 0 40.916-19.020 4.313-27.314 55.292-21.785 67.345 0.774 1.659 0.221 3.649-1.327 4.644-16.477 10.174-30.853-4.423-21.121-31.074 11.501-19.352 19.794-38.262 19.905-56.397-3.428-18.91-6.856-37.709-12.164-48.657-5.308-26.982 7.851-53.080 29.857-64.138-48.104 8.073-59.715 36.492-67.456 66.35-8.183 33.507-34.281 14.376-33.175-4.423 16.587-59.715 23.554-75.418-15.482-106.16-12.496-11.722-7.298-31.959 15.482-60.821-26.982 10.616-43.127 23.222-50.868 54.186 5.529 39.81 6.524 61.705-4.423 70.773 9.4-37.819-0.442-64.028-35.387-75.197-34.281-15.482 0-68.562 0-130.488-3.539-21.232-13.27-35.387-27.646-49.762-18.357-22.559-21.232-52.195-2.212-91.784-27.093 15.15-44.233 50.868-42.022 74.091s34.281 93.996-11.058 97.313c-32.069 0-21.785-53.965-13.27-96.207 3.981-19.905-24.549-47.108-35.387-70.773-6.303-13.712 4.092-29.747 2.212-33.175-10.395 8.847-16.477 24.218-15.482 42.022 7.52 26.982 14.818 49.984 14.376 66.35-4.976 35.387-39.81 96.207-44.233 108.371-25.434 53.080 46.445 108.371-24.328 120.536-9.952 0-7.741-17.693-9.952-25.434-5.529-21.011-40.916-30.963-45.339-59.715s21.011-28.752 21.011-59.715c0-36.492-33.175-40.916-33.175-40.916 40.916 42.022-17.693 57.503-35.387 105.054-2.986-0.885-3.317 38.704 15.482 59.715 13.27 17.693 27.646 48.657-22.117 71.879 0 0-32.069 14.376-35.387 42.022-7.741 42.022 28.752 108.371 6.635 116.112-28.752 3.317-6.635-22.117-14.376-37.598-16.587-25.434-12.164-54.186-12.164-54.186-25.434 19.905-12.164 67.456-15.482 71.879s-33.175 25.434-8.847 119.43c11.058 29.857 37.598 47.551 24.328 57.503-14.376 9.952-17.693-23.222-17.693-23.222-3.317-16.587-15.482-24.549-30.963-25.434 12.164 9.952 8.847 29.857 11.058 66.35 4.755 30.079 48.988 60.268 132.7 90.678 16.256 16.366 17.804 32.069 8.847 39.81-13.823 8.736-19.684-12.496-26.54-39.81-18.799 45.339 4.534 79.178 25.434 95.102 0 0 55.292 21.011 67.456 35.387s9.952 19.905 15.482 23.222c14.155 5.419 26.54 11.058 26.54 18.799s-7.741 9.731-27.646 2.212c13.381 35.276 53.080 19.131 61.927 11.058 4.092-3.76 20.679 13.491 28.199 25.876 0.774 1.327 2.765 1.327 3.539 0 8.073-14.486 18.025-34.723 29.083-33.617 12.164 6.635 20.9 9.952 26.54 9.952 8.073 0 14.597-8.294 13.27-8.847 2.654-7.188 16.366-18.467 25.434-17.693-1.659-7.52-28.199-5.419-36.492-1.106-6.082 3.207 13.27-27.646 19.905-18.799 2.322-9.51 4.644-17.583 7.741-18.799 39.81 13.27 97.313-5.529 99.525-43.127 6.635-27.646-23.222-26.54-22.117-44.233 3.317-9.952 29.415-12.496 48.657-7.741 18.025-0.663 31.959-3.76 38.704-11.058 11.058-22.117 24.328-48.657 50.868-53.080 3.87-1.99 8.847-8.847 2.212-14.376-2.212 14.376-18.799 2.212-34.281 7.741-14.376 8.847-15.482 27.646-35.387 25.434-15.26-6.635-13.712-17.251 6.635-32.069 20.679-5.308 36.824-15.813 49.762-29.857 0 0 13.27-16.587 18.799-32.069 9.952-28.752-3.317-102.842 23.222-112.795-22.78-5.971-35.94 29.636-44.233 64.138zM713.261 523.058c-9.289 57.724-31.516 86.587-79.62 98.419-9.952 4.092-8.736 18.357 0 39.81 23.886 23.886 47.551 48.657 45.339 71.879-11.279-13.712-41.137-19.463-50.868-16.587-5.529 3.317-7.741 16.587-27.646 13.27-21.121 7.851-17.583 74.533-14.376 89.572 1.88 8.736-15.039 17.472-13.27 25.434 1.659 7.741 3.317 15.482 5.529 21.011 1.99 4.202-3.87 9.178-2.212 12.164 4.202 7.52 14.818 39.036 0 49.762-2.212 1.548-7.077-22.117-22.117-26.54-9.621-2.765-15.15 4.423-32.069 3.317-7.741-3.317-28.752-4.423-38.704 0-16.919 1.106-22.448-6.082-32.069-3.317-15.039 4.423-19.905 28.088-22.117 26.54-14.818-10.727-4.202-42.243 0-49.762 1.659-2.986-4.202-7.962-2.212-12.164 2.212-5.529 3.87-13.27 5.529-21.011 1.769-7.962-15.15-16.698-13.27-25.434 3.207-15.039 6.746-81.721-14.376-89.572-19.905 3.317-22.117-9.952-27.646-13.27-9.731-2.875-39.589 2.875-50.868 16.587-2.212-23.222 21.453-47.993 45.339-71.879 8.736-21.453 9.952-35.718 0-39.81-48.104-11.832-70.331-40.695-79.62-98.419-1.216-45.339 30.742-75.749 81.832-97.313 18.025-7.63 38.704-11.058 47.551-35.387 1.106-17.693-4.202-19.794-19.905-34.281 19.020-2.322 32.954 6.524 38.704 33.175-9.952 48.657-54.186 43.127-61.927 91.784 2.212 33.175 42.022 44.233 71.879 21.011 0.774-14.376 7.741-26.651 19.905-33.175 0.221 10.727 6.635 23.222 12.164 24.328 1.106 1.106 11.058-3.317 19.905-3.317h1.106c8.847 0 18.799 4.423 19.905 3.317 5.529-1.106 11.943-13.602 12.164-24.328 12.164 6.524 19.131 18.799 19.905 33.175 29.857 23.222 69.667 12.164 71.879-21.011-7.741-48.657-51.974-43.127-61.927-91.784 5.75-26.651 19.684-35.497 38.704-33.175-15.703 14.486-21.011 16.587-19.905 34.281 8.847 24.328 29.526 27.756 47.551 35.387 50.979 21.564 82.937 51.974 81.832 97.313z"></path>
<path fill="#FFF" d="M578.35 609.313c-14.376 1.769-30.742 16.366-47.551 34.281 1.327 7.52 2.875 14.818 11.058 16.587 20.458 1.659 41.358 3.539 50.868 0 10.727-1.216 11.279-12.385 11.058-24.328-7.741-6.635-15.592-13.823-25.434-26.54z"></path>
</svg>
